solid inlet
facet normal -0.999507 0.0314108 1.58994e-19
  outer loop
    vertex -9.980267284282716 0.6279051952931337 -25
    vertex -10 0 -25
    vertex -10 0 -20
  endloop
endfacet
facet normal -0.999507 0.0314108 0
  outer loop
    vertex -9.980267284282716 0.6279051952931337 -25
    vertex -10 0 -20
    vertex -9.980267284282716 0.6279051952931337 -20
  endloop
endfacet
facet normal -0.995562 0.0941083 0
  outer loop
    vertex -9.921147013144779 1.253332335643043 -25
    vertex -9.980267284282716 0.6279051952931337 -20
    vertex -9.921147013144779 1.253332335643043 -20
  endloop
endfacet
facet normal -0.995562 0.0941083 9.4332e-19
  outer loop
    vertex -9.921147013144779 1.253332335643043 -25
    vertex -9.980267284282716 0.6279051952931337 -25
    vertex -9.980267284282716 0.6279051952931337 -20
  endloop
endfacet
facet normal -0.987688 0.156434 0
  outer loop
    vertex -9.822872507286887 1.873813145857246 -25
    vertex -9.921147013144779 1.253332335643043 -20
    vertex -9.822872507286887 1.873813145857246 -20
  endloop
endfacet
facet normal -0.987688 0.156434 8.33137e-19
  outer loop
    vertex -9.822872507286887 1.873813145857246 -25
    vertex -9.921147013144779 1.253332335643043 -25
    vertex -9.921147013144779 1.253332335643043 -20
  endloop
endfacet
facet normal -0.975917 0.218143 0
  outer loop
    vertex -9.685831611286311 2.486898871648548 -25
    vertex -9.822872507286887 1.873813145857246 -20
    vertex -9.685831611286311 2.486898871648548 -20
  endloop
endfacet
facet normal -0.975917 0.218143 1.59591e-19
  outer loop
    vertex -9.685831611286311 2.486898871648548 -25
    vertex -9.822872507286887 1.873813145857246 -25
    vertex -9.822872507286887 1.873813145857246 -20
  endloop
endfacet
facet normal -0.960294 0.278991 0
  outer loop
    vertex -9.510565162951535 3.090169943749474 -25
    vertex -9.685831611286311 2.486898871648548 -20
    vertex -9.510565162951535 3.090169943749474 -20
  endloop
endfacet
facet normal -0.960294 0.278991 1.70632e-19
  outer loop
    vertex -9.510565162951535 3.090169943749474 -25
    vertex -9.685831611286311 2.486898871648548 -25
    vertex -9.685831611286311 2.486898871648548 -20
  endloop
endfacet
facet normal -0.940881 0.338738 0
  outer loop
    vertex -9.297764858882514 3.681245526846779 -25
    vertex -9.510565162951535 3.090169943749474 -20
    vertex -9.297764858882514 3.681245526846779 -20
  endloop
endfacet
facet normal -0.940881 0.338738 -1.0475e-18
  outer loop
    vertex -9.297764858882514 3.681245526846779 -25
    vertex -9.510565162951535 3.090169943749474 -25
    vertex -9.510565162951535 3.090169943749474 -20
  endloop
endfacet
facet normal -0.917755 0.397148 0
  outer loop
    vertex -9.048270524660197 4.257792915650726 -25
    vertex -9.297764858882514 3.681245526846779 -20
    vertex -9.048270524660197 4.257792915650726 -20
  endloop
endfacet
facet normal -0.891007 0.45399 0
  outer loop
    vertex -9.048270524660197 4.257792915650726 -25
    vertex -9.048270524660197 4.257792915650726 -20
    vertex -8.763066800438637 4.817536741017152 -20
  endloop
endfacet
facet normal -0.917755 0.397148 -1.37771e-18
  outer loop
    vertex -9.048270524660197 4.257792915650726 -25
    vertex -9.297764858882514 3.681245526846779 -25
    vertex -9.297764858882514 3.681245526846779 -20
  endloop
endfacet
facet normal -0.860742 0.509041 0
  outer loop
    vertex -8.763066800438637 4.817536741017152 -25
    vertex -8.763066800438637 4.817536741017152 -20
    vertex -8.443279255020151 5.358267949789965 -20
  endloop
endfacet
facet normal -0.891007 0.45399 0
  outer loop
    vertex -8.763066800438637 4.817536741017152 -25
    vertex -9.048270524660197 4.257792915650726 -25
    vertex -8.763066800438637 4.817536741017152 -20
  endloop
endfacet
facet normal -0.827081 0.562083 0
  outer loop
    vertex -8.443279255020151 5.358267949789965 -25
    vertex -8.443279255020151 5.358267949789965 -20
    vertex -8.090169943749475 5.87785252292473 -20
  endloop
endfacet
facet normal -0.860742 0.509041 0
  outer loop
    vertex -8.443279255020151 5.358267949789965 -25
    vertex -8.763066800438637 4.817536741017152 -25
    vertex -8.443279255020151 5.358267949789965 -20
  endloop
endfacet
facet normal -0.827081 0.562083 0
  outer loop
    vertex -8.090169943749475 5.87785252292473 -25
    vertex -8.443279255020151 5.358267949789965 -25
    vertex -8.090169943749475 5.87785252292473 -20
  endloop
endfacet
facet normal -0.790155 0.612907 0
  outer loop
    vertex -7.705132427757894 6.374239897486897 -25
    vertex -8.090169943749475 5.87785252292473 -20
    vertex -7.705132427757894 6.374239897486897 -20
  endloop
endfacet
facet normal -0.790155 0.612907 -9.17375e-19
  outer loop
    vertex -7.705132427757894 6.374239897486897 -25
    vertex -8.090169943749475 5.87785252292473 -25
    vertex -8.090169943749475 5.87785252292473 -20
  endloop
endfacet
facet normal -0.750111 0.661312 0
  outer loop
    vertex -7.289686274214117 6.845471059286885 -25
    vertex -7.705132427757894 6.374239897486897 -20
    vertex -7.289686274214117 6.845471059286885 -20
  endloop
endfacet
facet normal -0.707107 0.707107 0
  outer loop
    vertex -7.289686274214117 6.845471059286885 -25
    vertex -7.289686274214117 6.845471059286885 -20
    vertex -6.845471059286888 7.289686274214113 -20
  endloop
endfacet
facet normal -0.750111 0.661312 -9.82467e-20
  outer loop
    vertex -7.289686274214117 6.845471059286885 -25
    vertex -7.705132427757894 6.374239897486897 -25
    vertex -7.705132427757894 6.374239897486897 -20
  endloop
endfacet
facet normal -0.707107 0.707107 0
  outer loop
    vertex -6.845471059286888 7.289686274214113 -25
    vertex -7.289686274214117 6.845471059286885 -25
    vertex -6.845471059286888 7.289686274214113 -20
  endloop
endfacet
facet normal -0.661312 0.750111 0
  outer loop
    vertex -6.374239897486898 7.70513242775789 -25
    vertex -6.845471059286888 7.289686274214113 -20
    vertex -6.374239897486898 7.70513242775789 -20
  endloop
endfacet
facet normal -0.661312 0.750111 -3.73392e-18
  outer loop
    vertex -6.374239897486898 7.70513242775789 -25
    vertex -6.845471059286888 7.289686274214113 -25
    vertex -6.845471059286888 7.289686274214113 -20
  endloop
endfacet
facet normal -0.612907 0.790155 0
  outer loop
    vertex -5.877852522924734 8.090169943749473 -25
    vertex -6.374239897486898 7.70513242775789 -20
    vertex -5.877852522924734 8.090169943749473 -20
  endloop
endfacet
facet normal -0.612907 0.790155 1.99457e-19
  outer loop
    vertex -5.877852522924734 8.090169943749473 -25
    vertex -6.374239897486898 7.70513242775789 -25
    vertex -6.374239897486898 7.70513242775789 -20
  endloop
endfacet
facet normal -0.562083 0.827081 0
  outer loop
    vertex -5.358267949789967 8.443279255020149 -25
    vertex -5.877852522924734 8.090169943749473 -20
    vertex -5.358267949789967 8.443279255020149 -20
  endloop
endfacet
facet normal -0.509041 0.860742 0
  outer loop
    vertex -5.358267949789967 8.443279255020149 -25
    vertex -5.358267949789967 8.443279255020149 -20
    vertex -4.817536741017153 8.763066800438637 -20
  endloop
endfacet
facet normal -0.562083 0.827081 -3.9325e-18
  outer loop
    vertex -5.358267949789967 8.443279255020149 -25
    vertex -5.877852522924734 8.090169943749473 -25
    vertex -5.877852522924734 8.090169943749473 -20
  endloop
endfacet
facet normal -0.509041 0.860742 0
  outer loop
    vertex -4.817536741017153 8.763066800438637 -25
    vertex -5.358267949789967 8.443279255020149 -25
    vertex -4.817536741017153 8.763066800438637 -20
  endloop
endfacet
facet normal -0.45399 0.891007 0
  outer loop
    vertex -4.257792915650727 9.048270524660197 -25
    vertex -4.817536741017153 8.763066800438637 -20
    vertex -4.257792915650727 9.048270524660197 -20
  endloop
endfacet
facet normal -0.397148 0.917755 0
  outer loop
    vertex -4.257792915650727 9.048270524660197 -25
    vertex -4.257792915650727 9.048270524660197 -20
    vertex -3.681245526846779 9.297764858882514 -20
  endloop
endfacet
facet normal -0.45399 0.891007 -1.20328e-18
  outer loop
    vertex -4.257792915650727 9.048270524660197 -25
    vertex -4.817536741017153 8.763066800438637 -25
    vertex -4.817536741017153 8.763066800438637 -20
  endloop
endfacet
facet normal -0.397148 0.917755 0
  outer loop
    vertex -3.681245526846779 9.297764858882514 -25
    vertex -4.257792915650727 9.048270524660197 -25
    vertex -3.681245526846779 9.297764858882514 -20
  endloop
endfacet
facet normal -0.338738 0.940881 0
  outer loop
    vertex -3.090169943749473 9.510565162951536 -25
    vertex -3.681245526846779 9.297764858882514 -20
    vertex -3.090169943749473 9.510565162951536 -20
  endloop
endfacet
facet normal -0.338738 0.940881 -4.2423e-18
  outer loop
    vertex -3.090169943749473 9.510565162951536 -25
    vertex -3.681245526846779 9.297764858882514 -25
    vertex -3.681245526846779 9.297764858882514 -20
  endloop
endfacet
facet normal -0.278991 0.960294 0
  outer loop
    vertex -2.486898871648545 9.685831611286313 -25
    vertex -3.090169943749473 9.510565162951536 -20
    vertex -2.486898871648545 9.685831611286313 -20
  endloop
endfacet
facet normal -0.278991 0.960294 -5.99989e-19
  outer loop
    vertex -2.486898871648545 9.685831611286313 -25
    vertex -3.090169943749473 9.510565162951536 -25
    vertex -3.090169943749473 9.510565162951536 -20
  endloop
endfacet
facet normal -0.218143 0.975917 0
  outer loop
    vertex -1.873813145857243 9.822872507286887 -25
    vertex -2.486898871648545 9.685831611286313 -20
    vertex -1.873813145857243 9.822872507286887 -20
  endloop
endfacet
facet normal -0.218143 0.975917 6.14618e-19
  outer loop
    vertex -1.873813145857243 9.822872507286887 -25
    vertex -2.486898871648545 9.685831611286313 -25
    vertex -2.486898871648545 9.685831611286313 -20
  endloop
endfacet
facet normal -0.156434 0.987688 0
  outer loop
    vertex -1.253332335643038 9.921147013144779 -25
    vertex -1.873813145857243 9.822872507286887 -20
    vertex -1.253332335643038 9.921147013144779 -20
  endloop
endfacet
facet normal -0.0941083 0.995562 0
  outer loop
    vertex -1.253332335643038 9.921147013144779 -25
    vertex -1.253332335643038 9.921147013144779 -20
    vertex -0.6279051952931286 9.980267284282716 -20
  endloop
endfacet
facet normal -0.156434 0.987688 2.23256e-19
  outer loop
    vertex -1.253332335643038 9.921147013144779 -25
    vertex -1.873813145857243 9.822872507286887 -25
    vertex -1.873813145857243 9.822872507286887 -20
  endloop
endfacet
facet normal -0.0941083 0.995562 0
  outer loop
    vertex -0.6279051952931286 9.980267284282716 -25
    vertex -1.253332335643038 9.921147013144779 -25
    vertex -0.6279051952931286 9.980267284282716 -20
  endloop
endfacet
facet normal -0.0314108 0.999507 0
  outer loop
    vertex 3.82856869892695e-15 10 -25
    vertex -0.6279051952931286 9.980267284282716 -20
    vertex 3.82856869892695e-15 10 -20
  endloop
endfacet
facet normal -0.0314108 0.999507 7.35437e-20
  outer loop
    vertex 3.82856869892695e-15 10 -25
    vertex -0.6279051952931286 9.980267284282716 -25
    vertex -0.6279051952931286 9.980267284282716 -20
  endloop
endfacet
facet normal 0.0314108 0.999507 4.87036e-20
  outer loop
    vertex 0.6279051952931407 9.980267284282716 -25
    vertex 3.82856869892695e-15 10 -25
    vertex 3.82856869892695e-15 10 -20
  endloop
endfacet
facet normal 0.0314108 0.999507 -0
  outer loop
    vertex 0.6279051952931407 9.980267284282716 -25
    vertex 3.82856869892695e-15 10 -20
    vertex 0.6279051952931407 9.980267284282716 -20
  endloop
endfacet
facet normal 0.0941083 0.995562 -0
  outer loop
    vertex 0.6279051952931407 9.980267284282716 -25
    vertex 0.6279051952931407 9.980267284282716 -20
    vertex 1.25333233564305 9.921147013144777 -20
  endloop
endfacet
facet normal 0.0941083 0.995562 -0
  outer loop
    vertex 1.25333233564305 9.921147013144777 -25
    vertex 0.6279051952931407 9.980267284282716 -25
    vertex 1.25333233564305 9.921147013144777 -20
  endloop
endfacet
facet normal 0.156434 0.987688 -0
  outer loop
    vertex 1.25333233564305 9.921147013144777 -25
    vertex 1.25333233564305 9.921147013144777 -20
    vertex 1.873813145857255 9.822872507286885 -20
  endloop
endfacet
facet normal 0.156434 0.987688 -0
  outer loop
    vertex 1.873813145857255 9.822872507286885 -25
    vertex 1.25333233564305 9.921147013144777 -25
    vertex 1.873813145857255 9.822872507286885 -20
  endloop
endfacet
facet normal 0.218143 0.975917 -1.01077e-18
  outer loop
    vertex 2.486898871648557 9.685831611286309 -25
    vertex 1.873813145857255 9.822872507286885 -25
    vertex 1.873813145857255 9.822872507286885 -20
  endloop
endfacet
facet normal 0.218143 0.975917 -0
  outer loop
    vertex 2.486898871648557 9.685831611286309 -25
    vertex 1.873813145857255 9.822872507286885 -20
    vertex 2.486898871648557 9.685831611286309 -20
  endloop
endfacet
facet normal 0.278991 0.960294 -1.12961e-18
  outer loop
    vertex 3.090169943749484 9.510565162951533 -25
    vertex 2.486898871648557 9.685831611286309 -25
    vertex 2.486898871648557 9.685831611286309 -20
  endloop
endfacet
facet normal 0.278991 0.960294 -0
  outer loop
    vertex 3.090169943749484 9.510565162951533 -25
    vertex 2.486898871648557 9.685831611286309 -20
    vertex 3.090169943749484 9.510565162951533 -20
  endloop
endfacet
facet normal 0.338738 0.940881 -0
  outer loop
    vertex 3.090169943749484 9.510565162951533 -25
    vertex 3.090169943749484 9.510565162951533 -20
    vertex 3.68124552684679 9.297764858882511 -20
  endloop
endfacet
facet normal 0.338738 0.940881 -0
  outer loop
    vertex 3.68124552684679 9.297764858882511 -25
    vertex 3.090169943749484 9.510565162951533 -25
    vertex 3.68124552684679 9.297764858882511 -20
  endloop
endfacet
facet normal 0.397148 0.917755 -0
  outer loop
    vertex 4.257792915650736 9.048270524660191 -25
    vertex 3.68124552684679 9.297764858882511 -20
    vertex 4.257792915650736 9.048270524660191 -20
  endloop
endfacet
facet normal 0.397148 0.917755 2.05541e-18
  outer loop
    vertex 4.257792915650736 9.048270524660191 -25
    vertex 3.68124552684679 9.297764858882511 -25
    vertex 3.68124552684679 9.297764858882511 -20
  endloop
endfacet
facet normal 0.45399 0.891007 -0
  outer loop
    vertex 4.817536741017162 8.763066800438629 -25
    vertex 4.257792915650736 9.048270524660191 -20
    vertex 4.817536741017162 8.763066800438629 -20
  endloop
endfacet
facet normal 0.509041 0.860742 -0
  outer loop
    vertex 4.817536741017162 8.763066800438629 -25
    vertex 4.817536741017162 8.763066800438629 -20
    vertex 5.358267949789975 8.443279255020144 -20
  endloop
endfacet
facet normal 0.45399 0.891007 2.76196e-18
  outer loop
    vertex 4.817536741017162 8.763066800438629 -25
    vertex 4.257792915650736 9.048270524660191 -25
    vertex 4.257792915650736 9.048270524660191 -20
  endloop
endfacet
facet normal 0.509041 0.860742 -0
  outer loop
    vertex 5.358267949789975 8.443279255020144 -25
    vertex 4.817536741017162 8.763066800438629 -25
    vertex 5.358267949789975 8.443279255020144 -20
  endloop
endfacet
facet normal 0.562083 0.827081 -0
  outer loop
    vertex 5.877852522924742 8.090169943749467 -25
    vertex 5.358267949789975 8.443279255020144 -20
    vertex 5.877852522924742 8.090169943749467 -20
  endloop
endfacet
facet normal 0.562083 0.827081 3.9325e-18
  outer loop
    vertex 5.877852522924742 8.090169943749467 -25
    vertex 5.358267949789975 8.443279255020144 -25
    vertex 5.358267949789975 8.443279255020144 -20
  endloop
endfacet
facet normal 0.612907 0.790155 -0
  outer loop
    vertex 6.374239897486907 7.705132427757883 -25
    vertex 5.877852522924742 8.090169943749467 -20
    vertex 6.374239897486907 7.705132427757883 -20
  endloop
endfacet
facet normal 0.612907 0.790155 -9.9466e-19
  outer loop
    vertex 6.374239897486907 7.705132427757883 -25
    vertex 5.877852522924742 8.090169943749467 -25
    vertex 5.877852522924742 8.090169943749467 -20
  endloop
endfacet
facet normal 0.661312 0.750111 -0
  outer loop
    vertex 6.845471059286897 7.289686274214105 -25
    vertex 6.374239897486907 7.705132427757883 -20
    vertex 6.845471059286897 7.289686274214105 -20
  endloop
endfacet
facet normal 0.661312 0.750111 3.03234e-18
  outer loop
    vertex 6.845471059286897 7.289686274214105 -25
    vertex 6.374239897486907 7.705132427757883 -25
    vertex 6.374239897486907 7.705132427757883 -20
  endloop
endfacet
facet normal 0.707107 0.707107 -0
  outer loop
    vertex 7.289686274214126 6.845471059286876 -25
    vertex 6.845471059286897 7.289686274214105 -20
    vertex 7.289686274214126 6.845471059286876 -20
  endloop
endfacet
facet normal 0.707107 0.707107 -2.61972e-18
  outer loop
    vertex 7.289686274214126 6.845471059286876 -25
    vertex 6.845471059286897 7.289686274214105 -25
    vertex 6.845471059286897 7.289686274214105 -20
  endloop
endfacet
facet normal 0.750111 0.661312 -0
  outer loop
    vertex 7.705132427757903 6.374239897486885 -25
    vertex 7.289686274214126 6.845471059286876 -20
    vertex 7.705132427757903 6.374239897486885 -20
  endloop
endfacet
facet normal 0.790155 0.612907 -0
  outer loop
    vertex 7.705132427757903 6.374239897486885 -25
    vertex 7.705132427757903 6.374239897486885 -20
    vertex 8.090169943749485 5.877852522924718 -20
  endloop
endfacet
facet normal 0.750111 0.661312 1.13359e-18
  outer loop
    vertex 7.705132427757903 6.374239897486885 -25
    vertex 7.289686274214126 6.845471059286876 -25
    vertex 7.289686274214126 6.845471059286876 -20
  endloop
endfacet
facet normal 0.827081 0.562083 -0
  outer loop
    vertex 8.090169943749485 5.877852522924718 -25
    vertex 8.090169943749485 5.877852522924718 -20
    vertex 8.44327925502016 5.358267949789951 -20
  endloop
endfacet
facet normal 0.790155 0.612907 -0
  outer loop
    vertex 8.090169943749485 5.877852522924718 -25
    vertex 7.705132427757903 6.374239897486885 -25
    vertex 8.090169943749485 5.877852522924718 -20
  endloop
endfacet
facet normal 0.827081 0.562083 -0
  outer loop
    vertex 8.44327925502016 5.358267949789951 -25
    vertex 8.090169943749485 5.877852522924718 -25
    vertex 8.44327925502016 5.358267949789951 -20
  endloop
endfacet
facet normal 0.860742 0.509041 -0
  outer loop
    vertex 8.763066800438645 4.817536741017136 -25
    vertex 8.44327925502016 5.358267949789951 -20
    vertex 8.763066800438645 4.817536741017136 -20
  endloop
endfacet
facet normal 0.891007 0.45399 -0
  outer loop
    vertex 8.763066800438645 4.817536741017136 -25
    vertex 8.763066800438645 4.817536741017136 -20
    vertex 9.048270524660204 4.257792915650709 -20
  endloop
endfacet
facet normal 0.860742 0.509041 -3.36042e-18
  outer loop
    vertex 8.763066800438645 4.817536741017136 -25
    vertex 8.44327925502016 5.358267949789951 -25
    vertex 8.44327925502016 5.358267949789951 -20
  endloop
endfacet
facet normal 0.917755 0.397148 -0
  outer loop
    vertex 9.048270524660204 4.257792915650709 -25
    vertex 9.048270524660204 4.257792915650709 -20
    vertex 9.297764858882523 3.681245526846757 -20
  endloop
endfacet
facet normal 0.891007 0.45399 -0
  outer loop
    vertex 9.048270524660204 4.257792915650709 -25
    vertex 8.763066800438645 4.817536741017136 -25
    vertex 9.048270524660204 4.257792915650709 -20
  endloop
endfacet
facet normal 0.917755 0.397148 -0
  outer loop
    vertex 9.297764858882523 3.681245526846757 -25
    vertex 9.048270524660204 4.257792915650709 -25
    vertex 9.297764858882523 3.681245526846757 -20
  endloop
endfacet
facet normal 0.940881 0.338738 -0
  outer loop
    vertex 9.51056516295154 3.090169943749459 -25
    vertex 9.297764858882523 3.681245526846757 -20
    vertex 9.51056516295154 3.090169943749459 -20
  endloop
endfacet
facet normal 0.940881 0.338738 2.23645e-18
  outer loop
    vertex 9.51056516295154 3.090169943749459 -25
    vertex 9.297764858882523 3.681245526846757 -25
    vertex 9.297764858882523 3.681245526846757 -20
  endloop
endfacet
facet normal 0.960294 0.278991 -0
  outer loop
    vertex 9.685831611286316 2.486898871648527 -25
    vertex 9.51056516295154 3.090169943749459 -20
    vertex 9.685831611286316 2.486898871648527 -20
  endloop
endfacet
facet normal 0.975917 0.218143 -0
  outer loop
    vertex 9.685831611286316 2.486898871648527 -25
    vertex 9.685831611286316 2.486898871648527 -20
    vertex 9.82287250728689 1.873813145857224 -20
  endloop
endfacet
facet normal 0.960294 0.278991 2.23281e-19
  outer loop
    vertex 9.685831611286316 2.486898871648527 -25
    vertex 9.51056516295154 3.090169943749459 -25
    vertex 9.51056516295154 3.090169943749459 -20
  endloop
endfacet
facet normal 0.975917 0.218143 -0
  outer loop
    vertex 9.82287250728689 1.873813145857224 -25
    vertex 9.685831611286316 2.486898871648527 -25
    vertex 9.82287250728689 1.873813145857224 -20
  endloop
endfacet
facet normal 0.987688 0.156434 -0
  outer loop
    vertex 9.921147013144781 1.253332335643019 -25
    vertex 9.82287250728689 1.873813145857224 -20
    vertex 9.921147013144781 1.253332335643019 -20
  endloop
endfacet
facet normal 0.995562 0.0941083 -0
  outer loop
    vertex 9.921147013144781 1.253332335643019 -25
    vertex 9.921147013144781 1.253332335643019 -20
    vertex 9.980267284282716 0.6279051952931093 -20
  endloop
endfacet
facet normal 0.987688 0.156434 -5.69888e-19
  outer loop
    vertex 9.921147013144781 1.253332335643019 -25
    vertex 9.82287250728689 1.873813145857224 -25
    vertex 9.82287250728689 1.873813145857224 -20
  endloop
endfacet
facet normal 0.995562 0.0941083 -0
  outer loop
    vertex 9.980267284282716 0.6279051952931093 -25
    vertex 9.921147013144781 1.253332335643019 -25
    vertex 9.980267284282716 0.6279051952931093 -20
  endloop
endfacet
facet normal 0.999507 0.0314108 1.91121e-19
  outer loop
    vertex 10 -2.542070579185641e-14 -25
    vertex 9.980267284282716 0.6279051952931093 -25
    vertex 9.980267284282716 0.6279051952931093 -20
  endloop
endfacet
facet normal 0.999507 0.0314108 -0
  outer loop
    vertex 10 -2.542070579185641e-14 -25
    vertex 9.980267284282716 0.6279051952931093 -20
    vertex 10 -2.542070579185641e-14 -20
  endloop
endfacet
facet normal 0.999507 -0.0314108 2.0211e-19
  outer loop
    vertex 9.980267284282714 -0.62790519529316 -25
    vertex 10 -2.542070579185641e-14 -25
    vertex 10 -2.542070579185641e-14 -20
  endloop
endfacet
facet normal 0.999507 -0.0314108 0
  outer loop
    vertex 9.980267284282714 -0.62790519529316 -25
    vertex 10 -2.542070579185641e-14 -20
    vertex 9.980267284282714 -0.62790519529316 -20
  endloop
endfacet
facet normal 0.995562 -0.0941083 5.87591e-19
  outer loop
    vertex 9.921147013144775 -1.253332335643069 -25
    vertex 9.980267284282714 -0.62790519529316 -25
    vertex 9.980267284282714 -0.62790519529316 -20
  endloop
endfacet
facet normal 0.995562 -0.0941083 0
  outer loop
    vertex 9.921147013144775 -1.253332335643069 -25
    vertex 9.980267284282714 -0.62790519529316 -20
    vertex 9.921147013144775 -1.253332335643069 -20
  endloop
endfacet
facet normal 0.987688 -0.156434 0
  outer loop
    vertex 9.921147013144775 -1.253332335643069 -25
    vertex 9.921147013144775 -1.253332335643069 -20
    vertex 9.822872507286881 -1.873813145857274 -20
  endloop
endfacet
facet normal 0.987688 -0.156434 0
  outer loop
    vertex 9.822872507286881 -1.873813145857274 -25
    vertex 9.921147013144775 -1.253332335643069 -25
    vertex 9.822872507286881 -1.873813145857274 -20
  endloop
endfacet
facet normal 0.975917 -0.218143 -4.57708e-19
  outer loop
    vertex 9.685831611286304 -2.486898871648576 -25
    vertex 9.822872507286881 -1.873813145857274 -25
    vertex 9.822872507286881 -1.873813145857274 -20
  endloop
endfacet
facet normal 0.975917 -0.218143 0
  outer loop
    vertex 9.685831611286304 -2.486898871648576 -25
    vertex 9.822872507286881 -1.873813145857274 -20
    vertex 9.685831611286304 -2.486898871648576 -20
  endloop
endfacet
facet normal 0.960294 -0.278991 1.13687e-18
  outer loop
    vertex 9.510565162951526 -3.090169943749502 -25
    vertex 9.685831611286304 -2.486898871648576 -25
    vertex 9.685831611286304 -2.486898871648576 -20
  endloop
endfacet
facet normal 0.960294 -0.278991 0
  outer loop
    vertex 9.510565162951526 -3.090169943749502 -25
    vertex 9.685831611286304 -2.486898871648576 -20
    vertex 9.510565162951526 -3.090169943749502 -20
  endloop
endfacet
facet normal 0.940881 -0.338738 3.08158e-18
  outer loop
    vertex 9.297764858882502 -3.681245526846808 -25
    vertex 9.510565162951526 -3.090169943749502 -25
    vertex 9.510565162951526 -3.090169943749502 -20
  endloop
endfacet
facet normal 0.940881 -0.338738 0
  outer loop
    vertex 9.297764858882502 -3.681245526846808 -25
    vertex 9.510565162951526 -3.090169943749502 -20
    vertex 9.297764858882502 -3.681245526846808 -20
  endloop
endfacet
facet normal 0.917755 -0.397148 0
  outer loop
    vertex 9.297764858882502 -3.681245526846808 -25
    vertex 9.297764858882502 -3.681245526846808 -20
    vertex 9.048270524660181 -4.257792915650755 -20
  endloop
endfacet
facet normal 0.917755 -0.397148 0
  outer loop
    vertex 9.048270524660181 -4.257792915650755 -25
    vertex 9.297764858882502 -3.681245526846808 -25
    vertex 9.048270524660181 -4.257792915650755 -20
  endloop
endfacet
facet normal 0.891007 -0.45399 2.82786e-18
  outer loop
    vertex 8.763066800438619 -4.817536741017185 -25
    vertex 9.048270524660181 -4.257792915650755 -25
    vertex 9.048270524660181 -4.257792915650755 -20
  endloop
endfacet
facet normal 0.891007 -0.45399 0
  outer loop
    vertex 8.763066800438619 -4.817536741017185 -25
    vertex 9.048270524660181 -4.257792915650755 -20
    vertex 8.763066800438619 -4.817536741017185 -20
  endloop
endfacet
facet normal 0.860742 -0.509041 3.90109e-18
  outer loop
    vertex 8.443279255020135 -5.358267949789991 -25
    vertex 8.763066800438619 -4.817536741017185 -25
    vertex 8.763066800438619 -4.817536741017185 -20
  endloop
endfacet
facet normal 0.860742 -0.509041 0
  outer loop
    vertex 8.443279255020135 -5.358267949789991 -25
    vertex 8.763066800438619 -4.817536741017185 -20
    vertex 8.443279255020135 -5.358267949789991 -20
  endloop
endfacet
facet normal 0.827081 -0.562083 0
  outer loop
    vertex 8.443279255020135 -5.358267949789991 -25
    vertex 8.443279255020135 -5.358267949789991 -20
    vertex 8.090169943749455 -5.877852522924759 -20
  endloop
endfacet
facet normal 0.827081 -0.562083 0
  outer loop
    vertex 8.090169943749455 -5.877852522924759 -25
    vertex 8.443279255020135 -5.358267949789991 -25
    vertex 8.090169943749455 -5.877852522924759 -20
  endloop
endfacet
facet normal 0.790155 -0.612907 -1.84357e-18
  outer loop
    vertex 7.705132427757871 -6.374239897486924 -25
    vertex 8.090169943749455 -5.877852522924759 -25
    vertex 8.090169943749455 -5.877852522924759 -20
  endloop
endfacet
facet normal 0.790155 -0.612907 0
  outer loop
    vertex 7.705132427757871 -6.374239897486924 -25
    vertex 8.090169943749455 -5.877852522924759 -20
    vertex 7.705132427757871 -6.374239897486924 -20
  endloop
endfacet
facet normal 0.750111 -0.661312 -4.22951e-18
  outer loop
    vertex 7.289686274214091 -6.845471059286913 -25
    vertex 7.705132427757871 -6.374239897486924 -25
    vertex 7.705132427757871 -6.374239897486924 -20
  endloop
endfacet
facet normal 0.750111 -0.661312 0
  outer loop
    vertex 7.289686274214091 -6.845471059286913 -25
    vertex 7.705132427757871 -6.374239897486924 -20
    vertex 7.289686274214091 -6.845471059286913 -20
  endloop
endfacet
facet normal 0.707107 -0.707107 2.61972e-18
  outer loop
    vertex 6.84547105928686 -7.28968627421414 -25
    vertex 7.289686274214091 -6.845471059286913 -25
    vertex 7.289686274214091 -6.845471059286913 -20
  endloop
endfacet
facet normal 0.707107 -0.707107 0
  outer loop
    vertex 6.84547105928686 -7.28968627421414 -25
    vertex 7.289686274214091 -6.845471059286913 -20
    vertex 6.84547105928686 -7.28968627421414 -20
  endloop
endfacet
facet normal 0.661312 -0.750111 7.65155e-19
  outer loop
    vertex 6.374239897486868 -7.705132427757916 -25
    vertex 6.84547105928686 -7.28968627421414 -25
    vertex 6.84547105928686 -7.28968627421414 -20
  endloop
endfacet
facet normal 0.661312 -0.750111 0
  outer loop
    vertex 6.374239897486868 -7.705132427757916 -25
    vertex 6.84547105928686 -7.28968627421414 -20
    vertex 6.374239897486868 -7.705132427757916 -20
  endloop
endfacet
facet normal 0.612907 -0.790155 -3.5293e-18
  outer loop
    vertex 5.877852522924703 -8.090169943749494 -25
    vertex 6.374239897486868 -7.705132427757916 -25
    vertex 6.374239897486868 -7.705132427757916 -20
  endloop
endfacet
facet normal 0.612907 -0.790155 0
  outer loop
    vertex 5.877852522924703 -8.090169943749494 -25
    vertex 6.374239897486868 -7.705132427757916 -20
    vertex 5.877852522924703 -8.090169943749494 -20
  endloop
endfacet
facet normal 0.562083 -0.827081 0
  outer loop
    vertex 5.358267949789941 -8.443279255020167 -25
    vertex 5.877852522924703 -8.090169943749494 -20
    vertex 5.358267949789941 -8.443279255020167 -20
  endloop
endfacet
facet normal 0.562083 -0.827081 -1.32417e-18
  outer loop
    vertex 5.358267949789941 -8.443279255020167 -25
    vertex 5.877852522924703 -8.090169943749494 -25
    vertex 5.877852522924703 -8.090169943749494 -20
  endloop
endfacet
facet normal 0.509041 -0.860742 0
  outer loop
    vertex 4.817536741017129 -8.763066800438649 -25
    vertex 5.358267949789941 -8.443279255020167 -20
    vertex 4.817536741017129 -8.763066800438649 -20
  endloop
endfacet
facet normal 0.509041 -0.860742 2.06677e-18
  outer loop
    vertex 4.817536741017129 -8.763066800438649 -25
    vertex 5.358267949789941 -8.443279255020167 -25
    vertex 5.358267949789941 -8.443279255020167 -20
  endloop
endfacet
facet normal 0.45399 -0.891007 0
  outer loop
    vertex 4.257792915650706 -9.048270524660204 -25
    vertex 4.817536741017129 -8.763066800438649 -20
    vertex 4.257792915650706 -9.048270524660204 -20
  endloop
endfacet
facet normal 0.397148 -0.917755 0
  outer loop
    vertex 4.257792915650706 -9.048270524660204 -25
    vertex 4.257792915650706 -9.048270524660204 -20
    vertex 3.681245526846761 -9.297764858882521 -20
  endloop
endfacet
facet normal 0.45399 -0.891007 1.18883e-19
  outer loop
    vertex 4.257792915650706 -9.048270524660204 -25
    vertex 4.817536741017129 -8.763066800438649 -25
    vertex 4.817536741017129 -8.763066800438649 -20
  endloop
endfacet
facet normal 0.338738 -0.940881 0
  outer loop
    vertex 3.681245526846761 -9.297764858882521 -25
    vertex 3.681245526846761 -9.297764858882521 -20
    vertex 3.090169943749459 -9.51056516295154 -20
  endloop
endfacet
facet normal 0.397148 -0.917755 0
  outer loop
    vertex 3.681245526846761 -9.297764858882521 -25
    vertex 4.257792915650706 -9.048270524660204 -25
    vertex 3.681245526846761 -9.297764858882521 -20
  endloop
endfacet
facet normal 0.338738 -0.940881 0
  outer loop
    vertex 3.090169943749459 -9.51056516295154 -25
    vertex 3.681245526846761 -9.297764858882521 -25
    vertex 3.090169943749459 -9.51056516295154 -20
  endloop
endfacet
facet normal 0.278991 -0.960294 0
  outer loop
    vertex 2.486898871648536 -9.685831611286314 -25
    vertex 3.090169943749459 -9.51056516295154 -20
    vertex 2.486898871648536 -9.685831611286314 -20
  endloop
endfacet
facet normal 0.278991 -0.960294 7.45632e-19
  outer loop
    vertex 2.486898871648536 -9.685831611286314 -25
    vertex 3.090169943749459 -9.51056516295154 -25
    vertex 3.090169943749459 -9.51056516295154 -20
  endloop
endfacet
facet normal 0.218143 -0.975917 0
  outer loop
    vertex 1.873813145857238 -9.822872507286888 -25
    vertex 2.486898871648536 -9.685831611286314 -20
    vertex 1.873813145857238 -9.822872507286888 -20
  endloop
endfacet
facet normal 0.218143 -0.975917 1.2637e-18
  outer loop
    vertex 1.873813145857238 -9.822872507286888 -25
    vertex 2.486898871648536 -9.685831611286314 -25
    vertex 2.486898871648536 -9.685831611286314 -20
  endloop
endfacet
facet normal 0.156434 -0.987688 0
  outer loop
    vertex 1.253332335643037 -9.921147013144779 -25
    vertex 1.873813145857238 -9.822872507286888 -20
    vertex 1.253332335643037 -9.921147013144779 -20
  endloop
endfacet
facet normal 0.156434 -0.987688 8.00331e-19
  outer loop
    vertex 1.253332335643037 -9.921147013144779 -25
    vertex 1.873813145857238 -9.822872507286888 -25
    vertex 1.873813145857238 -9.822872507286888 -20
  endloop
endfacet
facet normal 0.0941083 -0.995562 0
  outer loop
    vertex 0.627905195293132 -9.980267284282716 -25
    vertex 1.253332335643037 -9.921147013144779 -20
    vertex 0.627905195293132 -9.980267284282716 -20
  endloop
endfacet
facet normal 0.0941083 -0.995562 4.67256e-19
  outer loop
    vertex 0.627905195293132 -9.980267284282716 -25
    vertex 1.253332335643037 -9.921147013144779 -25
    vertex 1.253332335643037 -9.921147013144779 -20
  endloop
endfacet
facet normal 0.0314108 -0.999507 -6.88737e-20
  outer loop
    vertex 1.83697019872103e-15 -10 -25
    vertex 0.627905195293132 -9.980267284282716 -25
    vertex 0.627905195293132 -9.980267284282716 -20
  endloop
endfacet
facet normal 0.0314108 -0.999507 0
  outer loop
    vertex 1.83697019872103e-15 -10 -25
    vertex 0.627905195293132 -9.980267284282716 -20
    vertex 1.83697019872103e-15 -10 -20
  endloop
endfacet
facet normal -0.0314108 -0.999507 6.88737e-20
  outer loop
    vertex -0.6279051952931283 -9.980267284282716 -25
    vertex 1.83697019872103e-15 -10 -25
    vertex 1.83697019872103e-15 -10 -20
  endloop
endfacet
facet normal -0.0314108 -0.999507 0
  outer loop
    vertex -0.6279051952931283 -9.980267284282716 -25
    vertex 1.83697019872103e-15 -10 -20
    vertex -0.6279051952931283 -9.980267284282716 -20
  endloop
endfacet
facet normal -0.0941083 -0.995562 -7.0706e-19
  outer loop
    vertex -1.253332335643025 -9.921147013144781 -25
    vertex -0.6279051952931283 -9.980267284282716 -25
    vertex -0.6279051952931283 -9.980267284282716 -20
  endloop
endfacet
facet normal -0.0941083 -0.995562 0
  outer loop
    vertex -1.253332335643025 -9.921147013144781 -25
    vertex -0.6279051952931283 -9.980267284282716 -20
    vertex -1.253332335643025 -9.921147013144781 -20
  endloop
endfacet
facet normal -0.156434 -0.987688 -8.00331e-19
  outer loop
    vertex -1.873813145857225 -9.82287250728689 -25
    vertex -1.253332335643025 -9.921147013144781 -25
    vertex -1.253332335643025 -9.921147013144781 -20
  endloop
endfacet
facet normal -0.156434 -0.987688 0
  outer loop
    vertex -1.873813145857225 -9.82287250728689 -25
    vertex -1.253332335643025 -9.921147013144781 -20
    vertex -1.873813145857225 -9.82287250728689 -20
  endloop
endfacet
facet normal -0.218143 -0.975917 1.55379e-18
  outer loop
    vertex -2.486898871648541 -9.685831611286313 -25
    vertex -1.873813145857225 -9.82287250728689 -25
    vertex -1.873813145857225 -9.82287250728689 -20
  endloop
endfacet
facet normal -0.218143 -0.975917 0
  outer loop
    vertex -2.486898871648541 -9.685831611286313 -25
    vertex -1.873813145857225 -9.82287250728689 -20
    vertex -2.486898871648541 -9.685831611286313 -20
  endloop
endfacet
facet normal -0.278991 -0.960294 1.94294e-18
  outer loop
    vertex -3.090169943749464 -9.510565162951538 -25
    vertex -2.486898871648541 -9.685831611286313 -25
    vertex -2.486898871648541 -9.685831611286313 -20
  endloop
endfacet
facet normal -0.278991 -0.960294 0
  outer loop
    vertex -3.090169943749464 -9.510565162951538 -25
    vertex -2.486898871648541 -9.685831611286313 -20
    vertex -3.090169943749464 -9.510565162951538 -20
  endloop
endfacet
facet normal -0.338738 -0.940881 -2.42841e-18
  outer loop
    vertex -3.681245526846758 -9.297764858882523 -25
    vertex -3.090169943749464 -9.510565162951538 -25
    vertex -3.090169943749464 -9.510565162951538 -20
  endloop
endfacet
facet normal -0.338738 -0.940881 0
  outer loop
    vertex -3.681245526846758 -9.297764858882523 -25
    vertex -3.090169943749464 -9.510565162951538 -20
    vertex -3.681245526846758 -9.297764858882523 -20
  endloop
endfacet
facet normal -0.397148 -0.917755 5.65821e-20
  outer loop
    vertex -4.257792915650702 -9.048270524660207 -25
    vertex -3.681245526846758 -9.297764858882523 -25
    vertex -3.681245526846758 -9.297764858882523 -20
  endloop
endfacet
facet normal -0.397148 -0.917755 0
  outer loop
    vertex -4.257792915650702 -9.048270524660207 -25
    vertex -3.681245526846758 -9.297764858882523 -20
    vertex -4.257792915650702 -9.048270524660207 -20
  endloop
endfacet
facet normal -0.45399 -0.891007 0
  outer loop
    vertex -4.257792915650702 -9.048270524660207 -25
    vertex -4.257792915650702 -9.048270524660207 -20
    vertex -4.817536741017126 -8.763066800438651 -20
  endloop
endfacet
facet normal -0.45399 -0.891007 0
  outer loop
    vertex -4.817536741017126 -8.763066800438651 -25
    vertex -4.257792915650702 -9.048270524660207 -25
    vertex -4.817536741017126 -8.763066800438651 -20
  endloop
endfacet
facet normal -0.509041 -0.860742 -2.06677e-18
  outer loop
    vertex -5.358267949789938 -8.443279255020169 -25
    vertex -4.817536741017126 -8.763066800438651 -25
    vertex -4.817536741017126 -8.763066800438651 -20
  endloop
endfacet
facet normal -0.509041 -0.860742 0
  outer loop
    vertex -5.358267949789938 -8.443279255020169 -25
    vertex -4.817536741017126 -8.763066800438651 -20
    vertex -5.358267949789938 -8.443279255020169 -20
  endloop
endfacet
facet normal -0.562083 -0.827081 0
  outer loop
    vertex -5.358267949789938 -8.443279255020169 -25
    vertex -5.358267949789938 -8.443279255020169 -20
    vertex -5.877852522924702 -8.090169943749498 -20
  endloop
endfacet
facet normal -0.562083 -0.827081 0
  outer loop
    vertex -5.877852522924702 -8.090169943749498 -25
    vertex -5.358267949789938 -8.443279255020169 -25
    vertex -5.877852522924702 -8.090169943749498 -20
  endloop
endfacet
facet normal -0.612907 -0.790155 -4.25768e-19
  outer loop
    vertex -6.374239897486865 -7.705132427757918 -25
    vertex -5.877852522924702 -8.090169943749498 -25
    vertex -5.877852522924702 -8.090169943749498 -20
  endloop
endfacet
facet normal -0.612907 -0.790155 0
  outer loop
    vertex -6.374239897486865 -7.705132427757918 -25
    vertex -5.877852522924702 -8.090169943749498 -20
    vertex -6.374239897486865 -7.705132427757918 -20
  endloop
endfacet
facet normal -0.661312 -0.750111 1.00582e-18
  outer loop
    vertex -6.845471059286854 -7.289686274214145 -25
    vertex -6.374239897486865 -7.705132427757918 -25
    vertex -6.374239897486865 -7.705132427757918 -20
  endloop
endfacet
facet normal -0.661312 -0.750111 0
  outer loop
    vertex -6.845471059286854 -7.289686274214145 -25
    vertex -6.374239897486865 -7.705132427757918 -20
    vertex -6.845471059286854 -7.289686274214145 -20
  endloop
endfacet
facet normal -0.707107 -0.707107 3.73444e-18
  outer loop
    vertex -7.289686274214082 -6.845471059286922 -25
    vertex -6.845471059286854 -7.289686274214145 -25
    vertex -6.845471059286854 -7.289686274214145 -20
  endloop
endfacet
facet normal -0.707107 -0.707107 0
  outer loop
    vertex -7.289686274214082 -6.845471059286922 -25
    vertex -6.845471059286854 -7.289686274214145 -20
    vertex -7.289686274214082 -6.845471059286922 -20
  endloop
endfacet
facet normal -0.750111 -0.661312 0
  outer loop
    vertex -7.289686274214082 -6.845471059286922 -25
    vertex -7.289686274214082 -6.845471059286922 -20
    vertex -7.705132427757859 -6.374239897486937 -20
  endloop
endfacet
facet normal -0.750111 -0.661312 0
  outer loop
    vertex -7.705132427757859 -6.374239897486937 -25
    vertex -7.289686274214082 -6.845471059286922 -25
    vertex -7.705132427757859 -6.374239897486937 -20
  endloop
endfacet
facet normal -0.790155 -0.612907 1.29563e-18
  outer loop
    vertex -8.090169943749441 -5.877852522924776 -25
    vertex -7.705132427757859 -6.374239897486937 -25
    vertex -7.705132427757859 -6.374239897486937 -20
  endloop
endfacet
facet normal -0.790155 -0.612907 0
  outer loop
    vertex -8.090169943749441 -5.877852522924776 -25
    vertex -7.705132427757859 -6.374239897486937 -20
    vertex -8.090169943749441 -5.877852522924776 -20
  endloop
endfacet
facet normal -0.827081 -0.562083 0
  outer loop
    vertex -8.090169943749441 -5.877852522924776 -25
    vertex -8.090169943749441 -5.877852522924776 -20
    vertex -8.443279255020119 -5.358267949790017 -20
  endloop
endfacet
facet normal -0.827081 -0.562083 0
  outer loop
    vertex -8.443279255020119 -5.358267949790017 -25
    vertex -8.090169943749441 -5.877852522924776 -25
    vertex -8.443279255020119 -5.358267949790017 -20
  endloop
endfacet
facet normal -0.860742 -0.509041 3.64159e-18
  outer loop
    vertex -8.763066800438606 -4.817536741017207 -25
    vertex -8.443279255020119 -5.358267949790017 -25
    vertex -8.443279255020119 -5.358267949790017 -20
  endloop
endfacet
facet normal -0.860742 -0.509041 0
  outer loop
    vertex -8.763066800438606 -4.817536741017207 -25
    vertex -8.443279255020119 -5.358267949790017 -20
    vertex -8.763066800438606 -4.817536741017207 -20
  endloop
endfacet
facet normal -0.891007 -0.45399 -9.2526e-19
  outer loop
    vertex -9.048270524660166 -4.257792915650787 -25
    vertex -8.763066800438606 -4.817536741017207 -25
    vertex -8.763066800438606 -4.817536741017207 -20
  endloop
endfacet
facet normal -0.891007 -0.45399 0
  outer loop
    vertex -9.048270524660166 -4.257792915650787 -25
    vertex -8.763066800438606 -4.817536741017207 -20
    vertex -9.048270524660166 -4.257792915650787 -20
  endloop
endfacet
facet normal -0.917755 -0.397148 2.30417e-18
  outer loop
    vertex -9.297764858882488 -3.681245526846845 -25
    vertex -9.048270524660166 -4.257792915650787 -25
    vertex -9.048270524660166 -4.257792915650787 -20
  endloop
endfacet
facet normal -0.917755 -0.397148 0
  outer loop
    vertex -9.297764858882488 -3.681245526846845 -25
    vertex -9.048270524660166 -4.257792915650787 -20
    vertex -9.297764858882488 -3.681245526846845 -20
  endloop
endfacet
facet normal -0.940881 -0.338738 2.43243e-18
  outer loop
    vertex -9.510565162951513 -3.090169943749544 -25
    vertex -9.297764858882488 -3.681245526846845 -25
    vertex -9.297764858882488 -3.681245526846845 -20
  endloop
endfacet
facet normal -0.940881 -0.338738 0
  outer loop
    vertex -9.510565162951513 -3.090169943749544 -25
    vertex -9.297764858882488 -3.681245526846845 -20
    vertex -9.510565162951513 -3.090169943749544 -20
  endloop
endfacet
facet normal -0.960294 -0.278991 -7.60164e-19
  outer loop
    vertex -9.685831611286291 -2.486898871648622 -25
    vertex -9.510565162951513 -3.090169943749544 -25
    vertex -9.510565162951513 -3.090169943749544 -20
  endloop
endfacet
facet normal -0.960294 -0.278991 0
  outer loop
    vertex -9.685831611286291 -2.486898871648622 -25
    vertex -9.510565162951513 -3.090169943749544 -20
    vertex -9.685831611286291 -2.486898871648622 -20
  endloop
endfacet
facet normal -0.975917 -0.218143 0
  outer loop
    vertex -9.685831611286291 -2.486898871648622 -25
    vertex -9.685831611286291 -2.486898871648622 -20
    vertex -9.822872507286872 -1.873813145857326 -20
  endloop
endfacet
facet normal -0.975917 -0.218143 0
  outer loop
    vertex -9.822872507286872 -1.873813145857326 -25
    vertex -9.685831611286291 -2.486898871648622 -25
    vertex -9.822872507286872 -1.873813145857326 -20
  endloop
endfacet
facet normal -0.987688 -0.156434 -1.00999e-18
  outer loop
    vertex -9.921147013144768 -1.253332335643126 -25
    vertex -9.822872507286872 -1.873813145857326 -25
    vertex -9.822872507286872 -1.873813145857326 -20
  endloop
endfacet
facet normal -0.987688 -0.156434 0
  outer loop
    vertex -9.921147013144768 -1.253332335643126 -25
    vertex -9.822872507286872 -1.873813145857326 -20
    vertex -9.921147013144768 -1.253332335643126 -20
  endloop
endfacet
facet normal -0.995562 -0.0941083 0
  outer loop
    vertex -9.980267284282711 -0.6279051952932213 -25
    vertex -9.921147013144768 -1.253332335643126 -20
    vertex -9.980267284282711 -0.6279051952932213 -20
  endloop
endfacet
facet normal -0.995562 -0.0941083 3.00405e-19
  outer loop
    vertex -9.980267284282711 -0.6279051952932213 -25
    vertex -9.921147013144768 -1.253332335643126 -25
    vertex -9.921147013144768 -1.253332335643126 -20
  endloop
endfacet
facet normal -0.999507 -0.0314108 8.16251e-20
  outer loop
    vertex -10 -2.449293598294707e-15 -25
    vertex -9.980267284282711 -0.6279051952932213 -25
    vertex -9.980267284282711 -0.6279051952932213 -20
  endloop
endfacet
facet normal -0.999507 -0.0314108 0
  outer loop
    vertex -10 -2.449293598294707e-15 -25
    vertex -9.980267284282711 -0.6279051952932213 -20
    vertex -10 -2.449293598294707e-15 -20
  endloop
endfacet
facet normal 0 0 -1
  outer loop
    vertex 7.705132427757871 -6.374239897486924 -25
    vertex 7.289686274214091 -6.845471059286913 -25
    vertex 6.84547105928686 -7.28968627421414 -25
  endloop
endfacet
facet normal 0 0 -1
  outer loop
    vertex 5.877852522924703 -8.090169943749494 -25
    vertex 6.84547105928686 -7.28968627421414 -25
    vertex 6.374239897486868 -7.705132427757916 -25
  endloop
endfacet
facet normal 0 0 -1
  outer loop
    vertex 8.763066800438621 -4.817536741017181 -25
    vertex 8.443279255020133 -5.358267949789994 -25
    vertex 8.090169943749455 -5.877852522924759 -25
  endloop
endfacet
facet normal 0 0 -1
  outer loop
    vertex 8.763066800438621 -4.817536741017181 -25
    vertex 8.090169943749455 -5.877852522924759 -25
    vertex 7.705132427757871 -6.374239897486924 -25
  endloop
endfacet
facet normal 0 0 -1
  outer loop
    vertex 9.048270524660181 -4.257792915650755 -25
    vertex 7.705132427757871 -6.374239897486924 -25
    vertex 6.84547105928686 -7.28968627421414 -25
  endloop
endfacet
facet normal 0 0 -1
  outer loop
    vertex 9.048270524660181 -4.257792915650755 -25
    vertex 8.763066800438621 -4.817536741017181 -25
    vertex 7.705132427757871 -6.374239897486924 -25
  endloop
endfacet
facet normal 0 0 -1
  outer loop
    vertex 4.257792915650706 -9.048270524660204 -25
    vertex 5.877852522924703 -8.090169943749494 -25
    vertex 5.358267949789941 -8.443279255020167 -25
  endloop
endfacet
facet normal 0 0 -1
  outer loop
    vertex 4.257792915650706 -9.048270524660204 -25
    vertex 5.358267949789941 -8.443279255020167 -25
    vertex 4.817536741017129 -8.763066800438649 -25
  endloop
endfacet
facet normal 0 0 -1
  outer loop
    vertex 9.510565162951526 -3.090169943749502 -25
    vertex 9.297764858882502 -3.681245526846809 -25
    vertex 9.048270524660181 -4.257792915650755 -25
  endloop
endfacet
facet normal 0 0 -1
  outer loop
    vertex 3.090169943749459 -9.51056516295154 -25
    vertex 6.84547105928686 -7.28968627421414 -25
    vertex 5.877852522924703 -8.090169943749494 -25
  endloop
endfacet
facet normal 0 0 -1
  outer loop
    vertex 3.090169943749459 -9.51056516295154 -25
    vertex 9.048270524660181 -4.257792915650755 -25
    vertex 6.84547105928686 -7.28968627421414 -25
  endloop
endfacet
facet normal 0 0 -1
  outer loop
    vertex 3.090169943749459 -9.51056516295154 -25
    vertex 5.877852522924703 -8.090169943749494 -25
    vertex 4.257792915650706 -9.048270524660204 -25
  endloop
endfacet
facet normal 0 0 -1
  outer loop
    vertex 3.090169943749459 -9.51056516295154 -25
    vertex 4.257792915650706 -9.048270524660204 -25
    vertex 3.681245526846761 -9.297764858882521 -25
  endloop
endfacet
facet normal 0 0 -1
  outer loop
    vertex 1.873813145857238 -9.822872507286888 -25
    vertex 3.090169943749459 -9.51056516295154 -25
    vertex 2.486898871648536 -9.685831611286314 -25
  endloop
endfacet
facet normal 0 0 -1
  outer loop
    vertex 9.980267284282714 -0.6279051952931596 -25
    vertex 9.921147013144775 -1.253332335643069 -25
    vertex 9.822872507286881 -1.873813145857273 -25
  endloop
endfacet
facet normal 0 0 -1
  outer loop
    vertex 9.980267284282716 0.6279051952931098 -25
    vertex 9.980267284282714 -0.6279051952931596 -25
    vertex 9.822872507286881 -1.873813145857273 -25
  endloop
endfacet
facet normal 0 -0 -1
  outer loop
    vertex 9.980267284282716 0.6279051952931098 -25
    vertex 10 -2.486899575160351e-14 -25
    vertex 9.980267284282714 -0.6279051952931596 -25
  endloop
endfacet
facet normal 0 0 -1
  outer loop
    vertex 9.980267284282716 0.6279051952931098 -25
    vertex 9.822872507286881 -1.873813145857273 -25
    vertex 9.685831611286304 -2.486898871648576 -25
  endloop
endfacet
facet normal 0 0 -1
  outer loop
    vertex 9.980267284282716 0.6279051952931098 -25
    vertex 9.685831611286304 -2.486898871648576 -25
    vertex 9.510565162951526 -3.090169943749502 -25
  endloop
endfacet
facet normal 0 0 -1
  outer loop
    vertex -0.6279051952931276 -9.980267284282716 -25
    vertex 3.090169943749459 -9.51056516295154 -25
    vertex 1.873813145857238 -9.822872507286888 -25
  endloop
endfacet
facet normal 0 0 -1
  outer loop
    vertex -0.6279051952931276 -9.980267284282716 -25
    vertex 1.873813145857238 -9.822872507286888 -25
    vertex 1.253332335643037 -9.921147013144779 -25
  endloop
endfacet
facet normal 0 0 -1
  outer loop
    vertex -0.6279051952931276 -9.980267284282716 -25
    vertex 1.253332335643037 -9.921147013144779 -25
    vertex 0.6279051952931312 -9.980267284282716 -25
  endloop
endfacet
facet normal 0 0 -1
  outer loop
    vertex -0.6279051952931276 -9.980267284282716 -25
    vertex 0.6279051952931312 -9.980267284282716 -25
    vertex 1.77635683940025e-15 -10 -25
  endloop
endfacet
facet normal 0 0 -1
  outer loop
    vertex -1.253332335643034 -9.921147013144779 -25
    vertex 3.090169943749459 -9.51056516295154 -25
    vertex -0.6279051952931276 -9.980267284282716 -25
  endloop
endfacet
facet normal 0 0 -1
  outer loop
    vertex -2.486898871648531 -9.685831611286314 -25
    vertex 3.090169943749459 -9.51056516295154 -25
    vertex -1.253332335643034 -9.921147013144779 -25
  endloop
endfacet
facet normal 0 0 -1
  outer loop
    vertex -2.486898871648531 -9.685831611286314 -25
    vertex -1.253332335643034 -9.921147013144779 -25
    vertex -1.873813145857234 -9.82287250728689 -25
  endloop
endfacet
facet normal 0 0 -1
  outer loop
    vertex 9.510565162951542 3.090169943749455 -25
    vertex 9.685831611286316 2.486898871648528 -25
    vertex 9.82287250728689 1.873813145857223 -25
  endloop
endfacet
facet normal 0 -0 -1
  outer loop
    vertex 9.297764858882521 3.681245526846761 -25
    vertex 9.510565162951526 -3.090169943749502 -25
    vertex 9.048270524660181 -4.257792915650755 -25
  endloop
endfacet
facet normal 0 0 -1
  outer loop
    vertex 9.297764858882521 3.681245526846761 -25
    vertex 9.82287250728689 1.873813145857223 -25
    vertex 9.921147013144781 1.253332335643019 -25
  endloop
endfacet
facet normal 0 0 -1
  outer loop
    vertex 9.297764858882521 3.681245526846761 -25
    vertex 9.921147013144781 1.253332335643019 -25
    vertex 9.980267284282716 0.6279051952931098 -25
  endloop
endfacet
facet normal 0 0 -1
  outer loop
    vertex 9.297764858882521 3.681245526846761 -25
    vertex 9.510565162951542 3.090169943749455 -25
    vertex 9.82287250728689 1.873813145857223 -25
  endloop
endfacet
facet normal 0 0 -1
  outer loop
    vertex 9.297764858882521 3.681245526846761 -25
    vertex 9.980267284282716 0.6279051952931098 -25
    vertex 9.510565162951526 -3.090169943749502 -25
  endloop
endfacet
facet normal 0 0 -1
  outer loop
    vertex -4.257792915650702 -9.048270524660207 -25
    vertex -2.486898871648531 -9.685831611286314 -25
    vertex -3.090169943749455 -9.510565162951542 -25
  endloop
endfacet
facet normal 0 0 -1
  outer loop
    vertex -4.257792915650702 -9.048270524660207 -25
    vertex -3.090169943749455 -9.510565162951542 -25
    vertex -3.681245526846759 -9.297764858882523 -25
  endloop
endfacet
facet normal 0 0 -1
  outer loop
    vertex -4.817536741017125 -8.763066800438651 -25
    vertex -2.486898871648531 -9.685831611286314 -25
    vertex -4.257792915650702 -9.048270524660207 -25
  endloop
endfacet
facet normal 0 0 -1
  outer loop
    vertex 8.763066800438645 4.817536741017136 -25
    vertex 9.048270524660204 4.257792915650709 -25
    vertex 9.297764858882521 3.681245526846761 -25
  endloop
endfacet
facet normal 0 0 -1
  outer loop
    vertex -5.358267949789937 -8.443279255020169 -25
    vertex -2.486898871648531 -9.685831611286314 -25
    vertex -4.817536741017125 -8.763066800438651 -25
  endloop
endfacet
facet normal 0 0 -1
  outer loop
    vertex 8.44327925502016 5.358267949789951 -25
    vertex 8.763066800438645 4.817536741017136 -25
    vertex 9.297764858882521 3.681245526846761 -25
  endloop
endfacet
facet normal 0 0 -1
  outer loop
    vertex -6.374239897486866 -7.705132427757918 -25
    vertex -5.358267949789937 -8.443279255020169 -25
    vertex -5.877852522924702 -8.090169943749498 -25
  endloop
endfacet
facet normal 0 0 -1
  outer loop
    vertex -6.374239897486866 -7.705132427757918 -25
    vertex -2.486898871648531 -9.685831611286314 -25
    vertex -5.358267949789937 -8.443279255020169 -25
  endloop
endfacet
facet normal 0 0 -1
  outer loop
    vertex 7.705132427757903 6.374239897486884 -25
    vertex 8.090169943749485 5.877852522924718 -25
    vertex 8.44327925502016 5.358267949789951 -25
  endloop
endfacet
facet normal 0 0 -1
  outer loop
    vertex 7.705132427757903 6.374239897486884 -25
    vertex 8.44327925502016 5.358267949789951 -25
    vertex 9.297764858882521 3.681245526846761 -25
  endloop
endfacet
facet normal 0 0 -1
  outer loop
    vertex 6.374239897486907 7.705132427757881 -25
    vertex 6.845471059286897 7.289686274214105 -25
    vertex 7.289686274214126 6.845471059286876 -25
  endloop
endfacet
facet normal 0 0 -1
  outer loop
    vertex 6.374239897486907 7.705132427757881 -25
    vertex 7.289686274214126 6.845471059286876 -25
    vertex 7.705132427757903 6.374239897486884 -25
  endloop
endfacet
facet normal 0 0 -1
  outer loop
    vertex 6.374239897486907 7.705132427757881 -25
    vertex 9.297764858882521 3.681245526846761 -25
    vertex 9.048270524660181 -4.257792915650755 -25
  endloop
endfacet
facet normal 0 0 -1
  outer loop
    vertex 6.374239897486907 7.705132427757881 -25
    vertex 7.705132427757903 6.374239897486884 -25
    vertex 9.297764858882521 3.681245526846761 -25
  endloop
endfacet
facet normal 0 0 -1
  outer loop
    vertex -8.090169943749441 -5.877852522924776 -25
    vertex -6.845471059286854 -7.289686274214145 -25
    vertex -7.289686274214084 -6.845471059286922 -25
  endloop
endfacet
facet normal 0 0 -1
  outer loop
    vertex -8.090169943749441 -5.877852522924776 -25
    vertex -7.289686274214084 -6.845471059286922 -25
    vertex -7.70513242775786 -6.374239897486937 -25
  endloop
endfacet
facet normal 0 0 -1
  outer loop
    vertex -8.443279255020119 -5.358267949790017 -25
    vertex -6.845471059286854 -7.289686274214145 -25
    vertex -8.090169943749441 -5.877852522924776 -25
  endloop
endfacet
facet normal 0 0 -1
  outer loop
    vertex -9.048270524660168 -4.257792915650787 -25
    vertex -8.443279255020119 -5.358267949790017 -25
    vertex -8.763066800438608 -4.817536741017207 -25
  endloop
endfacet
facet normal 0 0 -1
  outer loop
    vertex 4.257792915650736 9.04827052466019 -25
    vertex 4.817536741017162 8.763066800438629 -25
    vertex 5.358267949789975 8.443279255020144 -25
  endloop
endfacet
facet normal 0 0 -1
  outer loop
    vertex 4.257792915650736 9.04827052466019 -25
    vertex 5.358267949789975 8.443279255020144 -25
    vertex 5.877852522924742 8.090169943749466 -25
  endloop
endfacet
facet normal 0 0 -1
  outer loop
    vertex 4.257792915650736 9.04827052466019 -25
    vertex 5.877852522924742 8.090169943749466 -25
    vertex 6.374239897486907 7.705132427757881 -25
  endloop
endfacet
facet normal 0 0 -1
  outer loop
    vertex 4.257792915650736 9.04827052466019 -25
    vertex 6.374239897486907 7.705132427757881 -25
    vertex 9.048270524660181 -4.257792915650755 -25
  endloop
endfacet
facet normal 0 0 -1
  outer loop
    vertex -9.297764858882488 -3.681245526846845 -25
    vertex -6.845471059286854 -7.289686274214145 -25
    vertex -8.443279255020119 -5.358267949790017 -25
  endloop
endfacet
facet normal 0 0 -1
  outer loop
    vertex -9.297764858882488 -3.681245526846845 -25
    vertex -8.443279255020119 -5.358267949790017 -25
    vertex -9.048270524660168 -4.257792915650787 -25
  endloop
endfacet
facet normal 0 0 -1
  outer loop
    vertex -9.297764858882488 -3.681245526846845 -25
    vertex -6.374239897486866 -7.705132427757918 -25
    vertex -6.845471059286854 -7.289686274214145 -25
  endloop
endfacet
facet normal 0 0 -1
  outer loop
    vertex 3.090169943749483 9.510565162951533 -25
    vertex 3.681245526846791 9.297764858882509 -25
    vertex 4.257792915650736 9.04827052466019 -25
  endloop
endfacet
facet normal 0 0 -1
  outer loop
    vertex -9.685831611286289 -2.486898871648622 -25
    vertex -6.374239897486866 -7.705132427757918 -25
    vertex -9.297764858882488 -3.681245526846845 -25
  endloop
endfacet
facet normal 0 0 -1
  outer loop
    vertex -9.685831611286289 -2.486898871648622 -25
    vertex 9.048270524660181 -4.257792915650755 -25
    vertex 3.090169943749459 -9.51056516295154 -25
  endloop
endfacet
facet normal 0 0 -1
  outer loop
    vertex -9.685831611286289 -2.486898871648622 -25
    vertex 3.090169943749459 -9.51056516295154 -25
    vertex -2.486898871648531 -9.685831611286314 -25
  endloop
endfacet
facet normal 0 0 -1
  outer loop
    vertex -9.685831611286289 -2.486898871648622 -25
    vertex -9.297764858882488 -3.681245526846845 -25
    vertex -9.510565162951515 -3.090169943749544 -25
  endloop
endfacet
facet normal 0 0 -1
  outer loop
    vertex -9.685831611286289 -2.486898871648622 -25
    vertex -2.486898871648531 -9.685831611286314 -25
    vertex -6.374239897486866 -7.705132427757918 -25
  endloop
endfacet
facet normal 0 0 -1
  outer loop
    vertex 1.25333233564305 9.921147013144775 -25
    vertex 1.873813145857255 9.822872507286885 -25
    vertex 2.486898871648557 9.685831611286311 -25
  endloop
endfacet
facet normal 0 0 -1
  outer loop
    vertex 1.25333233564305 9.921147013144775 -25
    vertex 2.486898871648557 9.685831611286311 -25
    vertex 3.090169943749483 9.510565162951533 -25
  endloop
endfacet
facet normal 0 0 -1
  outer loop
    vertex 5.329070518200751e-15 10 -25
    vertex 0.62790519529314 9.980267284282718 -25
    vertex 1.25333233564305 9.921147013144775 -25
  endloop
endfacet
facet normal 0 -0 -1
  outer loop
    vertex -9.980267284282718 0.6279051952931329 -25
    vertex -9.980267284282711 -0.6279051952932218 -25
    vertex -10 -1.77635683940025e-15 -25
  endloop
endfacet
facet normal 0 0 -1
  outer loop
    vertex -1.253332335643037 9.921147013144779 -25
    vertex 1.25333233564305 9.921147013144775 -25
    vertex 3.090169943749483 9.510565162951533 -25
  endloop
endfacet
facet normal 0 0 -1
  outer loop
    vertex -1.253332335643037 9.921147013144779 -25
    vertex -0.6279051952931294 9.980267284282718 -25
    vertex 5.329070518200751e-15 10 -25
  endloop
endfacet
facet normal 0 0 -1
  outer loop
    vertex -1.253332335643037 9.921147013144779 -25
    vertex 3.090169943749483 9.510565162951533 -25
    vertex 4.257792915650736 9.04827052466019 -25
  endloop
endfacet
facet normal 0 0 -1
  outer loop
    vertex -1.253332335643037 9.921147013144779 -25
    vertex 5.329070518200751e-15 10 -25
    vertex 1.25333233564305 9.921147013144775 -25
  endloop
endfacet
facet normal 0 0 -1
  outer loop
    vertex -9.921147013144779 1.253332335643043 -25
    vertex -9.980267284282711 -0.6279051952932218 -25
    vertex -9.980267284282718 0.6279051952931329 -25
  endloop
endfacet
facet normal 0 0 -1
  outer loop
    vertex -9.921147013144779 1.253332335643043 -25
    vertex -9.685831611286289 -2.486898871648622 -25
    vertex -9.822872507286874 -1.873813145857326 -25
  endloop
endfacet
facet normal 0 0 -1
  outer loop
    vertex -9.921147013144779 1.253332335643043 -25
    vertex -9.822872507286874 -1.873813145857326 -25
    vertex -9.921147013144768 -1.253332335643126 -25
  endloop
endfacet
facet normal 0 -0 -1
  outer loop
    vertex -9.921147013144779 1.253332335643043 -25
    vertex -9.921147013144768 -1.253332335643126 -25
    vertex -9.980267284282711 -0.6279051952932218 -25
  endloop
endfacet
facet normal 0 0 -1
  outer loop
    vertex -2.486898871648545 9.685831611286311 -25
    vertex -1.873813145857243 9.822872507286888 -25
    vertex -1.253332335643037 9.921147013144779 -25
  endloop
endfacet
facet normal 0 0 -1
  outer loop
    vertex -9.685831611286311 2.486898871648549 -25
    vertex -9.921147013144779 1.253332335643043 -25
    vertex -9.822872507286888 1.873813145857246 -25
  endloop
endfacet
facet normal 0 -0 -1
  outer loop
    vertex -9.685831611286311 2.486898871648549 -25
    vertex -9.685831611286289 -2.486898871648622 -25
    vertex -9.921147013144779 1.253332335643043 -25
  endloop
endfacet
facet normal 0 0 -1
  outer loop
    vertex -9.048270524660197 4.257792915650725 -25
    vertex -9.510565162951536 3.090169943749475 -25
    vertex -9.297764858882516 3.68124552684678 -25
  endloop
endfacet
facet normal 0 0 -1
  outer loop
    vertex -4.257792915650727 9.048270524660197 -25
    vertex -3.681245526846778 9.297764858882516 -25
    vertex -3.090169943749473 9.510565162951536 -25
  endloop
endfacet
facet normal 0 0 -1
  outer loop
    vertex -4.257792915650727 9.048270524660197 -25
    vertex -3.090169943749473 9.510565162951536 -25
    vertex -2.486898871648545 9.685831611286311 -25
  endloop
endfacet
facet normal 0 0 -1
  outer loop
    vertex -4.817536741017154 8.763066800438637 -25
    vertex -2.486898871648545 9.685831611286311 -25
    vertex -1.253332335643037 9.921147013144779 -25
  endloop
endfacet
facet normal 0 0 -1
  outer loop
    vertex -4.817536741017154 8.763066800438637 -25
    vertex -4.257792915650727 9.048270524660197 -25
    vertex -2.486898871648545 9.685831611286311 -25
  endloop
endfacet
facet normal 0 0 -1
  outer loop
    vertex -5.358267949789967 8.443279255020151 -25
    vertex -4.817536741017154 8.763066800438637 -25
    vertex -1.253332335643037 9.921147013144779 -25
  endloop
endfacet
facet normal 0 0 -1
  outer loop
    vertex -8.443279255020151 5.358267949789965 -25
    vertex -9.048270524660197 4.257792915650725 -25
    vertex -8.763066800438637 4.817536741017152 -25
  endloop
endfacet
facet normal 0 0 -1
  outer loop
    vertex -8.443279255020151 5.358267949789965 -25
    vertex -9.510565162951536 3.090169943749475 -25
    vertex -9.048270524660197 4.257792915650725 -25
  endloop
endfacet
facet normal 0 0 -1
  outer loop
    vertex -8.090169943749473 5.87785252292473 -25
    vertex -9.685831611286311 2.486898871648549 -25
    vertex -9.510565162951536 3.090169943749475 -25
  endloop
endfacet
facet normal 0 0 -1
  outer loop
    vertex -8.090169943749473 5.87785252292473 -25
    vertex -9.685831611286289 -2.486898871648622 -25
    vertex -9.685831611286311 2.486898871648549 -25
  endloop
endfacet
facet normal 0 0 -1
  outer loop
    vertex -8.090169943749473 5.87785252292473 -25
    vertex -9.510565162951536 3.090169943749475 -25
    vertex -8.443279255020151 5.358267949789965 -25
  endloop
endfacet
facet normal 0 0 -1
  outer loop
    vertex -6.374239897486898 7.705132427757889 -25
    vertex -5.877852522924734 8.090169943749473 -25
    vertex -5.358267949789967 8.443279255020151 -25
  endloop
endfacet
facet normal 0 0 -1
  outer loop
    vertex -7.289686274214116 6.845471059286886 -25
    vertex -8.090169943749473 5.87785252292473 -25
    vertex -7.705132427757896 6.374239897486895 -25
  endloop
endfacet
facet normal 0 0 -1
  outer loop
    vertex -6.845471059286886 7.289686274214112 -25
    vertex 4.257792915650736 9.04827052466019 -25
    vertex 9.048270524660181 -4.257792915650755 -25
  endloop
endfacet
facet normal 0 -0 -1
  outer loop
    vertex -6.845471059286886 7.289686274214112 -25
    vertex 9.048270524660181 -4.257792915650755 -25
    vertex -9.685831611286289 -2.486898871648622 -25
  endloop
endfacet
facet normal 0 0 -1
  outer loop
    vertex -6.845471059286886 7.289686274214112 -25
    vertex -1.253332335643037 9.921147013144779 -25
    vertex 4.257792915650736 9.04827052466019 -25
  endloop
endfacet
facet normal 0 0 -1
  outer loop
    vertex -6.845471059286886 7.289686274214112 -25
    vertex -6.374239897486898 7.705132427757889 -25
    vertex -5.358267949789967 8.443279255020151 -25
  endloop
endfacet
facet normal 0 0 -1
  outer loop
    vertex -6.845471059286886 7.289686274214112 -25
    vertex -9.685831611286289 -2.486898871648622 -25
    vertex -8.090169943749473 5.87785252292473 -25
  endloop
endfacet
facet normal 0 0 -1
  outer loop
    vertex -6.845471059286886 7.289686274214112 -25
    vertex -5.358267949789967 8.443279255020151 -25
    vertex -1.253332335643037 9.921147013144779 -25
  endloop
endfacet
facet normal 0 0 -1
  outer loop
    vertex -6.845471059286886 7.289686274214112 -25
    vertex -8.090169943749473 5.87785252292473 -25
    vertex -7.289686274214116 6.845471059286886 -25
  endloop
endfacet
endsolid inlet
solid outlet
facet normal 0 0 1
  outer loop
    vertex 50 50 100
    vertex -70 50 100
    vertex -70 -70 100
  endloop
endfacet
facet normal 0 0 1
  outer loop
    vertex 50 50 100
    vertex -70 -70 100
    vertex 50 -70 100
  endloop
endfacet
endsolid outlet
solid walls
facet normal -1 0 0
  outer loop
    vertex -70 -70 100
    vertex -70 50 -20
    vertex -70 -70 -20
  endloop
endfacet
facet normal -1 0 0
  outer loop
    vertex -70 -70 100
    vertex -70 50 100
    vertex -70 50 -20
  endloop
endfacet
facet normal 0 -1 -0
  outer loop
    vertex 50 -70 100
    vertex -70 -70 -20
    vertex 50 -70 -20
  endloop
endfacet
facet normal -0 -1 0
  outer loop
    vertex 50 -70 100
    vertex -70 -70 100
    vertex -70 -70 -20
  endloop
endfacet
facet normal 0 1 0
  outer loop
    vertex 50 50 100
    vertex 50 50 -20
    vertex -70 50 -20
  endloop
endfacet
facet normal 0 1 0
  outer loop
    vertex 50 50 100
    vertex -70 50 -20
    vertex -70 50 100
  endloop
endfacet
facet normal -0 0 -1
  outer loop
    vertex -6.845471059286851 -7.289686274214148 -20
    vertex -70 -70 -20
    vertex -7.289686274214084 -6.845471059286922 -20
  endloop
endfacet
facet normal 0 -0 -1
  outer loop
    vertex -7.70513242775786 -6.374239897486937 -20
    vertex -7.289686274214084 -6.845471059286922 -20
    vertex -70 -70 -20
  endloop
endfacet
facet normal -0 0 -1
  outer loop
    vertex -6.374239897486866 -7.705132427757917 -20
    vertex -70 -70 -20
    vertex -6.845471059286851 -7.289686274214148 -20
  endloop
endfacet
facet normal 0 -0 -1
  outer loop
    vertex -8.090169943749444 -5.877852522924769 -20
    vertex -7.70513242775786 -6.374239897486937 -20
    vertex -70 -70 -20
  endloop
endfacet
facet normal -0 0 -1
  outer loop
    vertex -5.877852522924698 -8.090169943749501 -20
    vertex -70 -70 -20
    vertex -6.374239897486866 -7.705132427757917 -20
  endloop
endfacet
facet normal 0 -0 -1
  outer loop
    vertex -8.443279255020116 -5.358267949790019 -20
    vertex -8.090169943749444 -5.877852522924769 -20
    vertex -70 -70 -20
  endloop
endfacet
facet normal -0 0 -1
  outer loop
    vertex -5.358267949789933 -8.443279255020173 -20
    vertex -70 -70 -20
    vertex -5.877852522924698 -8.090169943749501 -20
  endloop
endfacet
facet normal 0 -0 -1
  outer loop
    vertex -8.763066800438608 -4.817536741017207 -20
    vertex -8.443279255020116 -5.358267949790019 -20
    vertex -70 -70 -20
  endloop
endfacet
facet normal -0 0 -1
  outer loop
    vertex -4.817536741017122 -8.763066800438651 -20
    vertex -70 -70 -20
    vertex -5.358267949789933 -8.443279255020173 -20
  endloop
endfacet
facet normal 0 -0 -1
  outer loop
    vertex -9.048270524660168 -4.257792915650782 -20
    vertex -8.763066800438608 -4.817536741017207 -20
    vertex -70 -70 -20
  endloop
endfacet
facet normal -0 0 -1
  outer loop
    vertex -4.257792915650697 -9.048270524660211 -20
    vertex -70 -70 -20
    vertex -4.817536741017122 -8.763066800438651 -20
  endloop
endfacet
facet normal 0 -0 -1
  outer loop
    vertex -9.297764858882488 -3.681245526846851 -20
    vertex -9.048270524660168 -4.257792915650782 -20
    vertex -70 -70 -20
  endloop
endfacet
facet normal -0 0 -1
  outer loop
    vertex -3.681245526846752 -9.297764858882523 -20
    vertex -70 -70 -20
    vertex -4.257792915650697 -9.048270524660211 -20
  endloop
endfacet
facet normal 0 -0 -1
  outer loop
    vertex -9.510565162951515 -3.090169943749544 -20
    vertex -9.297764858882488 -3.681245526846851 -20
    vertex -70 -70 -20
  endloop
endfacet
facet normal -0 0 -1
  outer loop
    vertex -3.090169943749459 -9.510565162951544 -20
    vertex -70 -70 -20
    vertex -3.681245526846752 -9.297764858882523 -20
  endloop
endfacet
facet normal 0 -0 -1
  outer loop
    vertex -9.685831611286289 -2.48689887164862 -20
    vertex -9.510565162951515 -3.090169943749544 -20
    vertex -70 -70 -20
  endloop
endfacet
facet normal -0 0 -1
  outer loop
    vertex -2.486898871648535 -9.685831611286318 -20
    vertex -70 -70 -20
    vertex -3.090169943749459 -9.510565162951544 -20
  endloop
endfacet
facet normal 0 -0 -1
  outer loop
    vertex -9.822872507286874 -1.873813145857326 -20
    vertex -9.685831611286289 -2.48689887164862 -20
    vertex -70 -70 -20
  endloop
endfacet
facet normal -0 0 -1
  outer loop
    vertex -1.873813145857241 -9.822872507286888 -20
    vertex -70 -70 -20
    vertex -2.486898871648535 -9.685831611286318 -20
  endloop
endfacet
facet normal -0 0 -1
  outer loop
    vertex -9.921147013144768 -1.253332335643123 -20
    vertex -70 -70 -20
    vertex -70 50 -20
  endloop
endfacet
facet normal 0 -0 -1
  outer loop
    vertex -9.921147013144768 -1.253332335643123 -20
    vertex -9.822872507286874 -1.873813145857326 -20
    vertex -70 -70 -20
  endloop
endfacet
facet normal 0 -0 -1
  outer loop
    vertex -1.253332335643037 -9.921147013144775 -20
    vertex 50 -70 -20
    vertex -70 -70 -20
  endloop
endfacet
facet normal -0 0 -1
  outer loop
    vertex -1.253332335643037 -9.921147013144775 -20
    vertex -70 -70 -20
    vertex -1.873813145857241 -9.822872507286888 -20
  endloop
endfacet
facet normal -0 -0 -1
  outer loop
    vertex -9.980267284282711 -0.6279051952932235 -20
    vertex -9.921147013144768 -1.253332335643123 -20
    vertex -70 50 -20
  endloop
endfacet
facet normal -0 -0 -1
  outer loop
    vertex -0.6279051952931241 -9.980267284282718 -20
    vertex 50 -70 -20
    vertex -1.253332335643037 -9.921147013144775 -20
  endloop
endfacet
facet normal -0 -0 -1
  outer loop
    vertex 0 -10 -20
    vertex 50 -70 -20
    vertex -0.6279051952931241 -9.980267284282718 -20
  endloop
endfacet
facet normal -0 -0 -1
  outer loop
    vertex -10 0 -20
    vertex -9.980267284282711 -0.6279051952932235 -20
    vertex -70 50 -20
  endloop
endfacet
facet normal -0 0 -1
  outer loop
    vertex -9.980267284282718 0.6279051952931383 -20
    vertex -10 0 -20
    vertex -70 50 -20
  endloop
endfacet
facet normal 0 -0 -1
  outer loop
    vertex 0.6279051952931383 -9.980267284282718 -20
    vertex 50 -70 -20
    vertex 0 -10 -20
  endloop
endfacet
facet normal 0 -0 -1
  outer loop
    vertex 1.253332335643037 -9.921147013144775 -20
    vertex 50 -70 -20
    vertex 0.6279051952931383 -9.980267284282718 -20
  endloop
endfacet
facet normal -0 0 -1
  outer loop
    vertex -9.921147013144775 1.253332335643037 -20
    vertex -9.980267284282718 0.6279051952931383 -20
    vertex -70 50 -20
  endloop
endfacet
facet normal 0 -0 -1
  outer loop
    vertex 1.873813145857241 -9.822872507286888 -20
    vertex 50 -70 -20
    vertex 1.253332335643037 -9.921147013144775 -20
  endloop
endfacet
facet normal -0 0 -1
  outer loop
    vertex -9.822872507286888 1.873813145857241 -20
    vertex -9.921147013144775 1.253332335643037 -20
    vertex -70 50 -20
  endloop
endfacet
facet normal -0 0 -1
  outer loop
    vertex -9.685831611286311 2.486898871648549 -20
    vertex -9.822872507286888 1.873813145857241 -20
    vertex -70 50 -20
  endloop
endfacet
facet normal 0 -0 -1
  outer loop
    vertex 2.486898871648535 -9.685831611286318 -20
    vertex 50 -70 -20
    vertex 1.873813145857241 -9.822872507286888 -20
  endloop
endfacet
facet normal -0 0 -1
  outer loop
    vertex -9.510565162951536 3.090169943749473 -20
    vertex -9.685831611286311 2.486898871648549 -20
    vertex -70 50 -20
  endloop
endfacet
facet normal 0 -0 -1
  outer loop
    vertex 3.090169943749459 -9.510565162951536 -20
    vertex 50 -70 -20
    vertex 2.486898871648535 -9.685831611286318 -20
  endloop
endfacet
facet normal 0 -0 -1
  outer loop
    vertex 3.681245526846766 -9.297764858882523 -20
    vertex 50 -70 -20
    vertex 3.090169943749459 -9.510565162951536 -20
  endloop
endfacet
facet normal -0 0 -1
  outer loop
    vertex -9.297764858882516 3.68124552684678 -20
    vertex -9.510565162951536 3.090169943749473 -20
    vertex -70 50 -20
  endloop
endfacet
facet normal 0 -0 -1
  outer loop
    vertex 4.257792915650711 -9.048270524660204 -20
    vertex 50 -70 -20
    vertex 3.681245526846766 -9.297764858882523 -20
  endloop
endfacet
facet normal -0 0 -1
  outer loop
    vertex -9.048270524660197 4.257792915650725 -20
    vertex -9.297764858882516 3.68124552684678 -20
    vertex -70 50 -20
  endloop
endfacet
facet normal 0 -0 -1
  outer loop
    vertex 4.817536741017136 -8.763066800438651 -20
    vertex 50 -70 -20
    vertex 4.257792915650711 -9.048270524660204 -20
  endloop
endfacet
facet normal -0 0 -1
  outer loop
    vertex -8.763066800438637 4.81753674101715 -20
    vertex -9.048270524660197 4.257792915650725 -20
    vertex -70 50 -20
  endloop
endfacet
facet normal 0 -0 -1
  outer loop
    vertex 5.358267949789933 -8.443279255020165 -20
    vertex 50 -70 -20
    vertex 4.817536741017136 -8.763066800438651 -20
  endloop
endfacet
facet normal -0 0 -1
  outer loop
    vertex -8.443279255020151 5.358267949789962 -20
    vertex -8.763066800438637 4.81753674101715 -20
    vertex -70 50 -20
  endloop
endfacet
facet normal 0 -0 -1
  outer loop
    vertex 5.877852522924698 -8.090169943749494 -20
    vertex 50 -70 -20
    vertex 5.358267949789933 -8.443279255020165 -20
  endloop
endfacet
facet normal -0 0 -1
  outer loop
    vertex -8.090169943749473 5.877852522924726 -20
    vertex -8.443279255020151 5.358267949789962 -20
    vertex -70 50 -20
  endloop
endfacet
facet normal 0 -0 -1
  outer loop
    vertex 6.374239897486873 -7.705132427757917 -20
    vertex 50 -70 -20
    vertex 5.877852522924698 -8.090169943749494 -20
  endloop
endfacet
facet normal -0 0 -1
  outer loop
    vertex -7.705132427757896 6.374239897486902 -20
    vertex -8.090169943749473 5.877852522924726 -20
    vertex -70 50 -20
  endloop
endfacet
facet normal 0 -0 -1
  outer loop
    vertex 6.845471059286865 -7.289686274214141 -20
    vertex 50 -70 -20
    vertex 6.374239897486873 -7.705132427757917 -20
  endloop
endfacet
facet normal -0 0 -1
  outer loop
    vertex -7.28968627421412 6.845471059286879 -20
    vertex -7.705132427757896 6.374239897486902 -20
    vertex -70 50 -20
  endloop
endfacet
facet normal 0 -0 -1
  outer loop
    vertex 7.289686274214091 -6.845471059286915 -20
    vertex 50 -70 -20
    vertex 6.845471059286865 -7.289686274214141 -20
  endloop
endfacet
facet normal -0 0 -1
  outer loop
    vertex -6.845471059286886 7.28968627421412 -20
    vertex -7.28968627421412 6.845471059286879 -20
    vertex -70 50 -20
  endloop
endfacet
facet normal 0 -0 -1
  outer loop
    vertex 7.705132427757874 -6.374239897486923 -20
    vertex 50 -70 -20
    vertex 7.289686274214091 -6.845471059286915 -20
  endloop
endfacet
facet normal -0 0 -1
  outer loop
    vertex -6.374239897486902 7.705132427757889 -20
    vertex -6.845471059286886 7.28968627421412 -20
    vertex -70 50 -20
  endloop
endfacet
facet normal 0 -0 -1
  outer loop
    vertex 8.090169943749459 -5.877852522924755 -20
    vertex 50 -70 -20
    vertex 7.705132427757874 -6.374239897486923 -20
  endloop
endfacet
facet normal -0 0 -1
  outer loop
    vertex -5.877852522924741 8.090169943749473 -20
    vertex -6.374239897486902 7.705132427757889 -20
    vertex -70 50 -20
  endloop
endfacet
facet normal 0 -0 -1
  outer loop
    vertex 8.44327925502013 -5.35826794978999 -20
    vertex 50 -70 -20
    vertex 8.090169943749459 -5.877852522924755 -20
  endloop
endfacet
facet normal -0 0 -1
  outer loop
    vertex -5.358267949789962 8.443279255020144 -20
    vertex -5.877852522924741 8.090169943749473 -20
    vertex -70 50 -20
  endloop
endfacet
facet normal 0 -0 -1
  outer loop
    vertex 8.763066800438622 -4.817536741017179 -20
    vertex 50 -70 -20
    vertex 8.44327925502013 -5.35826794978999 -20
  endloop
endfacet
facet normal -0 0 -1
  outer loop
    vertex -4.81753674101715 8.763066800438637 -20
    vertex -5.358267949789962 8.443279255020144 -20
    vertex -70 50 -20
  endloop
endfacet
facet normal 0 -0 -1
  outer loop
    vertex 9.048270524660182 -4.257792915650754 -20
    vertex 50 -70 -20
    vertex 8.763066800438622 -4.817536741017179 -20
  endloop
endfacet
facet normal -0 0 -1
  outer loop
    vertex -4.257792915650725 9.048270524660197 -20
    vertex -4.81753674101715 8.763066800438637 -20
    vertex -70 50 -20
  endloop
endfacet
facet normal 0 -0 -1
  outer loop
    vertex 9.297764858882502 -3.681245526846809 -20
    vertex 50 -70 -20
    vertex 9.048270524660182 -4.257792915650754 -20
  endloop
endfacet
facet normal -0 0 -1
  outer loop
    vertex -3.68124552684678 9.297764858882516 -20
    vertex -4.257792915650725 9.048270524660197 -20
    vertex -70 50 -20
  endloop
endfacet
facet normal 0 -0 -1
  outer loop
    vertex 9.510565162951522 -3.090169943749501 -20
    vertex 50 -70 -20
    vertex 9.297764858882502 -3.681245526846809 -20
  endloop
endfacet
facet normal -0 0 -1
  outer loop
    vertex -3.090169943749473 9.510565162951536 -20
    vertex -3.68124552684678 9.297764858882516 -20
    vertex -70 50 -20
  endloop
endfacet
facet normal 0 -0 -1
  outer loop
    vertex 9.685831611286304 -2.486898871648577 -20
    vertex 50 -70 -20
    vertex 9.510565162951522 -3.090169943749501 -20
  endloop
endfacet
facet normal -0 0 -1
  outer loop
    vertex -2.486898871648549 9.685831611286318 -20
    vertex -3.090169943749473 9.510565162951536 -20
    vertex -70 50 -20
  endloop
endfacet
facet normal 0 -0 -1
  outer loop
    vertex 9.822872507286888 -1.87381314585727 -20
    vertex 50 -70 -20
    vertex 9.685831611286304 -2.486898871648577 -20
  endloop
endfacet
facet normal -0 0 -1
  outer loop
    vertex -1.873813145857241 9.822872507286888 -20
    vertex -2.486898871648549 9.685831611286318 -20
    vertex -70 50 -20
  endloop
endfacet
facet normal -0 0 -1
  outer loop
    vertex -1.253332335643037 9.921147013144775 -20
    vertex -1.873813145857241 9.822872507286888 -20
    vertex -70 50 -20
  endloop
endfacet
facet normal 0 -0 -1
  outer loop
    vertex 9.921147013144775 -1.253332335643066 -20
    vertex 50 -70 -20
    vertex 9.822872507286888 -1.87381314585727 -20
  endloop
endfacet
facet normal 0 0 -1
  outer loop
    vertex 50 50 -20
    vertex -0.6279051952931241 9.980267284282718 -20
    vertex -1.253332335643037 9.921147013144775 -20
  endloop
endfacet
facet normal 0 0 -1
  outer loop
    vertex 50 50 -20
    vertex 0 10 -20
    vertex -0.6279051952931241 9.980267284282718 -20
  endloop
endfacet
facet normal 0 0 -1
  outer loop
    vertex 50 50 -20
    vertex 0.6279051952931383 9.980267284282718 -20
    vertex 0 10 -20
  endloop
endfacet
facet normal 0 0 -1
  outer loop
    vertex 50 50 -20
    vertex 1.253332335643051 9.921147013144775 -20
    vertex 0.6279051952931383 9.980267284282718 -20
  endloop
endfacet
facet normal 0 0 -1
  outer loop
    vertex 50 50 -20
    vertex 1.873813145857255 9.822872507286888 -20
    vertex 1.253332335643051 9.921147013144775 -20
  endloop
endfacet
facet normal 0 0 -1
  outer loop
    vertex 50 50 -20
    vertex 2.486898871648563 9.685831611286304 -20
    vertex 1.873813145857255 9.822872507286888 -20
  endloop
endfacet
facet normal 0 0 -1
  outer loop
    vertex 50 50 -20
    vertex 3.090169943749487 9.510565162951536 -20
    vertex 2.486898871648563 9.685831611286304 -20
  endloop
endfacet
facet normal 0 0 -1
  outer loop
    vertex 50 50 -20
    vertex 3.681245526846794 9.297764858882516 -20
    vertex 3.090169943749487 9.510565162951536 -20
  endloop
endfacet
facet normal 0 0 -1
  outer loop
    vertex 50 50 -20
    vertex 4.257792915650739 9.048270524660197 -20
    vertex 3.681245526846794 9.297764858882516 -20
  endloop
endfacet
facet normal 0 0 -1
  outer loop
    vertex 50 50 -20
    vertex 4.817536741017165 8.763066800438622 -20
    vertex 4.257792915650739 9.048270524660197 -20
  endloop
endfacet
facet normal 0 0 -1
  outer loop
    vertex 50 50 -20
    vertex 5.358267949789976 8.443279255020144 -20
    vertex 4.817536741017165 8.763066800438622 -20
  endloop
endfacet
facet normal 0 0 -1
  outer loop
    vertex 50 50 -20
    vertex 5.877852522924741 8.090169943749473 -20
    vertex 5.358267949789976 8.443279255020144 -20
  endloop
endfacet
facet normal 0 0 -1
  outer loop
    vertex 50 50 -20
    vertex 6.374239897486902 7.705132427757889 -20
    vertex 5.877852522924741 8.090169943749473 -20
  endloop
endfacet
facet normal 0 0 -1
  outer loop
    vertex 50 50 -20
    vertex 6.845471059286893 7.289686274214105 -20
    vertex 6.374239897486902 7.705132427757889 -20
  endloop
endfacet
facet normal 0 0 -1
  outer loop
    vertex 50 50 -20
    vertex 7.28968627421412 6.845471059286879 -20
    vertex 6.845471059286893 7.289686274214105 -20
  endloop
endfacet
facet normal 0 0 -1
  outer loop
    vertex 50 50 -20
    vertex 7.705132427757903 6.374239897486888 -20
    vertex 7.28968627421412 6.845471059286879 -20
  endloop
endfacet
facet normal 0 0 -1
  outer loop
    vertex 50 50 -20
    vertex 8.090169943749487 5.877852522924712 -20
    vertex 7.705132427757903 6.374239897486888 -20
  endloop
endfacet
facet normal 0 0 -1
  outer loop
    vertex 50 50 -20
    vertex 8.443279255020158 5.358267949789948 -20
    vertex 8.090169943749487 5.877852522924712 -20
  endloop
endfacet
facet normal 0 0 -1
  outer loop
    vertex 50 50 -20
    vertex 8.763066800438651 4.817536741017136 -20
    vertex 8.443279255020158 5.358267949789948 -20
  endloop
endfacet
facet normal -0 0 -1
  outer loop
    vertex 50 50 -20
    vertex -1.253332335643037 9.921147013144775 -20
    vertex -70 50 -20
  endloop
endfacet
facet normal 0 0 -1
  outer loop
    vertex 50 50 -20
    vertex 9.048270524660211 4.257792915650711 -20
    vertex 8.763066800438651 4.817536741017136 -20
  endloop
endfacet
facet normal 0 -0 -1
  outer loop
    vertex 50 50 -20
    vertex 50 -70 -20
    vertex 9.921147013144775 -1.253332335643066 -20
  endloop
endfacet
facet normal 0 0 -1
  outer loop
    vertex 50 50 -20
    vertex 9.297764858882516 3.681245526846766 -20
    vertex 9.048270524660211 4.257792915650711 -20
  endloop
endfacet
facet normal 0 0 -1
  outer loop
    vertex 50 50 -20
    vertex 9.510565162951536 3.090169943749459 -20
    vertex 9.297764858882516 3.681245526846766 -20
  endloop
endfacet
facet normal 0 0 -1
  outer loop
    vertex 50 50 -20
    vertex 9.685831611286318 2.486898871648521 -20
    vertex 9.510565162951536 3.090169943749459 -20
  endloop
endfacet
facet normal 0 0 -1
  outer loop
    vertex 50 50 -20
    vertex 9.822872507286888 1.873813145857227 -20
    vertex 9.685831611286318 2.486898871648521 -20
  endloop
endfacet
facet normal 0 0 -1
  outer loop
    vertex 50 50 -20
    vertex 9.921147013144775 1.253332335643023 -20
    vertex 9.822872507286888 1.873813145857227 -20
  endloop
endfacet
facet normal 0 0 -1
  outer loop
    vertex 50 50 -20
    vertex 9.980267284282718 0.6279051952931098 -20
    vertex 9.921147013144775 1.253332335643023 -20
  endloop
endfacet
facet normal 0 0 -1
  outer loop
    vertex 50 50 -20
    vertex 10 -2.842170943040401e-14 -20
    vertex 9.980267284282718 0.6279051952931098 -20
  endloop
endfacet
facet normal 0 0 -1
  outer loop
    vertex 50 50 -20
    vertex 9.980267284282718 -0.6279051952931667 -20
    vertex 10 -2.842170943040401e-14 -20
  endloop
endfacet
facet normal 0 0 -1
  outer loop
    vertex 50 50 -20
    vertex 9.921147013144775 -1.253332335643066 -20
    vertex 9.980267284282718 -0.6279051952931667 -20
  endloop
endfacet
facet normal 1 0 0
  outer loop
    vertex 50 -70 100
    vertex 50 -70 -20
    vertex 50 50 -20
  endloop
endfacet
facet normal 1 -0 0
  outer loop
    vertex 50 -70 100
    vertex 50 50 -20
    vertex 50 50 100
  endloop
endfacet
endsolid walls
