solid outlet
facet normal 0 0 1
  outer loop
    vertex 50 50 50
    vertex -50 50 50
    vertex -50 -50 50
  endloop
endfacet
facet normal 0 0 1
  outer loop
    vertex 50 50 50
    vertex -50 -50 50
    vertex 50 -50 50
  endloop
endfacet
endsolid outlet
solid inlet
facet normal -0 0 -1
  outer loop
    vertex 50 50 -50
    vertex -50 -50 -50
    vertex -50 50 -50
  endloop
endfacet
facet normal 0 -0 -1
  outer loop
    vertex 50 50 -50
    vertex 50 -50 -50
    vertex -50 -50 -50
  endloop
endfacet
endsolid inlet
solid walls
facet normal -1 0 0
  outer loop
    vertex -50 -50 50
    vertex -50 50 -50
    vertex -50 -50 -50
  endloop
endfacet
facet normal -1 0 0
  outer loop
    vertex -50 -50 50
    vertex -50 50 50
    vertex -50 50 -50
  endloop
endfacet
facet normal 1 0 0
  outer loop
    vertex 50 -50 50
    vertex 50 -50 -50
    vertex 50 50 -50
  endloop
endfacet
facet normal 1 -0 0
  outer loop
    vertex 50 -50 50
    vertex 50 50 -50
    vertex 50 50 50
  endloop
endfacet
facet normal 0 -1 -0
  outer loop
    vertex 50 -50 50
    vertex -50 -50 -50
    vertex 50 -50 -50
  endloop
endfacet
facet normal -0 -1 0
  outer loop
    vertex 50 -50 50
    vertex -50 -50 50
    vertex -50 -50 -50
  endloop
endfacet
facet normal 0 1 0
  outer loop
    vertex 50 50 50
    vertex 50 50 -50
    vertex -50 50 -50
  endloop
endfacet
facet normal 0 1 0
  outer loop
    vertex 50 50 50
    vertex -50 50 -50
    vertex -50 50 50
  endloop
endfacet
endsolid walls
