solid inlet
facet normal -0.996195 0.0871557 -1.15665e-17
  outer loop
    vertex -0.984807753012208 0.1736481776669303 -3.1
    vertex -1 0 -3.1
    vertex -1 0 -3
  endloop
endfacet
facet normal -0.996195 0.0871557 0
  outer loop
    vertex -0.984807753012208 0.1736481776669303 -3.1
    vertex -1 0 -3
    vertex -0.984807753012208 0.1736481776669303 -3
  endloop
endfacet
facet normal -0.965926 0.258819 0
  outer loop
    vertex -0.9396926207859084 0.3420201433256687 -3.1
    vertex -0.984807753012208 0.1736481776669303 -3
    vertex -0.9396926207859084 0.3420201433256687 -3
  endloop
endfacet
facet normal -0.965926 0.258819 1.32929e-17
  outer loop
    vertex -0.9396926207859084 0.3420201433256687 -3.1
    vertex -0.984807753012208 0.1736481776669303 -3.1
    vertex -0.984807753012208 0.1736481776669303 -3
  endloop
endfacet
facet normal -0.906308 0.422618 0
  outer loop
    vertex -0.8660254037844387 0.4999999999999999 -3.1
    vertex -0.9396926207859084 0.3420201433256687 -3
    vertex -0.8660254037844387 0.4999999999999999 -3
  endloop
endfacet
facet normal -0.906308 0.422618 -4.23555e-17
  outer loop
    vertex -0.8660254037844387 0.4999999999999999 -3.1
    vertex -0.9396926207859084 0.3420201433256687 -3.1
    vertex -0.9396926207859084 0.3420201433256687 -3
  endloop
endfacet
facet normal -0.819152 0.573576 0
  outer loop
    vertex -0.766044443118978 0.6427876096865393 -3.1
    vertex -0.8660254037844387 0.4999999999999999 -3
    vertex -0.766044443118978 0.6427876096865393 -3
  endloop
endfacet
facet normal -0.819152 0.573576 -2.86192e-17
  outer loop
    vertex -0.766044443118978 0.6427876096865393 -3.1
    vertex -0.8660254037844387 0.4999999999999999 -3.1
    vertex -0.8660254037844387 0.4999999999999999 -3
  endloop
endfacet
facet normal -0.707107 0.707107 0
  outer loop
    vertex -0.6427876096865393 0.7660444431189781 -3.1
    vertex -0.766044443118978 0.6427876096865393 -3
    vertex -0.6427876096865393 0.7660444431189781 -3
  endloop
endfacet
facet normal -0.707107 0.707107 -1.36843e-17
  outer loop
    vertex -0.6427876096865393 0.7660444431189781 -3.1
    vertex -0.766044443118978 0.6427876096865393 -3.1
    vertex -0.766044443118978 0.6427876096865393 -3
  endloop
endfacet
facet normal -0.573576 0.819152 -1.6178e-17
  outer loop
    vertex -0.5000000000000001 0.8660254037844386 -3.1
    vertex -0.6427876096865393 0.7660444431189781 -3.1
    vertex -0.6427876096865393 0.7660444431189781 -3
  endloop
endfacet
facet normal -0.573576 0.819152 0
  outer loop
    vertex -0.5000000000000001 0.8660254037844386 -3.1
    vertex -0.6427876096865393 0.7660444431189781 -3
    vertex -0.5000000000000001 0.8660254037844386 -3
  endloop
endfacet
facet normal -0.422618 0.906308 -6.79246e-18
  outer loop
    vertex -0.3420201433256688 0.9396926207859083 -3.1
    vertex -0.5000000000000001 0.8660254037844386 -3.1
    vertex -0.5000000000000001 0.8660254037844386 -3
  endloop
endfacet
facet normal -0.422618 0.906308 0
  outer loop
    vertex -0.3420201433256688 0.9396926207859083 -3.1
    vertex -0.5000000000000001 0.8660254037844386 -3
    vertex -0.3420201433256688 0.9396926207859083 -3
  endloop
endfacet
facet normal -0.258819 0.965926 1.30588e-17
  outer loop
    vertex -0.1736481776669304 0.984807753012208 -3.1
    vertex -0.3420201433256688 0.9396926207859083 -3.1
    vertex -0.3420201433256688 0.9396926207859083 -3
  endloop
endfacet
facet normal -0.258819 0.965926 0
  outer loop
    vertex -0.1736481776669304 0.984807753012208 -3.1
    vertex -0.3420201433256688 0.9396926207859083 -3
    vertex -0.1736481776669304 0.984807753012208 -3
  endloop
endfacet
facet normal -0.0871557 0.996195 7.11155e-18
  outer loop
    vertex 1.608122649676636e-16 1 -3.1
    vertex -0.1736481776669304 0.984807753012208 -3.1
    vertex -0.1736481776669304 0.984807753012208 -3
  endloop
endfacet
facet normal -0.0871557 0.996195 0
  outer loop
    vertex 1.608122649676636e-16 1 -3.1
    vertex -0.1736481776669304 0.984807753012208 -3
    vertex 1.608122649676636e-16 1 -3
  endloop
endfacet
facet normal 0.0871557 0.996195 1.22555e-17
  outer loop
    vertex 0.1736481776669305 0.984807753012208 -3.1
    vertex 1.608122649676636e-16 1 -3.1
    vertex 1.608122649676636e-16 1 -3
  endloop
endfacet
facet normal 0.0871557 0.996195 -0
  outer loop
    vertex 0.1736481776669305 0.984807753012208 -3.1
    vertex 1.608122649676636e-16 1 -3
    vertex 0.1736481776669305 0.984807753012208 -3
  endloop
endfacet
facet normal 0.258819 0.965926 1.93125e-17
  outer loop
    vertex 0.3420201433256685 0.9396926207859084 -3.1
    vertex 0.1736481776669305 0.984807753012208 -3.1
    vertex 0.1736481776669305 0.984807753012208 -3
  endloop
endfacet
facet normal 0.258819 0.965926 -0
  outer loop
    vertex 0.3420201433256685 0.9396926207859084 -3.1
    vertex 0.1736481776669305 0.984807753012208 -3
    vertex 0.3420201433256685 0.9396926207859084 -3
  endloop
endfacet
facet normal 0.422618 0.906308 6.79246e-18
  outer loop
    vertex 0.4999999999999998 0.8660254037844387 -3.1
    vertex 0.3420201433256685 0.9396926207859084 -3.1
    vertex 0.3420201433256685 0.9396926207859084 -3
  endloop
endfacet
facet normal 0.422618 0.906308 -0
  outer loop
    vertex 0.4999999999999998 0.8660254037844387 -3.1
    vertex 0.3420201433256685 0.9396926207859084 -3
    vertex 0.4999999999999998 0.8660254037844387 -3
  endloop
endfacet
facet normal 0.573576 0.819152 -9.73409e-18
  outer loop
    vertex 0.642787609686539 0.7660444431189783 -3.1
    vertex 0.4999999999999998 0.8660254037844387 -3.1
    vertex 0.4999999999999998 0.8660254037844387 -3
  endloop
endfacet
facet normal 0.573576 0.819152 -0
  outer loop
    vertex 0.642787609686539 0.7660444431189783 -3.1
    vertex 0.4999999999999998 0.8660254037844387 -3
    vertex 0.642787609686539 0.7660444431189783 -3
  endloop
endfacet
facet normal 0.707107 0.707107 -3.07259e-17
  outer loop
    vertex 0.7660444431189777 0.6427876096865398 -3.1
    vertex 0.642787609686539 0.7660444431189783 -3.1
    vertex 0.642787609686539 0.7660444431189783 -3
  endloop
endfacet
facet normal 0.707107 0.707107 -0
  outer loop
    vertex 0.7660444431189777 0.6427876096865398 -3.1
    vertex 0.642787609686539 0.7660444431189783 -3
    vertex 0.7660444431189777 0.6427876096865398 -3
  endloop
endfacet
facet normal 0.819152 0.573576 4.20901e-17
  outer loop
    vertex 0.8660254037844383 0.5000000000000008 -3.1
    vertex 0.7660444431189777 0.6427876096865398 -3.1
    vertex 0.7660444431189777 0.6427876096865398 -3
  endloop
endfacet
facet normal 0.819152 0.573576 -0
  outer loop
    vertex 0.8660254037844383 0.5000000000000008 -3.1
    vertex 0.7660444431189777 0.6427876096865398 -3
    vertex 0.8660254037844383 0.5000000000000008 -3
  endloop
endfacet
facet normal 0.906308 0.422618 4.95261e-17
  outer loop
    vertex 0.939692620785908 0.3420201433256697 -3.1
    vertex 0.8660254037844383 0.5000000000000008 -3.1
    vertex 0.8660254037844383 0.5000000000000008 -3
  endloop
endfacet
facet normal 0.906308 0.422618 -0
  outer loop
    vertex 0.939692620785908 0.3420201433256697 -3.1
    vertex 0.8660254037844383 0.5000000000000008 -3
    vertex 0.939692620785908 0.3420201433256697 -3
  endloop
endfacet
facet normal 0.965926 0.258819 -0
  outer loop
    vertex 0.939692620785908 0.3420201433256697 -3.1
    vertex 0.939692620785908 0.3420201433256697 -3
    vertex 0.9848077530122078 0.173648177666932 -3
  endloop
endfacet
facet normal 0.965926 0.258819 -0
  outer loop
    vertex 0.9848077530122078 0.173648177666932 -3.1
    vertex 0.939692620785908 0.3420201433256697 -3.1
    vertex 0.9848077530122078 0.173648177666932 -3
  endloop
endfacet
facet normal 0.996195 0.0871557 6.20583e-18
  outer loop
    vertex 1 1.010643099614861e-15 -3.1
    vertex 0.9848077530122078 0.173648177666932 -3.1
    vertex 0.9848077530122078 0.173648177666932 -3
  endloop
endfacet
facet normal 0.996195 0.0871557 -0
  outer loop
    vertex 1 1.010643099614861e-15 -3.1
    vertex 0.9848077530122078 0.173648177666932 -3
    vertex 1 1.010643099614861e-15 -3
  endloop
endfacet
facet normal 0.996195 -0.0871557 -5.13979e-18
  outer loop
    vertex 0.9848077530122082 -0.1736481776669292 -3.1
    vertex 1 1.010643099614861e-15 -3.1
    vertex 1 1.010643099614861e-15 -3
  endloop
endfacet
facet normal 0.996195 -0.0871557 0
  outer loop
    vertex 0.9848077530122082 -0.1736481776669292 -3.1
    vertex 1 1.010643099614861e-15 -3
    vertex 0.9848077530122082 -0.1736481776669292 -3
  endloop
endfacet
facet normal 0.965926 -0.258819 -1.30059e-17
  outer loop
    vertex 0.939692620785909 -0.342020143325667 -3.1
    vertex 0.9848077530122082 -0.1736481776669292 -3.1
    vertex 0.9848077530122082 -0.1736481776669292 -3
  endloop
endfacet
facet normal 0.965926 -0.258819 0
  outer loop
    vertex 0.939692620785909 -0.342020143325667 -3.1
    vertex 0.9848077530122082 -0.1736481776669292 -3
    vertex 0.939692620785909 -0.342020143325667 -3
  endloop
endfacet
facet normal 0.906308 -0.422618 0
  outer loop
    vertex 0.8660254037844397 -0.4999999999999982 -3.1
    vertex 0.939692620785909 -0.342020143325667 -3
    vertex 0.8660254037844397 -0.4999999999999982 -3
  endloop
endfacet
facet normal 0.906308 -0.422618 1.30919e-17
  outer loop
    vertex 0.8660254037844397 -0.4999999999999982 -3.1
    vertex 0.939692620785909 -0.342020143325667 -3.1
    vertex 0.939692620785909 -0.342020143325667 -3
  endloop
endfacet
facet normal 0.819152 -0.573576 0
  outer loop
    vertex 0.7660444431189795 -0.6427876096865376 -3.1
    vertex 0.8660254037844397 -0.4999999999999982 -3
    vertex 0.7660444431189795 -0.6427876096865376 -3
  endloop
endfacet
facet normal 0.819152 -0.573576 3.56462e-17
  outer loop
    vertex 0.7660444431189795 -0.6427876096865376 -3.1
    vertex 0.8660254037844397 -0.4999999999999982 -3.1
    vertex 0.8660254037844397 -0.4999999999999982 -3
  endloop
endfacet
facet normal 0.707107 -0.707107 0
  outer loop
    vertex 0.6427876096865409 -0.7660444431189767 -3.1
    vertex 0.7660444431189795 -0.6427876096865376 -3
    vertex 0.6427876096865409 -0.7660444431189767 -3
  endloop
endfacet
facet normal 0.707107 -0.707107 -1.36843e-17
  outer loop
    vertex 0.6427876096865409 -0.7660444431189767 -3.1
    vertex 0.7660444431189795 -0.6427876096865376 -3.1
    vertex 0.7660444431189795 -0.6427876096865376 -3
  endloop
endfacet
facet normal 0.573576 -0.819152 0
  outer loop
    vertex 0.5000000000000019 -0.8660254037844375 -3.1
    vertex 0.6427876096865409 -0.7660444431189767 -3
    vertex 0.5000000000000019 -0.8660254037844375 -3
  endloop
endfacet
facet normal 0.422618 -0.906308 0
  outer loop
    vertex 0.5000000000000019 -0.8660254037844375 -3.1
    vertex 0.5000000000000019 -0.8660254037844375 -3
    vertex 0.342020143325671 -0.9396926207859075 -3
  endloop
endfacet
facet normal 0.573576 -0.819152 -1.4542e-17
  outer loop
    vertex 0.5000000000000019 -0.8660254037844375 -3.1
    vertex 0.6427876096865409 -0.7660444431189767 -3.1
    vertex 0.6427876096865409 -0.7660444431189767 -3
  endloop
endfacet
facet normal 0.422618 -0.906308 0
  outer loop
    vertex 0.342020143325671 -0.9396926207859075 -3.1
    vertex 0.5000000000000019 -0.8660254037844375 -3.1
    vertex 0.342020143325671 -0.9396926207859075 -3
  endloop
endfacet
facet normal 0.258819 -0.965926 0
  outer loop
    vertex 0.342020143325671 -0.9396926207859075 -3.1
    vertex 0.342020143325671 -0.9396926207859075 -3
    vertex 0.1736481776669329 -0.9848077530122076 -3
  endloop
endfacet
facet normal 0.258819 -0.965926 0
  outer loop
    vertex 0.1736481776669329 -0.9848077530122076 -3.1
    vertex 0.342020143325671 -0.9396926207859075 -3.1
    vertex 0.1736481776669329 -0.9848077530122076 -3
  endloop
endfacet
facet normal 0.0871557 -0.996195 0
  outer loop
    vertex 2.848232278972479e-15 -1 -3.1
    vertex 0.1736481776669329 -0.9848077530122076 -3
    vertex 2.848232278972479e-15 -1 -3
  endloop
endfacet
facet normal 0.0871557 -0.996195 -9.94928e-18
  outer loop
    vertex 2.848232278972479e-15 -1 -3.1
    vertex 0.1736481776669329 -0.9848077530122076 -3.1
    vertex 0.1736481776669329 -0.9848077530122076 -3
  endloop
endfacet
facet normal -0.0871557 -0.996195 0
  outer loop
    vertex -0.1736481776669273 -0.9848077530122086 -3.1
    vertex 2.848232278972479e-15 -1 -3
    vertex -0.1736481776669273 -0.9848077530122086 -3
  endloop
endfacet
facet normal -0.0871557 -0.996195 -1.00493e-17
  outer loop
    vertex -0.1736481776669273 -0.9848077530122086 -3.1
    vertex 2.848232278972479e-15 -1 -3.1
    vertex 2.848232278972479e-15 -1 -3
  endloop
endfacet
facet normal -0.258819 -0.965926 0
  outer loop
    vertex -0.3420201433256657 -0.9396926207859095 -3.1
    vertex -0.1736481776669273 -0.9848077530122086 -3
    vertex -0.3420201433256657 -0.9396926207859095 -3
  endloop
endfacet
facet normal -0.422618 -0.906308 0
  outer loop
    vertex -0.3420201433256657 -0.9396926207859095 -3.1
    vertex -0.3420201433256657 -0.9396926207859095 -3
    vertex -0.499999999999997 -0.8660254037844404 -3
  endloop
endfacet
facet normal -0.258819 -0.965926 1.88231e-17
  outer loop
    vertex -0.3420201433256657 -0.9396926207859095 -3.1
    vertex -0.1736481776669273 -0.9848077530122086 -3.1
    vertex -0.1736481776669273 -0.9848077530122086 -3
  endloop
endfacet
facet normal -0.422618 -0.906308 0
  outer loop
    vertex -0.499999999999997 -0.8660254037844404 -3.1
    vertex -0.3420201433256657 -0.9396926207859095 -3.1
    vertex -0.499999999999997 -0.8660254037844404 -3
  endloop
endfacet
facet normal -0.573576 -0.819152 -4.77842e-17
  outer loop
    vertex -0.6427876096865365 -0.7660444431189803 -3.1
    vertex -0.499999999999997 -0.8660254037844404 -3.1
    vertex -0.499999999999997 -0.8660254037844404 -3
  endloop
endfacet
facet normal -0.573576 -0.819152 0
  outer loop
    vertex -0.6427876096865365 -0.7660444431189803 -3.1
    vertex -0.499999999999997 -0.8660254037844404 -3
    vertex -0.6427876096865365 -0.7660444431189803 -3
  endloop
endfacet
facet normal -0.707107 -0.707107 0
  outer loop
    vertex -0.6427876096865365 -0.7660444431189803 -3.1
    vertex -0.6427876096865365 -0.7660444431189803 -3
    vertex -0.7660444431189756 -0.6427876096865422 -3
  endloop
endfacet
facet normal -0.707107 -0.707107 0
  outer loop
    vertex -0.7660444431189756 -0.6427876096865422 -3.1
    vertex -0.6427876096865365 -0.7660444431189803 -3.1
    vertex -0.7660444431189756 -0.6427876096865422 -3
  endloop
endfacet
facet normal -0.819152 -0.573576 4.08775e-17
  outer loop
    vertex -0.8660254037844362 -0.5000000000000043 -3.1
    vertex -0.7660444431189756 -0.6427876096865422 -3.1
    vertex -0.7660444431189756 -0.6427876096865422 -3
  endloop
endfacet
facet normal -0.819152 -0.573576 0
  outer loop
    vertex -0.8660254037844362 -0.5000000000000043 -3.1
    vertex -0.7660444431189756 -0.6427876096865422 -3
    vertex -0.8660254037844362 -0.5000000000000043 -3
  endloop
endfacet
facet normal -0.906308 -0.422618 2.83728e-17
  outer loop
    vertex -0.9396926207859069 -0.3420201433256728 -3.1
    vertex -0.8660254037844362 -0.5000000000000043 -3.1
    vertex -0.8660254037844362 -0.5000000000000043 -3
  endloop
endfacet
facet normal -0.906308 -0.422618 0
  outer loop
    vertex -0.9396926207859069 -0.3420201433256728 -3.1
    vertex -0.8660254037844362 -0.5000000000000043 -3
    vertex -0.9396926207859069 -0.3420201433256728 -3
  endloop
endfacet
facet normal -0.965926 -0.258819 0
  outer loop
    vertex -0.9396926207859069 -0.3420201433256728 -3.1
    vertex -0.9396926207859069 -0.3420201433256728 -3
    vertex -0.9848077530122075 -0.1736481776669339 -3
  endloop
endfacet
facet normal -0.965926 -0.258819 0
  outer loop
    vertex -0.9848077530122075 -0.1736481776669339 -3.1
    vertex -0.9396926207859069 -0.3420201433256728 -3.1
    vertex -0.9848077530122075 -0.1736481776669339 -3
  endloop
endfacet
facet normal -0.996195 -0.0871557 9.38843e-18
  outer loop
    vertex -1 6.432490598706546e-16 -3.1
    vertex -0.9848077530122075 -0.1736481776669339 -3.1
    vertex -0.9848077530122075 -0.1736481776669339 -3
  endloop
endfacet
facet normal -0.996195 -0.0871557 0
  outer loop
    vertex -1 6.432490598706546e-16 -3.1
    vertex -0.9848077530122075 -0.1736481776669339 -3
    vertex -1 6.432490598706546e-16 -3
  endloop
endfacet
facet normal 0 0 -1
  outer loop
    vertex -0.4999999999999969 -0.8660254037844404 -3.1
    vertex 2.886579864025409e-15 -1 -3.1
    vertex -0.1736481776669275 -0.9848077530122086 -3.1
  endloop
endfacet
facet normal 0 0 -1
  outer loop
    vertex -0.4999999999999969 -0.8660254037844404 -3.1
    vertex -0.1736481776669275 -0.9848077530122086 -3.1
    vertex -0.3420201433256657 -0.9396926207859095 -3.1
  endloop
endfacet
facet normal 0 0 -1
  outer loop
    vertex -0.7660444431189756 -0.6427876096865422 -3.1
    vertex -0.4999999999999969 -0.8660254037844404 -3.1
    vertex -0.6427876096865367 -0.7660444431189803 -3.1
  endloop
endfacet
facet normal 0 0 -1
  outer loop
    vertex 0.642787609686539 0.7660444431189782 -3.1
    vertex 0.7660444431189777 0.6427876096865398 -3.1
    vertex 0.8660254037844383 0.5000000000000009 -3.1
  endloop
endfacet
facet normal 0 0 -1
  outer loop
    vertex 0.642787609686539 0.7660444431189782 -3.1
    vertex 0.8660254037844383 0.5000000000000009 -3.1
    vertex 0.939692620785908 0.3420201433256697 -3.1
  endloop
endfacet
facet normal 0 -0 -1
  outer loop
    vertex -0.9848077530122081 0.1736481776669304 -3.1
    vertex -0.9848077530122072 -0.1736481776669347 -3.1
    vertex -1 -2.220446049250316e-16 -3.1
  endloop
endfacet
facet normal 0 -0 -1
  outer loop
    vertex -0.9396926207859084 0.3420201433256686 -3.1
    vertex -0.9396926207859069 -0.3420201433256728 -3.1
    vertex -0.9848077530122072 -0.1736481776669347 -3.1
  endloop
endfacet
facet normal 0 0 -1
  outer loop
    vertex -0.9396926207859084 0.3420201433256686 -3.1
    vertex -0.9848077530122072 -0.1736481776669347 -3.1
    vertex -0.9848077530122081 0.1736481776669304 -3.1
  endloop
endfacet
facet normal 0 0 -1
  outer loop
    vertex -0.5 0.8660254037844385 -3.1
    vertex -0.3420201433256688 0.9396926207859084 -3.1
    vertex -0.1736481776669306 0.9848077530122081 -3.1
  endloop
endfacet
facet normal 0 0 -1
  outer loop
    vertex -0.5 0.8660254037844385 -3.1
    vertex -0.1736481776669306 0.9848077530122081 -3.1
    vertex 1.97215226305253e-31 1 -3.1
  endloop
endfacet
facet normal 0 0 -1
  outer loop
    vertex -0.5 0.8660254037844385 -3.1
    vertex 1.97215226305253e-31 1 -3.1
    vertex 0.1736481776669303 0.9848077530122081 -3.1
  endloop
endfacet
facet normal 0 0 -1
  outer loop
    vertex -0.7660444431189778 0.6427876096865394 -3.1
    vertex -0.9396926207859084 0.3420201433256686 -3.1
    vertex -0.8660254037844387 0.5 -3.1
  endloop
endfacet
facet normal 0 0 -1
  outer loop
    vertex -0.6427876096865394 0.7660444431189778 -3.1
    vertex 0.1736481776669303 0.9848077530122081 -3.1
    vertex 0.3420201433256687 0.9396926207859084 -3.1
  endloop
endfacet
facet normal 0 0 -1
  outer loop
    vertex -0.6427876096865394 0.7660444431189778 -3.1
    vertex 0.3420201433256687 0.9396926207859084 -3.1
    vertex 0.4999999999999998 0.8660254037844387 -3.1
  endloop
endfacet
facet normal 0 0 -1
  outer loop
    vertex -0.6427876096865394 0.7660444431189778 -3.1
    vertex 0.4999999999999998 0.8660254037844387 -3.1
    vertex 0.642787609686539 0.7660444431189782 -3.1
  endloop
endfacet
facet normal 0 0 -1
  outer loop
    vertex -0.6427876096865394 0.7660444431189778 -3.1
    vertex 0.939692620785908 0.3420201433256697 -3.1
    vertex 0.9848077530122078 0.1736481776669317 -3.1
  endloop
endfacet
facet normal 0 0 -1
  outer loop
    vertex -0.6427876096865394 0.7660444431189778 -3.1
    vertex 0.9848077530122078 0.1736481776669317 -3.1
    vertex 1 1.55431223447522e-15 -3.1
  endloop
endfacet
facet normal 0 0 -1
  outer loop
    vertex -0.6427876096865394 0.7660444431189778 -3.1
    vertex 1 1.55431223447522e-15 -3.1
    vertex 0.9848077530122084 -0.1736481776669287 -3.1
  endloop
endfacet
facet normal 0 0 -1
  outer loop
    vertex -0.6427876096865394 0.7660444431189778 -3.1
    vertex 0.9848077530122084 -0.1736481776669287 -3.1
    vertex 0.939692620785909 -0.342020143325667 -3.1
  endloop
endfacet
facet normal 0 0 -1
  outer loop
    vertex -0.6427876096865394 0.7660444431189778 -3.1
    vertex 0.939692620785909 -0.342020143325667 -3.1
    vertex 0.8660254037844397 -0.4999999999999982 -3.1
  endloop
endfacet
facet normal 0 0 -1
  outer loop
    vertex -0.6427876096865394 0.7660444431189778 -3.1
    vertex 0.8660254037844397 -0.4999999999999982 -3.1
    vertex 0.7660444431189795 -0.6427876096865376 -3.1
  endloop
endfacet
facet normal 0 0 -1
  outer loop
    vertex -0.6427876096865394 0.7660444431189778 -3.1
    vertex 0.7660444431189795 -0.6427876096865376 -3.1
    vertex 0.6427876096865409 -0.7660444431189767 -3.1
  endloop
endfacet
facet normal 0 0 -1
  outer loop
    vertex -0.6427876096865394 0.7660444431189778 -3.1
    vertex 0.6427876096865409 -0.7660444431189767 -3.1
    vertex 0.5000000000000019 -0.8660254037844375 -3.1
  endloop
endfacet
facet normal 0 0 -1
  outer loop
    vertex -0.6427876096865394 0.7660444431189778 -3.1
    vertex 0.5000000000000019 -0.8660254037844375 -3.1
    vertex 0.3420201433256712 -0.9396926207859075 -3.1
  endloop
endfacet
facet normal 0 0 -1
  outer loop
    vertex -0.6427876096865394 0.7660444431189778 -3.1
    vertex 0.3420201433256712 -0.9396926207859075 -3.1
    vertex 0.1736481776669329 -0.9848077530122076 -3.1
  endloop
endfacet
facet normal 0 0 -1
  outer loop
    vertex -0.6427876096865394 0.7660444431189778 -3.1
    vertex 0.1736481776669329 -0.9848077530122076 -3.1
    vertex 2.886579864025409e-15 -1 -3.1
  endloop
endfacet
facet normal 0 0 -1
  outer loop
    vertex -0.6427876096865394 0.7660444431189778 -3.1
    vertex -0.7660444431189756 -0.6427876096865422 -3.1
    vertex -0.8660254037844365 -0.5000000000000036 -3.1
  endloop
endfacet
facet normal 0 0 -1
  outer loop
    vertex -0.6427876096865394 0.7660444431189778 -3.1
    vertex -0.8660254037844365 -0.5000000000000036 -3.1
    vertex -0.9396926207859069 -0.3420201433256728 -3.1
  endloop
endfacet
facet normal 0 0 -1
  outer loop
    vertex -0.6427876096865394 0.7660444431189778 -3.1
    vertex 2.886579864025409e-15 -1 -3.1
    vertex -0.4999999999999969 -0.8660254037844404 -3.1
  endloop
endfacet
facet normal 0 0 -1
  outer loop
    vertex -0.6427876096865394 0.7660444431189778 -3.1
    vertex 0.642787609686539 0.7660444431189782 -3.1
    vertex 0.939692620785908 0.3420201433256697 -3.1
  endloop
endfacet
facet normal 0 -0 -1
  outer loop
    vertex -0.6427876096865394 0.7660444431189778 -3.1
    vertex -0.4999999999999969 -0.8660254037844404 -3.1
    vertex -0.7660444431189756 -0.6427876096865422 -3.1
  endloop
endfacet
facet normal 0 0 -1
  outer loop
    vertex -0.6427876096865394 0.7660444431189778 -3.1
    vertex -0.5 0.8660254037844385 -3.1
    vertex 0.1736481776669303 0.9848077530122081 -3.1
  endloop
endfacet
facet normal 0 0 -1
  outer loop
    vertex -0.6427876096865394 0.7660444431189778 -3.1
    vertex -0.9396926207859084 0.3420201433256686 -3.1
    vertex -0.7660444431189778 0.6427876096865394 -3.1
  endloop
endfacet
facet normal 0 0 -1
  outer loop
    vertex -0.6427876096865394 0.7660444431189778 -3.1
    vertex -0.9396926207859069 -0.3420201433256728 -3.1
    vertex -0.9396926207859084 0.3420201433256686 -3.1
  endloop
endfacet
endsolid inlet
solid outlet
facet normal 0 0 1
  outer loop
    vertex 3 3 3
    vertex -3 3 3
    vertex -3 -3 3
  endloop
endfacet
facet normal 0 0 1
  outer loop
    vertex 3 3 3
    vertex -3 -3 3
    vertex 3 -3 3
  endloop
endfacet
endsolid outlet
solid walls
facet normal -1 0 0
  outer loop
    vertex -3 -3 3
    vertex -3 3 -3
    vertex -3 -3 -3
  endloop
endfacet
facet normal -1 0 0
  outer loop
    vertex -3 -3 3
    vertex -3 3 3
    vertex -3 3 -3
  endloop
endfacet
facet normal 0 -1 -0
  outer loop
    vertex 3 -3 3
    vertex -3 -3 -3
    vertex 3 -3 -3
  endloop
endfacet
facet normal -0 -1 0
  outer loop
    vertex 3 -3 3
    vertex -3 -3 3
    vertex -3 -3 -3
  endloop
endfacet
facet normal 0 1 0
  outer loop
    vertex 3 3 3
    vertex 3 3 -3
    vertex -3 3 -3
  endloop
endfacet
facet normal 0 1 0
  outer loop
    vertex 3 3 3
    vertex -3 3 -3
    vertex -3 3 3
  endloop
endfacet
facet normal -0 0 -1
  outer loop
    vertex -0.6427876096865366 -0.7660444431189806 -3
    vertex -3 -3 -3
    vertex -0.7660444431189757 -0.6427876096865424 -3
  endloop
endfacet
facet normal 0 -0 -1
  outer loop
    vertex -0.8660254037844366 -0.5000000000000036 -3
    vertex -0.7660444431189757 -0.6427876096865424 -3
    vertex -3 -3 -3
  endloop
endfacet
facet normal -0 0 -1
  outer loop
    vertex -0.4999999999999969 -0.8660254037844402 -3
    vertex -3 -3 -3
    vertex -0.6427876096865366 -0.7660444431189806 -3
  endloop
endfacet
facet normal 0 -0 -1
  outer loop
    vertex -0.9396926207859071 -0.3420201433256729 -3
    vertex -0.8660254037844366 -0.5000000000000036 -3
    vertex -3 -3 -3
  endloop
endfacet
facet normal -0 0 -1
  outer loop
    vertex -0.3420201433256658 -0.9396926207859098 -3
    vertex -3 -3 -3
    vertex -0.4999999999999969 -0.8660254037844402 -3
  endloop
endfacet
facet normal 0 -0 -1
  outer loop
    vertex -0.9848077530122072 -0.173648177666935 -3
    vertex -0.9396926207859071 -0.3420201433256729 -3
    vertex -3 -3 -3
  endloop
endfacet
facet normal -0 0 -1
  outer loop
    vertex -0.1736481776669274 -0.9848077530122086 -3
    vertex -3 -3 -3
    vertex -0.3420201433256658 -0.9396926207859098 -3
  endloop
endfacet
facet normal 0 -0 -1
  outer loop
    vertex -1 -4.440892098500626e-16 -3
    vertex -0.9848077530122072 -0.173648177666935 -3
    vertex -3 -3 -3
  endloop
endfacet
facet normal -0 0 -1
  outer loop
    vertex 2.664535259100376e-15 -1 -3
    vertex -3 -3 -3
    vertex -0.1736481776669274 -0.9848077530122086 -3
  endloop
endfacet
facet normal 0 0 -1
  outer loop
    vertex -3 3 -3
    vertex -0.9848077530122081 0.1736481776669305 -3
    vertex -1 -4.440892098500626e-16 -3
  endloop
endfacet
facet normal 0 0 -1
  outer loop
    vertex -3 3 -3
    vertex -0.9396926207859084 0.3420201433256689 -3
    vertex -0.9848077530122081 0.1736481776669305 -3
  endloop
endfacet
facet normal 0 0 -1
  outer loop
    vertex -3 3 -3
    vertex -0.8660254037844388 0.5 -3
    vertex -0.9396926207859084 0.3420201433256689 -3
  endloop
endfacet
facet normal 0 0 -1
  outer loop
    vertex -3 3 -3
    vertex -0.7660444431189779 0.6427876096865393 -3
    vertex -0.8660254037844388 0.5 -3
  endloop
endfacet
facet normal 0 0 -1
  outer loop
    vertex -3 3 -3
    vertex -1 -4.440892098500626e-16 -3
    vertex -3 -3 -3
  endloop
endfacet
facet normal 0 0 -1
  outer loop
    vertex 3 -3 -3
    vertex 0.5000000000000018 -0.8660254037844375 -3
    vertex 0.642787609686541 -0.7660444431189766 -3
  endloop
endfacet
facet normal 0 0 -1
  outer loop
    vertex 3 -3 -3
    vertex 0.3420201433256711 -0.9396926207859075 -3
    vertex 0.5000000000000018 -0.8660254037844375 -3
  endloop
endfacet
facet normal 0 0 -1
  outer loop
    vertex 3 -3 -3
    vertex 0.1736481776669327 -0.9848077530122077 -3
    vertex 0.3420201433256711 -0.9396926207859075 -3
  endloop
endfacet
facet normal 0 0 -1
  outer loop
    vertex 3 -3 -3
    vertex 2.664535259100376e-15 -1 -3
    vertex 0.1736481776669327 -0.9848077530122077 -3
  endloop
endfacet
facet normal 0 0 -1
  outer loop
    vertex 3 -3 -3
    vertex -3 -3 -3
    vertex 2.664535259100376e-15 -1 -3
  endloop
endfacet
facet normal -0 0 -1
  outer loop
    vertex -0.6427876096865393 0.7660444431189779 -3
    vertex -0.7660444431189779 0.6427876096865393 -3
    vertex -3 3 -3
  endloop
endfacet
facet normal 0 -0 -1
  outer loop
    vertex 0.7660444431189797 -0.6427876096865375 -3
    vertex 3 -3 -3
    vertex 0.642787609686541 -0.7660444431189766 -3
  endloop
endfacet
facet normal -0 0 -1
  outer loop
    vertex -0.5 0.8660254037844384 -3
    vertex -0.6427876096865393 0.7660444431189779 -3
    vertex -3 3 -3
  endloop
endfacet
facet normal 0 -0 -1
  outer loop
    vertex 0.8660254037844397 -0.4999999999999982 -3
    vertex 3 -3 -3
    vertex 0.7660444431189797 -0.6427876096865375 -3
  endloop
endfacet
facet normal -0 0 -1
  outer loop
    vertex -0.3420201433256689 0.9396926207859084 -3
    vertex -0.5 0.8660254037844384 -3
    vertex -3 3 -3
  endloop
endfacet
facet normal 0 -0 -1
  outer loop
    vertex 0.9396926207859089 -0.3420201433256671 -3
    vertex 3 -3 -3
    vertex 0.8660254037844397 -0.4999999999999982 -3
  endloop
endfacet
facet normal -0 0 -1
  outer loop
    vertex -0.1736481776669305 0.9848077530122081 -3
    vertex -0.3420201433256689 0.9396926207859084 -3
    vertex -3 3 -3
  endloop
endfacet
facet normal 0 -0 -1
  outer loop
    vertex 0.9848077530122081 -0.1736481776669287 -3
    vertex 3 -3 -3
    vertex 0.9396926207859089 -0.3420201433256671 -3
  endloop
endfacet
facet normal -0 0 -1
  outer loop
    vertex 0 1 -3
    vertex -0.1736481776669305 0.9848077530122081 -3
    vertex -3 3 -3
  endloop
endfacet
facet normal 0 -0 -1
  outer loop
    vertex 1 1.332267629550188e-15 -3
    vertex 3 -3 -3
    vertex 0.9848077530122081 -0.1736481776669287 -3
  endloop
endfacet
facet normal -0 0 -1
  outer loop
    vertex 3 3 -3
    vertex 0 1 -3
    vertex -3 3 -3
  endloop
endfacet
facet normal 0 0 -1
  outer loop
    vertex 3 3 -3
    vertex 0.1736481776669301 0.9848077530122081 -3
    vertex 0 1 -3
  endloop
endfacet
facet normal 0 0 -1
  outer loop
    vertex 3 3 -3
    vertex 0.3420201433256689 0.9396926207859084 -3
    vertex 0.1736481776669301 0.9848077530122081 -3
  endloop
endfacet
facet normal 0 0 -1
  outer loop
    vertex 3 3 -3
    vertex 0.5 0.8660254037844388 -3
    vertex 0.3420201433256689 0.9396926207859084 -3
  endloop
endfacet
facet normal 0 0 -1
  outer loop
    vertex 3 3 -3
    vertex 0.6427876096865388 0.7660444431189783 -3
    vertex 0.5 0.8660254037844388 -3
  endloop
endfacet
facet normal 0 0 -1
  outer loop
    vertex 3 3 -3
    vertex 0.7660444431189779 0.6427876096865397 -3
    vertex 0.6427876096865388 0.7660444431189783 -3
  endloop
endfacet
facet normal 0 0 -1
  outer loop
    vertex 3 3 -3
    vertex 0.8660254037844384 0.5000000000000009 -3
    vertex 0.7660444431189779 0.6427876096865397 -3
  endloop
endfacet
facet normal 0 0 -1
  outer loop
    vertex 3 3 -3
    vertex 0.939692620785908 0.3420201433256698 -3
    vertex 0.8660254037844384 0.5000000000000009 -3
  endloop
endfacet
facet normal 0 0 -1
  outer loop
    vertex 3 3 -3
    vertex 0.9848077530122077 0.1736481776669314 -3
    vertex 0.939692620785908 0.3420201433256698 -3
  endloop
endfacet
facet normal 0 0 -1
  outer loop
    vertex 3 3 -3
    vertex 1 1.332267629550188e-15 -3
    vertex 0.9848077530122077 0.1736481776669314 -3
  endloop
endfacet
facet normal 0 -0 -1
  outer loop
    vertex 3 3 -3
    vertex 3 -3 -3
    vertex 1 1.332267629550188e-15 -3
  endloop
endfacet
facet normal 1 0 0
  outer loop
    vertex 3 -3 3
    vertex 3 -3 -3
    vertex 3 3 -3
  endloop
endfacet
facet normal 1 -0 0
  outer loop
    vertex 3 -3 3
    vertex 3 3 -3
    vertex 3 3 3
  endloop
endfacet
endsolid walls
