solid inlet
facet normal -0.999507 0.0314108 1.58994e-19
  outer loop
    vertex -9.980267284282716 0.6279051952931337 -55
    vertex -10 0 -55
    vertex -10 0 -50
  endloop
endfacet
facet normal -0.999507 0.0314108 0
  outer loop
    vertex -9.980267284282716 0.6279051952931337 -55
    vertex -10 0 -50
    vertex -9.980267284282716 0.6279051952931337 -50
  endloop
endfacet
facet normal -0.995562 0.0941083 0
  outer loop
    vertex -9.921147013144779 1.253332335643043 -55
    vertex -9.980267284282716 0.6279051952931337 -50
    vertex -9.921147013144779 1.253332335643043 -50
  endloop
endfacet
facet normal -0.995562 0.0941083 9.4332e-19
  outer loop
    vertex -9.921147013144779 1.253332335643043 -55
    vertex -9.980267284282716 0.6279051952931337 -55
    vertex -9.980267284282716 0.6279051952931337 -50
  endloop
endfacet
facet normal -0.987688 0.156434 0
  outer loop
    vertex -9.822872507286887 1.873813145857246 -55
    vertex -9.921147013144779 1.253332335643043 -50
    vertex -9.822872507286887 1.873813145857246 -50
  endloop
endfacet
facet normal -0.987688 0.156434 8.33137e-19
  outer loop
    vertex -9.822872507286887 1.873813145857246 -55
    vertex -9.921147013144779 1.253332335643043 -55
    vertex -9.921147013144779 1.253332335643043 -50
  endloop
endfacet
facet normal -0.975917 0.218143 0
  outer loop
    vertex -9.685831611286311 2.486898871648548 -55
    vertex -9.822872507286887 1.873813145857246 -50
    vertex -9.685831611286311 2.486898871648548 -50
  endloop
endfacet
facet normal -0.975917 0.218143 1.59591e-19
  outer loop
    vertex -9.685831611286311 2.486898871648548 -55
    vertex -9.822872507286887 1.873813145857246 -55
    vertex -9.822872507286887 1.873813145857246 -50
  endloop
endfacet
facet normal -0.960294 0.278991 0
  outer loop
    vertex -9.510565162951535 3.090169943749474 -55
    vertex -9.685831611286311 2.486898871648548 -50
    vertex -9.510565162951535 3.090169943749474 -50
  endloop
endfacet
facet normal -0.960294 0.278991 1.70632e-19
  outer loop
    vertex -9.510565162951535 3.090169943749474 -55
    vertex -9.685831611286311 2.486898871648548 -55
    vertex -9.685831611286311 2.486898871648548 -50
  endloop
endfacet
facet normal -0.940881 0.338738 0
  outer loop
    vertex -9.297764858882514 3.681245526846779 -55
    vertex -9.510565162951535 3.090169943749474 -50
    vertex -9.297764858882514 3.681245526846779 -50
  endloop
endfacet
facet normal -0.940881 0.338738 -1.0475e-18
  outer loop
    vertex -9.297764858882514 3.681245526846779 -55
    vertex -9.510565162951535 3.090169943749474 -55
    vertex -9.510565162951535 3.090169943749474 -50
  endloop
endfacet
facet normal -0.917755 0.397148 0
  outer loop
    vertex -9.048270524660197 4.257792915650726 -55
    vertex -9.297764858882514 3.681245526846779 -50
    vertex -9.048270524660197 4.257792915650726 -50
  endloop
endfacet
facet normal -0.891007 0.45399 0
  outer loop
    vertex -9.048270524660197 4.257792915650726 -55
    vertex -9.048270524660197 4.257792915650726 -50
    vertex -8.763066800438637 4.817536741017152 -50
  endloop
endfacet
facet normal -0.917755 0.397148 -1.37771e-18
  outer loop
    vertex -9.048270524660197 4.257792915650726 -55
    vertex -9.297764858882514 3.681245526846779 -55
    vertex -9.297764858882514 3.681245526846779 -50
  endloop
endfacet
facet normal -0.860742 0.509041 0
  outer loop
    vertex -8.763066800438637 4.817536741017152 -55
    vertex -8.763066800438637 4.817536741017152 -50
    vertex -8.443279255020151 5.358267949789965 -50
  endloop
endfacet
facet normal -0.891007 0.45399 0
  outer loop
    vertex -8.763066800438637 4.817536741017152 -55
    vertex -9.048270524660197 4.257792915650726 -55
    vertex -8.763066800438637 4.817536741017152 -50
  endloop
endfacet
facet normal -0.827081 0.562083 0
  outer loop
    vertex -8.443279255020151 5.358267949789965 -55
    vertex -8.443279255020151 5.358267949789965 -50
    vertex -8.090169943749475 5.87785252292473 -50
  endloop
endfacet
facet normal -0.860742 0.509041 0
  outer loop
    vertex -8.443279255020151 5.358267949789965 -55
    vertex -8.763066800438637 4.817536741017152 -55
    vertex -8.443279255020151 5.358267949789965 -50
  endloop
endfacet
facet normal -0.827081 0.562083 0
  outer loop
    vertex -8.090169943749475 5.87785252292473 -55
    vertex -8.443279255020151 5.358267949789965 -55
    vertex -8.090169943749475 5.87785252292473 -50
  endloop
endfacet
facet normal -0.790155 0.612907 0
  outer loop
    vertex -7.705132427757894 6.374239897486897 -55
    vertex -8.090169943749475 5.87785252292473 -50
    vertex -7.705132427757894 6.374239897486897 -50
  endloop
endfacet
facet normal -0.790155 0.612907 -9.17375e-19
  outer loop
    vertex -7.705132427757894 6.374239897486897 -55
    vertex -8.090169943749475 5.87785252292473 -55
    vertex -8.090169943749475 5.87785252292473 -50
  endloop
endfacet
facet normal -0.750111 0.661312 0
  outer loop
    vertex -7.289686274214117 6.845471059286885 -55
    vertex -7.705132427757894 6.374239897486897 -50
    vertex -7.289686274214117 6.845471059286885 -50
  endloop
endfacet
facet normal -0.707107 0.707107 0
  outer loop
    vertex -7.289686274214117 6.845471059286885 -55
    vertex -7.289686274214117 6.845471059286885 -50
    vertex -6.845471059286888 7.289686274214113 -50
  endloop
endfacet
facet normal -0.750111 0.661312 -9.82467e-20
  outer loop
    vertex -7.289686274214117 6.845471059286885 -55
    vertex -7.705132427757894 6.374239897486897 -55
    vertex -7.705132427757894 6.374239897486897 -50
  endloop
endfacet
facet normal -0.707107 0.707107 0
  outer loop
    vertex -6.845471059286888 7.289686274214113 -55
    vertex -7.289686274214117 6.845471059286885 -55
    vertex -6.845471059286888 7.289686274214113 -50
  endloop
endfacet
facet normal -0.661312 0.750111 0
  outer loop
    vertex -6.374239897486898 7.70513242775789 -55
    vertex -6.845471059286888 7.289686274214113 -50
    vertex -6.374239897486898 7.70513242775789 -50
  endloop
endfacet
facet normal -0.661312 0.750111 -3.73392e-18
  outer loop
    vertex -6.374239897486898 7.70513242775789 -55
    vertex -6.845471059286888 7.289686274214113 -55
    vertex -6.845471059286888 7.289686274214113 -50
  endloop
endfacet
facet normal -0.612907 0.790155 0
  outer loop
    vertex -5.877852522924734 8.090169943749473 -55
    vertex -6.374239897486898 7.70513242775789 -50
    vertex -5.877852522924734 8.090169943749473 -50
  endloop
endfacet
facet normal -0.612907 0.790155 1.99457e-19
  outer loop
    vertex -5.877852522924734 8.090169943749473 -55
    vertex -6.374239897486898 7.70513242775789 -55
    vertex -6.374239897486898 7.70513242775789 -50
  endloop
endfacet
facet normal -0.562083 0.827081 0
  outer loop
    vertex -5.358267949789967 8.443279255020149 -55
    vertex -5.877852522924734 8.090169943749473 -50
    vertex -5.358267949789967 8.443279255020149 -50
  endloop
endfacet
facet normal -0.509041 0.860742 0
  outer loop
    vertex -5.358267949789967 8.443279255020149 -55
    vertex -5.358267949789967 8.443279255020149 -50
    vertex -4.817536741017153 8.763066800438637 -50
  endloop
endfacet
facet normal -0.562083 0.827081 -3.9325e-18
  outer loop
    vertex -5.358267949789967 8.443279255020149 -55
    vertex -5.877852522924734 8.090169943749473 -55
    vertex -5.877852522924734 8.090169943749473 -50
  endloop
endfacet
facet normal -0.509041 0.860742 0
  outer loop
    vertex -4.817536741017153 8.763066800438637 -55
    vertex -5.358267949789967 8.443279255020149 -55
    vertex -4.817536741017153 8.763066800438637 -50
  endloop
endfacet
facet normal -0.45399 0.891007 0
  outer loop
    vertex -4.257792915650727 9.048270524660197 -55
    vertex -4.817536741017153 8.763066800438637 -50
    vertex -4.257792915650727 9.048270524660197 -50
  endloop
endfacet
facet normal -0.397148 0.917755 0
  outer loop
    vertex -4.257792915650727 9.048270524660197 -55
    vertex -4.257792915650727 9.048270524660197 -50
    vertex -3.681245526846779 9.297764858882514 -50
  endloop
endfacet
facet normal -0.45399 0.891007 -1.20328e-18
  outer loop
    vertex -4.257792915650727 9.048270524660197 -55
    vertex -4.817536741017153 8.763066800438637 -55
    vertex -4.817536741017153 8.763066800438637 -50
  endloop
endfacet
facet normal -0.397148 0.917755 0
  outer loop
    vertex -3.681245526846779 9.297764858882514 -55
    vertex -4.257792915650727 9.048270524660197 -55
    vertex -3.681245526846779 9.297764858882514 -50
  endloop
endfacet
facet normal -0.338738 0.940881 0
  outer loop
    vertex -3.090169943749473 9.510565162951536 -55
    vertex -3.681245526846779 9.297764858882514 -50
    vertex -3.090169943749473 9.510565162951536 -50
  endloop
endfacet
facet normal -0.338738 0.940881 -4.2423e-18
  outer loop
    vertex -3.090169943749473 9.510565162951536 -55
    vertex -3.681245526846779 9.297764858882514 -55
    vertex -3.681245526846779 9.297764858882514 -50
  endloop
endfacet
facet normal -0.278991 0.960294 0
  outer loop
    vertex -2.486898871648545 9.685831611286313 -55
    vertex -3.090169943749473 9.510565162951536 -50
    vertex -2.486898871648545 9.685831611286313 -50
  endloop
endfacet
facet normal -0.278991 0.960294 -5.99989e-19
  outer loop
    vertex -2.486898871648545 9.685831611286313 -55
    vertex -3.090169943749473 9.510565162951536 -55
    vertex -3.090169943749473 9.510565162951536 -50
  endloop
endfacet
facet normal -0.218143 0.975917 0
  outer loop
    vertex -1.873813145857243 9.822872507286887 -55
    vertex -2.486898871648545 9.685831611286313 -50
    vertex -1.873813145857243 9.822872507286887 -50
  endloop
endfacet
facet normal -0.218143 0.975917 6.14618e-19
  outer loop
    vertex -1.873813145857243 9.822872507286887 -55
    vertex -2.486898871648545 9.685831611286313 -55
    vertex -2.486898871648545 9.685831611286313 -50
  endloop
endfacet
facet normal -0.156434 0.987688 0
  outer loop
    vertex -1.253332335643038 9.921147013144779 -55
    vertex -1.873813145857243 9.822872507286887 -50
    vertex -1.253332335643038 9.921147013144779 -50
  endloop
endfacet
facet normal -0.0941083 0.995562 0
  outer loop
    vertex -1.253332335643038 9.921147013144779 -55
    vertex -1.253332335643038 9.921147013144779 -50
    vertex -0.6279051952931286 9.980267284282716 -50
  endloop
endfacet
facet normal -0.156434 0.987688 2.23256e-19
  outer loop
    vertex -1.253332335643038 9.921147013144779 -55
    vertex -1.873813145857243 9.822872507286887 -55
    vertex -1.873813145857243 9.822872507286887 -50
  endloop
endfacet
facet normal -0.0941083 0.995562 0
  outer loop
    vertex -0.6279051952931286 9.980267284282716 -55
    vertex -1.253332335643038 9.921147013144779 -55
    vertex -0.6279051952931286 9.980267284282716 -50
  endloop
endfacet
facet normal -0.0314108 0.999507 0
  outer loop
    vertex 3.82856869892695e-15 10 -55
    vertex -0.6279051952931286 9.980267284282716 -50
    vertex 3.82856869892695e-15 10 -50
  endloop
endfacet
facet normal -0.0314108 0.999507 7.35437e-20
  outer loop
    vertex 3.82856869892695e-15 10 -55
    vertex -0.6279051952931286 9.980267284282716 -55
    vertex -0.6279051952931286 9.980267284282716 -50
  endloop
endfacet
facet normal 0.0314108 0.999507 4.87036e-20
  outer loop
    vertex 0.6279051952931407 9.980267284282716 -55
    vertex 3.82856869892695e-15 10 -55
    vertex 3.82856869892695e-15 10 -50
  endloop
endfacet
facet normal 0.0314108 0.999507 -0
  outer loop
    vertex 0.6279051952931407 9.980267284282716 -55
    vertex 3.82856869892695e-15 10 -50
    vertex 0.6279051952931407 9.980267284282716 -50
  endloop
endfacet
facet normal 0.0941083 0.995562 -0
  outer loop
    vertex 0.6279051952931407 9.980267284282716 -55
    vertex 0.6279051952931407 9.980267284282716 -50
    vertex 1.25333233564305 9.921147013144777 -50
  endloop
endfacet
facet normal 0.0941083 0.995562 -0
  outer loop
    vertex 1.25333233564305 9.921147013144777 -55
    vertex 0.6279051952931407 9.980267284282716 -55
    vertex 1.25333233564305 9.921147013144777 -50
  endloop
endfacet
facet normal 0.156434 0.987688 -0
  outer loop
    vertex 1.25333233564305 9.921147013144777 -55
    vertex 1.25333233564305 9.921147013144777 -50
    vertex 1.873813145857255 9.822872507286885 -50
  endloop
endfacet
facet normal 0.156434 0.987688 -0
  outer loop
    vertex 1.873813145857255 9.822872507286885 -55
    vertex 1.25333233564305 9.921147013144777 -55
    vertex 1.873813145857255 9.822872507286885 -50
  endloop
endfacet
facet normal 0.218143 0.975917 -1.01077e-18
  outer loop
    vertex 2.486898871648557 9.685831611286309 -55
    vertex 1.873813145857255 9.822872507286885 -55
    vertex 1.873813145857255 9.822872507286885 -50
  endloop
endfacet
facet normal 0.218143 0.975917 -0
  outer loop
    vertex 2.486898871648557 9.685831611286309 -55
    vertex 1.873813145857255 9.822872507286885 -50
    vertex 2.486898871648557 9.685831611286309 -50
  endloop
endfacet
facet normal 0.278991 0.960294 -1.12961e-18
  outer loop
    vertex 3.090169943749484 9.510565162951533 -55
    vertex 2.486898871648557 9.685831611286309 -55
    vertex 2.486898871648557 9.685831611286309 -50
  endloop
endfacet
facet normal 0.278991 0.960294 -0
  outer loop
    vertex 3.090169943749484 9.510565162951533 -55
    vertex 2.486898871648557 9.685831611286309 -50
    vertex 3.090169943749484 9.510565162951533 -50
  endloop
endfacet
facet normal 0.338738 0.940881 -0
  outer loop
    vertex 3.090169943749484 9.510565162951533 -55
    vertex 3.090169943749484 9.510565162951533 -50
    vertex 3.68124552684679 9.297764858882511 -50
  endloop
endfacet
facet normal 0.338738 0.940881 -0
  outer loop
    vertex 3.68124552684679 9.297764858882511 -55
    vertex 3.090169943749484 9.510565162951533 -55
    vertex 3.68124552684679 9.297764858882511 -50
  endloop
endfacet
facet normal 0.397148 0.917755 -0
  outer loop
    vertex 4.257792915650736 9.048270524660191 -55
    vertex 3.68124552684679 9.297764858882511 -50
    vertex 4.257792915650736 9.048270524660191 -50
  endloop
endfacet
facet normal 0.397148 0.917755 2.05541e-18
  outer loop
    vertex 4.257792915650736 9.048270524660191 -55
    vertex 3.68124552684679 9.297764858882511 -55
    vertex 3.68124552684679 9.297764858882511 -50
  endloop
endfacet
facet normal 0.45399 0.891007 -0
  outer loop
    vertex 4.817536741017162 8.763066800438629 -55
    vertex 4.257792915650736 9.048270524660191 -50
    vertex 4.817536741017162 8.763066800438629 -50
  endloop
endfacet
facet normal 0.509041 0.860742 -0
  outer loop
    vertex 4.817536741017162 8.763066800438629 -55
    vertex 4.817536741017162 8.763066800438629 -50
    vertex 5.358267949789975 8.443279255020144 -50
  endloop
endfacet
facet normal 0.45399 0.891007 2.76196e-18
  outer loop
    vertex 4.817536741017162 8.763066800438629 -55
    vertex 4.257792915650736 9.048270524660191 -55
    vertex 4.257792915650736 9.048270524660191 -50
  endloop
endfacet
facet normal 0.509041 0.860742 -0
  outer loop
    vertex 5.358267949789975 8.443279255020144 -55
    vertex 4.817536741017162 8.763066800438629 -55
    vertex 5.358267949789975 8.443279255020144 -50
  endloop
endfacet
facet normal 0.562083 0.827081 -0
  outer loop
    vertex 5.877852522924742 8.090169943749467 -55
    vertex 5.358267949789975 8.443279255020144 -50
    vertex 5.877852522924742 8.090169943749467 -50
  endloop
endfacet
facet normal 0.562083 0.827081 3.9325e-18
  outer loop
    vertex 5.877852522924742 8.090169943749467 -55
    vertex 5.358267949789975 8.443279255020144 -55
    vertex 5.358267949789975 8.443279255020144 -50
  endloop
endfacet
facet normal 0.612907 0.790155 -0
  outer loop
    vertex 6.374239897486907 7.705132427757883 -55
    vertex 5.877852522924742 8.090169943749467 -50
    vertex 6.374239897486907 7.705132427757883 -50
  endloop
endfacet
facet normal 0.612907 0.790155 -9.9466e-19
  outer loop
    vertex 6.374239897486907 7.705132427757883 -55
    vertex 5.877852522924742 8.090169943749467 -55
    vertex 5.877852522924742 8.090169943749467 -50
  endloop
endfacet
facet normal 0.661312 0.750111 -0
  outer loop
    vertex 6.845471059286897 7.289686274214105 -55
    vertex 6.374239897486907 7.705132427757883 -50
    vertex 6.845471059286897 7.289686274214105 -50
  endloop
endfacet
facet normal 0.661312 0.750111 3.03234e-18
  outer loop
    vertex 6.845471059286897 7.289686274214105 -55
    vertex 6.374239897486907 7.705132427757883 -55
    vertex 6.374239897486907 7.705132427757883 -50
  endloop
endfacet
facet normal 0.707107 0.707107 -0
  outer loop
    vertex 7.289686274214126 6.845471059286876 -55
    vertex 6.845471059286897 7.289686274214105 -50
    vertex 7.289686274214126 6.845471059286876 -50
  endloop
endfacet
facet normal 0.707107 0.707107 -2.61972e-18
  outer loop
    vertex 7.289686274214126 6.845471059286876 -55
    vertex 6.845471059286897 7.289686274214105 -55
    vertex 6.845471059286897 7.289686274214105 -50
  endloop
endfacet
facet normal 0.750111 0.661312 -0
  outer loop
    vertex 7.705132427757903 6.374239897486885 -55
    vertex 7.289686274214126 6.845471059286876 -50
    vertex 7.705132427757903 6.374239897486885 -50
  endloop
endfacet
facet normal 0.790155 0.612907 -0
  outer loop
    vertex 7.705132427757903 6.374239897486885 -55
    vertex 7.705132427757903 6.374239897486885 -50
    vertex 8.090169943749485 5.877852522924718 -50
  endloop
endfacet
facet normal 0.750111 0.661312 1.13359e-18
  outer loop
    vertex 7.705132427757903 6.374239897486885 -55
    vertex 7.289686274214126 6.845471059286876 -55
    vertex 7.289686274214126 6.845471059286876 -50
  endloop
endfacet
facet normal 0.827081 0.562083 -0
  outer loop
    vertex 8.090169943749485 5.877852522924718 -55
    vertex 8.090169943749485 5.877852522924718 -50
    vertex 8.44327925502016 5.358267949789951 -50
  endloop
endfacet
facet normal 0.790155 0.612907 -0
  outer loop
    vertex 8.090169943749485 5.877852522924718 -55
    vertex 7.705132427757903 6.374239897486885 -55
    vertex 8.090169943749485 5.877852522924718 -50
  endloop
endfacet
facet normal 0.827081 0.562083 -0
  outer loop
    vertex 8.44327925502016 5.358267949789951 -55
    vertex 8.090169943749485 5.877852522924718 -55
    vertex 8.44327925502016 5.358267949789951 -50
  endloop
endfacet
facet normal 0.860742 0.509041 -0
  outer loop
    vertex 8.763066800438645 4.817536741017136 -55
    vertex 8.44327925502016 5.358267949789951 -50
    vertex 8.763066800438645 4.817536741017136 -50
  endloop
endfacet
facet normal 0.891007 0.45399 -0
  outer loop
    vertex 8.763066800438645 4.817536741017136 -55
    vertex 8.763066800438645 4.817536741017136 -50
    vertex 9.048270524660204 4.257792915650709 -50
  endloop
endfacet
facet normal 0.860742 0.509041 -3.36042e-18
  outer loop
    vertex 8.763066800438645 4.817536741017136 -55
    vertex 8.44327925502016 5.358267949789951 -55
    vertex 8.44327925502016 5.358267949789951 -50
  endloop
endfacet
facet normal 0.917755 0.397148 -0
  outer loop
    vertex 9.048270524660204 4.257792915650709 -55
    vertex 9.048270524660204 4.257792915650709 -50
    vertex 9.297764858882523 3.681245526846757 -50
  endloop
endfacet
facet normal 0.891007 0.45399 -0
  outer loop
    vertex 9.048270524660204 4.257792915650709 -55
    vertex 8.763066800438645 4.817536741017136 -55
    vertex 9.048270524660204 4.257792915650709 -50
  endloop
endfacet
facet normal 0.917755 0.397148 -0
  outer loop
    vertex 9.297764858882523 3.681245526846757 -55
    vertex 9.048270524660204 4.257792915650709 -55
    vertex 9.297764858882523 3.681245526846757 -50
  endloop
endfacet
facet normal 0.940881 0.338738 -0
  outer loop
    vertex 9.51056516295154 3.090169943749459 -55
    vertex 9.297764858882523 3.681245526846757 -50
    vertex 9.51056516295154 3.090169943749459 -50
  endloop
endfacet
facet normal 0.940881 0.338738 2.23645e-18
  outer loop
    vertex 9.51056516295154 3.090169943749459 -55
    vertex 9.297764858882523 3.681245526846757 -55
    vertex 9.297764858882523 3.681245526846757 -50
  endloop
endfacet
facet normal 0.960294 0.278991 -0
  outer loop
    vertex 9.685831611286316 2.486898871648527 -55
    vertex 9.51056516295154 3.090169943749459 -50
    vertex 9.685831611286316 2.486898871648527 -50
  endloop
endfacet
facet normal 0.975917 0.218143 -0
  outer loop
    vertex 9.685831611286316 2.486898871648527 -55
    vertex 9.685831611286316 2.486898871648527 -50
    vertex 9.82287250728689 1.873813145857224 -50
  endloop
endfacet
facet normal 0.960294 0.278991 2.23281e-19
  outer loop
    vertex 9.685831611286316 2.486898871648527 -55
    vertex 9.51056516295154 3.090169943749459 -55
    vertex 9.51056516295154 3.090169943749459 -50
  endloop
endfacet
facet normal 0.975917 0.218143 -0
  outer loop
    vertex 9.82287250728689 1.873813145857224 -55
    vertex 9.685831611286316 2.486898871648527 -55
    vertex 9.82287250728689 1.873813145857224 -50
  endloop
endfacet
facet normal 0.987688 0.156434 -0
  outer loop
    vertex 9.921147013144781 1.253332335643019 -55
    vertex 9.82287250728689 1.873813145857224 -50
    vertex 9.921147013144781 1.253332335643019 -50
  endloop
endfacet
facet normal 0.995562 0.0941083 -0
  outer loop
    vertex 9.921147013144781 1.253332335643019 -55
    vertex 9.921147013144781 1.253332335643019 -50
    vertex 9.980267284282716 0.6279051952931093 -50
  endloop
endfacet
facet normal 0.987688 0.156434 -5.69888e-19
  outer loop
    vertex 9.921147013144781 1.253332335643019 -55
    vertex 9.82287250728689 1.873813145857224 -55
    vertex 9.82287250728689 1.873813145857224 -50
  endloop
endfacet
facet normal 0.995562 0.0941083 -0
  outer loop
    vertex 9.980267284282716 0.6279051952931093 -55
    vertex 9.921147013144781 1.253332335643019 -55
    vertex 9.980267284282716 0.6279051952931093 -50
  endloop
endfacet
facet normal 0.999507 0.0314108 1.91121e-19
  outer loop
    vertex 10 -2.542070579185641e-14 -55
    vertex 9.980267284282716 0.6279051952931093 -55
    vertex 9.980267284282716 0.6279051952931093 -50
  endloop
endfacet
facet normal 0.999507 0.0314108 -0
  outer loop
    vertex 10 -2.542070579185641e-14 -55
    vertex 9.980267284282716 0.6279051952931093 -50
    vertex 10 -2.542070579185641e-14 -50
  endloop
endfacet
facet normal 0.999507 -0.0314108 2.0211e-19
  outer loop
    vertex 9.980267284282714 -0.62790519529316 -55
    vertex 10 -2.542070579185641e-14 -55
    vertex 10 -2.542070579185641e-14 -50
  endloop
endfacet
facet normal 0.999507 -0.0314108 0
  outer loop
    vertex 9.980267284282714 -0.62790519529316 -55
    vertex 10 -2.542070579185641e-14 -50
    vertex 9.980267284282714 -0.62790519529316 -50
  endloop
endfacet
facet normal 0.995562 -0.0941083 5.87591e-19
  outer loop
    vertex 9.921147013144775 -1.253332335643069 -55
    vertex 9.980267284282714 -0.62790519529316 -55
    vertex 9.980267284282714 -0.62790519529316 -50
  endloop
endfacet
facet normal 0.995562 -0.0941083 0
  outer loop
    vertex 9.921147013144775 -1.253332335643069 -55
    vertex 9.980267284282714 -0.62790519529316 -50
    vertex 9.921147013144775 -1.253332335643069 -50
  endloop
endfacet
facet normal 0.987688 -0.156434 0
  outer loop
    vertex 9.921147013144775 -1.253332335643069 -55
    vertex 9.921147013144775 -1.253332335643069 -50
    vertex 9.822872507286881 -1.873813145857274 -50
  endloop
endfacet
facet normal 0.987688 -0.156434 0
  outer loop
    vertex 9.822872507286881 -1.873813145857274 -55
    vertex 9.921147013144775 -1.253332335643069 -55
    vertex 9.822872507286881 -1.873813145857274 -50
  endloop
endfacet
facet normal 0.975917 -0.218143 -4.57708e-19
  outer loop
    vertex 9.685831611286304 -2.486898871648576 -55
    vertex 9.822872507286881 -1.873813145857274 -55
    vertex 9.822872507286881 -1.873813145857274 -50
  endloop
endfacet
facet normal 0.975917 -0.218143 0
  outer loop
    vertex 9.685831611286304 -2.486898871648576 -55
    vertex 9.822872507286881 -1.873813145857274 -50
    vertex 9.685831611286304 -2.486898871648576 -50
  endloop
endfacet
facet normal 0.960294 -0.278991 1.13687e-18
  outer loop
    vertex 9.510565162951526 -3.090169943749502 -55
    vertex 9.685831611286304 -2.486898871648576 -55
    vertex 9.685831611286304 -2.486898871648576 -50
  endloop
endfacet
facet normal 0.960294 -0.278991 0
  outer loop
    vertex 9.510565162951526 -3.090169943749502 -55
    vertex 9.685831611286304 -2.486898871648576 -50
    vertex 9.510565162951526 -3.090169943749502 -50
  endloop
endfacet
facet normal 0.940881 -0.338738 3.08158e-18
  outer loop
    vertex 9.297764858882502 -3.681245526846808 -55
    vertex 9.510565162951526 -3.090169943749502 -55
    vertex 9.510565162951526 -3.090169943749502 -50
  endloop
endfacet
facet normal 0.940881 -0.338738 0
  outer loop
    vertex 9.297764858882502 -3.681245526846808 -55
    vertex 9.510565162951526 -3.090169943749502 -50
    vertex 9.297764858882502 -3.681245526846808 -50
  endloop
endfacet
facet normal 0.917755 -0.397148 0
  outer loop
    vertex 9.297764858882502 -3.681245526846808 -55
    vertex 9.297764858882502 -3.681245526846808 -50
    vertex 9.048270524660181 -4.257792915650755 -50
  endloop
endfacet
facet normal 0.917755 -0.397148 0
  outer loop
    vertex 9.048270524660181 -4.257792915650755 -55
    vertex 9.297764858882502 -3.681245526846808 -55
    vertex 9.048270524660181 -4.257792915650755 -50
  endloop
endfacet
facet normal 0.891007 -0.45399 2.82786e-18
  outer loop
    vertex 8.763066800438619 -4.817536741017185 -55
    vertex 9.048270524660181 -4.257792915650755 -55
    vertex 9.048270524660181 -4.257792915650755 -50
  endloop
endfacet
facet normal 0.891007 -0.45399 0
  outer loop
    vertex 8.763066800438619 -4.817536741017185 -55
    vertex 9.048270524660181 -4.257792915650755 -50
    vertex 8.763066800438619 -4.817536741017185 -50
  endloop
endfacet
facet normal 0.860742 -0.509041 3.90109e-18
  outer loop
    vertex 8.443279255020135 -5.358267949789991 -55
    vertex 8.763066800438619 -4.817536741017185 -55
    vertex 8.763066800438619 -4.817536741017185 -50
  endloop
endfacet
facet normal 0.860742 -0.509041 0
  outer loop
    vertex 8.443279255020135 -5.358267949789991 -55
    vertex 8.763066800438619 -4.817536741017185 -50
    vertex 8.443279255020135 -5.358267949789991 -50
  endloop
endfacet
facet normal 0.827081 -0.562083 0
  outer loop
    vertex 8.443279255020135 -5.358267949789991 -55
    vertex 8.443279255020135 -5.358267949789991 -50
    vertex 8.090169943749455 -5.877852522924759 -50
  endloop
endfacet
facet normal 0.827081 -0.562083 0
  outer loop
    vertex 8.090169943749455 -5.877852522924759 -55
    vertex 8.443279255020135 -5.358267949789991 -55
    vertex 8.090169943749455 -5.877852522924759 -50
  endloop
endfacet
facet normal 0.790155 -0.612907 -1.84357e-18
  outer loop
    vertex 7.705132427757871 -6.374239897486924 -55
    vertex 8.090169943749455 -5.877852522924759 -55
    vertex 8.090169943749455 -5.877852522924759 -50
  endloop
endfacet
facet normal 0.790155 -0.612907 0
  outer loop
    vertex 7.705132427757871 -6.374239897486924 -55
    vertex 8.090169943749455 -5.877852522924759 -50
    vertex 7.705132427757871 -6.374239897486924 -50
  endloop
endfacet
facet normal 0.750111 -0.661312 -4.22951e-18
  outer loop
    vertex 7.289686274214091 -6.845471059286913 -55
    vertex 7.705132427757871 -6.374239897486924 -55
    vertex 7.705132427757871 -6.374239897486924 -50
  endloop
endfacet
facet normal 0.750111 -0.661312 0
  outer loop
    vertex 7.289686274214091 -6.845471059286913 -55
    vertex 7.705132427757871 -6.374239897486924 -50
    vertex 7.289686274214091 -6.845471059286913 -50
  endloop
endfacet
facet normal 0.707107 -0.707107 2.61972e-18
  outer loop
    vertex 6.84547105928686 -7.28968627421414 -55
    vertex 7.289686274214091 -6.845471059286913 -55
    vertex 7.289686274214091 -6.845471059286913 -50
  endloop
endfacet
facet normal 0.707107 -0.707107 0
  outer loop
    vertex 6.84547105928686 -7.28968627421414 -55
    vertex 7.289686274214091 -6.845471059286913 -50
    vertex 6.84547105928686 -7.28968627421414 -50
  endloop
endfacet
facet normal 0.661312 -0.750111 7.65155e-19
  outer loop
    vertex 6.374239897486868 -7.705132427757916 -55
    vertex 6.84547105928686 -7.28968627421414 -55
    vertex 6.84547105928686 -7.28968627421414 -50
  endloop
endfacet
facet normal 0.661312 -0.750111 0
  outer loop
    vertex 6.374239897486868 -7.705132427757916 -55
    vertex 6.84547105928686 -7.28968627421414 -50
    vertex 6.374239897486868 -7.705132427757916 -50
  endloop
endfacet
facet normal 0.612907 -0.790155 -3.5293e-18
  outer loop
    vertex 5.877852522924703 -8.090169943749494 -55
    vertex 6.374239897486868 -7.705132427757916 -55
    vertex 6.374239897486868 -7.705132427757916 -50
  endloop
endfacet
facet normal 0.612907 -0.790155 0
  outer loop
    vertex 5.877852522924703 -8.090169943749494 -55
    vertex 6.374239897486868 -7.705132427757916 -50
    vertex 5.877852522924703 -8.090169943749494 -50
  endloop
endfacet
facet normal 0.562083 -0.827081 0
  outer loop
    vertex 5.358267949789941 -8.443279255020167 -55
    vertex 5.877852522924703 -8.090169943749494 -50
    vertex 5.358267949789941 -8.443279255020167 -50
  endloop
endfacet
facet normal 0.562083 -0.827081 -1.32417e-18
  outer loop
    vertex 5.358267949789941 -8.443279255020167 -55
    vertex 5.877852522924703 -8.090169943749494 -55
    vertex 5.877852522924703 -8.090169943749494 -50
  endloop
endfacet
facet normal 0.509041 -0.860742 0
  outer loop
    vertex 4.817536741017129 -8.763066800438649 -55
    vertex 5.358267949789941 -8.443279255020167 -50
    vertex 4.817536741017129 -8.763066800438649 -50
  endloop
endfacet
facet normal 0.509041 -0.860742 2.06677e-18
  outer loop
    vertex 4.817536741017129 -8.763066800438649 -55
    vertex 5.358267949789941 -8.443279255020167 -55
    vertex 5.358267949789941 -8.443279255020167 -50
  endloop
endfacet
facet normal 0.45399 -0.891007 0
  outer loop
    vertex 4.257792915650706 -9.048270524660204 -55
    vertex 4.817536741017129 -8.763066800438649 -50
    vertex 4.257792915650706 -9.048270524660204 -50
  endloop
endfacet
facet normal 0.397148 -0.917755 0
  outer loop
    vertex 4.257792915650706 -9.048270524660204 -55
    vertex 4.257792915650706 -9.048270524660204 -50
    vertex 3.681245526846761 -9.297764858882521 -50
  endloop
endfacet
facet normal 0.45399 -0.891007 1.18883e-19
  outer loop
    vertex 4.257792915650706 -9.048270524660204 -55
    vertex 4.817536741017129 -8.763066800438649 -55
    vertex 4.817536741017129 -8.763066800438649 -50
  endloop
endfacet
facet normal 0.338738 -0.940881 0
  outer loop
    vertex 3.681245526846761 -9.297764858882521 -55
    vertex 3.681245526846761 -9.297764858882521 -50
    vertex 3.090169943749459 -9.51056516295154 -50
  endloop
endfacet
facet normal 0.397148 -0.917755 0
  outer loop
    vertex 3.681245526846761 -9.297764858882521 -55
    vertex 4.257792915650706 -9.048270524660204 -55
    vertex 3.681245526846761 -9.297764858882521 -50
  endloop
endfacet
facet normal 0.338738 -0.940881 0
  outer loop
    vertex 3.090169943749459 -9.51056516295154 -55
    vertex 3.681245526846761 -9.297764858882521 -55
    vertex 3.090169943749459 -9.51056516295154 -50
  endloop
endfacet
facet normal 0.278991 -0.960294 0
  outer loop
    vertex 2.486898871648536 -9.685831611286314 -55
    vertex 3.090169943749459 -9.51056516295154 -50
    vertex 2.486898871648536 -9.685831611286314 -50
  endloop
endfacet
facet normal 0.278991 -0.960294 7.45632e-19
  outer loop
    vertex 2.486898871648536 -9.685831611286314 -55
    vertex 3.090169943749459 -9.51056516295154 -55
    vertex 3.090169943749459 -9.51056516295154 -50
  endloop
endfacet
facet normal 0.218143 -0.975917 0
  outer loop
    vertex 1.873813145857238 -9.822872507286888 -55
    vertex 2.486898871648536 -9.685831611286314 -50
    vertex 1.873813145857238 -9.822872507286888 -50
  endloop
endfacet
facet normal 0.218143 -0.975917 1.2637e-18
  outer loop
    vertex 1.873813145857238 -9.822872507286888 -55
    vertex 2.486898871648536 -9.685831611286314 -55
    vertex 2.486898871648536 -9.685831611286314 -50
  endloop
endfacet
facet normal 0.156434 -0.987688 0
  outer loop
    vertex 1.253332335643037 -9.921147013144779 -55
    vertex 1.873813145857238 -9.822872507286888 -50
    vertex 1.253332335643037 -9.921147013144779 -50
  endloop
endfacet
facet normal 0.156434 -0.987688 8.00331e-19
  outer loop
    vertex 1.253332335643037 -9.921147013144779 -55
    vertex 1.873813145857238 -9.822872507286888 -55
    vertex 1.873813145857238 -9.822872507286888 -50
  endloop
endfacet
facet normal 0.0941083 -0.995562 0
  outer loop
    vertex 0.627905195293132 -9.980267284282716 -55
    vertex 1.253332335643037 -9.921147013144779 -50
    vertex 0.627905195293132 -9.980267284282716 -50
  endloop
endfacet
facet normal 0.0941083 -0.995562 4.67256e-19
  outer loop
    vertex 0.627905195293132 -9.980267284282716 -55
    vertex 1.253332335643037 -9.921147013144779 -55
    vertex 1.253332335643037 -9.921147013144779 -50
  endloop
endfacet
facet normal 0.0314108 -0.999507 -6.88737e-20
  outer loop
    vertex 1.83697019872103e-15 -10 -55
    vertex 0.627905195293132 -9.980267284282716 -55
    vertex 0.627905195293132 -9.980267284282716 -50
  endloop
endfacet
facet normal 0.0314108 -0.999507 0
  outer loop
    vertex 1.83697019872103e-15 -10 -55
    vertex 0.627905195293132 -9.980267284282716 -50
    vertex 1.83697019872103e-15 -10 -50
  endloop
endfacet
facet normal -0.0314108 -0.999507 6.88737e-20
  outer loop
    vertex -0.6279051952931283 -9.980267284282716 -55
    vertex 1.83697019872103e-15 -10 -55
    vertex 1.83697019872103e-15 -10 -50
  endloop
endfacet
facet normal -0.0314108 -0.999507 0
  outer loop
    vertex -0.6279051952931283 -9.980267284282716 -55
    vertex 1.83697019872103e-15 -10 -50
    vertex -0.6279051952931283 -9.980267284282716 -50
  endloop
endfacet
facet normal -0.0941083 -0.995562 -7.0706e-19
  outer loop
    vertex -1.253332335643025 -9.921147013144781 -55
    vertex -0.6279051952931283 -9.980267284282716 -55
    vertex -0.6279051952931283 -9.980267284282716 -50
  endloop
endfacet
facet normal -0.0941083 -0.995562 0
  outer loop
    vertex -1.253332335643025 -9.921147013144781 -55
    vertex -0.6279051952931283 -9.980267284282716 -50
    vertex -1.253332335643025 -9.921147013144781 -50
  endloop
endfacet
facet normal -0.156434 -0.987688 -8.00331e-19
  outer loop
    vertex -1.873813145857225 -9.82287250728689 -55
    vertex -1.253332335643025 -9.921147013144781 -55
    vertex -1.253332335643025 -9.921147013144781 -50
  endloop
endfacet
facet normal -0.156434 -0.987688 0
  outer loop
    vertex -1.873813145857225 -9.82287250728689 -55
    vertex -1.253332335643025 -9.921147013144781 -50
    vertex -1.873813145857225 -9.82287250728689 -50
  endloop
endfacet
facet normal -0.218143 -0.975917 1.55379e-18
  outer loop
    vertex -2.486898871648541 -9.685831611286313 -55
    vertex -1.873813145857225 -9.82287250728689 -55
    vertex -1.873813145857225 -9.82287250728689 -50
  endloop
endfacet
facet normal -0.218143 -0.975917 0
  outer loop
    vertex -2.486898871648541 -9.685831611286313 -55
    vertex -1.873813145857225 -9.82287250728689 -50
    vertex -2.486898871648541 -9.685831611286313 -50
  endloop
endfacet
facet normal -0.278991 -0.960294 1.94294e-18
  outer loop
    vertex -3.090169943749464 -9.510565162951538 -55
    vertex -2.486898871648541 -9.685831611286313 -55
    vertex -2.486898871648541 -9.685831611286313 -50
  endloop
endfacet
facet normal -0.278991 -0.960294 0
  outer loop
    vertex -3.090169943749464 -9.510565162951538 -55
    vertex -2.486898871648541 -9.685831611286313 -50
    vertex -3.090169943749464 -9.510565162951538 -50
  endloop
endfacet
facet normal -0.338738 -0.940881 -2.42841e-18
  outer loop
    vertex -3.681245526846758 -9.297764858882523 -55
    vertex -3.090169943749464 -9.510565162951538 -55
    vertex -3.090169943749464 -9.510565162951538 -50
  endloop
endfacet
facet normal -0.338738 -0.940881 0
  outer loop
    vertex -3.681245526846758 -9.297764858882523 -55
    vertex -3.090169943749464 -9.510565162951538 -50
    vertex -3.681245526846758 -9.297764858882523 -50
  endloop
endfacet
facet normal -0.397148 -0.917755 5.65821e-20
  outer loop
    vertex -4.257792915650702 -9.048270524660207 -55
    vertex -3.681245526846758 -9.297764858882523 -55
    vertex -3.681245526846758 -9.297764858882523 -50
  endloop
endfacet
facet normal -0.397148 -0.917755 0
  outer loop
    vertex -4.257792915650702 -9.048270524660207 -55
    vertex -3.681245526846758 -9.297764858882523 -50
    vertex -4.257792915650702 -9.048270524660207 -50
  endloop
endfacet
facet normal -0.45399 -0.891007 0
  outer loop
    vertex -4.257792915650702 -9.048270524660207 -55
    vertex -4.257792915650702 -9.048270524660207 -50
    vertex -4.817536741017126 -8.763066800438651 -50
  endloop
endfacet
facet normal -0.45399 -0.891007 0
  outer loop
    vertex -4.817536741017126 -8.763066800438651 -55
    vertex -4.257792915650702 -9.048270524660207 -55
    vertex -4.817536741017126 -8.763066800438651 -50
  endloop
endfacet
facet normal -0.509041 -0.860742 -2.06677e-18
  outer loop
    vertex -5.358267949789938 -8.443279255020169 -55
    vertex -4.817536741017126 -8.763066800438651 -55
    vertex -4.817536741017126 -8.763066800438651 -50
  endloop
endfacet
facet normal -0.509041 -0.860742 0
  outer loop
    vertex -5.358267949789938 -8.443279255020169 -55
    vertex -4.817536741017126 -8.763066800438651 -50
    vertex -5.358267949789938 -8.443279255020169 -50
  endloop
endfacet
facet normal -0.562083 -0.827081 0
  outer loop
    vertex -5.358267949789938 -8.443279255020169 -55
    vertex -5.358267949789938 -8.443279255020169 -50
    vertex -5.877852522924702 -8.090169943749498 -50
  endloop
endfacet
facet normal -0.562083 -0.827081 0
  outer loop
    vertex -5.877852522924702 -8.090169943749498 -55
    vertex -5.358267949789938 -8.443279255020169 -55
    vertex -5.877852522924702 -8.090169943749498 -50
  endloop
endfacet
facet normal -0.612907 -0.790155 -4.25768e-19
  outer loop
    vertex -6.374239897486865 -7.705132427757918 -55
    vertex -5.877852522924702 -8.090169943749498 -55
    vertex -5.877852522924702 -8.090169943749498 -50
  endloop
endfacet
facet normal -0.612907 -0.790155 0
  outer loop
    vertex -6.374239897486865 -7.705132427757918 -55
    vertex -5.877852522924702 -8.090169943749498 -50
    vertex -6.374239897486865 -7.705132427757918 -50
  endloop
endfacet
facet normal -0.661312 -0.750111 1.00582e-18
  outer loop
    vertex -6.845471059286854 -7.289686274214145 -55
    vertex -6.374239897486865 -7.705132427757918 -55
    vertex -6.374239897486865 -7.705132427757918 -50
  endloop
endfacet
facet normal -0.661312 -0.750111 0
  outer loop
    vertex -6.845471059286854 -7.289686274214145 -55
    vertex -6.374239897486865 -7.705132427757918 -50
    vertex -6.845471059286854 -7.289686274214145 -50
  endloop
endfacet
facet normal -0.707107 -0.707107 3.73444e-18
  outer loop
    vertex -7.289686274214082 -6.845471059286922 -55
    vertex -6.845471059286854 -7.289686274214145 -55
    vertex -6.845471059286854 -7.289686274214145 -50
  endloop
endfacet
facet normal -0.707107 -0.707107 0
  outer loop
    vertex -7.289686274214082 -6.845471059286922 -55
    vertex -6.845471059286854 -7.289686274214145 -50
    vertex -7.289686274214082 -6.845471059286922 -50
  endloop
endfacet
facet normal -0.750111 -0.661312 0
  outer loop
    vertex -7.289686274214082 -6.845471059286922 -55
    vertex -7.289686274214082 -6.845471059286922 -50
    vertex -7.705132427757859 -6.374239897486937 -50
  endloop
endfacet
facet normal -0.750111 -0.661312 0
  outer loop
    vertex -7.705132427757859 -6.374239897486937 -55
    vertex -7.289686274214082 -6.845471059286922 -55
    vertex -7.705132427757859 -6.374239897486937 -50
  endloop
endfacet
facet normal -0.790155 -0.612907 1.29563e-18
  outer loop
    vertex -8.090169943749441 -5.877852522924776 -55
    vertex -7.705132427757859 -6.374239897486937 -55
    vertex -7.705132427757859 -6.374239897486937 -50
  endloop
endfacet
facet normal -0.790155 -0.612907 0
  outer loop
    vertex -8.090169943749441 -5.877852522924776 -55
    vertex -7.705132427757859 -6.374239897486937 -50
    vertex -8.090169943749441 -5.877852522924776 -50
  endloop
endfacet
facet normal -0.827081 -0.562083 0
  outer loop
    vertex -8.090169943749441 -5.877852522924776 -55
    vertex -8.090169943749441 -5.877852522924776 -50
    vertex -8.443279255020119 -5.358267949790017 -50
  endloop
endfacet
facet normal -0.827081 -0.562083 0
  outer loop
    vertex -8.443279255020119 -5.358267949790017 -55
    vertex -8.090169943749441 -5.877852522924776 -55
    vertex -8.443279255020119 -5.358267949790017 -50
  endloop
endfacet
facet normal -0.860742 -0.509041 3.64159e-18
  outer loop
    vertex -8.763066800438606 -4.817536741017207 -55
    vertex -8.443279255020119 -5.358267949790017 -55
    vertex -8.443279255020119 -5.358267949790017 -50
  endloop
endfacet
facet normal -0.860742 -0.509041 0
  outer loop
    vertex -8.763066800438606 -4.817536741017207 -55
    vertex -8.443279255020119 -5.358267949790017 -50
    vertex -8.763066800438606 -4.817536741017207 -50
  endloop
endfacet
facet normal -0.891007 -0.45399 -9.2526e-19
  outer loop
    vertex -9.048270524660166 -4.257792915650787 -55
    vertex -8.763066800438606 -4.817536741017207 -55
    vertex -8.763066800438606 -4.817536741017207 -50
  endloop
endfacet
facet normal -0.891007 -0.45399 0
  outer loop
    vertex -9.048270524660166 -4.257792915650787 -55
    vertex -8.763066800438606 -4.817536741017207 -50
    vertex -9.048270524660166 -4.257792915650787 -50
  endloop
endfacet
facet normal -0.917755 -0.397148 2.30417e-18
  outer loop
    vertex -9.297764858882488 -3.681245526846845 -55
    vertex -9.048270524660166 -4.257792915650787 -55
    vertex -9.048270524660166 -4.257792915650787 -50
  endloop
endfacet
facet normal -0.917755 -0.397148 0
  outer loop
    vertex -9.297764858882488 -3.681245526846845 -55
    vertex -9.048270524660166 -4.257792915650787 -50
    vertex -9.297764858882488 -3.681245526846845 -50
  endloop
endfacet
facet normal -0.940881 -0.338738 2.43243e-18
  outer loop
    vertex -9.510565162951513 -3.090169943749544 -55
    vertex -9.297764858882488 -3.681245526846845 -55
    vertex -9.297764858882488 -3.681245526846845 -50
  endloop
endfacet
facet normal -0.940881 -0.338738 0
  outer loop
    vertex -9.510565162951513 -3.090169943749544 -55
    vertex -9.297764858882488 -3.681245526846845 -50
    vertex -9.510565162951513 -3.090169943749544 -50
  endloop
endfacet
facet normal -0.960294 -0.278991 -7.60164e-19
  outer loop
    vertex -9.685831611286291 -2.486898871648622 -55
    vertex -9.510565162951513 -3.090169943749544 -55
    vertex -9.510565162951513 -3.090169943749544 -50
  endloop
endfacet
facet normal -0.960294 -0.278991 0
  outer loop
    vertex -9.685831611286291 -2.486898871648622 -55
    vertex -9.510565162951513 -3.090169943749544 -50
    vertex -9.685831611286291 -2.486898871648622 -50
  endloop
endfacet
facet normal -0.975917 -0.218143 0
  outer loop
    vertex -9.685831611286291 -2.486898871648622 -55
    vertex -9.685831611286291 -2.486898871648622 -50
    vertex -9.822872507286872 -1.873813145857326 -50
  endloop
endfacet
facet normal -0.975917 -0.218143 0
  outer loop
    vertex -9.822872507286872 -1.873813145857326 -55
    vertex -9.685831611286291 -2.486898871648622 -55
    vertex -9.822872507286872 -1.873813145857326 -50
  endloop
endfacet
facet normal -0.987688 -0.156434 -1.00999e-18
  outer loop
    vertex -9.921147013144768 -1.253332335643126 -55
    vertex -9.822872507286872 -1.873813145857326 -55
    vertex -9.822872507286872 -1.873813145857326 -50
  endloop
endfacet
facet normal -0.987688 -0.156434 0
  outer loop
    vertex -9.921147013144768 -1.253332335643126 -55
    vertex -9.822872507286872 -1.873813145857326 -50
    vertex -9.921147013144768 -1.253332335643126 -50
  endloop
endfacet
facet normal -0.995562 -0.0941083 0
  outer loop
    vertex -9.980267284282711 -0.6279051952932213 -55
    vertex -9.921147013144768 -1.253332335643126 -50
    vertex -9.980267284282711 -0.6279051952932213 -50
  endloop
endfacet
facet normal -0.995562 -0.0941083 3.00405e-19
  outer loop
    vertex -9.980267284282711 -0.6279051952932213 -55
    vertex -9.921147013144768 -1.253332335643126 -55
    vertex -9.921147013144768 -1.253332335643126 -50
  endloop
endfacet
facet normal -0.999507 -0.0314108 8.16251e-20
  outer loop
    vertex -10 -2.449293598294707e-15 -55
    vertex -9.980267284282711 -0.6279051952932213 -55
    vertex -9.980267284282711 -0.6279051952932213 -50
  endloop
endfacet
facet normal -0.999507 -0.0314108 0
  outer loop
    vertex -10 -2.449293598294707e-15 -55
    vertex -9.980267284282711 -0.6279051952932213 -50
    vertex -10 -2.449293598294707e-15 -50
  endloop
endfacet
facet normal 0 0 -1
  outer loop
    vertex 7.705132427757871 -6.374239897486924 -55
    vertex 7.289686274214091 -6.845471059286913 -55
    vertex 6.84547105928686 -7.28968627421414 -55
  endloop
endfacet
facet normal 0 0 -1
  outer loop
    vertex 5.877852522924703 -8.090169943749494 -55
    vertex 6.84547105928686 -7.28968627421414 -55
    vertex 6.374239897486868 -7.705132427757916 -55
  endloop
endfacet
facet normal 0 0 -1
  outer loop
    vertex 8.763066800438621 -4.817536741017181 -55
    vertex 8.443279255020133 -5.358267949789994 -55
    vertex 8.090169943749455 -5.877852522924759 -55
  endloop
endfacet
facet normal 0 0 -1
  outer loop
    vertex 8.763066800438621 -4.817536741017181 -55
    vertex 8.090169943749455 -5.877852522924759 -55
    vertex 7.705132427757871 -6.374239897486924 -55
  endloop
endfacet
facet normal 0 0 -1
  outer loop
    vertex 9.048270524660181 -4.257792915650755 -55
    vertex 7.705132427757871 -6.374239897486924 -55
    vertex 6.84547105928686 -7.28968627421414 -55
  endloop
endfacet
facet normal 0 0 -1
  outer loop
    vertex 9.048270524660181 -4.257792915650755 -55
    vertex 8.763066800438621 -4.817536741017181 -55
    vertex 7.705132427757871 -6.374239897486924 -55
  endloop
endfacet
facet normal 0 0 -1
  outer loop
    vertex 4.257792915650706 -9.048270524660204 -55
    vertex 5.877852522924703 -8.090169943749494 -55
    vertex 5.358267949789941 -8.443279255020167 -55
  endloop
endfacet
facet normal 0 0 -1
  outer loop
    vertex 4.257792915650706 -9.048270524660204 -55
    vertex 5.358267949789941 -8.443279255020167 -55
    vertex 4.817536741017129 -8.763066800438649 -55
  endloop
endfacet
facet normal 0 0 -1
  outer loop
    vertex 9.510565162951526 -3.090169943749502 -55
    vertex 9.297764858882502 -3.681245526846809 -55
    vertex 9.048270524660181 -4.257792915650755 -55
  endloop
endfacet
facet normal 0 0 -1
  outer loop
    vertex 3.090169943749459 -9.51056516295154 -55
    vertex 6.84547105928686 -7.28968627421414 -55
    vertex 5.877852522924703 -8.090169943749494 -55
  endloop
endfacet
facet normal 0 0 -1
  outer loop
    vertex 3.090169943749459 -9.51056516295154 -55
    vertex 9.048270524660181 -4.257792915650755 -55
    vertex 6.84547105928686 -7.28968627421414 -55
  endloop
endfacet
facet normal 0 0 -1
  outer loop
    vertex 3.090169943749459 -9.51056516295154 -55
    vertex 5.877852522924703 -8.090169943749494 -55
    vertex 4.257792915650706 -9.048270524660204 -55
  endloop
endfacet
facet normal 0 0 -1
  outer loop
    vertex 3.090169943749459 -9.51056516295154 -55
    vertex 4.257792915650706 -9.048270524660204 -55
    vertex 3.681245526846761 -9.297764858882521 -55
  endloop
endfacet
facet normal 0 0 -1
  outer loop
    vertex 1.873813145857238 -9.822872507286888 -55
    vertex 3.090169943749459 -9.51056516295154 -55
    vertex 2.486898871648536 -9.685831611286314 -55
  endloop
endfacet
facet normal 0 0 -1
  outer loop
    vertex 9.980267284282714 -0.6279051952931596 -55
    vertex 9.921147013144775 -1.253332335643069 -55
    vertex 9.822872507286881 -1.873813145857273 -55
  endloop
endfacet
facet normal 0 0 -1
  outer loop
    vertex 9.980267284282716 0.6279051952931098 -55
    vertex 9.980267284282714 -0.6279051952931596 -55
    vertex 9.822872507286881 -1.873813145857273 -55
  endloop
endfacet
facet normal 0 -0 -1
  outer loop
    vertex 9.980267284282716 0.6279051952931098 -55
    vertex 10 -2.486899575160351e-14 -55
    vertex 9.980267284282714 -0.6279051952931596 -55
  endloop
endfacet
facet normal 0 0 -1
  outer loop
    vertex 9.980267284282716 0.6279051952931098 -55
    vertex 9.822872507286881 -1.873813145857273 -55
    vertex 9.685831611286304 -2.486898871648576 -55
  endloop
endfacet
facet normal 0 0 -1
  outer loop
    vertex 9.980267284282716 0.6279051952931098 -55
    vertex 9.685831611286304 -2.486898871648576 -55
    vertex 9.510565162951526 -3.090169943749502 -55
  endloop
endfacet
facet normal 0 0 -1
  outer loop
    vertex -0.6279051952931276 -9.980267284282716 -55
    vertex 3.090169943749459 -9.51056516295154 -55
    vertex 1.873813145857238 -9.822872507286888 -55
  endloop
endfacet
facet normal 0 0 -1
  outer loop
    vertex -0.6279051952931276 -9.980267284282716 -55
    vertex 1.873813145857238 -9.822872507286888 -55
    vertex 1.253332335643037 -9.921147013144779 -55
  endloop
endfacet
facet normal 0 0 -1
  outer loop
    vertex -0.6279051952931276 -9.980267284282716 -55
    vertex 1.253332335643037 -9.921147013144779 -55
    vertex 0.6279051952931312 -9.980267284282716 -55
  endloop
endfacet
facet normal 0 0 -1
  outer loop
    vertex -0.6279051952931276 -9.980267284282716 -55
    vertex 0.6279051952931312 -9.980267284282716 -55
    vertex 1.77635683940025e-15 -10 -55
  endloop
endfacet
facet normal 0 0 -1
  outer loop
    vertex -1.253332335643034 -9.921147013144779 -55
    vertex 3.090169943749459 -9.51056516295154 -55
    vertex -0.6279051952931276 -9.980267284282716 -55
  endloop
endfacet
facet normal 0 0 -1
  outer loop
    vertex -2.486898871648531 -9.685831611286314 -55
    vertex 3.090169943749459 -9.51056516295154 -55
    vertex -1.253332335643034 -9.921147013144779 -55
  endloop
endfacet
facet normal 0 0 -1
  outer loop
    vertex -2.486898871648531 -9.685831611286314 -55
    vertex -1.253332335643034 -9.921147013144779 -55
    vertex -1.873813145857234 -9.82287250728689 -55
  endloop
endfacet
facet normal 0 0 -1
  outer loop
    vertex 9.510565162951542 3.090169943749455 -55
    vertex 9.685831611286316 2.486898871648528 -55
    vertex 9.82287250728689 1.873813145857223 -55
  endloop
endfacet
facet normal 0 -0 -1
  outer loop
    vertex 9.297764858882521 3.681245526846761 -55
    vertex 9.510565162951526 -3.090169943749502 -55
    vertex 9.048270524660181 -4.257792915650755 -55
  endloop
endfacet
facet normal 0 0 -1
  outer loop
    vertex 9.297764858882521 3.681245526846761 -55
    vertex 9.82287250728689 1.873813145857223 -55
    vertex 9.921147013144781 1.253332335643019 -55
  endloop
endfacet
facet normal 0 0 -1
  outer loop
    vertex 9.297764858882521 3.681245526846761 -55
    vertex 9.921147013144781 1.253332335643019 -55
    vertex 9.980267284282716 0.6279051952931098 -55
  endloop
endfacet
facet normal 0 0 -1
  outer loop
    vertex 9.297764858882521 3.681245526846761 -55
    vertex 9.510565162951542 3.090169943749455 -55
    vertex 9.82287250728689 1.873813145857223 -55
  endloop
endfacet
facet normal 0 0 -1
  outer loop
    vertex 9.297764858882521 3.681245526846761 -55
    vertex 9.980267284282716 0.6279051952931098 -55
    vertex 9.510565162951526 -3.090169943749502 -55
  endloop
endfacet
facet normal 0 0 -1
  outer loop
    vertex -4.257792915650702 -9.048270524660207 -55
    vertex -2.486898871648531 -9.685831611286314 -55
    vertex -3.090169943749455 -9.510565162951542 -55
  endloop
endfacet
facet normal 0 0 -1
  outer loop
    vertex -4.257792915650702 -9.048270524660207 -55
    vertex -3.090169943749455 -9.510565162951542 -55
    vertex -3.681245526846759 -9.297764858882523 -55
  endloop
endfacet
facet normal 0 0 -1
  outer loop
    vertex -4.817536741017125 -8.763066800438651 -55
    vertex -2.486898871648531 -9.685831611286314 -55
    vertex -4.257792915650702 -9.048270524660207 -55
  endloop
endfacet
facet normal 0 0 -1
  outer loop
    vertex 8.763066800438645 4.817536741017136 -55
    vertex 9.048270524660204 4.257792915650709 -55
    vertex 9.297764858882521 3.681245526846761 -55
  endloop
endfacet
facet normal 0 0 -1
  outer loop
    vertex -5.358267949789937 -8.443279255020169 -55
    vertex -2.486898871648531 -9.685831611286314 -55
    vertex -4.817536741017125 -8.763066800438651 -55
  endloop
endfacet
facet normal 0 0 -1
  outer loop
    vertex 8.44327925502016 5.358267949789951 -55
    vertex 8.763066800438645 4.817536741017136 -55
    vertex 9.297764858882521 3.681245526846761 -55
  endloop
endfacet
facet normal 0 0 -1
  outer loop
    vertex -6.374239897486866 -7.705132427757918 -55
    vertex -5.358267949789937 -8.443279255020169 -55
    vertex -5.877852522924702 -8.090169943749498 -55
  endloop
endfacet
facet normal 0 0 -1
  outer loop
    vertex -6.374239897486866 -7.705132427757918 -55
    vertex -2.486898871648531 -9.685831611286314 -55
    vertex -5.358267949789937 -8.443279255020169 -55
  endloop
endfacet
facet normal 0 0 -1
  outer loop
    vertex 7.705132427757903 6.374239897486884 -55
    vertex 8.090169943749485 5.877852522924718 -55
    vertex 8.44327925502016 5.358267949789951 -55
  endloop
endfacet
facet normal 0 0 -1
  outer loop
    vertex 7.705132427757903 6.374239897486884 -55
    vertex 8.44327925502016 5.358267949789951 -55
    vertex 9.297764858882521 3.681245526846761 -55
  endloop
endfacet
facet normal 0 0 -1
  outer loop
    vertex 6.374239897486907 7.705132427757881 -55
    vertex 6.845471059286897 7.289686274214105 -55
    vertex 7.289686274214126 6.845471059286876 -55
  endloop
endfacet
facet normal 0 0 -1
  outer loop
    vertex 6.374239897486907 7.705132427757881 -55
    vertex 7.289686274214126 6.845471059286876 -55
    vertex 7.705132427757903 6.374239897486884 -55
  endloop
endfacet
facet normal 0 0 -1
  outer loop
    vertex 6.374239897486907 7.705132427757881 -55
    vertex 9.297764858882521 3.681245526846761 -55
    vertex 9.048270524660181 -4.257792915650755 -55
  endloop
endfacet
facet normal 0 0 -1
  outer loop
    vertex 6.374239897486907 7.705132427757881 -55
    vertex 7.705132427757903 6.374239897486884 -55
    vertex 9.297764858882521 3.681245526846761 -55
  endloop
endfacet
facet normal 0 0 -1
  outer loop
    vertex -8.090169943749441 -5.877852522924776 -55
    vertex -6.845471059286854 -7.289686274214145 -55
    vertex -7.289686274214084 -6.845471059286922 -55
  endloop
endfacet
facet normal 0 0 -1
  outer loop
    vertex -8.090169943749441 -5.877852522924776 -55
    vertex -7.289686274214084 -6.845471059286922 -55
    vertex -7.70513242775786 -6.374239897486937 -55
  endloop
endfacet
facet normal 0 0 -1
  outer loop
    vertex -8.443279255020119 -5.358267949790017 -55
    vertex -6.845471059286854 -7.289686274214145 -55
    vertex -8.090169943749441 -5.877852522924776 -55
  endloop
endfacet
facet normal 0 0 -1
  outer loop
    vertex -9.048270524660168 -4.257792915650787 -55
    vertex -8.443279255020119 -5.358267949790017 -55
    vertex -8.763066800438608 -4.817536741017207 -55
  endloop
endfacet
facet normal 0 0 -1
  outer loop
    vertex 4.257792915650736 9.04827052466019 -55
    vertex 4.817536741017162 8.763066800438629 -55
    vertex 5.358267949789975 8.443279255020144 -55
  endloop
endfacet
facet normal 0 0 -1
  outer loop
    vertex 4.257792915650736 9.04827052466019 -55
    vertex 5.358267949789975 8.443279255020144 -55
    vertex 5.877852522924742 8.090169943749466 -55
  endloop
endfacet
facet normal 0 0 -1
  outer loop
    vertex 4.257792915650736 9.04827052466019 -55
    vertex 5.877852522924742 8.090169943749466 -55
    vertex 6.374239897486907 7.705132427757881 -55
  endloop
endfacet
facet normal 0 0 -1
  outer loop
    vertex 4.257792915650736 9.04827052466019 -55
    vertex 6.374239897486907 7.705132427757881 -55
    vertex 9.048270524660181 -4.257792915650755 -55
  endloop
endfacet
facet normal 0 0 -1
  outer loop
    vertex -9.297764858882488 -3.681245526846845 -55
    vertex -6.845471059286854 -7.289686274214145 -55
    vertex -8.443279255020119 -5.358267949790017 -55
  endloop
endfacet
facet normal 0 0 -1
  outer loop
    vertex -9.297764858882488 -3.681245526846845 -55
    vertex -8.443279255020119 -5.358267949790017 -55
    vertex -9.048270524660168 -4.257792915650787 -55
  endloop
endfacet
facet normal 0 0 -1
  outer loop
    vertex -9.297764858882488 -3.681245526846845 -55
    vertex -6.374239897486866 -7.705132427757918 -55
    vertex -6.845471059286854 -7.289686274214145 -55
  endloop
endfacet
facet normal 0 0 -1
  outer loop
    vertex 3.090169943749483 9.510565162951533 -55
    vertex 3.681245526846791 9.297764858882509 -55
    vertex 4.257792915650736 9.04827052466019 -55
  endloop
endfacet
facet normal 0 0 -1
  outer loop
    vertex -9.685831611286289 -2.486898871648622 -55
    vertex -6.374239897486866 -7.705132427757918 -55
    vertex -9.297764858882488 -3.681245526846845 -55
  endloop
endfacet
facet normal 0 0 -1
  outer loop
    vertex -9.685831611286289 -2.486898871648622 -55
    vertex 9.048270524660181 -4.257792915650755 -55
    vertex 3.090169943749459 -9.51056516295154 -55
  endloop
endfacet
facet normal 0 0 -1
  outer loop
    vertex -9.685831611286289 -2.486898871648622 -55
    vertex 3.090169943749459 -9.51056516295154 -55
    vertex -2.486898871648531 -9.685831611286314 -55
  endloop
endfacet
facet normal 0 0 -1
  outer loop
    vertex -9.685831611286289 -2.486898871648622 -55
    vertex -9.297764858882488 -3.681245526846845 -55
    vertex -9.510565162951515 -3.090169943749544 -55
  endloop
endfacet
facet normal 0 0 -1
  outer loop
    vertex -9.685831611286289 -2.486898871648622 -55
    vertex -2.486898871648531 -9.685831611286314 -55
    vertex -6.374239897486866 -7.705132427757918 -55
  endloop
endfacet
facet normal 0 0 -1
  outer loop
    vertex 1.25333233564305 9.921147013144775 -55
    vertex 1.873813145857255 9.822872507286885 -55
    vertex 2.486898871648557 9.685831611286311 -55
  endloop
endfacet
facet normal 0 0 -1
  outer loop
    vertex 1.25333233564305 9.921147013144775 -55
    vertex 2.486898871648557 9.685831611286311 -55
    vertex 3.090169943749483 9.510565162951533 -55
  endloop
endfacet
facet normal 0 0 -1
  outer loop
    vertex 5.329070518200751e-15 10 -55
    vertex 0.62790519529314 9.980267284282718 -55
    vertex 1.25333233564305 9.921147013144775 -55
  endloop
endfacet
facet normal 0 -0 -1
  outer loop
    vertex -9.980267284282718 0.6279051952931329 -55
    vertex -9.980267284282711 -0.6279051952932218 -55
    vertex -10 -1.77635683940025e-15 -55
  endloop
endfacet
facet normal 0 0 -1
  outer loop
    vertex -1.253332335643037 9.921147013144779 -55
    vertex 1.25333233564305 9.921147013144775 -55
    vertex 3.090169943749483 9.510565162951533 -55
  endloop
endfacet
facet normal 0 0 -1
  outer loop
    vertex -1.253332335643037 9.921147013144779 -55
    vertex -0.6279051952931294 9.980267284282718 -55
    vertex 5.329070518200751e-15 10 -55
  endloop
endfacet
facet normal 0 0 -1
  outer loop
    vertex -1.253332335643037 9.921147013144779 -55
    vertex 3.090169943749483 9.510565162951533 -55
    vertex 4.257792915650736 9.04827052466019 -55
  endloop
endfacet
facet normal 0 0 -1
  outer loop
    vertex -1.253332335643037 9.921147013144779 -55
    vertex 5.329070518200751e-15 10 -55
    vertex 1.25333233564305 9.921147013144775 -55
  endloop
endfacet
facet normal 0 0 -1
  outer loop
    vertex -9.921147013144779 1.253332335643043 -55
    vertex -9.980267284282711 -0.6279051952932218 -55
    vertex -9.980267284282718 0.6279051952931329 -55
  endloop
endfacet
facet normal 0 0 -1
  outer loop
    vertex -9.921147013144779 1.253332335643043 -55
    vertex -9.685831611286289 -2.486898871648622 -55
    vertex -9.822872507286874 -1.873813145857326 -55
  endloop
endfacet
facet normal 0 0 -1
  outer loop
    vertex -9.921147013144779 1.253332335643043 -55
    vertex -9.822872507286874 -1.873813145857326 -55
    vertex -9.921147013144768 -1.253332335643126 -55
  endloop
endfacet
facet normal 0 -0 -1
  outer loop
    vertex -9.921147013144779 1.253332335643043 -55
    vertex -9.921147013144768 -1.253332335643126 -55
    vertex -9.980267284282711 -0.6279051952932218 -55
  endloop
endfacet
facet normal 0 0 -1
  outer loop
    vertex -2.486898871648545 9.685831611286311 -55
    vertex -1.873813145857243 9.822872507286888 -55
    vertex -1.253332335643037 9.921147013144779 -55
  endloop
endfacet
facet normal 0 0 -1
  outer loop
    vertex -9.685831611286311 2.486898871648549 -55
    vertex -9.921147013144779 1.253332335643043 -55
    vertex -9.822872507286888 1.873813145857246 -55
  endloop
endfacet
facet normal 0 -0 -1
  outer loop
    vertex -9.685831611286311 2.486898871648549 -55
    vertex -9.685831611286289 -2.486898871648622 -55
    vertex -9.921147013144779 1.253332335643043 -55
  endloop
endfacet
facet normal 0 0 -1
  outer loop
    vertex -9.048270524660197 4.257792915650725 -55
    vertex -9.510565162951536 3.090169943749475 -55
    vertex -9.297764858882516 3.68124552684678 -55
  endloop
endfacet
facet normal 0 0 -1
  outer loop
    vertex -4.257792915650727 9.048270524660197 -55
    vertex -3.681245526846778 9.297764858882516 -55
    vertex -3.090169943749473 9.510565162951536 -55
  endloop
endfacet
facet normal 0 0 -1
  outer loop
    vertex -4.257792915650727 9.048270524660197 -55
    vertex -3.090169943749473 9.510565162951536 -55
    vertex -2.486898871648545 9.685831611286311 -55
  endloop
endfacet
facet normal 0 0 -1
  outer loop
    vertex -4.817536741017154 8.763066800438637 -55
    vertex -2.486898871648545 9.685831611286311 -55
    vertex -1.253332335643037 9.921147013144779 -55
  endloop
endfacet
facet normal 0 0 -1
  outer loop
    vertex -4.817536741017154 8.763066800438637 -55
    vertex -4.257792915650727 9.048270524660197 -55
    vertex -2.486898871648545 9.685831611286311 -55
  endloop
endfacet
facet normal 0 0 -1
  outer loop
    vertex -5.358267949789967 8.443279255020151 -55
    vertex -4.817536741017154 8.763066800438637 -55
    vertex -1.253332335643037 9.921147013144779 -55
  endloop
endfacet
facet normal 0 0 -1
  outer loop
    vertex -8.443279255020151 5.358267949789965 -55
    vertex -9.048270524660197 4.257792915650725 -55
    vertex -8.763066800438637 4.817536741017152 -55
  endloop
endfacet
facet normal 0 0 -1
  outer loop
    vertex -8.443279255020151 5.358267949789965 -55
    vertex -9.510565162951536 3.090169943749475 -55
    vertex -9.048270524660197 4.257792915650725 -55
  endloop
endfacet
facet normal 0 0 -1
  outer loop
    vertex -8.090169943749473 5.87785252292473 -55
    vertex -9.685831611286311 2.486898871648549 -55
    vertex -9.510565162951536 3.090169943749475 -55
  endloop
endfacet
facet normal 0 0 -1
  outer loop
    vertex -8.090169943749473 5.87785252292473 -55
    vertex -9.685831611286289 -2.486898871648622 -55
    vertex -9.685831611286311 2.486898871648549 -55
  endloop
endfacet
facet normal 0 0 -1
  outer loop
    vertex -8.090169943749473 5.87785252292473 -55
    vertex -9.510565162951536 3.090169943749475 -55
    vertex -8.443279255020151 5.358267949789965 -55
  endloop
endfacet
facet normal 0 0 -1
  outer loop
    vertex -6.374239897486898 7.705132427757889 -55
    vertex -5.877852522924734 8.090169943749473 -55
    vertex -5.358267949789967 8.443279255020151 -55
  endloop
endfacet
facet normal 0 0 -1
  outer loop
    vertex -7.289686274214116 6.845471059286886 -55
    vertex -8.090169943749473 5.87785252292473 -55
    vertex -7.705132427757896 6.374239897486895 -55
  endloop
endfacet
facet normal 0 0 -1
  outer loop
    vertex -6.845471059286886 7.289686274214112 -55
    vertex 4.257792915650736 9.04827052466019 -55
    vertex 9.048270524660181 -4.257792915650755 -55
  endloop
endfacet
facet normal 0 -0 -1
  outer loop
    vertex -6.845471059286886 7.289686274214112 -55
    vertex 9.048270524660181 -4.257792915650755 -55
    vertex -9.685831611286289 -2.486898871648622 -55
  endloop
endfacet
facet normal 0 0 -1
  outer loop
    vertex -6.845471059286886 7.289686274214112 -55
    vertex -1.253332335643037 9.921147013144779 -55
    vertex 4.257792915650736 9.04827052466019 -55
  endloop
endfacet
facet normal 0 0 -1
  outer loop
    vertex -6.845471059286886 7.289686274214112 -55
    vertex -6.374239897486898 7.705132427757889 -55
    vertex -5.358267949789967 8.443279255020151 -55
  endloop
endfacet
facet normal 0 0 -1
  outer loop
    vertex -6.845471059286886 7.289686274214112 -55
    vertex -9.685831611286289 -2.486898871648622 -55
    vertex -8.090169943749473 5.87785252292473 -55
  endloop
endfacet
facet normal 0 0 -1
  outer loop
    vertex -6.845471059286886 7.289686274214112 -55
    vertex -5.358267949789967 8.443279255020151 -55
    vertex -1.253332335643037 9.921147013144779 -55
  endloop
endfacet
facet normal 0 0 -1
  outer loop
    vertex -6.845471059286886 7.289686274214112 -55
    vertex -8.090169943749473 5.87785252292473 -55
    vertex -7.289686274214116 6.845471059286886 -55
  endloop
endfacet
endsolid inlet
solid outlet
facet normal 0 0 1
  outer loop
    vertex 50 50 50
    vertex -50 50 50
    vertex -50 -50 50
  endloop
endfacet
facet normal 0 0 1
  outer loop
    vertex 50 50 50
    vertex -50 -50 50
    vertex 50 -50 50
  endloop
endfacet
endsolid outlet
solid walls
facet normal -1 0 0
  outer loop
    vertex -50 -50 50
    vertex -50 50 -50
    vertex -50 -50 -50
  endloop
endfacet
facet normal -1 0 0
  outer loop
    vertex -50 -50 50
    vertex -50 50 50
    vertex -50 50 -50
  endloop
endfacet
facet normal 0 -1 -0
  outer loop
    vertex 50 -50 50
    vertex -50 -50 -50
    vertex 50 -50 -50
  endloop
endfacet
facet normal -0 -1 0
  outer loop
    vertex 50 -50 50
    vertex -50 -50 50
    vertex -50 -50 -50
  endloop
endfacet
facet normal 0 1 0
  outer loop
    vertex 50 50 50
    vertex 50 50 -50
    vertex -50 50 -50
  endloop
endfacet
facet normal 0 1 0
  outer loop
    vertex 50 50 50
    vertex -50 50 -50
    vertex -50 50 50
  endloop
endfacet
facet normal -0 0 -1
  outer loop
    vertex -6.845471059286851 -7.289686274214148 -50
    vertex -50 -50 -50
    vertex -7.289686274214084 -6.845471059286922 -50
  endloop
endfacet
facet normal 0 -0 -1
  outer loop
    vertex -7.70513242775786 -6.374239897486937 -50
    vertex -7.289686274214084 -6.845471059286922 -50
    vertex -50 -50 -50
  endloop
endfacet
facet normal -0 0 -1
  outer loop
    vertex -6.374239897486866 -7.705132427757917 -50
    vertex -50 -50 -50
    vertex -6.845471059286851 -7.289686274214148 -50
  endloop
endfacet
facet normal 0 -0 -1
  outer loop
    vertex -8.090169943749444 -5.877852522924776 -50
    vertex -7.70513242775786 -6.374239897486937 -50
    vertex -50 -50 -50
  endloop
endfacet
facet normal -0 0 -1
  outer loop
    vertex -5.877852522924698 -8.090169943749501 -50
    vertex -50 -50 -50
    vertex -6.374239897486866 -7.705132427757917 -50
  endloop
endfacet
facet normal 0 -0 -1
  outer loop
    vertex -8.443279255020116 -5.358267949790019 -50
    vertex -8.090169943749444 -5.877852522924776 -50
    vertex -50 -50 -50
  endloop
endfacet
facet normal -0 0 -1
  outer loop
    vertex -5.358267949789941 -8.443279255020173 -50
    vertex -50 -50 -50
    vertex -5.877852522924698 -8.090169943749501 -50
  endloop
endfacet
facet normal 0 -0 -1
  outer loop
    vertex -8.763066800438608 -4.817536741017207 -50
    vertex -8.443279255020116 -5.358267949790019 -50
    vertex -50 -50 -50
  endloop
endfacet
facet normal -0 0 -1
  outer loop
    vertex -4.817536741017129 -8.763066800438651 -50
    vertex -50 -50 -50
    vertex -5.358267949789941 -8.443279255020173 -50
  endloop
endfacet
facet normal 0 -0 -1
  outer loop
    vertex -9.048270524660168 -4.257792915650789 -50
    vertex -8.763066800438608 -4.817536741017207 -50
    vertex -50 -50 -50
  endloop
endfacet
facet normal -0 0 -1
  outer loop
    vertex -4.257792915650704 -9.048270524660211 -50
    vertex -50 -50 -50
    vertex -4.817536741017129 -8.763066800438651 -50
  endloop
endfacet
facet normal 0 -0 -1
  outer loop
    vertex -9.297764858882488 -3.681245526846844 -50
    vertex -9.048270524660168 -4.257792915650789 -50
    vertex -50 -50 -50
  endloop
endfacet
facet normal -0 0 -1
  outer loop
    vertex -3.681245526846759 -9.297764858882523 -50
    vertex -50 -50 -50
    vertex -4.257792915650704 -9.048270524660211 -50
  endloop
endfacet
facet normal 0 -0 -1
  outer loop
    vertex -9.510565162951515 -3.090169943749544 -50
    vertex -9.297764858882488 -3.681245526846844 -50
    vertex -50 -50 -50
  endloop
endfacet
facet normal -0 0 -1
  outer loop
    vertex -3.090169943749459 -9.510565162951544 -50
    vertex -50 -50 -50
    vertex -3.681245526846759 -9.297764858882523 -50
  endloop
endfacet
facet normal 0 -0 -1
  outer loop
    vertex -9.685831611286289 -2.48689887164862 -50
    vertex -9.510565162951515 -3.090169943749544 -50
    vertex -50 -50 -50
  endloop
endfacet
facet normal -0 0 -1
  outer loop
    vertex -2.486898871648535 -9.685831611286318 -50
    vertex -50 -50 -50
    vertex -3.090169943749459 -9.510565162951544 -50
  endloop
endfacet
facet normal 0 -0 -1
  outer loop
    vertex -9.822872507286874 -1.873813145857326 -50
    vertex -9.685831611286289 -2.48689887164862 -50
    vertex -50 -50 -50
  endloop
endfacet
facet normal -0 0 -1
  outer loop
    vertex -1.873813145857234 -9.822872507286888 -50
    vertex -50 -50 -50
    vertex -2.486898871648535 -9.685831611286318 -50
  endloop
endfacet
facet normal 0 -0 -1
  outer loop
    vertex -9.921147013144768 -1.253332335643123 -50
    vertex -9.822872507286874 -1.873813145857326 -50
    vertex -50 -50 -50
  endloop
endfacet
facet normal -0 0 -1
  outer loop
    vertex -1.25333233564303 -9.921147013144775 -50
    vertex -50 -50 -50
    vertex -1.873813145857234 -9.822872507286888 -50
  endloop
endfacet
facet normal 0 -0 -1
  outer loop
    vertex -9.980267284282711 -0.6279051952932235 -50
    vertex -9.921147013144768 -1.253332335643123 -50
    vertex -50 -50 -50
  endloop
endfacet
facet normal -0 0 -1
  outer loop
    vertex -0.6279051952931312 -9.980267284282718 -50
    vertex -50 -50 -50
    vertex -1.25333233564303 -9.921147013144775 -50
  endloop
endfacet
facet normal -0 0 -1
  outer loop
    vertex 0 -10 -50
    vertex -50 -50 -50
    vertex -0.6279051952931312 -9.980267284282718 -50
  endloop
endfacet
facet normal 0 -0 -1
  outer loop
    vertex -10 0 -50
    vertex -9.980267284282711 -0.6279051952932235 -50
    vertex -50 -50 -50
  endloop
endfacet
facet normal 0 0 -1
  outer loop
    vertex -50 50 -50
    vertex -9.980267284282718 0.6279051952931312 -50
    vertex -10 0 -50
  endloop
endfacet
facet normal 0 0 -1
  outer loop
    vertex -50 50 -50
    vertex -9.921147013144775 1.253332335643044 -50
    vertex -9.980267284282718 0.6279051952931312 -50
  endloop
endfacet
facet normal 0 0 -1
  outer loop
    vertex -50 50 -50
    vertex -9.822872507286888 1.873813145857248 -50
    vertex -9.921147013144775 1.253332335643044 -50
  endloop
endfacet
facet normal 0 0 -1
  outer loop
    vertex -50 50 -50
    vertex -9.685831611286311 2.486898871648549 -50
    vertex -9.822872507286888 1.873813145857248 -50
  endloop
endfacet
facet normal 0 0 -1
  outer loop
    vertex -50 50 -50
    vertex -9.510565162951536 3.090169943749473 -50
    vertex -9.685831611286311 2.486898871648549 -50
  endloop
endfacet
facet normal 0 0 -1
  outer loop
    vertex -50 50 -50
    vertex -9.297764858882516 3.68124552684678 -50
    vertex -9.510565162951536 3.090169943749473 -50
  endloop
endfacet
facet normal 0 0 -1
  outer loop
    vertex -50 50 -50
    vertex -9.048270524660197 4.257792915650725 -50
    vertex -9.297764858882516 3.68124552684678 -50
  endloop
endfacet
facet normal 0 0 -1
  outer loop
    vertex -50 50 -50
    vertex -8.763066800438637 4.81753674101715 -50
    vertex -9.048270524660197 4.257792915650725 -50
  endloop
endfacet
facet normal 0 0 -1
  outer loop
    vertex -50 50 -50
    vertex -8.443279255020151 5.358267949789962 -50
    vertex -8.763066800438637 4.81753674101715 -50
  endloop
endfacet
facet normal 0 0 -1
  outer loop
    vertex -50 50 -50
    vertex -8.090169943749473 5.877852522924726 -50
    vertex -8.443279255020151 5.358267949789962 -50
  endloop
endfacet
facet normal 0 0 -1
  outer loop
    vertex -50 50 -50
    vertex -7.705132427757896 6.374239897486895 -50
    vertex -8.090169943749473 5.877852522924726 -50
  endloop
endfacet
facet normal 0 0 -1
  outer loop
    vertex -50 50 -50
    vertex -7.28968627421412 6.845471059286886 -50
    vertex -7.705132427757896 6.374239897486895 -50
  endloop
endfacet
facet normal 0 0 -1
  outer loop
    vertex -50 50 -50
    vertex -10 0 -50
    vertex -50 -50 -50
  endloop
endfacet
facet normal 0 0 -1
  outer loop
    vertex 50 -50 -50
    vertex -50 -50 -50
    vertex 0 -10 -50
  endloop
endfacet
facet normal 0 0 -1
  outer loop
    vertex 50 -50 -50
    vertex 6.374239897486866 -7.705132427757917 -50
    vertex 6.845471059286858 -7.289686274214141 -50
  endloop
endfacet
facet normal 0 0 -1
  outer loop
    vertex 50 -50 -50
    vertex 5.877852522924705 -8.090169943749494 -50
    vertex 6.374239897486866 -7.705132427757917 -50
  endloop
endfacet
facet normal 0 0 -1
  outer loop
    vertex 50 -50 -50
    vertex 5.358267949789941 -8.443279255020165 -50
    vertex 5.877852522924705 -8.090169943749494 -50
  endloop
endfacet
facet normal 0 0 -1
  outer loop
    vertex 50 -50 -50
    vertex 4.817536741017129 -8.763066800438651 -50
    vertex 5.358267949789941 -8.443279255020165 -50
  endloop
endfacet
facet normal 0 0 -1
  outer loop
    vertex 50 -50 -50
    vertex 4.257792915650704 -9.048270524660204 -50
    vertex 4.817536741017129 -8.763066800438651 -50
  endloop
endfacet
facet normal 0 0 -1
  outer loop
    vertex 50 -50 -50
    vertex 3.681245526846759 -9.297764858882523 -50
    vertex 4.257792915650704 -9.048270524660204 -50
  endloop
endfacet
facet normal 0 0 -1
  outer loop
    vertex 50 -50 -50
    vertex 3.090169943749459 -9.510565162951536 -50
    vertex 3.681245526846759 -9.297764858882523 -50
  endloop
endfacet
facet normal 0 0 -1
  outer loop
    vertex 50 -50 -50
    vertex 2.486898871648535 -9.685831611286318 -50
    vertex 3.090169943749459 -9.510565162951536 -50
  endloop
endfacet
facet normal 0 0 -1
  outer loop
    vertex 50 -50 -50
    vertex 1.873813145857241 -9.822872507286888 -50
    vertex 2.486898871648535 -9.685831611286318 -50
  endloop
endfacet
facet normal 0 0 -1
  outer loop
    vertex 50 -50 -50
    vertex 1.253332335643037 -9.921147013144775 -50
    vertex 1.873813145857241 -9.822872507286888 -50
  endloop
endfacet
facet normal 0 0 -1
  outer loop
    vertex 50 -50 -50
    vertex 0.6279051952931312 -9.980267284282718 -50
    vertex 1.253332335643037 -9.921147013144775 -50
  endloop
endfacet
facet normal 0 0 -1
  outer loop
    vertex 50 -50 -50
    vertex 0 -10 -50
    vertex 0.6279051952931312 -9.980267284282718 -50
  endloop
endfacet
facet normal 0 -0 -1
  outer loop
    vertex 7.289686274214091 -6.845471059286915 -50
    vertex 50 -50 -50
    vertex 6.845471059286858 -7.289686274214141 -50
  endloop
endfacet
facet normal -0 0 -1
  outer loop
    vertex -6.845471059286886 7.289686274214112 -50
    vertex -7.28968627421412 6.845471059286886 -50
    vertex -50 50 -50
  endloop
endfacet
facet normal 0 -0 -1
  outer loop
    vertex 7.705132427757874 -6.374239897486923 -50
    vertex 50 -50 -50
    vertex 7.289686274214091 -6.845471059286915 -50
  endloop
endfacet
facet normal -0 0 -1
  outer loop
    vertex -6.374239897486902 7.705132427757889 -50
    vertex -6.845471059286886 7.289686274214112 -50
    vertex -50 50 -50
  endloop
endfacet
facet normal 0 -0 -1
  outer loop
    vertex 8.090169943749459 -5.877852522924762 -50
    vertex 50 -50 -50
    vertex 7.705132427757874 -6.374239897486923 -50
  endloop
endfacet
facet normal -0 0 -1
  outer loop
    vertex -5.877852522924734 8.090169943749473 -50
    vertex -6.374239897486902 7.705132427757889 -50
    vertex -50 50 -50
  endloop
endfacet
facet normal 0 -0 -1
  outer loop
    vertex 8.44327925502013 -5.35826794978999 -50
    vertex 50 -50 -50
    vertex 8.090169943749459 -5.877852522924762 -50
  endloop
endfacet
facet normal -0 0 -1
  outer loop
    vertex -5.358267949789969 8.443279255020151 -50
    vertex -5.877852522924734 8.090169943749473 -50
    vertex -50 50 -50
  endloop
endfacet
facet normal 0 -0 -1
  outer loop
    vertex 8.763066800438622 -4.817536741017179 -50
    vertex 50 -50 -50
    vertex 8.44327925502013 -5.35826794978999 -50
  endloop
endfacet
facet normal -0 0 -1
  outer loop
    vertex -4.81753674101715 8.763066800438637 -50
    vertex -5.358267949789969 8.443279255020151 -50
    vertex -50 50 -50
  endloop
endfacet
facet normal 0 -0 -1
  outer loop
    vertex 9.048270524660182 -4.257792915650754 -50
    vertex 50 -50 -50
    vertex 8.763066800438622 -4.817536741017179 -50
  endloop
endfacet
facet normal -0 0 -1
  outer loop
    vertex -4.257792915650725 9.048270524660197 -50
    vertex -4.81753674101715 8.763066800438637 -50
    vertex -50 50 -50
  endloop
endfacet
facet normal 0 -0 -1
  outer loop
    vertex 9.297764858882502 -3.681245526846809 -50
    vertex 50 -50 -50
    vertex 9.048270524660182 -4.257792915650754 -50
  endloop
endfacet
facet normal -0 0 -1
  outer loop
    vertex -3.68124552684678 9.297764858882516 -50
    vertex -4.257792915650725 9.048270524660197 -50
    vertex -50 50 -50
  endloop
endfacet
facet normal 0 -0 -1
  outer loop
    vertex 9.510565162951522 -3.090169943749501 -50
    vertex 50 -50 -50
    vertex 9.297764858882502 -3.681245526846809 -50
  endloop
endfacet
facet normal -0 0 -1
  outer loop
    vertex -3.090169943749473 9.510565162951536 -50
    vertex -3.68124552684678 9.297764858882516 -50
    vertex -50 50 -50
  endloop
endfacet
facet normal 0 -0 -1
  outer loop
    vertex 9.685831611286304 -2.486898871648577 -50
    vertex 50 -50 -50
    vertex 9.510565162951522 -3.090169943749501 -50
  endloop
endfacet
facet normal -0 0 -1
  outer loop
    vertex -2.486898871648549 9.685831611286311 -50
    vertex -3.090169943749473 9.510565162951536 -50
    vertex -50 50 -50
  endloop
endfacet
facet normal 0 -0 -1
  outer loop
    vertex 9.822872507286881 -1.873813145857277 -50
    vertex 50 -50 -50
    vertex 9.685831611286304 -2.486898871648577 -50
  endloop
endfacet
facet normal -0 0 -1
  outer loop
    vertex -1.873813145857241 9.822872507286888 -50
    vertex -2.486898871648549 9.685831611286311 -50
    vertex -50 50 -50
  endloop
endfacet
facet normal 0 -0 -1
  outer loop
    vertex 9.921147013144775 -1.253332335643073 -50
    vertex 50 -50 -50
    vertex 9.822872507286881 -1.873813145857277 -50
  endloop
endfacet
facet normal -0 0 -1
  outer loop
    vertex -1.253332335643037 9.921147013144775 -50
    vertex -1.873813145857241 9.822872507286888 -50
    vertex -50 50 -50
  endloop
endfacet
facet normal 0 -0 -1
  outer loop
    vertex 9.980267284282718 -0.6279051952931596 -50
    vertex 50 -50 -50
    vertex 9.921147013144775 -1.253332335643073 -50
  endloop
endfacet
facet normal -0 0 -1
  outer loop
    vertex -0.6279051952931312 9.980267284282718 -50
    vertex -1.253332335643037 9.921147013144775 -50
    vertex -50 50 -50
  endloop
endfacet
facet normal 0 -0 -1
  outer loop
    vertex 10 -2.842170943040401e-14 -50
    vertex 50 -50 -50
    vertex 9.980267284282718 -0.6279051952931596 -50
  endloop
endfacet
facet normal -0 0 -1
  outer loop
    vertex 7.105427357601002e-15 10 -50
    vertex -0.6279051952931312 9.980267284282718 -50
    vertex -50 50 -50
  endloop
endfacet
facet normal 0 0 -1
  outer loop
    vertex 50 50 -50
    vertex 0.6279051952931383 9.980267284282718 -50
    vertex 7.105427357601002e-15 10 -50
  endloop
endfacet
facet normal 0 0 -1
  outer loop
    vertex 50 50 -50
    vertex 1.253332335643051 9.921147013144775 -50
    vertex 0.6279051952931383 9.980267284282718 -50
  endloop
endfacet
facet normal 0 0 -1
  outer loop
    vertex 50 50 -50
    vertex 1.873813145857255 9.822872507286888 -50
    vertex 1.253332335643051 9.921147013144775 -50
  endloop
endfacet
facet normal 0 0 -1
  outer loop
    vertex 50 50 -50
    vertex 2.486898871648556 9.685831611286311 -50
    vertex 1.873813145857255 9.822872507286888 -50
  endloop
endfacet
facet normal 0 0 -1
  outer loop
    vertex 50 50 -50
    vertex 3.090169943749487 9.510565162951536 -50
    vertex 2.486898871648556 9.685831611286311 -50
  endloop
endfacet
facet normal 0 0 -1
  outer loop
    vertex 50 50 -50
    vertex 3.681245526846787 9.297764858882509 -50
    vertex 3.090169943749487 9.510565162951536 -50
  endloop
endfacet
facet normal 0 0 -1
  outer loop
    vertex 50 50 -50
    vertex 4.257792915650739 9.04827052466019 -50
    vertex 3.681245526846787 9.297764858882509 -50
  endloop
endfacet
facet normal 0 0 -1
  outer loop
    vertex 50 50 -50
    vertex 4.817536741017165 8.763066800438629 -50
    vertex 4.257792915650739 9.04827052466019 -50
  endloop
endfacet
facet normal 0 0 -1
  outer loop
    vertex 50 50 -50
    vertex 5.358267949789976 8.443279255020144 -50
    vertex 4.817536741017165 8.763066800438629 -50
  endloop
endfacet
facet normal 0 0 -1
  outer loop
    vertex 50 50 -50
    vertex 5.877852522924741 8.090169943749466 -50
    vertex 5.358267949789976 8.443279255020144 -50
  endloop
endfacet
facet normal 0 0 -1
  outer loop
    vertex 50 50 -50
    vertex 6.374239897486909 7.705132427757881 -50
    vertex 5.877852522924741 8.090169943749466 -50
  endloop
endfacet
facet normal -0 0 -1
  outer loop
    vertex 50 50 -50
    vertex 7.105427357601002e-15 10 -50
    vertex -50 50 -50
  endloop
endfacet
facet normal 0 0 -1
  outer loop
    vertex 50 50 -50
    vertex 6.845471059286893 7.289686274214105 -50
    vertex 6.374239897486909 7.705132427757881 -50
  endloop
endfacet
facet normal 0 0 -1
  outer loop
    vertex 50 50 -50
    vertex 7.289686274214127 6.845471059286879 -50
    vertex 6.845471059286893 7.289686274214105 -50
  endloop
endfacet
facet normal 0 0 -1
  outer loop
    vertex 50 50 -50
    vertex 7.705132427757903 6.374239897486888 -50
    vertex 7.289686274214127 6.845471059286879 -50
  endloop
endfacet
facet normal 0 0 -1
  outer loop
    vertex 50 50 -50
    vertex 8.090169943749487 5.877852522924719 -50
    vertex 7.705132427757903 6.374239897486888 -50
  endloop
endfacet
facet normal 0 0 -1
  outer loop
    vertex 50 50 -50
    vertex 8.443279255020158 5.358267949789948 -50
    vertex 8.090169943749487 5.877852522924719 -50
  endloop
endfacet
facet normal 0 0 -1
  outer loop
    vertex 50 50 -50
    vertex 8.763066800438644 4.817536741017136 -50
    vertex 8.443279255020158 5.358267949789948 -50
  endloop
endfacet
facet normal 0 0 -1
  outer loop
    vertex 50 50 -50
    vertex 9.048270524660204 4.257792915650711 -50
    vertex 8.763066800438644 4.817536741017136 -50
  endloop
endfacet
facet normal 0 0 -1
  outer loop
    vertex 50 50 -50
    vertex 9.297764858882523 3.681245526846759 -50
    vertex 9.048270524660204 4.257792915650711 -50
  endloop
endfacet
facet normal 0 0 -1
  outer loop
    vertex 50 50 -50
    vertex 9.510565162951544 3.090169943749451 -50
    vertex 9.297764858882523 3.681245526846759 -50
  endloop
endfacet
facet normal 0 0 -1
  outer loop
    vertex 50 50 -50
    vertex 9.685831611286318 2.486898871648528 -50
    vertex 9.510565162951544 3.090169943749451 -50
  endloop
endfacet
facet normal 0 0 -1
  outer loop
    vertex 50 50 -50
    vertex 9.822872507286888 1.873813145857227 -50
    vertex 9.685831611286318 2.486898871648528 -50
  endloop
endfacet
facet normal 0 -0 -1
  outer loop
    vertex 50 50 -50
    vertex 50 -50 -50
    vertex 10 -2.842170943040401e-14 -50
  endloop
endfacet
facet normal 0 0 -1
  outer loop
    vertex 50 50 -50
    vertex 9.921147013144783 1.253332335643016 -50
    vertex 9.822872507286888 1.873813145857227 -50
  endloop
endfacet
facet normal 0 0 -1
  outer loop
    vertex 50 50 -50
    vertex 9.980267284282718 0.6279051952931098 -50
    vertex 9.921147013144783 1.253332335643016 -50
  endloop
endfacet
facet normal 0 0 -1
  outer loop
    vertex 50 50 -50
    vertex 10 -2.842170943040401e-14 -50
    vertex 9.980267284282718 0.6279051952931098 -50
  endloop
endfacet
facet normal 1 0 0
  outer loop
    vertex 50 -50 50
    vertex 50 -50 -50
    vertex 50 50 -50
  endloop
endfacet
facet normal 1 -0 0
  outer loop
    vertex 50 -50 50
    vertex 50 50 -50
    vertex 50 50 50
  endloop
endfacet
endsolid walls
