**ABCDEFGHIJKLMNOPQRSTUVWXYZabcdefghijklmnopqrstuvwxyz**************************
**PARASOLID !"#$%&'()*+,-./:;<=>?@[\]^_`{|}~0123456789**************************
**PART1;
MC=AMD64;
MC_MODEL=Intel64 Family 6 Model 165 Stepping 2, GenuineIntel;
MC_ID=unknown;
OS=Windows_NT;
OS_RELEASE=unknown;
FRU=Parasolid Version 31.1, build 290,  3- 9-2020;
APPL=SOLIDWORKS 2020-2020128;
SITE=;
USER=unknown;
FORMAT=text;
GUISE=transmit;
KEY=Standard Pot 2 Inch Sim Setup;
FILE=Standard Pot 2 Inch Sim Setup.x_t;
DATE=Sun Apr 25 16:23:05 2021;
**PART2;
SCH=SCH_3101290_31100;
USFLD_SIZE=0;
**PART3;
**END_OF_HEADER*****************************************************************
T51 : TRANSMIT FILE created by modeller version 310129023 SCH_3101290_31100_1300
6222 0 10 20 CCCCCCCI4 mesh1006 0 I8 polyline1008 0 CCCCCCCCCCA16 mesh_offset_da
ta206 0 Z1 5 2 3 0 0 0 0 0 0 0 1e3 1e-8 0 0 0 1 0 1 4 0 81 255 2 2 5 5 1 0 0 0 0
 0 0 70 11 CI9 list_type0 0 1 uI10 notransmit0 0 1 lCCCDCCDI12 finger_index0 0 1
 dI12 finger_block1012 0 CZ3 0 4 T1 0 0 1 20 1 6 6 11 255 4 3 0 1 7 8 1 9 0 0 0
 12 34 CCCCCCI4 mesh1006 0 I8 polyline1008 0 CCCCCCCDI5 owner1040 0 CCCCCCI13 bo
undary_mesh1006 0 I17 boundary_polyline1008 0 CCCA16 index_map_offset0 0 1 dA9 i
ndex_map82 0 A17 node_id_index_map82 0 A20 schema_embedding_map82 0 A5 child12 0
 A14 lowest_node_id0 0 1 dA16 mesh_offset_data206 0 Z7 668 10 11 0 0 0 0 0 0 1e3
 1e-8 4 12 0 1 0 1 1 13 14 15 16 0 0 17 18 19 0 0 0 0 0 0 0 100 255 8 4 4 0 0 1
 0 0 0 1 0 0 0 1 0 0 0 1 0 ?11 9 1 0 1 12 20 1 0 4 0 0 12 12 188 21 22 0 0 0 0 0
 0 1e3 1e-8 9 23 7 1 0 1 1 24 25 26 0 0 0 27 28 0 0 0 0 0 0 0 0 100 20 2 9 0 0 1
 0 0 0 1 0 0 0 1 0 0 0 1 0 ?81 1 21 188 29 12 30 0 0 0 0 70 22 0 4 T12 0 0 4 20
 1 31 31 13 255 24 31 0 12 0 32 0 0 33 0 50 255 25 57 0 34 35 0 0 +1353302754895
812e-50 .009345399869961 -4163841289378165e-34 0 1 0 0 0 1 31 255 26 59 0 28 36
 0 0 +1353302754895812e-50 .0581915537161149 -4163841289378165e-34 0 1 0 0 0 1 .
0254 19 8 CCCCCCCA5 owner12 0 Z27 9 0 12 33 0 37 V0 16 255 28 5 0 ?38 0 39 26 0
 0 12 17 255 38 0 40 38 38 0 41 28 0 0 +16 39 20 0 ?42 28 43 36 0 0 12 17 42 0 4
4 42 42 0 45 39 0 0 +16 43 67 0 ?46 39 47 48 0 0 12 31 36 58 0 39 49 26 0 +13533
02754895812e-50 .009345399869961 -4163841289378165e-34 0 1 0 0 0 1 .0254 31 49 8
5 0 47 48 36 0 +1353302754895812e-50 .01129924602380714 -4163841289378165e-34 0
 1 0 0 0 1 .02344615384615385 16 47 66 0 ?50 43 0 49 0 0 12 31 48 86 0 43 0 49 0
 +1353302754895812e-50 .0581915537161149 -4163841289378165e-34 0 1 0 0 0 1 .0234
4615384615385 17 50 0 51 50 50 0 52 47 0 0 +15 255 51 79 0 50 53 0 17 52 0 54 52
 52 0 50 47 0 0 -15 54 72 0 52 55 0 14 255 55 68 56 ?53 34 57 24 58 +0 0 53 34 3
7 81 1 56 183 59 55 60 0 0 61 62 14 53 76 61 ?0 55 51 24 63 +0 0 0 55 37 14 34 1
8 64 ?55 65 66 24 25 -0 0 55 65 37 15 57 71 0 46 55 54 51 255 58 82 0 55 63 67 0
 -1353302754895812e-50 .0581915537161149 -4163841289378165e-34 0 -1 0 .023446153
84615385 0 0 -1 13 37 10 0 0 0 0 0 0 27 32 14 32 27 68 ?65 0 69 24 35 -0 0 65 0
 37 81 1 68 186 59 32 70 0 64 71 72 14 65 1 71 ?34 32 73 24 67 +0 0 34 32 37 15
 69 26 0 41 32 44 51 35 56 0 32 67 25 0 -1353302754895812e-50 .0581915537161149
 -4163841289378165e-34 0 -1 0 .0254 0 0 -1 50 67 3 0 65 58 35 0 +135330275489581
2e-50 .0581915537161149 -4163841289378165e-34 0 1 0 0 0 1 17 41 0 69 41 41 0 38
 28 0 0 -15 44 28 0 42 32 0 81 1 71 187 59 65 74 0 68 0 75 15 73 62 0 76 65 40 1
7 76 0 73 76 76 0 46 43 0 0 -15 40 4 0 38 65 0 17 46 0 57 46 46 0 76 43 0 0 +80
 255 1 59 77 78 9000 1 1 1 1 1 1 1 1 0 FFFFTFTFFFFFFF1 81 1 74 167 79 65 0 71 70
 80 81 82 255 1 75 1842806911 80 1 79 0 82 8001 0 0 0 0 3 5 0 0 0 FFFFTFTFFFFFFF
2 81 1 70 166 79 32 0 68 0 74 83 81 1 80 168 79 34 0 64 74 60 84 83 255 3 81 .79
2156862745098 .819607843137255 .933333333333333 81 1 64 185 59 34 80 0 61 68 85
 81 1 60 169 79 55 0 56 80 86 87 83 3 84 .792156862745098 .819607843137255 .9333
33333333333 81 1 86 170 79 53 0 61 60 0 88 83 3 87 .792156862745098 .81960784313
7255 .933333333333333 81 1 61 184 59 53 86 0 56 64 89 83 3 88 .792156862745098 .
819607843137255 .933333333333333 82 1 89 1842348159 82 1 85 1842413695 83 3 83 .
792156862745098 .819607843137255 .933333333333333 79 255 15 82 SDL/TYSA_COLOUR79
 14 78 SWEntUnchanged82 1 72 1842675839 50 63 83 0 53 0 58 0 +1353302754895812e-
50 .01129924602380714 -4163841289378165e-34 0 1 0 0 0 1 15 66 19 0 45 34 0 17 45
 0 66 45 45 0 42 39 0 0 -82 1 62 1842217087 19 33 32 0 12 0 27 24 S0 74 4 CI16 i
ndex_map_offset0 0 1 dCCZ20 31 4 0 0 30 71 86 21 0 0 0 0 0 0 0 0 0 0 0 0 0 0 0 0
 81 2 30 123 90 12 0 21 0 0 91 0 80 2 90 92 93 8004 0 0 0 0 3 5 0 0 0 FFTFFFFFFF
FFFF2 3 83 1 91 1 79 16 93 SDL/TYSA_DENSITY80 1 29 94 95 8017 0 0 0 0 0 0 0 0 0
 TTTTTTTTTTTTTF3 79 13 95 SDL/TYSA_NAME81 1 10 668 29 7 0 0 0 0 0 70 11 0 4 T7 0
 0 3 20 1 96 96 13 13 99 0 7 97 98 0 0 99 0 50 14 273 0 100 101 0 0 +13533027548
95812e-50 .009345399869961 -4163841289378165e-34 0 1 0 0 0 1 31 15 278 0 102 103
 0 0 +1353302754895812e-50 .0581915537161149 -4163841289378165e-34 0 1 0 0 0 1 .
0254 29 255 16 75 0 104 105 0 -.0508 -.005334 -.0508 19 17 212 0 7 106 0 107 V0
 16 18 501 0 ?108 0 109 110 0 0 7 18 255 19 30 0 111 0 112 113 ?7 17 111 0 114 1
15 116 19 117 118 0 119 +18 112 27 0 116 19 120 121 ?7 29 113 32 0 19 121 122 -.
0508 .096266 -.0508 29 121 29 0 112 123 113 .0508 .096266 -.0508 29 122 78 0 124
 113 125 -.0508 -.005334 .0508 18 124 69 0 126 127 0 122 ?7 29 125 77 0 127 122
 105 .0508 -.005334 .0508 18 127 68 0 128 129 124 125 ?7 29 105 76 0 129 125 16
 .0508 -.005334 -.0508 18 129 67 0 130 104 127 105 ?7 17 130 0 131 132 133 129 1
34 135 0 136 +18 104 66 0 137 138 129 16 ?7 17 137 0 139 119 136 104 140 141 0 1
42 +18 138 21 0 143 120 104 144 ?7 17 143 0 145 146 147 138 148 149 0 115 -18 12
0 24 0 148 112 138 123 ?7 29 144 23 0 138 0 123 -.0508 .096266 .0508 29 123 26 0
 120 144 121 .0508 .096266 .0508 17 148 0 114 116 115 120 143 149 0 147 +15 114
 4 0 115 150 0 17 116 0 114 111 148 112 151 152 0 132 +17 115 0 114 148 111 138
 153 154 0 155 +16 149 9 0 ?148 152 154 156 0 0 7 17 147 0 145 143 128 120 133 1
57 0 151 -15 145 87 0 128 158 0 17 128 0 145 147 146 127 126 159 0 133 +17 133 0
 131 130 151 127 147 157 0 134 +16 157 81 0 ?133 160 161 162 0 0 7 17 151 0 131
 133 132 120 116 152 0 0 -15 131 85 0 130 163 0 17 132 0 131 151 130 112 136 161
 0 117 -16 152 13 0 ?116 118 149 164 0 0 7 16 118 17 0 ?111 165 152 166 0 0 7 30
 255 164 15 0 152 156 166 0 +.0508 .096266 -.0508 -2048885995248195e-31 0 -1 30
 156 11 0 149 167 164 0 +.0508 .096266 .0508 1 0 -682961998416066e-31 30 166 19
 0 118 164 168 0 +.0508 .096266 -.0508 -1 0 0 30 168 74 0 169 166 170 0 +-.0508
 -.005334 -.0508 1365923996832132e-31 0 1 16 169 62 0 ?171 159 0 168 0 0 7 30 17
0 73 0 159 168 172 0 +.0508 -.005334 .0508 1 0 -682961998416066e-31 16 159 58 0
 ?128 135 169 170 0 0 7 30 172 72 0 135 170 173 0 +.0508 -.005334 -.0508 -204888
5995248195e-31 0 -1 16 135 54 0 ?130 141 159 172 0 0 7 30 173 71 0 141 172 174 0
 +.0508 -.005334 -.0508 -1 0 0 16 141 50 0 ?137 154 135 173 0 0 7 30 174 95 0 16
5 173 175 0 +-.0508 .096266 -.0508 0 -1 0 16 165 79 0 ?142 161 118 174 0 0 7 30
 175 96 0 161 174 162 0 +.0508 .096266 -.0508 0 -1 0 16 161 80 0 ?136 157 165 17
5 0 0 7 30 162 97 0 157 175 176 0 +.0508 .096266 .0508 0 -1 0 30 176 98 0 160 16
2 177 0 +-.0508 .096266 .0508 0 -1 0 16 160 82 0 ?146 102 157 176 0 0 7 31 177 2
81 0 109 176 110 0 +1353302754895812e-50 .0581915537161149 -4163841289378165e-34
 0 1 0 0 0 1 .02344615384615385 16 109 495 0 ?178 18 179 177 0 0 7 31 110 280 0
 18 177 103 0 +1353302754895812e-50 .01129924602380714 -4163841289378165e-34 0 1
 0 0 0 1 .02344615384615385 31 103 279 0 179 110 15 0 +1353302754895812e-50 .009
345399869961 -4163841289378165e-34 0 1 0 0 0 1 .0254 16 179 489 0 ?180 109 102 1
03 0 0 7 17 180 0 181 180 180 0 182 179 0 0 +16 102 483 0 ?183 179 160 15 0 0 7
 17 183 0 184 183 183 0 185 102 0 0 +15 184 227 0 183 186 187 17 185 0 188 185 1
85 0 183 102 0 0 -15 188 236 0 185 189 0 14 189 229 190 ?186 100 191 97 192 -0 0
 186 100 193 81 1 190 657 59 189 194 0 0 195 196 14 186 221 195 ?0 189 184 97 10
1 +0 0 0 189 193 14 100 237 197 ?189 198 181 97 14 +0 0 189 198 193 15 191 235 0
 178 189 188 13 97 216 0 7 0 199 0 0 99 0 50 192 275 0 189 200 101 0 +1353302754
895812e-50 .0581915537161149 -4163841289378165e-34 0 1 0 0 0 1 13 193 507 0 0 0
 0 0 0 106 199 19 106 473 0 7 99 17 193 V0 14 199 252 201 ?198 0 202 97 203 -0 0
 198 0 193 81 1 201 660 59 199 204 0 197 205 206 14 198 244 205 ?100 199 207 97
 200 -0 0 100 199 193 15 202 258 0 208 199 0 50 203 277 0 199 209 200 0 +1353302
754895812e-50 .01129924602380714 -4163841289378165e-34 0 1 0 0 0 1 50 209 94 0 9
8 210 203 0 +-.0508 .096266 -.0508 1 0 -1365923996832132e-31 -1365923996832132e-
31 0 -1 51 200 276 0 198 203 192 0 -1353302754895812e-50 .0581915537161149 -4163
841289378165e-34 0 -1 0 .02344615384615385 0 0 -1 14 98 90 211 ?158 0 212 13 209
 -0 0 158 0 107 50 210 93 0 158 213 209 0 +.0508 .096266 .0508 -682961998416066e
-31 0 -1 -1 0 682961998416066e-31 14 158 88 214 ?163 98 145 13 210 -0 0 163 98 1
07 50 213 92 0 163 215 210 0 +.0508 .096266 -.0508 -1 0 2048885995248195e-31 204
8885995248195e-31 0 1 14 163 86 216 ?217 158 131 13 213 -0 0 217 158 107 50 215
 91 0 217 218 213 0 +.0508 .096266 -.0508 0 0 1 1 0 0 14 217 84 219 ?150 163 139
 13 215 -0 0 150 163 107 50 218 70 0 220 221 215 0 +0 -.005334 0 0 -1 0 0 0 -1 1
4 220 48 222 ?0 150 223 13 218 +0 0 0 150 107 50 221 3 0 150 0 218 0 +0 .096266
 0 0 -1 0 0 0 -1 14 150 1 224 ?220 217 114 13 221 -0 0 220 217 107 81 1 224 667
 59 150 225 0 222 0 226 13 107 34 0 0 0 0 0 0 17 98 81 1 225 626 79 150 0 224 22
7 228 229 81 1 222 666 59 220 228 0 219 224 230 82 1 226 1829044360 81 1 228 627
 79 220 0 222 225 204 231 81 1 219 665 59 217 227 0 216 222 232 82 1 230 1834680
456 81 1 227 625 79 217 0 219 233 225 234 81 1 216 664 59 163 233 0 214 219 235
 82 1 232 1835597960 81 1 233 624 79 163 0 216 236 227 237 81 1 214 663 59 158 2
36 0 211 216 238 82 1 235 1835860104 81 1 236 623 79 158 0 214 239 233 240 81 1
 211 662 59 98 239 0 205 214 241 82 1 238 1836122248 81 1 239 622 79 98 0 211 0
 236 242 81 1 205 661 59 198 243 0 201 211 244 82 1 241 1836384392 81 1 243 629
 79 198 0 205 204 245 246 82 1 244 -2039414643 81 1 204 628 79 199 0 201 228 243
 247 81 1 245 630 79 100 0 197 243 194 248 83 3 246 .792156862745098 .8196078431
37255 .933333333333333 81 1 197 659 59 100 245 0 195 201 249 81 1 194 631 79 189
 0 190 245 250 251 83 3 248 .792156862745098 .819607843137255 .933333333333333 8
1 1 250 632 79 186 0 195 194 0 252 83 3 251 .792156862745098 .819607843137255 .9
33333333333333 81 1 195 658 59 186 250 0 190 197 253 83 3 252 .792156862745098 .
819607843137255 .933333333333333 82 1 253 -2040004467 82 1 249 -2039938931 83 3
 247 .792156862745098 .819607843137255 .933333333333333 83 3 242 .79215686274509
8 .819607843137255 .933333333333333 83 3 240 .792156862745098 .819607843137255 .
933333333333333 83 3 237 .792156862745098 .819607843137255 .933333333333333 83 3
 234 .792156862745098 .819607843137255 .933333333333333 83 3 231 .79215686274509
8 .819607843137255 .933333333333333 83 3 229 .792156862745098 .819607843137255 .
933333333333333 15 223 49 0 254 220 0 17 254 0 223 140 126 104 171 169 0 0 -17 1
40 0 223 134 254 129 137 141 0 0 -17 126 0 223 254 134 124 128 159 0 146 -17 171
 0 212 155 142 124 254 169 0 0 +15 212 89 0 171 98 0 17 155 0 212 153 171 138 14
6 160 0 0 -17 142 0 212 171 153 104 119 165 0 254 +17 153 0 212 142 155 19 115 1
54 0 0 -17 119 0 139 117 137 19 142 165 0 153 -15 139 83 0 137 217 0 17 117 0 13
9 136 119 112 111 118 0 0 -17 136 0 139 137 117 129 132 161 0 140 +16 154 5 0 ?1
15 149 141 167 0 0 7 30 167 7 0 154 0 156 0 +-.0508 .096266 -.0508 1365923996832
132e-31 0 1 17 146 0 145 128 143 124 155 160 0 171 +17 134 0 223 126 140 127 130
 135 0 0 -17 208 0 202 208 208 0 108 18 0 0 -17 108 0 255 108 108 0 208 18 0 0 +
15 255 251 0 108 198 0 15 207 250 0 256 198 255 17 256 0 207 256 256 0 178 109 0
 0 -17 178 0 191 178 178 0 256 109 0 0 +82 1 206 -2039545715 19 99 100 0 7 0 106
 13 S0 51 101 274 0 186 192 14 0 -1353302754895812e-50 .0581915537161149 -416384
1289378165e-34 0 -1 0 .0254 0 0 -1 15 181 243 0 180 100 0 82 1 196 -2040135539 1
5 187 228 0 182 186 0 17 182 0 187 182 182 0 180 179 0 0 -74 20 96 3 0 0 224 250
 10 0 0 0 0 0 0 0 0 0 0 0 0 0 0 0 0 0 74 20 6 1 0 0 2 0 0 0 0 0 0 0 0 0 0 0 0 0
 0 0 0 0 0 0 80 2 5 257 258 9000 0 0 0 0 3 5 0 0 0 TFFFFFFFFFFFFF9 1 79 18 258 M
ULTI_BODY_ID_20011 0 
