v -6.6251445 -16.733204 52.052151
v -7.9720011 -17.235144 49.832386
l 1 2
v 7.0374532 -17.774578 49.556095
v 6.6251445 -16.733204 52.052151
l 3 4
v -25.034424 5.8027315 1.6605
v -25.034424 5.8027315 1.7763568e-15
l 5 6
v 16.993956 19.27586 1.7763568e-15
v 16.993956 19.27586 1.6605
l 7 8
v 25.557205 2.694329 1.6605
v 25.557205 2.694329 1.7763568e-15
l 9 10
v 23.744215 9.8350677 1.6605
v 23.744215 9.8350677 1.7763568e-15
l 11 12
v 19.27586 16.993956 1.6605
v 19.27586 16.993956 1.7763568e-15
l 13 14
v -14.562714 -22.580193 35.968906
v -14.716979 -22.428965 36.054455
l 15 16
v -14.716979 -22.428965 36.054455
v -14.865365 -22.276108 36.150375
l 17 18
v -14.865365 -22.276108 36.150375
v -15.007286 -22.122225 36.25629
l 19 20
v -15.007286 -22.122225 36.25629
v -15.014513 -22.113958 36.262478
l 21 22
v -14.416493 -22.716759 35.900318
v -14.562714 -22.580193 35.968906
l 23 24
v -14.237467 -22.859148 35.830242
v -14.403061 -22.727957 35.89407
l 25 26
v -14.403061 -22.727957 35.89407
v -14.416493 -22.716759 35.900318
l 27 28
v -14.067869 -22.986839 35.777668
v -14.237467 -22.859148 35.830242
l 29 30
v -13.876594 -23.122984 35.733486
v -13.894937 -23.110531 35.736565
l 31 32
v -13.894937 -23.110531 35.736565
v -14.067869 -22.986839 35.777668
l 33 34
v -13.5295 -23.351248 35.689354
v -13.634622 -23.283798 35.69949
l 35 36
v -13.344691 -23.463629 35.683434
v -13.5295 -23.351248 35.689354
l 37 38
v -13.159693 -23.569952 35.689354
v -13.344691 -23.463629 35.683434
l 39 40
v -13.794991 -23.17812 35.720287
v -13.876594 -23.122984 35.733486
l 41 42
v -15.366495 -21.675653 36.629635
v -15.469385 -21.529081 36.770981
l 43 44
v -15.469385 -21.529081 36.770981
v -15.550787 -21.403822 36.89996
l 45 46
v -15.550787 -21.403822 36.89996
v -15.559006 -21.389912 36.913235
l 47 48
v -15.646092 -21.230131 37.075726
v -15.719554 -21.081087 37.237915
l 49 50
v -15.719554 -21.081087 37.237915
v -15.759769 -20.989687 37.343983
l 51 52
v -15.780581 -20.938452 37.405811
v -15.827201 -20.804129 37.578747
l 53 54
v -15.827201 -20.804129 37.578747
v -15.863744 -20.675152 37.756039
l 55 56
v -15.890063 -20.552027 37.936993
v -15.906057 -20.43524 38.120888
l 57 58
v -15.906057 -20.43524 38.120888
v -15.911663 -20.325253 38.306999
l 59 60
v -15.911663 -20.325253 38.306999
v -15.906857 -20.2225 38.494598
l 61 62
v -15.906857 -20.2225 38.494598
v -15.899258 -20.174944 38.588768
l 63 64
v -15.878893 -20.083838 38.777107
v -15.866127 -20.040287 38.871277
l 65 66
v -15.866127 -20.040287 38.871277
v -15.830364 -19.961546 39.058876
l 67 68
v -15.830364 -19.961546 39.058876
v -15.821941 -19.948675 39.093063
l 69 70
v -11.33433 -24.11865 36.469891
v -11.349361 -24.118622 36.456638
l 71 72
v -12.255475 -23.940109 35.89407
v -12.430967 -23.88282 35.830242
l 73 74
v -12.0841 -23.989759 35.968906
v -12.255475 -23.940109 35.89407
l 75 76
v -12.05914 -23.996025 35.981724
v -12.0841 -23.989759 35.968906
l 77 78
v -11.915248 -24.032732 36.054455
v -12.05914 -23.996025 35.981724
l 79 80
v -11.751958 -24.06765 36.150375
v -11.915248 -24.032732 36.054455
l 81 82
v -11.595275 -24.094172 36.25629
v -11.751958 -24.06765 36.150375
l 83 84
v -11.495636 -24.106184 36.333282
v -11.595275 -24.094172 36.25629
l 85 86
v -11.349361 -24.118622 36.456638
v -11.39759 -24.115406 36.414211
l 87 88
v -10.827415 -24.041948 37.075726
v -10.932364 -24.072695 36.919872
l 89 90
v -10.732697 -24.003675 37.237915
v -10.827415 -24.041948 37.075726
l 91 92
v -10.727999 -24.001125 37.247295
v -10.732697 -24.003675 37.237915
l 93 94
v -10.569777 -23.907616 37.578747
v -10.646229 -23.959044 37.405811
l 95 96
v -10.504118 -23.849388 37.756039
v -10.569777 -23.907616 37.578747
l 97 98
v -12.102983 -23.984289 35.960659
v -12.0841 -23.989759 35.968906
l 99 100
v -12.007582 -23.173552 37.667881
v -12.102983 -23.984289 35.960659
l 101 102
v -11.776079 -21.420609 41.384708
v -13.004018 -23.654221 35.704319
l 103 104
v -11.993365 -23.702917 36.630608
v -11.423396 -21.721024 41.144894
l 105 106
v -13.027196 -20.527576 41.678581
v -13.794991 -23.17812 35.720287
l 107 108
v -13.634622 -23.283798 35.69949
v -13.027196 -20.527576 41.678581
l 109 110
v -12.430967 -23.88282 35.830242
v -11.953355 -22.730608 38.602745
l 111 112
v -11.39759 -24.115406 36.414211
v -10.72279 -22.508242 40.290154
l 113 114
v -10.72279 -22.508242 40.290154
v -11.128144 -23.248653 38.40889
l 115 116
v -10.591104 -23.894133 37.587456
v -10.504118 -23.849388 37.756039
l 117 118
v -11.953355 -22.730608 38.602745
v -12.007582 -23.173552 37.667881
l 119 120
v -10.669608 -23.602713 38.114269
v -10.355453 -23.31019 38.991039
l 121 122
v -10.352279 -23.344715 38.923206
v -10.348223 -23.371845 38.871277
l 123 124
v -10.355453 -23.31019 38.991039
v -10.352279 -23.344715 38.923206
l 125 126
v -11.379197 -21.761314 41.109589
v -11.297442 -21.840921 41.034191
l 127 128
v -11.423396 -21.721024 41.144894
v -11.379197 -21.761314 41.109589
l 129 130
v -10.859053 -22.322891 40.520447
v -10.810472 -22.385117 40.446003
l 131 132
v -11.297442 -21.840921 41.034191
v -11.251996 -21.88426 40.994095
l 133 134
v -11.128833 -22.009741 40.86948
v -11.013894 -22.135374 40.73624
l 135 136
v -11.251996 -21.88426 40.994095
v -11.128833 -22.009741 40.86948
l 137 138
v -10.647083 -22.626204 40.132435
v -10.644901 -22.629335 40.12796
l 139 140
v -10.644901 -22.629335 40.12796
v -10.630265 -22.653111 40.09227
l 141 142
v -10.72279 -22.508242 40.290154
v -10.647083 -22.626204 40.132435
l 143 144
v -10.810472 -22.385117 40.446003
v -10.72279 -22.508242 40.290154
l 145 146
v -15.119676 -19.683216 40.520447
v -15.780581 -20.938452 37.405811
l 147 148
v -15.575087 -19.746199 39.787128
v -15.794783 -20.353642 38.416714
l 149 150
v -15.653164 -19.786268 39.609837
v -15.575087 -19.746199 39.787128
l 151 152
v -15.289684 -19.682062 40.290154
v -15.178744 -19.679653 40.446003
l 153 154
v -15.178744 -19.679653 40.446003
v -15.119676 -19.683216 40.520447
l 155 156
v -14.473104 -19.828753 41.147636
v -14.797215 -20.366617 39.757111
l 157 158
v -14.797215 -20.366617 39.757111
v -14.378368 -19.86043 41.215504
l 159 160
v -14.935736 -19.703409 40.73624
v -14.804626 -19.729479 40.86948
l 161 162
v -14.667795 -19.764885 40.994095
v -14.525783 -19.809488 41.109589
l 163 164
v -14.525783 -19.809488 41.109589
v -14.473104 -19.828753 41.147636
l 165 166
v -13.249804 -20.387024 41.658791
v -13.084408 -20.489811 41.676521
l 167 168
v -13.084408 -20.489811 41.676521
v -13.027196 -20.527576 41.678581
l 169 170
v -13.027196 -20.527576 41.678581
v -12.917596 -20.590382 41.682442
l 171 172
v -12.917596 -20.590382 41.682442
v -12.751072 -20.691948 41.676521
l 173 174
v -12.751072 -20.691948 41.676521
v -12.673915 -20.741917 41.668198
l 175 176
v -12.673915 -20.741917 41.668198
v -12.584859 -20.799486 41.658791
l 177 178
v -12.584859 -20.799486 41.658791
v -12.419535 -20.912617 41.629311
l 179 180
v -13.580707 -20.200417 41.588207
v -13.415454 -20.290432 41.629311
l 181 182
v -13.415454 -20.290432 41.629311
v -13.249804 -20.387024 41.658791
l 183 184
v -12.257413 -21.029915 41.588207
v -12.099134 -21.150913 41.535633
l 185 186
v -12.099134 -21.150913 41.535633
v -12.022228 -21.213024 41.503719
l 187 188
v -12.419535 -20.912617 41.629311
v -12.257413 -21.029915 41.588207
l 189 190
v -11.796585 -21.402092 41.396969
v -11.776079 -21.420609 41.384708
l 191 192
v -15.735034 20.188158 38.789909
v -15.911663 20.325253 38.306999
l 193 194
v -15.911663 20.325253 38.306999
v -15.575087 19.746199 39.787128
l 195 196
v -15.559471 19.978304 39.399548
v -15.735034 20.188158 38.789909
l 197 198
v -15.443904 20.245455 39.086819
v -15.119676 19.683216 40.520447
l 199 200
v -15.575087 19.746199 39.787128
v -15.653164 19.786268 39.609837
l 201 202
v -15.289684 19.682062 40.290154
v -15.559471 19.978304 39.399548
l 203 204
v -15.178744 19.679653 40.446003
v -15.289684 19.682062 40.290154
l 205 206
v -15.119676 19.683216 40.520447
v -15.178744 19.679653 40.446003
l 207 208
v -14.804626 19.729479 40.86948
v -14.935736 19.703409 40.73624
l 209 210
v -14.667795 19.764885 40.994095
v -14.804626 19.729479 40.86948
l 211 212
v -14.525783 19.809488 41.109589
v -14.667795 19.764885 40.994095
l 213 214
v -14.797215 20.366617 39.757111
v -14.473104 19.828753 41.147636
l 215 216
v -14.378368 19.86043 41.215504
v -14.797215 20.366617 39.757111
l 217 218
v -14.473104 19.828753 41.147636
v -14.525783 19.809488 41.109589
l 219 220
v -13.249804 20.387024 41.658791
v -13.415454 20.290432 41.629311
l 221 222
v -13.084408 20.489811 41.676521
v -13.249804 20.387024 41.658791
l 223 224
v -13.027196 20.527576 41.678581
v -13.084408 20.489811 41.676521
l 225 226
v -12.917596 20.590382 41.682442
v -13.027196 20.527576 41.678581
l 227 228
v -12.751072 20.691948 41.676521
v -12.917596 20.590382 41.682442
l 229 230
v -12.673915 20.741917 41.668198
v -12.751072 20.691948 41.676521
l 231 232
v -12.584859 20.799486 41.658791
v -12.673915 20.741917 41.668198
l 233 234
v -12.419535 20.912617 41.629311
v -12.584859 20.799486 41.658791
l 235 236
v -12.257413 21.029915 41.588207
v -12.419535 20.912617 41.629311
l 237 238
v -11.796585 21.402092 41.396969
v -11.895743 21.317455 41.446861
l 239 240
v -11.651235 21.521109 41.311424
v -11.776079 21.420609 41.384708
l 241 242
v -11.776079 21.420609 41.384708
v -11.796585 21.402092 41.396969
l 243 244
v -11.511795 21.64044 41.215504
v -11.651235 21.521109 41.311424
l 245 246
v -15.890063 20.552027 37.936993
v -15.863744 20.675152 37.756039
l 247 248
v -15.719554 21.081087 37.237915
v -15.646092 21.230131 37.075726
l 249 250
v -15.759769 20.989687 37.343983
v -15.719554 21.081087 37.237915
l 251 252
v -15.559006 21.389912 36.913235
v -15.550787 21.403822 36.89996
l 253 254
v -15.550787 21.403822 36.89996
v -15.469385 21.529081 36.770981
l 255 256
v -15.827201 20.804129 37.578747
v -15.780581 20.938452 37.405811
l 257 258
v -15.780581 20.938452 37.405811
v -15.759769 20.989687 37.343983
l 259 260
v -15.863744 20.675152 37.756039
v -15.827201 20.804129 37.578747
l 261 262
v -15.830364 19.961546 39.058876
v -15.866127 20.040287 38.871277
l 263 264
v -15.821941 19.948675 39.093063
v -15.830364 19.961546 39.058876
l 265 266
v -15.866127 20.040287 38.871277
v -15.878893 20.083838 38.777107
l 267 268
v -15.899258 20.174944 38.588768
v -15.906857 20.2225 38.494598
l 269 270
v -15.911663 20.325253 38.306999
v -15.906057 20.43524 38.120888
l 271 272
v -15.906057 20.43524 38.120888
v -15.890063 20.552027 37.936993
l 273 274
v -15.906857 20.2225 38.494598
v -15.911663 20.325253 38.306999
l 275 276
v -14.865365 22.276108 36.150375
v -14.716979 22.428965 36.054455
l 277 278
v -14.716979 22.428965 36.054455
v -14.562714 22.580193 35.968906
l 279 280
v -15.007286 22.122225 36.25629
v -14.865365 22.276108 36.150375
l 281 282
v -14.562714 22.580193 35.968906
v -14.416493 22.716759 35.900318
l 283 284
v -14.416493 22.716759 35.900318
v -14.403061 22.727957 35.89407
l 285 286
v -14.403061 22.727957 35.89407
v -14.237467 22.859148 35.830242
l 287 288
v -14.237467 22.859148 35.830242
v -14.067869 22.986839 35.777668
l 289 290
v -14.067869 22.986839 35.777668
v -13.894937 23.110531 35.736565
l 291 292
v -13.894937 23.110531 35.736565
v -13.876594 23.122984 35.733486
l 293 294
v -13.876594 23.122984 35.733486
v -13.767791 23.196499 35.715885
l 295 296
v -13.634622 23.283798 35.69949
v -13.5295 23.351248 35.689354
l 297 298
v -13.5295 23.351248 35.689354
v -13.344691 23.463629 35.683434
l 299 300
v -13.344691 23.463629 35.683434
v -13.159693 23.569952 35.689354
l 301 302
v -13.159693 23.569952 35.689354
v -13.004018 23.654221 35.704319
l 303 304
v -13.004018 23.654221 35.704319
v -12.975162 23.66753 35.707088
l 305 306
v -12.975162 23.66753 35.707088
v -12.791523 23.74626 35.736565
l 307 308
v -12.791523 23.74626 35.736565
v -12.609886 23.818119 35.777668
l 309 310
v -12.609886 23.818119 35.777668
v -12.430967 23.88282 35.830242
l 311 312
v -12.430967 23.88282 35.830242
v -12.255475 23.940109 35.89407
l 313 314
v -12.255475 23.940109 35.89407
v -12.0841 23.989759 35.968906
l 315 316
v -12.0841 23.989759 35.968906
v -12.05914 23.996025 35.981724
l 317 318
v -12.05914 23.996025 35.981724
v -11.915248 24.032732 36.054455
l 319 320
v -11.915248 24.032732 36.054455
v -11.751958 24.06765 36.150375
l 321 322
v -11.751958 24.06765 36.150375
v -11.595275 24.094172 36.25629
l 323 324
v -11.595275 24.094172 36.25629
v -11.445817 24.11219 36.37178
l 325 326
v -11.445817 24.11219 36.37178
v -11.349361 24.118622 36.456638
l 327 328
v -11.349361 24.118622 36.456638
v -11.304266 24.118708 36.496395
l 329 330
v -11.171261 24.111151 36.629635
v -11.109196 24.103472 36.70031
l 331 332
v -10.932364 24.072695 36.919872
v -10.827415 24.041948 37.075726
l 333 334
v -10.827415 24.041948 37.075726
v -10.732697 24.003675 37.237915
l 335 336
v -10.732697 24.003675 37.237915
v -10.718602 23.996025 37.266052
l 337 338
v -11.304266 24.118708 36.496395
v -11.171261 24.111151 36.629635
l 339 340
v -10.718602 23.996025 37.266052
v -10.646229 23.959044 37.405811
l 341 342
v -10.646229 23.959044 37.405811
v -10.569777 23.907616 37.578747
l 343 344
v -10.569777 23.907616 37.578747
v -10.504118 23.849388 37.756039
l 345 346
v -10.504118 23.849388 37.756039
v -10.44951 23.78459 37.936993
l 347 348
v -10.390219 23.674904 38.213943
v -10.374268 23.636332 38.306999
l 349 350
v -14.491879 21.556517 37.945461
v -14.44025 21.221664 38.62767
l 351 352
v -14.223036 21.238262 38.869289
v -14.491879 21.556517 37.945461
l 353 354
v -13.315493 21.911819 38.694763
v -13.392617 22.386154 37.696899
l 355 356
v -13.392617 22.386154 37.696899
v -13.193652 21.987587 38.687641
l 357 358
v -13.767791 23.196499 35.715885
v -13.027196 20.527576 41.678581
l 359 360
v -13.027196 20.527576 41.678581
v -13.315493 21.911819 38.694763
l 361 362
v -10.732697 24.003675 37.237915
v -10.511481 23.795595 37.859596
l 363 364
v -10.44951 23.78459 37.936993
v -10.732697 24.003675 37.237915
l 365 366
v -10.511481 23.795595 37.859596
v -10.390219 23.674904 38.213943
l 367 368
v -10.35393 23.553455 38.494598
v -10.932364 24.072695 36.919872
l 369 370
v -14.935736 19.703409 40.73624
v -15.780581 20.938452 37.405811
l 371 372
v -15.780581 20.938452 37.405811
v -15.443904 20.245455 39.086819
l 373 374
v -14.148843 21.314692 38.821331
v -14.223036 21.238262 38.869289
l 375 376
v -13.415454 20.290432 41.629311
v -14.148843 21.314692 38.821331
l 377 378
v -13.193652 21.987587 38.687641
v -12.584859 20.799486 41.658791
l 379 380
v -12.584859 20.799486 41.658791
v -12.806005 21.497469 40.068241
l 381 382
v -10.358627 23.275667 39.058876
v -10.372075 23.209213 39.182949
l 383 384
v -10.410284 23.072495 39.428883
v -10.452959 22.965597 39.609837
l 385 386
v -10.394542 23.124241 39.336937
v -10.410284 23.072495 39.428883
l 387 388
v -10.452959 22.965597 39.609837
v -10.506655 22.855721 39.787128
l 389 390
v -10.374268 23.636332 38.306999
v -10.35393 23.553455 38.494598
l 391 392
v -10.349575 23.362803 38.888588
v -10.352279 23.344715 38.923206
l 393 394
v -10.352279 23.344715 38.923206
v -10.358627 23.275667 39.058876
l 395 396
v -11.251996 21.88426 40.994095
v -11.297442 21.840921 41.034191
l 397 398
v -11.297442 21.840921 41.034191
v -11.379197 21.761314 41.109589
l 399 400
v -11.379197 21.761314 41.109589
v -11.511795 21.64044 41.215504
l 401 402
v -10.907634 22.260664 40.594894
v -11.013894 22.135374 40.73624
l 403 404
v -11.013894 22.135374 40.73624
v -11.128833 22.009741 40.86948
l 405 406
v -11.128833 22.009741 40.86948
v -11.251996 21.88426 40.994095
l 407 408
v -10.810472 22.385117 40.446003
v -10.907634 22.260664 40.594894
l 409 410
v -10.645447 22.628553 40.129078
v -10.647083 22.626204 40.132435
l 411 412
v -10.57116 22.743294 39.960064
v -10.630265 22.653111 40.09227
l 413 414
v -10.72279 22.508242 40.290154
v -10.810472 22.385117 40.446003
l 415 416
v -10.647083 22.626204 40.132435
v -10.72279 22.508242 40.290154
l 417 418
v -10.506655 22.855721 39.787128
v -10.57116 22.743294 39.960064
l 419 420
v 10.72565 -23.999849 37.251984
v 10.591104 -23.894133 37.587456
l 421 422
v 11.171261 -24.111151 36.629635
v 11.047131 -24.095793 36.770981
l 423 424
v 10.932364 -24.072695 36.919872
v 10.827415 -24.041948 37.075726
l 425 426
v 11.047131 -24.095793 36.770981
v 10.932364 -24.072695 36.919872
l 427 428
v 10.827415 -24.041948 37.075726
v 10.732697 -24.003675 37.237915
l 429 430
v 10.732697 -24.003675 37.237915
v 10.72565 -23.999849 37.251984
l 431 432
v 11.915248 -24.032732 36.054455
v 11.751958 -24.06765 36.150375
l 433 434
v 12.05914 -23.996025 35.981724
v 11.915248 -24.032732 36.054455
l 435 436
v 12.255475 -23.940109 35.89407
v 12.0841 -23.989759 35.968906
l 437 438
v 12.0841 -23.989759 35.968906
v 12.05914 -23.996025 35.981724
l 439 440
v 11.595275 -24.094172 36.25629
v 11.495636 -24.106184 36.333282
l 441 442
v 11.751958 -24.06765 36.150375
v 11.595275 -24.094172 36.25629
l 443 444
v 12.430967 -23.88282 35.830242
v 12.255475 -23.940109 35.89407
l 445 446
v 13.159693 -23.569952 35.689354
v 13.004018 -23.654221 35.704319
l 447 448
v 13.5295 -23.351248 35.689354
v 13.344691 -23.463629 35.683434
l 449 450
v 13.713389 -23.233257 35.707088
v 13.5295 -23.351248 35.689354
l 451 452
v 13.876594 -23.122984 35.733486
v 13.713389 -23.233257 35.707088
l 453 454
v 13.894937 -23.110531 35.736565
v 13.876594 -23.122984 35.733486
l 455 456
v 14.067869 -22.986839 35.777668
v 13.894937 -23.110531 35.736565
l 457 458
v 14.237467 -22.859148 35.830242
v 14.067869 -22.986839 35.777668
l 459 460
v 14.403061 -22.727957 35.89407
v 14.237467 -22.859148 35.830242
l 461 462
v 14.416493 -22.716759 35.900318
v 14.403061 -22.727957 35.89407
l 463 464
v 15.255094 -21.823614 36.496395
v 15.135618 -21.972382 36.37178
l 465 466
v 15.310794 -21.749634 36.563015
v 15.255094 -21.823614 36.496395
l 467 468
v 15.469385 -21.529081 36.770981
v 15.400792 -21.626797 36.67675
l 469 470
v 15.550787 -21.403822 36.89996
v 15.469385 -21.529081 36.770981
l 471 472
v 15.559006 -21.389912 36.913235
v 15.550787 -21.403822 36.89996
l 473 474
v 15.780581 -20.938452 37.405811
v 15.759769 -20.989687 37.343983
l 475 476
v 15.906857 -20.2225 38.494598
v 15.911663 -20.325253 38.306999
l 477 478
v 15.830364 -19.961546 39.058876
v 15.866127 -20.040287 38.871277
l 479 480
v 15.797677 -19.914677 39.186119
v 15.813519 -19.935802 39.127251
l 481 482
v 15.813519 -19.935802 39.127251
v 15.830364 -19.961546 39.058876
l 483 484
v 10.666903 -23.6208 38.079651
v 11.171261 -24.111151 36.629635
l 485 486
v 10.352279 -23.344715 38.923206
v 10.666903 -23.6208 38.079651
l 487 488
v 11.495636 -24.106184 36.333282
v 10.72279 -22.508242 40.290154
l 489 490
v 11.751958 -24.06765 36.150375
v 11.411441 -23.146698 38.324673
l 491 492
v 10.859053 -22.322891 40.520447
v 11.751958 -24.06765 36.150375
l 493 494
v 11.464571 -23.084053 38.395348
v 12.05914 -23.996025 35.981724
l 495 496
v 12.05914 -23.996025 35.981724
v 11.071363 -22.072557 40.80286
l 497 498
v 11.423396 -21.721024 41.144894
v 12.430967 -23.88282 35.830242
l 499 500
v 13.713389 -23.233257 35.707088
v 13.451895 -21.825279 38.706032
l 501 502
v 12.972396 -20.558979 41.680511
v 13.713389 -23.233257 35.707088
l 503 504
v 14.804626 -19.729479 40.86948
v 15.646092 -21.230131 37.075726
l 505 506
v 15.589873 -20.117044 39.113571
v 15.481037 -20.013092 39.44545
l 507 508
v 13.004018 -23.654221 35.704319
v 11.776079 -21.420609 41.384708
l 509 510
v 13.451895 -21.825279 38.706032
v 13.461066 -21.819054 38.707573
l 511 512
v 13.461066 -21.819054 38.707573
v 13.374086 -21.34733 39.711609
l 513 514
v 13.632331 -21.693361 38.75441
v 13.715128 -21.627766 38.786327
l 515 516
v 13.374086 -21.34733 39.711609
v 13.632331 -21.693361 38.75441
l 517 518
v 13.715128 -21.627766 38.786327
v 14.416493 -22.716759 35.900318
l 519 520
v 10.35393 -23.553455 38.494598
v 10.345237 -23.465178 38.682938
l 521 522
v 10.345237 -23.465178 38.682938
v 10.348223 -23.371845 38.871277
l 523 524
v 10.348223 -23.371845 38.871277
v 10.352279 -23.344715 38.923206
l 525 526
v 10.479807 -22.91066 39.698483
v 10.506655 -22.855721 39.787128
l 527 528
v 10.506655 -22.855721 39.787128
v 10.57116 -22.743294 39.960064
l 529 530
v 10.72279 -22.508242 40.290154
v 10.810472 -22.385117 40.446003
l 531 532
v 10.810472 -22.385117 40.446003
v 10.859053 -22.322891 40.520447
l 533 534
v 11.071363 -22.072557 40.80286
v 11.128833 -22.009741 40.86948
l 535 536
v 11.128833 -22.009741 40.86948
v 11.190414 -21.947001 40.931789
l 537 538
v 11.263973 -21.872839 41.004662
v 11.297442 -21.840921 41.034191
l 539 540
v 11.297442 -21.840921 41.034191
v 11.379197 -21.761314 41.109589
l 541 542
v 11.379197 -21.761314 41.109589
v 11.423396 -21.721024 41.144894
l 543 544
v 14.639641 -20.451563 39.797943
v 14.666775 -20.409809 39.840935
l 545 546
v 15.866127 -20.040287 38.871277
v 15.852589 -20.031595 38.905094
l 547 548
v 11.776079 -21.420609 41.384708
v 11.796585 -21.402092 41.396969
l 549 550
v 12.099134 -21.150913 41.535633
v 12.257413 -21.029915 41.588207
l 551 552
v 12.257413 -21.029915 41.588207
v 12.419535 -20.912617 41.629311
l 553 554
v 12.419535 -20.912617 41.629311
v 12.584859 -20.799486 41.658791
l 555 556
v 12.584859 -20.799486 41.658791
v 12.673915 -20.741917 41.668198
l 557 558
v 12.673915 -20.741917 41.668198
v 12.751072 -20.691948 41.676521
l 559 560
v 12.751072 -20.691948 41.676521
v 12.917596 -20.590382 41.682442
l 561 562
v 12.917596 -20.590382 41.682442
v 12.972396 -20.558979 41.680511
l 563 564
v 13.167106 -20.438417 41.667656
v 13.249804 -20.387024 41.658791
l 565 566
v 13.249804 -20.387024 41.658791
v 13.415454 -20.290432 41.629311
l 567 568
v 14.797215 -20.366617 39.757111
v 14.473104 -19.828753 41.147636
l 569 570
v 14.378368 -19.86043 41.215504
v 14.797215 -20.366617 39.757111
l 571 572
v 14.525783 -19.809488 41.109589
v 14.667795 -19.764885 40.994095
l 573 574
v 14.667795 -19.764885 40.994095
v 14.804626 -19.729479 40.86948
l 575 576
v 13.907413 -20.041508 41.471806
v 14.067576 -19.973242 41.396969
l 577 578
v 14.473104 -19.828753 41.147636
v 14.525783 -19.809488 41.109589
l 579 580
v 15.759769 -20.989687 37.343983
v 14.935736 -19.703409 40.73624
l 581 582
v 15.653164 -19.786268 39.609837
v 15.722171 -19.835451 39.428883
l 583 584
v 15.289684 -19.682062 40.290154
v 15.334996 -19.687294 40.219009
l 585 586
v 15.178744 -19.679653 40.446003
v 15.289684 -19.682062 40.290154
l 587 588
v 11.776079 21.420609 41.384708
v 11.651235 21.521109 41.311424
l 589 590
v 11.796585 21.402092 41.396969
v 11.776079 21.420609 41.384708
l 591 592
v 12.419535 20.912617 41.629311
v 12.257413 21.029915 41.588207
l 593 594
v 11.945322 21.275135 41.471806
v 11.796585 21.402092 41.396969
l 595 596
v 12.099134 21.150913 41.535633
v 11.945322 21.275135 41.471806
l 597 598
v 12.257413 21.029915 41.588207
v 12.099134 21.150913 41.535633
l 599 600
v 13.415454 20.290432 41.629311
v 13.249804 20.387024 41.658791
l 601 602
v 12.584859 20.799486 41.658791
v 12.419535 20.912617 41.629311
l 603 604
v 12.751072 20.691948 41.676521
v 12.673915 20.741917 41.668198
l 605 606
v 12.673915 20.741917 41.668198
v 12.584859 20.799486 41.658791
l 607 608
v 12.834334 20.641165 41.679482
v 12.751072 20.691948 41.676521
l 609 610
v 13.084408 20.489811 41.676521
v 13.027196 20.527576 41.678581
l 611 612
v 13.249804 20.387024 41.658791
v 13.084408 20.489811 41.676521
l 613 614
v 14.804626 19.729479 40.86948
v 14.667795 19.764885 40.994095
l 615 616
v 14.935736 19.703409 40.73624
v 14.804626 19.729479 40.86948
l 617 618
v 14.797215 20.366617 39.757111
v 14.378368 19.86043 41.215504
l 619 620
v 15.119676 19.683216 40.520447
v 15.780581 20.938452 37.405811
l 621 622
v 14.667795 19.764885 40.994095
v 14.867451 20.340933 39.706379
l 623 624
v 14.867451 20.340933 39.706379
v 14.797215 20.366617 39.757111
l 625 626
v 15.558442 20.243095 38.934448
v 15.234214 19.680859 40.368076
l 627 628
v 15.906057 20.43524 38.120888
v 15.601112 19.759556 39.728031
l 629 630
v 15.601112 19.759556 39.728031
v 15.575087 19.746199 39.787128
l 631 632
v 15.440618 19.704697 40.04401
v 15.794783 20.353642 38.416714
l 633 634
v 15.813519 19.935802 39.127251
v 15.781835 19.893551 39.244987
l 635 636
v 15.781835 19.893551 39.244987
v 15.722171 19.835451 39.428883
l 637 638
v 15.234214 19.680859 40.368076
v 15.178744 19.679653 40.446003
l 639 640
v 15.488247 19.715401 39.960064
v 15.440618 19.704697 40.04401
l 641 642
v 15.575087 19.746199 39.787128
v 15.488247 19.715401 39.960064
l 643 644
v 15.178744 19.679653 40.446003
v 15.119676 19.683216 40.520447
l 645 646
v 10.646229 23.959044 37.405811
v 10.718602 23.996025 37.266052
l 647 648
v 10.44951 23.78459 37.936993
v 10.504118 23.849388 37.756039
l 649 650
v 11.304266 24.118708 36.496395
v 11.349361 24.118622 36.456638
l 651 652
v 10.827415 24.041948 37.075726
v 10.932364 24.072695 36.919872
l 653 654
v 10.76427 24.016432 37.183853
v 10.827415 24.041948 37.075726
l 655 656
v 11.751958 24.06765 36.150375
v 11.915248 24.032732 36.054455
l 657 658
v 11.915248 24.032732 36.054455
v 12.05914 23.996025 35.981724
l 659 660
v 12.0841 23.989759 35.968906
v 12.102983 23.984289 35.960659
l 661 662
v 12.05914 23.996025 35.981724
v 12.0841 23.989759 35.968906
l 663 664
v 11.520546 24.10318 36.314034
v 11.595275 24.094172 36.25629
l 665 666
v 11.595275 24.094172 36.25629
v 11.751958 24.06765 36.150375
l 667 668
v 12.430967 23.88282 35.830242
v 12.609886 23.818119 35.777668
l 669 670
v 12.609886 23.818119 35.777668
v 12.791523 23.74626 35.736565
l 671 672
v 12.343222 23.911465 35.862156
v 12.430967 23.88282 35.830242
l 673 674
v 12.791523 23.74626 35.736565
v 12.975162 23.66753 35.707088
l 675 676
v 12.975162 23.66753 35.707088
v 13.004018 23.654221 35.704319
l 677 678
v 10.40617 23.713478 38.120888
v 10.44951 23.78459 37.936993
l 679 680
v 10.374268 23.636332 38.306999
v 10.40617 23.713478 38.120888
l 681 682
v 15.366495 21.675653 36.629635
v 15.469385 21.529081 36.770981
l 683 684
v 15.646092 21.230131 37.075726
v 15.719554 21.081087 37.237915
l 685 686
v 15.719554 21.081087 37.237915
v 15.739661 21.035387 37.290951
l 687 688
v 15.550787 21.403822 36.89996
v 15.559006 21.389912 36.913235
l 689 690
v 15.469385 21.529081 36.770981
v 15.550787 21.403822 36.89996
l 691 692
v 15.827201 20.804129 37.578747
v 15.845472 20.739641 37.667393
l 693 694
v 15.780581 20.938452 37.405811
v 15.827201 20.804129 37.578747
l 695 696
v 15.89528 20.513941 37.996964
v 15.906057 20.43524 38.120888
l 697 698
v 15.911663 20.325253 38.306999
v 15.906857 20.2225 38.494598
l 699 700
v 15.866127 20.040287 38.871277
v 15.830364 19.961546 39.058876
l 701 702
v 15.830364 19.961546 39.058876
v 15.813519 19.935802 39.127251
l 703 704
v 15.906857 20.2225 38.494598
v 15.891658 20.127386 38.682938
l 705 706
v 15.891658 20.127386 38.682938
v 15.866127 20.040287 38.871277
l 707 708
v 13.713389 23.233257 35.707088
v 13.876594 23.122984 35.733486
l 709 710
v 13.004018 23.654221 35.704319
v 13.159693 23.569952 35.689354
l 711 712
v 13.159693 23.569952 35.689354
v 13.344691 23.463629 35.683434
l 713 714
v 13.344691 23.463629 35.683434
v 13.5295 23.351248 35.689354
l 715 716
v 13.5295 23.351248 35.689354
v 13.713389 23.233257 35.707088
l 717 718
v 14.067869 22.986839 35.777668
v 14.124401 22.944277 35.795193
l 719 720
v 13.894937 23.110531 35.736565
v 14.067869 22.986839 35.777668
l 721 722
v 13.876594 23.122984 35.733486
v 13.894937 23.110531 35.736565
l 723 724
v 14.403061 22.727957 35.89407
v 14.416493 22.716759 35.900318
l 725 726
v 14.416493 22.716759 35.900318
v 14.562714 22.580193 35.968906
l 727 728
v 14.716979 22.428965 36.054455
v 14.865365 22.276108 36.150375
l 729 730
v 14.562714 22.580193 35.968906
v 14.716979 22.428965 36.054455
l 731 732
v 15.007286 22.122225 36.25629
v 15.028967 22.097424 36.274853
l 733 734
v 14.865365 22.276108 36.150375
v 15.007286 22.122225 36.25629
l 735 736
v 10.762596 23.832304 37.562119
v 10.89592 23.895826 37.314072
l 737 738
v 11.349361 24.118622 36.456638
v 10.72279 22.508242 40.290154
l 739 740
v 11.751958 24.06765 36.150375
v 11.251454 23.177418 38.425591
l 741 742
v 11.464571 23.084053 38.395348
v 11.751958 24.06765 36.150375
l 743 744
v 10.810472 22.385117 40.446003
v 11.520546 24.10318 36.314034
l 745 746
v 12.0841 23.989759 35.968906
v 11.593987 23.002882 38.425602
l 747 748
v 11.190414 21.947001 40.931789
v 12.0841 23.989759 35.968906
l 749 750
v 13.027196 20.527576 41.678581
v 14.403061 22.727957 35.89407
l 751 752
v 14.124401 22.944277 35.795193
v 13.027196 20.527576 41.678581
l 753 754
v 12.102983 23.984289 35.960659
v 12.049031 23.845802 36.290398
l 755 756
v 12.049031 23.845802 36.290398
v 11.467596 21.680731 41.180199
l 757 758
v 14.071711 21.390305 38.778557
v 13.9986 21.458588 38.744263
l 759 760
v 13.959464 20.943266 39.743622
v 14.071711 21.390305 38.778557
l 761 762
v 14.068933 20.887877 39.708572
v 13.959464 20.943266 39.743622
l 763 764
v 13.9986 21.458588 38.744263
v 13.415454 20.290432 41.629311
l 765 766
v 10.35393 23.553455 38.494598
v 10.374268 23.636332 38.306999
l 767 768
v 10.345237 23.465178 38.682938
v 10.35393 23.553455 38.494598
l 769 770
v 10.347228 23.402956 38.808498
v 10.345237 23.465178 38.682938
l 771 772
v 10.352279 23.344715 38.923206
v 10.349575 23.362803 38.888588
l 773 774
v 10.358627 23.275667 39.058876
v 10.352279 23.344715 38.923206
l 775 776
v 10.647083 22.626204 40.132435
v 10.645629 22.628292 40.129452
l 777 778
v 10.630265 22.653111 40.09227
v 10.57116 22.743294 39.960064
l 779 780
v 10.72279 22.508242 40.290154
v 10.647083 22.626204 40.132435
l 781 782
v 10.57116 22.743294 39.960064
v 10.506655 22.855721 39.787128
l 783 784
v 11.251996 21.88426 40.994095
v 11.190414 21.947001 40.931789
l 785 786
v 11.297442 21.840921 41.034191
v 11.251996 21.88426 40.994095
l 787 788
v 11.379197 21.761314 41.109589
v 11.297442 21.840921 41.034191
l 789 790
v 11.467596 21.680731 41.180199
v 11.379197 21.761314 41.109589
l 791 792
v -16.752394 -9.2097063 49.556095
v -16.141054 -10.243424 49.556095
l 793 794
v -17.297619 -8.1396418 49.556095
v -16.752394 -9.2097063 49.556095
l 795 796
v -16.141054 -10.243424 49.556095
v -15.466013 -11.236716 49.556095
l 797 798
v -15.466013 -11.236716 49.556095
v -14.729936 -12.185662 49.556095
l 799 800
v -17.774578 -7.0374532 49.556095
v -17.297619 -8.1396418 49.556095
l 801 802
v -18.181389 -5.9074912 49.556095
v -17.774578 -7.0374532 49.556095
l 803 804
v -17.116182 -5.5613847 52.052151
v -18.181389 -5.9074912 49.556095
l 805 806
v -11.236716 -15.466013 49.556095
v -10.243424 -16.141054 49.556095
l 807 808
v -8.1396418 -17.297619 49.556095
v -8.0104914 -17.353506 49.556095
l 809 810
v -9.2097063 -16.752394 49.556095
v -8.1396418 -17.297619 49.556095
l 811 812
v -5.7490029 -18.098396 49.832386
v -5.7723556 -18.22065 49.556095
l 813 814
v -3.5821767 -18.778429 49.556095
v -3.443186 -18.800442 49.556095
l 815 816
v -13.935725 -13.086517 49.556095
v -13.086517 -13.935725 49.556095
l 817 818
v -14.729936 -12.185662 49.556095
v -13.935725 -13.086517 49.556095
l 819 820
v -13.086517 -13.935725 49.556095
v -12.185662 -14.729936 49.556095
l 821 822
v -12.185662 -14.729936 49.556095
v -11.236716 -15.466013 49.556095
l 823 824
v -4.4756765 -17.431608 52.052151
v -5.7490029 -18.098396 49.832386
l 825 826
v -18.778429 3.5821767 49.556095
v -18.800442 3.443186 49.556095
l 827 828
v -18.181389 5.9074912 49.556095
v -17.116182 5.5613847 52.052151
l 829 830
v -17.774578 7.0374532 49.556095
v -18.181389 5.9074912 49.556095
l 831 832
v -17.564041 7.5239725 49.556095
v -17.774578 7.0374532 49.556095
l 833 834
v -16.752394 9.2097063 49.556095
v -16.81628 9.084321 49.556095
l 835 836
v -16.141054 10.243424 49.556095
v -16.752394 9.2097063 49.556095
l 837 838
v -15.466013 11.236716 49.556095
v -16.141054 10.243424 49.556095
l 839 840
v -14.729936 12.185662 49.556095
v -15.466013 11.236716 49.556095
l 841 842
v -13.935725 13.086517 49.556095
v -14.729936 12.185662 49.556095
l 843 844
v -13.086517 13.935725 49.556095
v -13.935725 13.086517 49.556095
l 845 846
v -12.185662 14.729936 49.556095
v -13.086517 13.935725 49.556095
l 847 848
v -11.236716 15.466013 49.556095
v -12.185662 14.729936 49.556095
l 849 850
v -17.997019 -2.09665e-14 52.052151
v -19.117044 0 49.556095
l 851 852
v -10.243424 16.141054 49.556095
v -11.236716 15.466013 49.556095
l 853 854
v -8.1396418 17.297619 49.556095
v -9.2097063 16.752394 49.556095
l 855 856
v -7.5239725 17.564041 49.556095
v -8.1396418 17.297619 49.556095
l 857 858
v -3.5821767 18.778429 49.556095
v -4.0995288 18.662786 49.556095
l 859 860
v -2.3960009 18.966301 49.556095
v -3.5821767 18.778429 49.556095
l 861 862
v 3.443186 -18.800442 49.556095
v 3.5821767 -18.778429 49.556095
l 863 864
v 3.5821767 -18.778429 49.556095
v 4.7542152 -18.516447 49.556095
l 865 866
v 4.7542152 -18.516447 49.556095
v 5.7723556 -18.22065 49.556095
l 867 868
v 6.9050493 -17.822247 49.556095
v 7.0374532 -17.774578 49.556095
l 869 870
v 5.7723556 -18.22065 49.556095
v 5.5613847 -17.116182 52.052151
l 871 872
v 11.120327 -15.545112 49.556095
v 11.236716 -15.466013 49.556095
l 873 874
v 12.71586 -14.262504 49.556095
v 13.086517 -13.935725 49.556095
l 875 876
v 13.086517 -13.935725 49.556095
v 13.935725 -13.086517 49.556095
l 877 878
v 13.935725 -13.086517 49.556095
v 14.028787 -12.980959 49.556095
l 879 880
v 6.6251445 -16.733204 52.052151
v 6.9050493 -17.822247 49.556095
l 881 882
v 10.578382 -14.559894 52.052151
v 11.120327 -15.545112 49.556095
l 883 884
v 12.650383 -13.574024 50.804123
v 12.71586 -14.262504 49.556095
l 885 886
v 14.559894 -10.578382 52.052151
v 14.711113 -12.007751 49.832386
l 887 888
v 15.770907 -8.6701298 52.052151
v 16.752394 -9.2097063 49.556095
l 889 890
v 16.81628 -9.084321 49.556095
v 16.700567 -9.0384731 49.832386
l 891 892
v 16.700567 -9.0384731 49.832386
v 16.284189 -7.6627579 52.052151
l 893 894
v 17.997019 2.09665e-14 52.052151
v 19.117044 0 49.556095
l 895 896
v 15.466013 -11.236716 49.556095
v 15.843082 -10.681875 49.556095
l 897 898
v 16.752394 -9.2097063 49.556095
v 16.81628 -9.084321 49.556095
l 899 900
v 18.516447 -4.7542152 49.556095
v 18.778429 -3.5821767 49.556095
l 901 902
v 18.778429 -3.5821767 49.556095
v 18.800442 -3.443186 49.556095
l 903 904
v 12.074469 14.816186 49.556095
v 11.236716 15.466013 49.556095
l 905 906
v 12.007751 14.711113 49.832386
v 12.074469 14.816186 49.556095
l 907 908
v 2.3941779 18.951868 49.588512
v 3.0000782 17.737196 52.052151
l 909 910
v 4.4756765 17.431608 52.052151
v 5.7490029 18.098396 49.832386
l 911 912
v 10.578382 14.559894 52.052151
v 12.007751 14.711113 49.832386
l 913 914
v 11.236716 15.466013 49.556095
v 10.578382 14.559894 52.052151
l 915 916
v 14.559894 10.578382 52.052151
v 15.545112 11.120327 49.556095
l 917 918
v 1.2003691 19.079321 49.556095
v 0 19.117044 49.556095
l 919 920
v 2.3960009 18.966301 49.556095
v 1.2003691 19.079321 49.556095
l 921 922
v 3.5821767 18.778429 49.556095
v 2.3960009 18.966301 49.556095
l 923 924
v 4.0995288 18.662786 49.556095
v 3.5821767 18.778429 49.556095
l 925 926
v 5.7490029 18.098396 49.832386
v 5.7723556 18.22065 49.556095
l 927 928
v 9.2097063 16.752394 49.556095
v 8.1396418 17.297619 49.556095
l 929 930
v 8.1396418 17.297619 49.556095
v 7.5239725 17.564041 49.556095
l 931 932
v 17.116182 5.5613847 52.052151
v 18.181389 5.9074912 49.556095
l 933 934
v 18.181389 5.9074912 49.556095
v 17.774578 7.0374532 49.556095
l 935 936
v 17.774578 7.0374532 49.556095
v 17.297619 8.1396418 49.556095
l 937 938
v 18.883371 2.9195933 49.556095
v 18.778429 3.5821767 49.556095
l 939 940
v 18.778429 3.5821767 49.556095
v 18.547144 4.6168809 49.556095
l 941 942
v 15.545112 11.120327 49.556095
v 15.466013 11.236716 49.556095
l 943 944
v -20.799849 -15.111975 1.7763568e-15
v -19.809916 -16.388187 1.7763568e-15
l 945 946
v -19.809916 -16.388187 1.7763568e-15
v -18.741802 -17.599724 1.7763568e-15
l 947 948
v -21.707693 -13.776121 1.7763568e-15
v -20.799849 -15.111975 1.7763568e-15
l 949 950
v -22.529867 -12.3859 1.7763568e-15
v -21.707693 -13.776121 1.7763568e-15
l 951 952
v -23.263126 -10.946796 1.7763568e-15
v -22.529867 -12.3859 1.7763568e-15
l 953 954
v -23.904577 -9.4644918 1.7763568e-15
v -23.263126 -10.946796 1.7763568e-15
l 955 956
v -24.451689 -7.9448352 1.7763568e-15
v -23.904577 -9.4644918 1.7763568e-15
l 957 958
v -24.902298 -6.3938236 1.7763568e-15
v -24.451689 -7.9448352 1.7763568e-15
l 959 960
v -25.254631 -4.8175783 1.7763568e-15
v -24.902298 -6.3938236 1.7763568e-15
l 961 962
v -25.507296 -3.2223208 1.7763568e-15
v -25.254631 -4.8175783 1.7763568e-15
l 963 964
v -25.659294 -1.6143459 1.7763568e-15
v -25.507296 -3.2223208 1.7763568e-15
l 965 966
v -25.710026 0 1.7763568e-15
v -25.659294 -1.6143459 1.7763568e-15
l 967 968
v -15.111975 -20.799849 1.7763568e-15
v -13.776121 -21.707693 1.7763568e-15
l 969 970
v -12.3859 -22.529867 1.7763568e-15
v -10.946796 -23.263126 1.7763568e-15
l 971 972
v -13.776121 -21.707693 1.7763568e-15
v -12.3859 -22.529867 1.7763568e-15
l 973 974
v -10.946796 -23.263126 1.7763568e-15
v -9.4644918 -23.904577 1.7763568e-15
l 975 976
v -9.4644918 -23.904577 1.7763568e-15
v -7.9448352 -24.451689 1.7763568e-15
l 977 978
v -7.9448352 -24.451689 1.7763568e-15
v -6.3938236 -24.902298 1.7763568e-15
l 979 980
v -6.3938236 -24.902298 1.7763568e-15
v -4.8175783 -25.254631 1.7763568e-15
l 981 982
v -4.8175783 -25.254631 1.7763568e-15
v -3.2223208 -25.507296 1.7763568e-15
l 983 984
v -3.2223208 -25.507296 1.7763568e-15
v -1.6143459 -25.659294 1.7763568e-15
l 985 986
v -1.6143459 -25.659294 1.7763568e-15
v 0 -25.710026 1.7763568e-15
l 987 988
v -18.741802 -17.599724 1.7763568e-15
v -17.599724 -18.741802 1.7763568e-15
l 989 990
v -17.599724 -18.741802 1.7763568e-15
v -16.388187 -19.809916 1.7763568e-15
l 991 992
v -16.388187 -19.809916 1.7763568e-15
v -15.111975 -20.799849 1.7763568e-15
l 993 994
v -25.254631 4.8175783 -3.4971812e-09
v -25.507296 3.2223208 -3.4971812e-09
l 995 996
v -25.279083 4.6631989 1.7763568e-15
v -25.507296 3.2223208 -3.4971812e-09
l 997 998
v -25.254631 4.8175783 -3.4971812e-09
v -25.279083 4.6631989 1.7763568e-15
l 999 1000
v -25.254631 4.8175783 1.7763568e-15
v -25.279083 4.6631989 1.7763568e-15
l 1001 1002
v -24.902298 6.3938236 -3.4971812e-09
v -25.254631 4.8175783 -3.4971812e-09
l 1003 1004
v -25.254631 4.8175783 -3.4971812e-09
v -25.034424 5.8027315 1.7763568e-15
l 1005 1006
v -25.034424 5.8027315 1.7763568e-15
v -25.254631 4.8175783 1.7763568e-15
l 1007 1008
v -24.902298 6.3938236 -3.4971812e-09
v -25.034424 5.8027315 1.7763568e-15
l 1009 1010
v -23.904577 9.4644918 1.7763568e-15
v -24.451689 7.9448352 1.7763568e-15
l 1011 1012
v -23.263126 10.946796 1.7763568e-15
v -23.904577 9.4644918 1.7763568e-15
l 1013 1014
v -22.529867 12.3859 1.7763568e-15
v -23.263126 10.946796 1.7763568e-15
l 1015 1016
v -21.707693 13.776121 1.7763568e-15
v -22.529867 12.3859 1.7763568e-15
l 1017 1018
v -20.799849 15.111975 1.7763568e-15
v -21.707693 13.776121 1.7763568e-15
l 1019 1020
v -19.809916 16.388187 1.7763568e-15
v -20.799849 15.111975 1.7763568e-15
l 1021 1022
v -18.741802 17.599724 1.7763568e-15
v -19.809916 16.388187 1.7763568e-15
l 1023 1024
v -17.599724 18.741802 1.7763568e-15
v -18.741802 17.599724 1.7763568e-15
l 1025 1026
v -16.388187 19.809916 1.7763568e-15
v -17.599724 18.741802 1.7763568e-15
l 1027 1028
v -15.111975 20.799849 1.7763568e-15
v -16.388187 19.809916 1.7763568e-15
l 1029 1030
v -13.776121 21.707693 1.7763568e-15
v -15.111975 20.799849 1.7763568e-15
l 1031 1032
v -12.3859 22.529867 1.7763568e-15
v -13.776121 21.707693 1.7763568e-15
l 1033 1034
v -10.946796 23.263126 1.7763568e-15
v -12.3859 22.529867 1.7763568e-15
l 1035 1036
v -9.4644918 23.904577 1.7763568e-15
v -10.946796 23.263126 1.7763568e-15
l 1037 1038
v -7.9448352 24.451689 1.7763568e-15
v -9.4644918 23.904577 1.7763568e-15
l 1039 1040
v -6.3938236 24.902298 1.7763568e-15
v -7.9448352 24.451689 1.7763568e-15
l 1041 1042
v -4.8175783 25.254631 1.7763568e-15
v -6.3938236 24.902298 1.7763568e-15
l 1043 1044
v -3.2223208 25.507296 1.7763568e-15
v -4.8175783 25.254631 1.7763568e-15
l 1045 1046
v -1.6143459 25.659294 1.7763568e-15
v -3.2223208 25.507296 1.7763568e-15
l 1047 1048
v 0 25.710026 1.7763568e-15
v -1.6143459 25.659294 1.7763568e-15
l 1049 1050
v 0 -25.710026 1.7763568e-15
v 1.6143459 -25.659294 1.7763568e-15
l 1051 1052
v 1.6143459 -25.659294 1.7763568e-15
v 3.2223208 -25.507296 1.7763568e-15
l 1053 1054
v 3.2223208 -25.507296 1.7763568e-15
v 4.8175783 -25.254631 1.7763568e-15
l 1055 1056
v 4.8175783 -25.254631 1.7763568e-15
v 6.3938236 -24.902298 1.7763568e-15
l 1057 1058
v 6.3938236 -24.902298 1.7763568e-15
v 7.9448352 -24.451689 1.7763568e-15
l 1059 1060
v 7.9448352 -24.451689 1.7763568e-15
v 9.4644918 -23.904577 1.7763568e-15
l 1061 1062
v 9.4644918 -23.904577 1.7763568e-15
v 10.946796 -23.263126 1.7763568e-15
l 1063 1064
v 10.946796 -23.263126 1.7763568e-15
v 12.3859 -22.529867 1.7763568e-15
l 1065 1066
v 12.3859 -22.529867 1.7763568e-15
v 13.776121 -21.707693 1.7763568e-15
l 1067 1068
v 13.776121 -21.707693 1.7763568e-15
v 15.111975 -20.799849 1.7763568e-15
l 1069 1070
v 15.111975 -20.799849 1.7763568e-15
v 16.388187 -19.809916 1.7763568e-15
l 1071 1072
v 16.388187 -19.809916 1.7763568e-15
v 17.599724 -18.741802 1.7763568e-15
l 1073 1074
v 17.599724 -18.741802 1.7763568e-15
v 18.741802 -17.599724 1.7763568e-15
l 1075 1076
v 18.741802 -17.599724 1.7763568e-15
v 19.809916 -16.388187 1.7763568e-15
l 1077 1078
v 19.809916 -16.388187 1.7763568e-15
v 20.799849 -15.111975 1.7763568e-15
l 1079 1080
v 20.799849 -15.111975 1.7763568e-15
v 21.707693 -13.776121 1.7763568e-15
l 1081 1082
v 21.707693 -13.776121 1.7763568e-15
v 22.529867 -12.3859 1.7763568e-15
l 1083 1084
v 22.529867 -12.3859 1.7763568e-15
v 23.263126 -10.946796 1.7763568e-15
l 1085 1086
v 23.263126 -10.946796 1.7763568e-15
v 23.904577 -9.4644918 1.7763568e-15
l 1087 1088
v 23.904577 -9.4644918 1.7763568e-15
v 24.451689 -7.9448352 1.7763568e-15
l 1089 1090
v 24.451689 -7.9448352 1.7763568e-15
v 24.902298 -6.3938236 1.7763568e-15
l 1091 1092
v 24.902298 -6.3938236 1.7763568e-15
v 25.254631 -4.8175783 1.7763568e-15
l 1093 1094
v 25.254631 -4.8175783 1.7763568e-15
v 25.507296 -3.2223208 1.7763568e-15
l 1095 1096
v 25.507296 -3.2223208 1.7763568e-15
v 25.659294 -1.6143459 1.7763568e-15
l 1097 1098
v 25.659294 -1.6143459 1.7763568e-15
v 25.710026 0 1.7763568e-15
l 1099 1100
v 16.993956 19.27586 1.7763568e-15
v 16.388187 19.809916 -3.4971812e-09
l 1101 1102
v 16.388187 19.809916 -3.4971812e-09
v 17.599724 18.741802 -3.4971812e-09
l 1103 1104
v 17.599724 18.741802 -3.4971812e-09
v 16.993956 19.27586 1.7763568e-15
l 1105 1106
v 17.599724 18.741802 1.7763568e-15
v 16.993956 19.27586 1.7763568e-15
l 1107 1108
v 18.741802 17.599724 1.7763568e-15
v 17.599724 18.741802 1.7763568e-15
l 1109 1110
v 1.6143459 25.659294 1.7763568e-15
v 0 25.710026 1.7763568e-15
l 1111 1112
v 3.2223208 25.507296 1.7763568e-15
v 1.6143459 25.659294 1.7763568e-15
l 1113 1114
v 4.8175783 25.254631 1.7763568e-15
v 3.2223208 25.507296 1.7763568e-15
l 1115 1116
v 6.3938236 24.902298 1.7763568e-15
v 4.8175783 25.254631 1.7763568e-15
l 1117 1118
v 7.9448352 24.451689 1.7763568e-15
v 6.3938236 24.902298 1.7763568e-15
l 1119 1120
v 9.4644918 23.904577 1.7763568e-15
v 7.9448352 24.451689 1.7763568e-15
l 1121 1122
v 10.946796 23.263126 1.7763568e-15
v 9.4644918 23.904577 1.7763568e-15
l 1123 1124
v 13.776121 21.707693 1.7763568e-15
v 12.3859 22.529867 1.7763568e-15
l 1125 1126
v 12.3859 22.529867 1.7763568e-15
v 10.946796 23.263126 1.7763568e-15
l 1127 1128
v 15.111975 20.799849 1.7763568e-15
v 13.776121 21.707693 1.7763568e-15
l 1129 1130
v 25.557205 2.694329 1.7763568e-15
v 25.507296 3.2223208 1.7763568e-15
l 1131 1132
v 25.507296 3.2223208 1.7763568e-15
v 25.386456 3.98527 1.7763568e-15
l 1133 1134
v 24.451689 7.9448352 1.7763568e-15
v 23.904577 9.4644918 1.7763568e-15
l 1135 1136
v 23.904577 9.4644918 -3.4971812e-09
v 23.744215 9.8350677 1.7763568e-15
l 1137 1138
v 23.744215 9.8350677 1.7763568e-15
v 23.263126 10.946796 -3.4971812e-09
l 1139 1140
v 23.263126 10.946796 -3.4971812e-09
v 23.904577 9.4644918 -3.4971812e-09
l 1141 1142
v 23.904577 9.4644918 1.7763568e-15
v 23.744215 9.8350677 1.7763568e-15
l 1143 1144
v 23.744215 9.8350677 1.7763568e-15
v 23.263126 10.946796 1.7763568e-15
l 1145 1146
v 23.263126 10.946796 1.7763568e-15
v 22.529867 12.3859 1.7763568e-15
l 1147 1148
v 22.529867 12.3859 1.7763568e-15
v 21.707693 13.776121 1.7763568e-15
l 1149 1150
v 21.707693 13.776121 1.7763568e-15
v 20.799849 15.111975 1.7763568e-15
l 1151 1152
v 19.27586 16.993956 1.7763568e-15
v 18.741802 17.599724 -3.4971812e-09
l 1153 1154
v 18.741802 17.599724 -3.4971812e-09
v 19.809916 16.388187 -3.4971812e-09
l 1155 1156
v 19.809916 16.388187 -3.4971812e-09
v 19.27586 16.993956 1.7763568e-15
l 1157 1158
v 19.27586 16.993956 1.7763568e-15
v 18.741802 17.599724 1.7763568e-15
l 1159 1160
