v -18.741802 -17.599724 1.6605
v -17.599724 -18.741802 1.6605
l 1 2
v -19.809916 -16.388187 1.6605
v -18.741802 -17.599724 1.6605
l 3 4
v -18.741802 -17.599724 1.6605
v -18.741802 -17.599724 1.6605
l 5 6
v -18.741802 -17.599724 1.6605
v -18.741802 -17.599724 1.6605
l 7 8
v -18.741802 -17.599724 1.6605
v -17.599724 -18.741802 1.6605
l 9 10
v -17.599724 -18.741802 1.6605
v -16.388187 -19.809916 1.6605
l 11 12
v -17.599724 -18.741802 1.6605
v -17.599724 -18.741802 1.6605
l 13 14
v -17.599724 -18.741802 1.6605
v -17.599724 -18.741802 1.6605
l 15 16
v -26.238523 -24.639614 11.94451
v -27.733883 -22.943462 11.94451
l 17 18
v -24.639614 -26.238523 11.94451
v -26.238523 -24.639614 11.94451
l 19 20
v -26.238523 -24.639614 11.94451
v -26.238523 -24.639614 11.94451
l 21 22
v -26.238523 -24.639614 11.94451
v -26.238523 -24.639614 11.94451
l 23 24
v -26.238523 -24.639614 11.94451
v -27.733883 -22.943462 11.94451
l 25 26
v -27.733883 -22.943462 11.94451
v -29.119787 -21.156763 11.94451
l 27 28
v -27.733883 -22.943462 11.94451
v -27.733883 -22.943462 11.94451
l 29 30
v -27.733883 -22.943462 11.94451
v -27.733883 -22.943462 11.94451
l 31 32
v -29.119787 -21.156763 11.94451
v -30.39077 -19.28657 11.94451
l 33 34
v -27.733883 -22.943462 11.94451
v -29.119787 -21.156763 11.94451
l 35 36
v -29.119787 -21.156763 11.94451
v -29.119787 -21.156763 11.94451
l 37 38
v -29.119787 -21.156763 11.94451
v -29.119787 -21.156763 11.94451
l 39 40
v -29.119787 -21.156763 11.94451
v -30.39077 -19.28657 11.94451
l 41 42
v -30.39077 -19.28657 11.94451
v -31.541815 -17.34026 11.94451
l 43 44
v -30.39077 -19.28657 11.94451
v -30.39077 -19.28657 11.94451
l 45 46
v -30.39077 -19.28657 11.94451
v -30.39077 -19.28657 11.94451
l 47 48
v -21.156763 -29.119787 11.94451
v -22.943462 -27.733883 11.94451
l 49 50
v -22.943462 -27.733883 11.94451
v -24.639614 -26.238523 11.94451
l 51 52
v -22.943462 -27.733883 11.94451
v -22.943462 -27.733883 11.94451
l 53 54
v -22.943462 -27.733883 11.94451
v -22.943462 -27.733883 11.94451
l 55 56
v -19.28657 -30.39077 11.94451
v -21.156763 -29.119787 11.94451
l 57 58
v -17.34026 -31.541815 11.94451
v -19.28657 -30.39077 11.94451
l 59 60
v -19.28657 -30.39077 11.94451
v -19.28657 -30.39077 11.94451
l 61 62
v -19.28657 -30.39077 11.94451
v -19.28657 -30.39077 11.94451
l 63 64
v -19.28657 -30.39077 11.94451
v -21.156763 -29.119787 11.94451
l 65 66
v -21.156763 -29.119787 11.94451
v -22.943462 -27.733883 11.94451
l 67 68
v -21.156763 -29.119787 11.94451
v -21.156763 -29.119787 11.94451
l 69 70
v -21.156763 -29.119787 11.94451
v -21.156763 -29.119787 11.94451
l 71 72
v -17.34026 -31.541815 11.94451
v -19.28657 -30.39077 11.94451
l 73 74
v -15.325516 -32.568378 11.94451
v -17.34026 -31.541815 11.94451
l 75 76
v -17.34026 -31.541815 11.94451
v -17.34026 -31.541815 11.94451
l 77 78
v -17.34026 -31.541815 11.94451
v -17.34026 -31.541815 11.94451
l 79 80
v -24.639614 -26.238523 11.94451
v -26.238523 -24.639614 11.94451
l 81 82
v -22.943462 -27.733883 11.94451
v -24.639614 -26.238523 11.94451
l 83 84
v -24.639614 -26.238523 11.94451
v -24.639614 -26.238523 11.94451
l 85 86
v -24.639614 -26.238523 11.94451
v -24.639614 -26.238523 11.94451
l 87 88
v -23.263126 -10.946796 1.6605
v -22.529867 -12.3859 1.6605
l 89 90
v -22.529867 -12.3859 1.6605
v -21.707693 -13.776121 1.6605
l 91 92
v -22.529867 -12.3859 1.6605
v -22.529867 -12.3859 1.6605
l 93 94
v -22.529867 -12.3859 1.6605
v -22.529867 -12.3859 1.6605
l 95 96
v -23.263126 -10.946796 1.6605
v -22.529867 -12.3859 1.6605
l 97 98
v -23.904577 -9.4644918 1.6605
v -23.263126 -10.946796 1.6605
l 99 100
v -23.263126 -10.946796 1.6605
v -23.263126 -10.946796 1.6605
l 101 102
v -23.263126 -10.946796 1.6605
v -23.263126 -10.946796 1.6605
l 103 104
v -23.904577 -9.4644918 1.6605
v -23.263126 -10.946796 1.6605
l 105 106
v -24.451689 -7.9448352 1.6605
v -23.904577 -9.4644918 1.6605
l 107 108
v -23.904577 -9.4644918 1.6605
v -23.904577 -9.4644918 1.6605
l 109 110
v -23.904577 -9.4644918 1.6605
v -23.904577 -9.4644918 1.6605
l 111 112
v -24.451689 -7.9448352 1.6605
v -23.904577 -9.4644918 1.6605
l 113 114
v -24.902298 -6.3938236 1.6605
v -24.451689 -7.9448352 1.6605
l 115 116
v -24.451689 -7.9448352 1.6605
v -24.451689 -7.9448352 1.6605
l 117 118
v -24.451689 -7.9448352 1.6605
v -24.451689 -7.9448352 1.6605
l 119 120
v -20.799849 -15.111975 1.6605
v -19.809916 -16.388187 1.6605
l 121 122
v -21.707693 -13.776121 1.6605
v -20.799849 -15.111975 1.6605
l 123 124
v -20.799849 -15.111975 1.6605
v -20.799849 -15.111975 1.6605
l 125 126
v -20.799849 -15.111975 1.6605
v -20.799849 -15.111975 1.6605
l 127 128
v -20.799849 -15.111975 1.6605
v -19.809916 -16.388187 1.6605
l 129 130
v -19.809916 -16.388187 1.6605
v -18.741802 -17.599724 1.6605
l 131 132
v -19.809916 -16.388187 1.6605
v -19.809916 -16.388187 1.6605
l 133 134
v -19.809916 -16.388187 1.6605
v -19.809916 -16.388187 1.6605
l 135 136
v -21.707693 -13.776121 1.6605
v -20.799849 -15.111975 1.6605
l 137 138
v -22.529867 -12.3859 1.6605
v -21.707693 -13.776121 1.6605
l 139 140
v -21.707693 -13.776121 1.6605
v -21.707693 -13.776121 1.6605
l 141 142
v -21.707693 -13.776121 1.6605
v -21.707693 -13.776121 1.6605
l 143 144
v -24.902298 -6.3938236 1.6605
v -24.451689 -7.9448352 1.6605
l 145 146
v -25.254631 -4.8175783 1.6605
v -24.902298 -6.3938236 1.6605
l 147 148
v -24.902298 -6.3938236 1.6605
v -24.902298 -6.3938236 1.6605
l 149 150
v -24.902298 -6.3938236 1.6605
v -24.902298 -6.3938236 1.6605
l 151 152
v -25.254631 -4.8175783 1.6605
v -24.902298 -6.3938236 1.6605
l 153 154
v -25.507296 -3.2223208 1.6605
v -25.254631 -4.8175783 1.6605
l 155 156
v -25.254631 -4.8175783 1.6605
v -25.254631 -4.8175783 1.6605
l 157 158
v -25.254631 -4.8175783 1.6605
v -25.254631 -4.8175783 1.6605
l 159 160
v -25.507296 -3.2223208 1.6605
v -25.254631 -4.8175783 1.6605
l 161 162
v -25.659294 -1.6143459 1.6605
v -25.507296 -3.2223208 1.6605
l 163 164
v -25.507296 -3.2223208 1.6605
v -25.507296 -3.2223208 1.6605
l 165 166
v -25.507296 -3.2223208 1.6605
v -25.507296 -3.2223208 1.6605
l 167 168
v -25.659294 -1.6143459 1.6605
v -25.507296 -3.2223208 1.6605
l 169 170
v -25.710026 0 1.6605
v -25.659294 -1.6143459 1.6605
l 171 172
v -25.659294 -1.6143459 1.6605
v -25.659294 -1.6143459 1.6605
l 173 174
v -25.659294 -1.6143459 1.6605
v -25.659294 -1.6143459 1.6605
l 175 176
v -25.710026 0 1.6605
v -25.659294 -1.6143459 1.6605
l 177 178
v -25.659294 1.6143459 1.6605
v -25.710026 0 1.6605
l 179 180
v -25.659294 1.6143459 11.94451
v -25.710026 0 1.6605
l 181 182
v -25.710026 0 1.6605
v -25.710026 0 1.6605
l 183 184
v -25.710026 0 1.6605
v -25.710026 0 1.6605
l 185 186
v -31.541815 -17.34026 11.94451
v -32.568378 -15.325516 11.94451
l 187 188
v -30.39077 -19.28657 11.94451
v -31.541815 -17.34026 11.94451
l 189 190
v -31.541815 -17.34026 11.94451
v -31.541815 -17.34026 11.94451
l 191 192
v -31.541815 -17.34026 11.94451
v -31.541815 -17.34026 11.94451
l 193 194
v -31.541815 -17.34026 11.94451
v -32.568378 -15.325516 11.94451
l 195 196
v -32.568378 -15.325516 11.94451
v -33.466408 -13.250289 11.94451
l 197 198
v -32.568378 -15.325516 11.94451
v -32.568378 -15.325516 11.94451
l 199 200
v -32.568378 -15.325516 11.94451
v -32.568378 -15.325516 11.94451
l 201 202
v -32.568378 -15.325516 11.94451
v -33.466408 -13.250289 11.94451
l 203 204
v -33.466408 -13.250289 11.94451
v -34.232365 -11.122769 11.94451
l 205 206
v -33.466408 -13.250289 11.94451
v -33.466408 -13.250289 11.94451
l 207 208
v -33.466408 -13.250289 11.94451
v -33.466408 -13.250289 11.94451
l 209 210
v -33.466408 -13.250289 11.94451
v -34.232365 -11.122769 11.94451
l 211 212
v -34.232365 -11.122769 11.94451
v -34.863216 -8.9513531 11.94451
l 213 214
v -34.232365 -11.122769 11.94451
v -34.232365 -11.122769 11.94451
l 215 216
v -34.232365 -11.122769 11.94451
v -34.232365 -11.122769 11.94451
l 217 218
v -34.232365 -11.122769 11.94451
v -34.863216 -8.9513531 11.94451
l 219 220
v -34.863216 -8.9513531 11.94451
v -35.356483 -6.7446098 11.94451
l 221 222
v -34.863216 -8.9513531 11.94451
v -34.863216 -8.9513531 11.94451
l 223 224
v -34.863216 -8.9513531 11.94451
v -34.863216 -8.9513531 11.94451
l 225 226
v -34.863216 -8.9513531 11.94451
v -35.356483 -6.7446098 11.94451
l 227 228
v -35.356483 -6.7446098 11.94451
v -35.710213 -4.5112491 11.94451
l 229 230
v -35.356483 -6.7446098 11.94451
v -35.356483 -6.7446098 11.94451
l 231 232
v -35.356483 -6.7446098 11.94451
v -35.356483 -6.7446098 11.94451
l 233 234
v -35.356483 -6.7446098 11.94451
v -35.710213 -4.5112491 11.94451
l 235 236
v -35.710213 -4.5112491 11.94451
v -35.923012 -2.2600842 11.94451
l 237 238
v -35.710213 -4.5112491 11.94451
v -35.710213 -4.5112491 11.94451
l 239 240
v -35.710213 -4.5112491 11.94451
v -35.710213 -4.5112491 11.94451
l 241 242
v -35.710213 -4.5112491 11.94451
v -35.923012 -2.2600842 11.94451
l 243 244
v -35.923012 -2.2600842 11.94451
v -35.994038 0 11.94451
l 245 246
v -35.923012 -2.2600842 11.94451
v -35.923012 -2.2600842 11.94451
l 247 248
v -35.923012 -2.2600842 11.94451
v -35.923012 -2.2600842 11.94451
l 249 250
v -35.923012 -2.2600842 11.94451
v -35.994038 0 11.94451
l 251 252
v -35.994038 0 11.94451
v -35.923012 2.2600842 11.94451
l 253 254
v -35.994038 0 11.94451
v -35.994038 0 11.94451
l 255 256
v -35.994038 0 11.94451
v -35.994038 0 11.94451
l 257 258
v -17.599724 -18.741802 1.6605
v -16.388187 -19.809916 1.6605
l 259 260
v -16.388187 -19.809916 1.6605
v -15.111975 -20.799849 1.6605
l 261 262
v -16.388187 -19.809916 1.6605
v -16.388187 -19.809916 1.6605
l 263 264
v -16.388187 -19.809916 1.6605
v -16.388187 -19.809916 1.6605
l 265 266
v -16.388187 -19.809916 1.6605
v -15.111975 -20.799849 1.6605
l 267 268
v -15.111975 -20.799849 1.6605
v -13.776121 -21.707693 1.6605
l 269 270
v -15.111975 -20.799849 1.6605
v -15.111975 -20.799849 1.6605
l 271 272
v -15.111975 -20.799849 1.6605
v -15.111975 -20.799849 1.6605
l 273 274
v -15.111975 -20.799849 1.6605
v -13.776121 -21.707693 1.6605
l 275 276
v -13.776121 -21.707693 1.6605
v -12.3859 -22.529867 1.6605
l 277 278
v -13.776121 -21.707693 1.6605
v -13.776121 -21.707693 1.6605
l 279 280
v -13.776121 -21.707693 1.6605
v -13.776121 -21.707693 1.6605
l 281 282
v -12.3859 -22.529867 1.6605
v -10.946796 -23.263126 1.6605
l 283 284
v -13.776121 -21.707693 1.6605
v -12.3859 -22.529867 1.6605
l 285 286
v -12.3859 -22.529867 1.6605
v -12.3859 -22.529867 1.6605
l 287 288
v -12.3859 -22.529867 1.6605
v -12.3859 -22.529867 1.6605
l 289 290
v -12.3859 -22.529867 1.6605
v -10.946796 -23.263126 1.6605
l 291 292
v -10.946796 -23.263126 1.6605
v -9.4644918 -23.904577 1.6605
l 293 294
v -10.946796 -23.263126 1.6605
v -10.946796 -23.263126 1.6605
l 295 296
v -10.946796 -23.263126 1.6605
v -10.946796 -23.263126 1.6605
l 297 298
v -10.946796 -23.263126 1.6605
v -9.4644918 -23.904577 1.6605
l 299 300
v -9.4644918 -23.904577 1.6605
v -7.9448352 -24.451689 1.6605
l 301 302
v -9.4644918 -23.904577 1.6605
v -9.4644918 -23.904577 1.6605
l 303 304
v -9.4644918 -23.904577 1.6605
v -9.4644918 -23.904577 1.6605
l 305 306
v -7.9448352 -24.451689 1.6605
v -6.3938236 -24.902298 1.6605
l 307 308
v -9.4644918 -23.904577 1.6605
v -7.9448352 -24.451689 1.6605
l 309 310
v -7.9448352 -24.451689 1.6605
v -7.9448352 -24.451689 1.6605
l 311 312
v -7.9448352 -24.451689 1.6605
v -7.9448352 -24.451689 1.6605
l 313 314
v -7.9448352 -24.451689 1.6605
v -6.3938236 -24.902298 1.6605
l 315 316
v -6.3938236 -24.902298 1.6605
v -4.8175783 -25.254631 1.6605
l 317 318
v -6.3938236 -24.902298 1.6605
v -6.3938236 -24.902298 1.6605
l 319 320
v -6.3938236 -24.902298 1.6605
v -6.3938236 -24.902298 1.6605
l 321 322
v -6.3938236 -24.902298 1.6605
v -4.8175783 -25.254631 1.6605
l 323 324
v -4.8175783 -25.254631 1.6605
v -3.2223208 -25.507296 1.6605
l 325 326
v -4.8175783 -25.254631 1.6605
v -4.8175783 -25.254631 1.6605
l 327 328
v -4.8175783 -25.254631 1.6605
v -4.8175783 -25.254631 1.6605
l 329 330
v -4.8175783 -25.254631 1.6605
v -3.2223208 -25.507296 1.6605
l 331 332
v -3.2223208 -25.507296 1.6605
v -1.6143459 -25.659294 1.6605
l 333 334
v -3.2223208 -25.507296 1.6605
v -3.2223208 -25.507296 1.6605
l 335 336
v -3.2223208 -25.507296 1.6605
v -3.2223208 -25.507296 1.6605
l 337 338
v -3.2223208 -25.507296 1.6605
v -1.6143459 -25.659294 1.6605
l 339 340
v -1.6143459 -25.659294 1.6605
v 0 -25.710026 1.6605
l 341 342
v -1.6143459 -25.659294 1.6605
v -1.6143459 -25.659294 1.6605
l 343 344
v -1.6143459 -25.659294 1.6605
v -1.6143459 -25.659294 1.6605
l 345 346
v -1.6143459 -25.659294 1.6605
v 0 -25.710026 1.6605
l 347 348
v 0 -25.710026 1.6605
v 1.6143459 -25.659294 1.6605
l 349 350
v 0 -25.710026 1.6605
v 0 -25.710026 1.6605
l 351 352
v 0 -25.710026 1.6605
v 0 -25.710026 1.6605
l 353 354
v -15.325516 -32.568378 11.94451
v -17.34026 -31.541815 11.94451
l 355 356
v -13.250289 -33.466408 11.94451
v -15.325516 -32.568378 11.94451
l 357 358
v -15.325516 -32.568378 11.94451
v -15.325516 -32.568378 11.94451
l 359 360
v -15.325516 -32.568378 11.94451
v -15.325516 -32.568378 11.94451
l 361 362
v -13.250289 -33.466408 11.94451
v -15.325516 -32.568378 11.94451
l 363 364
v -11.122769 -34.232365 11.94451
v -13.250289 -33.466408 11.94451
l 365 366
v -13.250289 -33.466408 11.94451
v -13.250289 -33.466408 11.94451
l 367 368
v -13.250289 -33.466408 11.94451
v -13.250289 -33.466408 11.94451
l 369 370
v -11.122769 -34.232365 11.94451
v -13.250289 -33.466408 11.94451
l 371 372
v -8.9513531 -34.863216 11.94451
v -11.122769 -34.232365 11.94451
l 373 374
v -11.122769 -34.232365 11.94451
v -11.122769 -34.232365 11.94451
l 375 376
v -11.122769 -34.232365 11.94451
v -11.122769 -34.232365 11.94451
l 377 378
v -8.9513531 -34.863216 11.94451
v -11.122769 -34.232365 11.94451
l 379 380
v -6.7446098 -35.356483 11.94451
v -8.9513531 -34.863216 11.94451
l 381 382
v -8.9513531 -34.863216 11.94451
v -8.9513531 -34.863216 11.94451
l 383 384
v -8.9513531 -34.863216 11.94451
v -8.9513531 -34.863216 11.94451
l 385 386
v -6.7446098 -35.356483 11.94451
v -8.9513531 -34.863216 11.94451
l 387 388
v -4.5112491 -35.710213 11.94451
v -6.7446098 -35.356483 11.94451
l 389 390
v -6.7446098 -35.356483 11.94451
v -6.7446098 -35.356483 11.94451
l 391 392
v -6.7446098 -35.356483 11.94451
v -6.7446098 -35.356483 11.94451
l 393 394
v -4.5112491 -35.710213 11.94451
v -6.7446098 -35.356483 11.94451
l 395 396
v -2.2600842 -35.923012 11.94451
v -4.5112491 -35.710213 11.94451
l 397 398
v -4.5112491 -35.710213 11.94451
v -4.5112491 -35.710213 11.94451
l 399 400
v -4.5112491 -35.710213 11.94451
v -4.5112491 -35.710213 11.94451
l 401 402
v -2.2600842 -35.923012 11.94451
v -4.5112491 -35.710213 11.94451
l 403 404
v 0 -35.994038 11.94451
v -2.2600842 -35.923012 11.94451
l 405 406
v -2.2600842 -35.923012 11.94451
v -2.2600842 -35.923012 11.94451
l 407 408
v -2.2600842 -35.923012 11.94451
v -2.2600842 -35.923012 11.94451
l 409 410
v 0 -35.994038 11.94451
v -2.2600842 -35.923012 11.94451
l 411 412
v 2.2600842 -35.923012 11.94451
v 0 -35.994038 11.94451
l 413 414
v 0 -35.994038 11.94451
v 0 -35.994038 11.94451
l 415 416
v 0 -35.994038 11.94451
v 0 -35.994038 11.94451
l 417 418
v -25.659294 1.6143459 1.6605
v -25.710026 0 1.6605
l 419 420
v -25.507296 3.2223208 1.6605
v -25.659294 1.6143459 1.6605
l 421 422
v -25.659294 1.6143459 1.6605
v -25.659294 1.6143459 11.94451
l 423 424
v -25.507296 3.2223208 11.94451
v -25.659294 1.6143459 1.6605
l 425 426
v -25.507296 3.2223208 1.6605
v -25.659294 1.6143459 1.6605
l 427 428
v -25.279083 4.6631989 1.6605
v -25.507296 3.2223208 1.6605
l 429 430
v -25.507296 3.2223208 1.6605
v -25.507296 3.2223208 11.94451
l 431 432
v -25.279083 4.6631989 11.94451
v -25.507296 3.2223208 1.6605
l 433 434
v -25.279083 4.6631989 1.6605
v -25.279083 4.6631989 11.94451
l 435 436
v -25.279083 4.6631989 1.6605
v -25.507296 3.2223208 1.6605
l 437 438
v -25.254631 4.8175783 1.6605
v -25.279083 4.6631989 1.6605
l 439 440
v -25.254631 4.8175783 1.6605
v -25.279083 4.6631989 1.6605
l 441 442
v -25.034424 5.8027315 1.6605
v -25.254631 4.8175783 1.6605
l 443 444
v -25.254631 4.8175783 1.6605
v -25.254631 4.8175783 1.6605
l 445 446
v -25.254631 4.8175783 1.6605
v -25.254631 4.8175783 1.6605
l 447 448
v -25.507296 3.2223208 11.94451
v -25.659294 1.6143459 11.94451
l 449 450
v -25.659294 1.6143459 1.6605
v -25.659294 1.6143459 11.94451
l 451 452
v -25.659294 1.6143459 11.94451
v -25.710026 0 1.6605
l 453 454
v -25.279083 4.6631989 11.94451
v -25.507296 3.2223208 11.94451
l 455 456
v -25.507296 3.2223208 11.94451
v -25.659294 1.6143459 11.94451
l 457 458
v -25.507296 3.2223208 11.94451
v -25.659294 1.6143459 1.6605
l 459 460
v -25.507296 3.2223208 1.6605
v -25.507296 3.2223208 11.94451
l 461 462
v -25.279083 4.6631989 1.6605
v -25.279083 4.6631989 11.94451
l 463 464
v -25.279083 4.6631989 11.94451
v -25.507296 3.2223208 11.94451
l 465 466
v -25.279083 4.6631989 11.94451
v -25.507296 3.2223208 1.6605
l 467 468
v -24.902298 6.3938236 11.94451
v -25.034424 5.8027315 1.6605
l 469 470
v -25.034424 5.8027315 1.6605
v -25.254631 4.8175783 1.6605
l 471 472
v -24.902298 6.3938236 1.6605
v -25.034424 5.8027315 1.6605
l 473 474
v -24.902298 6.3938236 1.6605
v -25.034424 5.8027315 1.6605
l 475 476
v -24.451689 7.9448352 1.6605
v -24.902298 6.3938236 1.6605
l 477 478
v -24.902298 6.3938236 1.6605
v -24.902298 6.3938236 11.94451
l 479 480
v -24.451689 7.9448352 11.94451
v -24.902298 6.3938236 1.6605
l 481 482
v -24.451689 7.9448352 1.6605
v -24.451689 7.9448352 11.94451
l 483 484
v -24.451689 7.9448352 1.6605
v -24.902298 6.3938236 1.6605
l 485 486
v -23.904577 9.4644918 1.6605
v -24.451689 7.9448352 1.6605
l 487 488
v -24.451689 7.9448352 1.6605
v -24.451689 7.9448352 1.6605
l 489 490
v -24.451689 7.9448352 1.6605
v -24.451689 7.9448352 1.6605
l 491 492
v -23.904577 9.4644918 1.6605
v -24.451689 7.9448352 1.6605
l 493 494
v -23.263126 10.946796 1.6605
v -23.904577 9.4644918 1.6605
l 495 496
v -23.904577 9.4644918 1.6605
v -23.904577 9.4644918 1.6605
l 497 498
v -23.904577 9.4644918 1.6605
v -23.904577 9.4644918 1.6605
l 499 500
v -24.902298 6.3938236 11.94451
v -25.034424 5.8027315 1.6605
l 501 502
v -24.451689 7.9448352 11.94451
v -24.902298 6.3938236 11.94451
l 503 504
v -24.902298 6.3938236 1.6605
v -24.902298 6.3938236 11.94451
l 505 506
v -24.451689 7.9448352 1.6605
v -24.451689 7.9448352 11.94451
l 507 508
v -24.451689 7.9448352 11.94451
v -24.902298 6.3938236 11.94451
l 509 510
v -24.451689 7.9448352 11.94451
v -24.902298 6.3938236 1.6605
l 511 512
v -23.263126 10.946796 1.6605
v -23.904577 9.4644918 1.6605
l 513 514
v -22.529867 12.3859 1.6605
v -23.263126 10.946796 1.6605
l 515 516
v -23.263126 10.946796 1.6605
v -23.263126 10.946796 1.6605
l 517 518
v -23.263126 10.946796 1.6605
v -23.263126 10.946796 1.6605
l 519 520
v -22.529867 12.3859 1.6605
v -23.263126 10.946796 1.6605
l 521 522
v -21.707693 13.776121 1.6605
v -22.529867 12.3859 1.6605
l 523 524
v -22.529867 12.3859 1.6605
v -22.529867 12.3859 1.6605
l 525 526
v -22.529867 12.3859 1.6605
v -22.529867 12.3859 1.6605
l 527 528
v -21.707693 13.776121 1.6605
v -22.529867 12.3859 1.6605
l 529 530
v -20.799849 15.111975 1.6605
v -21.707693 13.776121 1.6605
l 531 532
v -21.707693 13.776121 1.6605
v -21.707693 13.776121 1.6605
l 533 534
v -21.707693 13.776121 1.6605
v -21.707693 13.776121 1.6605
l 535 536
v -20.799849 15.111975 1.6605
v -21.707693 13.776121 1.6605
l 537 538
v -19.809916 16.388187 1.6605
v -20.799849 15.111975 1.6605
l 539 540
v -20.799849 15.111975 1.6605
v -20.799849 15.111975 1.6605
l 541 542
v -20.799849 15.111975 1.6605
v -20.799849 15.111975 1.6605
l 543 544
v -19.809916 16.388187 1.6605
v -20.799849 15.111975 1.6605
l 545 546
v -18.741802 17.599724 1.6605
v -19.809916 16.388187 1.6605
l 547 548
v -19.809916 16.388187 1.6605
v -19.809916 16.388187 1.6605
l 549 550
v -19.809916 16.388187 1.6605
v -19.809916 16.388187 1.6605
l 551 552
v -18.741802 17.599724 1.6605
v -19.809916 16.388187 1.6605
l 553 554
v -17.599724 18.741802 1.6605
v -18.741802 17.599724 1.6605
l 555 556
v -18.741802 17.599724 1.6605
v -18.741802 17.599724 1.6605
l 557 558
v -18.741802 17.599724 1.6605
v -18.741802 17.599724 1.6605
l 559 560
v -35.994038 0 11.94451
v -35.923012 2.2600842 11.94451
l 561 562
v -35.923012 2.2600842 11.94451
v -35.710213 4.5112491 11.94451
l 563 564
v -35.923012 2.2600842 11.94451
v -35.923012 2.2600842 11.94451
l 565 566
v -35.923012 2.2600842 11.94451
v -35.923012 2.2600842 11.94451
l 567 568
v -35.923012 2.2600842 11.94451
v -35.710213 4.5112491 11.94451
l 569 570
v -35.710213 4.5112491 11.94451
v -35.356483 6.7446098 11.94451
l 571 572
v -35.710213 4.5112491 11.94451
v -35.710213 4.5112491 11.94451
l 573 574
v -35.710213 4.5112491 11.94451
v -35.710213 4.5112491 11.94451
l 575 576
v -35.710213 4.5112491 11.94451
v -35.356483 6.7446098 11.94451
l 577 578
v -35.356483 6.7446098 11.94451
v -34.863216 8.9513531 11.94451
l 579 580
v -35.356483 6.7446098 11.94451
v -35.356483 6.7446098 11.94451
l 581 582
v -35.356483 6.7446098 11.94451
v -35.356483 6.7446098 11.94451
l 583 584
v -35.356483 6.7446098 11.94451
v -34.863216 8.9513531 11.94451
l 585 586
v -34.863216 8.9513531 11.94451
v -34.232365 11.122769 11.94451
l 587 588
v -34.863216 8.9513531 11.94451
v -34.863216 8.9513531 11.94451
l 589 590
v -34.863216 8.9513531 11.94451
v -34.863216 8.9513531 11.94451
l 591 592
v -34.863216 8.9513531 11.94451
v -34.232365 11.122769 11.94451
l 593 594
v -34.232365 11.122769 11.94451
v -33.466408 13.250289 11.94451
l 595 596
v -34.232365 11.122769 11.94451
v -34.232365 11.122769 11.94451
l 597 598
v -34.232365 11.122769 11.94451
v -34.232365 11.122769 11.94451
l 599 600
v -34.232365 11.122769 11.94451
v -33.466408 13.250289 11.94451
l 601 602
v -33.466408 13.250289 11.94451
v -32.568378 15.325516 11.94451
l 603 604
v -33.466408 13.250289 11.94451
v -33.466408 13.250289 11.94451
l 605 606
v -33.466408 13.250289 11.94451
v -33.466408 13.250289 11.94451
l 607 608
v -33.466408 13.250289 11.94451
v -32.568378 15.325516 11.94451
l 609 610
v -32.568378 15.325516 11.94451
v -31.541815 17.34026 11.94451
l 611 612
v -32.568378 15.325516 11.94451
v -32.568378 15.325516 11.94451
l 613 614
v -32.568378 15.325516 11.94451
v -32.568378 15.325516 11.94451
l 615 616
v -32.568378 15.325516 11.94451
v -31.541815 17.34026 11.94451
l 617 618
v -31.541815 17.34026 11.94451
v -30.39077 19.28657 11.94451
l 619 620
v -31.541815 17.34026 11.94451
v -31.541815 17.34026 11.94451
l 621 622
v -31.541815 17.34026 11.94451
v -31.541815 17.34026 11.94451
l 623 624
v -17.599724 18.741802 1.6605
v -18.741802 17.599724 1.6605
l 625 626
v -16.388187 19.809916 1.6605
v -17.599724 18.741802 1.6605
l 627 628
v -17.599724 18.741802 1.6605
v -17.599724 18.741802 1.6605
l 629 630
v -17.599724 18.741802 1.6605
v -17.599724 18.741802 1.6605
l 631 632
v -31.541815 17.34026 11.94451
v -30.39077 19.28657 11.94451
l 633 634
v -30.39077 19.28657 11.94451
v -29.119787 21.156763 11.94451
l 635 636
v -30.39077 19.28657 11.94451
v -30.39077 19.28657 11.94451
l 637 638
v -30.39077 19.28657 11.94451
v -30.39077 19.28657 11.94451
l 639 640
v -30.39077 19.28657 11.94451
v -29.119787 21.156763 11.94451
l 641 642
v -29.119787 21.156763 11.94451
v -27.733883 22.943462 11.94451
l 643 644
v -29.119787 21.156763 11.94451
v -29.119787 21.156763 11.94451
l 645 646
v -29.119787 21.156763 11.94451
v -29.119787 21.156763 11.94451
l 647 648
v -29.119787 21.156763 11.94451
v -27.733883 22.943462 11.94451
l 649 650
v -27.733883 22.943462 11.94451
v -26.238523 24.639614 11.94451
l 651 652
v -27.733883 22.943462 11.94451
v -27.733883 22.943462 11.94451
l 653 654
v -27.733883 22.943462 11.94451
v -27.733883 22.943462 11.94451
l 655 656
v -27.733883 22.943462 11.94451
v -26.238523 24.639614 11.94451
l 657 658
v -26.238523 24.639614 11.94451
v -24.639614 26.238523 11.94451
l 659 660
v -26.238523 24.639614 11.94451
v -26.238523 24.639614 11.94451
l 661 662
v -26.238523 24.639614 11.94451
v -26.238523 24.639614 11.94451
l 663 664
v -26.238523 24.639614 11.94451
v -24.639614 26.238523 11.94451
l 665 666
v -24.639614 26.238523 11.94451
v -22.943462 27.733883 11.94451
l 667 668
v -24.639614 26.238523 11.94451
v -24.639614 26.238523 11.94451
l 669 670
v -24.639614 26.238523 11.94451
v -24.639614 26.238523 11.94451
l 671 672
v -24.639614 26.238523 11.94451
v -22.943462 27.733883 11.94451
l 673 674
v -22.943462 27.733883 11.94451
v -21.156763 29.119787 11.94451
l 675 676
v -22.943462 27.733883 11.94451
v -22.943462 27.733883 11.94451
l 677 678
v -22.943462 27.733883 11.94451
v -22.943462 27.733883 11.94451
l 679 680
v -22.943462 27.733883 11.94451
v -21.156763 29.119787 11.94451
l 681 682
v -21.156763 29.119787 11.94451
v -19.28657 30.39077 11.94451
l 683 684
v -21.156763 29.119787 11.94451
v -21.156763 29.119787 11.94451
l 685 686
v -21.156763 29.119787 11.94451
v -21.156763 29.119787 11.94451
l 687 688
v -21.156763 29.119787 11.94451
v -19.28657 30.39077 11.94451
l 689 690
v -19.28657 30.39077 11.94451
v -17.34026 31.541815 11.94451
l 691 692
v -19.28657 30.39077 11.94451
v -19.28657 30.39077 11.94451
l 693 694
v -19.28657 30.39077 11.94451
v -19.28657 30.39077 11.94451
l 695 696
v -16.388187 19.809916 1.6605
v -17.599724 18.741802 1.6605
l 697 698
v -15.111975 20.799849 1.6605
v -16.388187 19.809916 1.6605
l 699 700
v -16.388187 19.809916 1.6605
v -16.388187 19.809916 1.6605
l 701 702
v -16.388187 19.809916 1.6605
v -16.388187 19.809916 1.6605
l 703 704
v -15.111975 20.799849 1.6605
v -16.388187 19.809916 1.6605
l 705 706
v -13.776121 21.707693 1.6605
v -15.111975 20.799849 1.6605
l 707 708
v -15.111975 20.799849 1.6605
v -15.111975 20.799849 1.6605
l 709 710
v -15.111975 20.799849 1.6605
v -15.111975 20.799849 1.6605
l 711 712
v -13.776121 21.707693 1.6605
v -15.111975 20.799849 1.6605
l 713 714
v -12.3859 22.529867 1.6605
v -13.776121 21.707693 1.6605
l 715 716
v -13.776121 21.707693 1.6605
v -13.776121 21.707693 1.6605
l 717 718
v -13.776121 21.707693 1.6605
v -13.776121 21.707693 1.6605
l 719 720
v -12.3859 22.529867 1.6605
v -13.776121 21.707693 1.6605
l 721 722
v -10.946796 23.263126 1.6605
v -12.3859 22.529867 1.6605
l 723 724
v -12.3859 22.529867 1.6605
v -12.3859 22.529867 1.6605
l 725 726
v -12.3859 22.529867 1.6605
v -12.3859 22.529867 1.6605
l 727 728
v -10.946796 23.263126 1.6605
v -12.3859 22.529867 1.6605
l 729 730
v -9.4644918 23.904577 1.6605
v -10.946796 23.263126 1.6605
l 731 732
v -10.946796 23.263126 1.6605
v -10.946796 23.263126 1.6605
l 733 734
v -10.946796 23.263126 1.6605
v -10.946796 23.263126 1.6605
l 735 736
v -9.4644918 23.904577 1.6605
v -10.946796 23.263126 1.6605
l 737 738
v -7.9448352 24.451689 1.6605
v -9.4644918 23.904577 1.6605
l 739 740
v -9.4644918 23.904577 1.6605
v -9.4644918 23.904577 1.6605
l 741 742
v -9.4644918 23.904577 1.6605
v -9.4644918 23.904577 1.6605
l 743 744
v -7.9448352 24.451689 1.6605
v -9.4644918 23.904577 1.6605
l 745 746
v -6.3938236 24.902298 1.6605
v -7.9448352 24.451689 1.6605
l 747 748
v -7.9448352 24.451689 1.6605
v -7.9448352 24.451689 1.6605
l 749 750
v -7.9448352 24.451689 1.6605
v -7.9448352 24.451689 1.6605
l 751 752
v -6.3938236 24.902298 1.6605
v -7.9448352 24.451689 1.6605
l 753 754
v -4.8175783 25.254631 1.6605
v -6.3938236 24.902298 1.6605
l 755 756
v -6.3938236 24.902298 1.6605
v -6.3938236 24.902298 1.6605
l 757 758
v -6.3938236 24.902298 1.6605
v -6.3938236 24.902298 1.6605
l 759 760
v -4.8175783 25.254631 1.6605
v -6.3938236 24.902298 1.6605
l 761 762
v -3.2223208 25.507296 1.6605
v -4.8175783 25.254631 1.6605
l 763 764
v -4.8175783 25.254631 1.6605
v -4.8175783 25.254631 1.6605
l 765 766
v -4.8175783 25.254631 1.6605
v -4.8175783 25.254631 1.6605
l 767 768
v -3.2223208 25.507296 1.6605
v -4.8175783 25.254631 1.6605
l 769 770
v -1.6143459 25.659294 1.6605
v -3.2223208 25.507296 1.6605
l 771 772
v -3.2223208 25.507296 1.6605
v -3.2223208 25.507296 1.6605
l 773 774
v -3.2223208 25.507296 1.6605
v -3.2223208 25.507296 1.6605
l 775 776
v -1.6143459 25.659294 1.6605
v -3.2223208 25.507296 1.6605
l 777 778
v 0 25.710026 1.6605
v -1.6143459 25.659294 1.6605
l 779 780
v -1.6143459 25.659294 1.6605
v -1.6143459 25.659294 1.6605
l 781 782
v -1.6143459 25.659294 1.6605
v -1.6143459 25.659294 1.6605
l 783 784
v 0 25.710026 1.6605
v -1.6143459 25.659294 1.6605
l 785 786
v 1.6143459 25.659294 1.6605
v 0 25.710026 1.6605
l 787 788
v 0 25.710026 1.6605
v 0 25.710026 1.6605
l 789 790
v 0 25.710026 1.6605
v 0 25.710026 1.6605
l 791 792
v -19.28657 30.39077 11.94451
v -17.34026 31.541815 11.94451
l 793 794
v -17.34026 31.541815 11.94451
v -15.325516 32.568378 11.94451
l 795 796
v -17.34026 31.541815 11.94451
v -17.34026 31.541815 11.94451
l 797 798
v -17.34026 31.541815 11.94451
v -17.34026 31.541815 11.94451
l 799 800
v -17.34026 31.541815 11.94451
v -15.325516 32.568378 11.94451
l 801 802
v -15.325516 32.568378 11.94451
v -13.250289 33.466408 11.94451
l 803 804
v -15.325516 32.568378 11.94451
v -15.325516 32.568378 11.94451
l 805 806
v -15.325516 32.568378 11.94451
v -15.325516 32.568378 11.94451
l 807 808
v -15.325516 32.568378 11.94451
v -13.250289 33.466408 11.94451
l 809 810
v -13.250289 33.466408 11.94451
v -11.122769 34.232365 11.94451
l 811 812
v -13.250289 33.466408 11.94451
v -13.250289 33.466408 11.94451
l 813 814
v -13.250289 33.466408 11.94451
v -13.250289 33.466408 11.94451
l 815 816
v -13.250289 33.466408 11.94451
v -11.122769 34.232365 11.94451
l 817 818
v -11.122769 34.232365 11.94451
v -8.9513531 34.863216 11.94451
l 819 820
v -11.122769 34.232365 11.94451
v -11.122769 34.232365 11.94451
l 821 822
v -11.122769 34.232365 11.94451
v -11.122769 34.232365 11.94451
l 823 824
v -11.122769 34.232365 11.94451
v -8.9513531 34.863216 11.94451
l 825 826
v -8.9513531 34.863216 11.94451
v -6.7446098 35.356483 11.94451
l 827 828
v -8.9513531 34.863216 11.94451
v -8.9513531 34.863216 11.94451
l 829 830
v -8.9513531 34.863216 11.94451
v -8.9513531 34.863216 11.94451
l 831 832
v -8.9513531 34.863216 11.94451
v -6.7446098 35.356483 11.94451
l 833 834
v -6.7446098 35.356483 11.94451
v -4.5112491 35.710213 11.94451
l 835 836
v -6.7446098 35.356483 11.94451
v -6.7446098 35.356483 11.94451
l 837 838
v -6.7446098 35.356483 11.94451
v -6.7446098 35.356483 11.94451
l 839 840
v -6.7446098 35.356483 11.94451
v -4.5112491 35.710213 11.94451
l 841 842
v -4.5112491 35.710213 11.94451
v -2.2600842 35.923012 11.94451
l 843 844
v -4.5112491 35.710213 11.94451
v -4.5112491 35.710213 11.94451
l 845 846
v -4.5112491 35.710213 11.94451
v -4.5112491 35.710213 11.94451
l 847 848
v -4.5112491 35.710213 11.94451
v -2.2600842 35.923012 11.94451
l 849 850
v -2.2600842 35.923012 11.94451
v 0 35.994038 11.94451
l 851 852
v -2.2600842 35.923012 11.94451
v -2.2600842 35.923012 11.94451
l 853 854
v -2.2600842 35.923012 11.94451
v -2.2600842 35.923012 11.94451
l 855 856
v -2.2600842 35.923012 11.94451
v 0 35.994038 11.94451
l 857 858
v 0 35.994038 11.94451
v 2.2600842 35.923012 11.94451
l 859 860
v 0 35.994038 11.94451
v 0 35.994038 11.94451
l 861 862
v 0 35.994038 11.94451
v 0 35.994038 11.94451
l 863 864
v 0 -25.710026 1.6605
v 1.6143459 -25.659294 1.6605
l 865 866
v 1.6143459 -25.659294 1.6605
v 3.2223208 -25.507296 1.6605
l 867 868
v 1.6143459 -25.659294 1.6605
v 1.6143459 -25.659294 1.6605
l 869 870
v 1.6143459 -25.659294 1.6605
v 1.6143459 -25.659294 1.6605
l 871 872
v 1.6143459 -25.659294 1.6605
v 3.2223208 -25.507296 1.6605
l 873 874
v 3.2223208 -25.507296 1.6605
v 4.8175783 -25.254631 1.6605
l 875 876
v 3.2223208 -25.507296 1.6605
v 3.2223208 -25.507296 1.6605
l 877 878
v 3.2223208 -25.507296 1.6605
v 3.2223208 -25.507296 1.6605
l 879 880
v 3.2223208 -25.507296 1.6605
v 4.8175783 -25.254631 1.6605
l 881 882
v 4.8175783 -25.254631 1.6605
v 6.3938236 -24.902298 1.6605
l 883 884
v 4.8175783 -25.254631 1.6605
v 4.8175783 -25.254631 1.6605
l 885 886
v 4.8175783 -25.254631 1.6605
v 4.8175783 -25.254631 1.6605
l 887 888
v 4.8175783 -25.254631 1.6605
v 6.3938236 -24.902298 1.6605
l 889 890
v 6.3938236 -24.902298 1.6605
v 7.9448352 -24.451689 1.6605
l 891 892
v 6.3938236 -24.902298 1.6605
v 6.3938236 -24.902298 1.6605
l 893 894
v 6.3938236 -24.902298 1.6605
v 6.3938236 -24.902298 1.6605
l 895 896
v 6.3938236 -24.902298 1.6605
v 7.9448352 -24.451689 1.6605
l 897 898
v 7.9448352 -24.451689 1.6605
v 9.4644918 -23.904577 1.6605
l 899 900
v 7.9448352 -24.451689 1.6605
v 7.9448352 -24.451689 1.6605
l 901 902
v 7.9448352 -24.451689 1.6605
v 7.9448352 -24.451689 1.6605
l 903 904
v 7.9448352 -24.451689 1.6605
v 9.4644918 -23.904577 1.6605
l 905 906
v 9.4644918 -23.904577 1.6605
v 10.946796 -23.263126 1.6605
l 907 908
v 9.4644918 -23.904577 1.6605
v 9.4644918 -23.904577 1.6605
l 909 910
v 9.4644918 -23.904577 1.6605
v 9.4644918 -23.904577 1.6605
l 911 912
v 9.4644918 -23.904577 1.6605
v 10.946796 -23.263126 1.6605
l 913 914
v 10.946796 -23.263126 1.6605
v 12.3859 -22.529867 1.6605
l 915 916
v 10.946796 -23.263126 1.6605
v 10.946796 -23.263126 1.6605
l 917 918
v 10.946796 -23.263126 1.6605
v 10.946796 -23.263126 1.6605
l 919 920
v 10.946796 -23.263126 1.6605
v 12.3859 -22.529867 1.6605
l 921 922
v 12.3859 -22.529867 1.6605
v 13.776121 -21.707693 1.6605
l 923 924
v 12.3859 -22.529867 1.6605
v 12.3859 -22.529867 1.6605
l 925 926
v 12.3859 -22.529867 1.6605
v 12.3859 -22.529867 1.6605
l 927 928
v 12.3859 -22.529867 1.6605
v 13.776121 -21.707693 1.6605
l 929 930
v 13.776121 -21.707693 1.6605
v 15.111975 -20.799849 1.6605
l 931 932
v 13.776121 -21.707693 1.6605
v 13.776121 -21.707693 1.6605
l 933 934
v 13.776121 -21.707693 1.6605
v 13.776121 -21.707693 1.6605
l 935 936
v 13.776121 -21.707693 1.6605
v 15.111975 -20.799849 1.6605
l 937 938
v 15.111975 -20.799849 1.6605
v 16.388187 -19.809916 1.6605
l 939 940
v 15.111975 -20.799849 1.6605
v 15.111975 -20.799849 1.6605
l 941 942
v 15.111975 -20.799849 1.6605
v 15.111975 -20.799849 1.6605
l 943 944
v 15.111975 -20.799849 1.6605
v 16.388187 -19.809916 1.6605
l 945 946
v 16.388187 -19.809916 1.6605
v 17.599724 -18.741802 1.6605
l 947 948
v 16.388187 -19.809916 1.6605
v 16.388187 -19.809916 1.6605
l 949 950
v 16.388187 -19.809916 1.6605
v 16.388187 -19.809916 1.6605
l 951 952
v 16.388187 -19.809916 1.6605
v 17.599724 -18.741802 1.6605
l 953 954
v 17.599724 -18.741802 1.6605
v 18.741802 -17.599724 1.6605
l 955 956
v 17.599724 -18.741802 1.6605
v 17.599724 -18.741802 1.6605
l 957 958
v 17.599724 -18.741802 1.6605
v 17.599724 -18.741802 1.6605
l 959 960
v 2.2600842 -35.923012 11.94451
v 0 -35.994038 11.94451
l 961 962
v 4.5112491 -35.710213 11.94451
v 2.2600842 -35.923012 11.94451
l 963 964
v 2.2600842 -35.923012 11.94451
v 2.2600842 -35.923012 11.94451
l 965 966
v 2.2600842 -35.923012 11.94451
v 2.2600842 -35.923012 11.94451
l 967 968
v 4.5112491 -35.710213 11.94451
v 2.2600842 -35.923012 11.94451
l 969 970
v 6.7446098 -35.356483 11.94451
v 4.5112491 -35.710213 11.94451
l 971 972
v 4.5112491 -35.710213 11.94451
v 4.5112491 -35.710213 11.94451
l 973 974
v 4.5112491 -35.710213 11.94451
v 4.5112491 -35.710213 11.94451
l 975 976
v 6.7446098 -35.356483 11.94451
v 4.5112491 -35.710213 11.94451
l 977 978
v 8.9513531 -34.863216 11.94451
v 6.7446098 -35.356483 11.94451
l 979 980
v 6.7446098 -35.356483 11.94451
v 6.7446098 -35.356483 11.94451
l 981 982
v 6.7446098 -35.356483 11.94451
v 6.7446098 -35.356483 11.94451
l 983 984
v 8.9513531 -34.863216 11.94451
v 6.7446098 -35.356483 11.94451
l 985 986
v 11.122769 -34.232365 11.94451
v 8.9513531 -34.863216 11.94451
l 987 988
v 8.9513531 -34.863216 11.94451
v 8.9513531 -34.863216 11.94451
l 989 990
v 8.9513531 -34.863216 11.94451
v 8.9513531 -34.863216 11.94451
l 991 992
v 11.122769 -34.232365 11.94451
v 8.9513531 -34.863216 11.94451
l 993 994
v 13.250289 -33.466408 11.94451
v 11.122769 -34.232365 11.94451
l 995 996
v 11.122769 -34.232365 11.94451
v 11.122769 -34.232365 11.94451
l 997 998
v 11.122769 -34.232365 11.94451
v 11.122769 -34.232365 11.94451
l 999 1000
v 13.250289 -33.466408 11.94451
v 11.122769 -34.232365 11.94451
l 1001 1002
v 15.325516 -32.568378 11.94451
v 13.250289 -33.466408 11.94451
l 1003 1004
v 13.250289 -33.466408 11.94451
v 13.250289 -33.466408 11.94451
l 1005 1006
v 13.250289 -33.466408 11.94451
v 13.250289 -33.466408 11.94451
l 1007 1008
v 15.325516 -32.568378 11.94451
v 13.250289 -33.466408 11.94451
l 1009 1010
v 17.34026 -31.541815 11.94451
v 15.325516 -32.568378 11.94451
l 1011 1012
v 15.325516 -32.568378 11.94451
v 15.325516 -32.568378 11.94451
l 1013 1014
v 15.325516 -32.568378 11.94451
v 15.325516 -32.568378 11.94451
l 1015 1016
v 17.34026 -31.541815 11.94451
v 15.325516 -32.568378 11.94451
l 1017 1018
v 19.28657 -30.39077 11.94451
v 17.34026 -31.541815 11.94451
l 1019 1020
v 17.34026 -31.541815 11.94451
v 17.34026 -31.541815 11.94451
l 1021 1022
v 17.34026 -31.541815 11.94451
v 17.34026 -31.541815 11.94451
l 1023 1024
v 19.28657 -30.39077 11.94451
v 17.34026 -31.541815 11.94451
l 1025 1026
v 21.156763 -29.119787 11.94451
v 19.28657 -30.39077 11.94451
l 1027 1028
v 19.28657 -30.39077 11.94451
v 19.28657 -30.39077 11.94451
l 1029 1030
v 19.28657 -30.39077 11.94451
v 19.28657 -30.39077 11.94451
l 1031 1032
v 17.599724 -18.741802 1.6605
v 18.741802 -17.599724 1.6605
l 1033 1034
v 18.741802 -17.599724 1.6605
v 19.809916 -16.388187 1.6605
l 1035 1036
v 18.741802 -17.599724 1.6605
v 18.741802 -17.599724 1.6605
l 1037 1038
v 18.741802 -17.599724 1.6605
v 18.741802 -17.599724 1.6605
l 1039 1040
v 21.156763 -29.119787 11.94451
v 19.28657 -30.39077 11.94451
l 1041 1042
v 22.943462 -27.733883 11.94451
v 21.156763 -29.119787 11.94451
l 1043 1044
v 21.156763 -29.119787 11.94451
v 21.156763 -29.119787 11.94451
l 1045 1046
v 21.156763 -29.119787 11.94451
v 21.156763 -29.119787 11.94451
l 1047 1048
v 22.943462 -27.733883 11.94451
v 21.156763 -29.119787 11.94451
l 1049 1050
v 24.639614 -26.238523 11.94451
v 22.943462 -27.733883 11.94451
l 1051 1052
v 22.943462 -27.733883 11.94451
v 22.943462 -27.733883 11.94451
l 1053 1054
v 22.943462 -27.733883 11.94451
v 22.943462 -27.733883 11.94451
l 1055 1056
v 24.639614 -26.238523 11.94451
v 22.943462 -27.733883 11.94451
l 1057 1058
v 26.238523 -24.639614 11.94451
v 24.639614 -26.238523 11.94451
l 1059 1060
v 24.639614 -26.238523 11.94451
v 24.639614 -26.238523 11.94451
l 1061 1062
v 24.639614 -26.238523 11.94451
v 24.639614 -26.238523 11.94451
l 1063 1064
v 26.238523 -24.639614 11.94451
v 24.639614 -26.238523 11.94451
l 1065 1066
v 27.733883 -22.943462 11.94451
v 26.238523 -24.639614 11.94451
l 1067 1068
v 26.238523 -24.639614 11.94451
v 26.238523 -24.639614 11.94451
l 1069 1070
v 26.238523 -24.639614 11.94451
v 26.238523 -24.639614 11.94451
l 1071 1072
v 27.733883 -22.943462 11.94451
v 26.238523 -24.639614 11.94451
l 1073 1074
v 29.119787 -21.156763 11.94451
v 27.733883 -22.943462 11.94451
l 1075 1076
v 27.733883 -22.943462 11.94451
v 27.733883 -22.943462 11.94451
l 1077 1078
v 27.733883 -22.943462 11.94451
v 27.733883 -22.943462 11.94451
l 1079 1080
v 29.119787 -21.156763 11.94451
v 27.733883 -22.943462 11.94451
l 1081 1082
v 30.39077 -19.28657 11.94451
v 29.119787 -21.156763 11.94451
l 1083 1084
v 29.119787 -21.156763 11.94451
v 29.119787 -21.156763 11.94451
l 1085 1086
v 29.119787 -21.156763 11.94451
v 29.119787 -21.156763 11.94451
l 1087 1088
v 30.39077 -19.28657 11.94451
v 29.119787 -21.156763 11.94451
l 1089 1090
v 31.541815 -17.34026 11.94451
v 30.39077 -19.28657 11.94451
l 1091 1092
v 30.39077 -19.28657 11.94451
v 30.39077 -19.28657 11.94451
l 1093 1094
v 30.39077 -19.28657 11.94451
v 30.39077 -19.28657 11.94451
l 1095 1096
v 31.541815 -17.34026 11.94451
v 30.39077 -19.28657 11.94451
l 1097 1098
v 32.568378 -15.325516 11.94451
v 31.541815 -17.34026 11.94451
l 1099 1100
v 31.541815 -17.34026 11.94451
v 31.541815 -17.34026 11.94451
l 1101 1102
v 31.541815 -17.34026 11.94451
v 31.541815 -17.34026 11.94451
l 1103 1104
v 18.741802 -17.599724 1.6605
v 19.809916 -16.388187 1.6605
l 1105 1106
v 19.809916 -16.388187 1.6605
v 20.799849 -15.111975 1.6605
l 1107 1108
v 19.809916 -16.388187 1.6605
v 19.809916 -16.388187 1.6605
l 1109 1110
v 19.809916 -16.388187 1.6605
v 19.809916 -16.388187 1.6605
l 1111 1112
v 19.809916 -16.388187 1.6605
v 20.799849 -15.111975 1.6605
l 1113 1114
v 20.799849 -15.111975 1.6605
v 21.707693 -13.776121 1.6605
l 1115 1116
v 20.799849 -15.111975 1.6605
v 20.799849 -15.111975 1.6605
l 1117 1118
v 20.799849 -15.111975 1.6605
v 20.799849 -15.111975 1.6605
l 1119 1120
v 20.799849 -15.111975 1.6605
v 21.707693 -13.776121 1.6605
l 1121 1122
v 21.707693 -13.776121 1.6605
v 22.529867 -12.3859 1.6605
l 1123 1124
v 21.707693 -13.776121 1.6605
v 21.707693 -13.776121 1.6605
l 1125 1126
v 21.707693 -13.776121 1.6605
v 21.707693 -13.776121 1.6605
l 1127 1128
v 21.707693 -13.776121 1.6605
v 22.529867 -12.3859 1.6605
l 1129 1130
v 22.529867 -12.3859 1.6605
v 23.263126 -10.946796 1.6605
l 1131 1132
v 22.529867 -12.3859 1.6605
v 22.529867 -12.3859 1.6605
l 1133 1134
v 22.529867 -12.3859 1.6605
v 22.529867 -12.3859 1.6605
l 1135 1136
v 22.529867 -12.3859 1.6605
v 23.263126 -10.946796 1.6605
l 1137 1138
v 23.263126 -10.946796 1.6605
v 23.904577 -9.4644918 1.6605
l 1139 1140
v 23.263126 -10.946796 1.6605
v 23.263126 -10.946796 1.6605
l 1141 1142
v 23.263126 -10.946796 1.6605
v 23.263126 -10.946796 1.6605
l 1143 1144
v 23.263126 -10.946796 1.6605
v 23.904577 -9.4644918 1.6605
l 1145 1146
v 23.904577 -9.4644918 1.6605
v 24.451689 -7.9448352 1.6605
l 1147 1148
v 23.904577 -9.4644918 1.6605
v 23.904577 -9.4644918 1.6605
l 1149 1150
v 23.904577 -9.4644918 1.6605
v 23.904577 -9.4644918 1.6605
l 1151 1152
v 23.904577 -9.4644918 1.6605
v 24.451689 -7.9448352 1.6605
l 1153 1154
v 24.451689 -7.9448352 1.6605
v 24.902298 -6.3938236 1.6605
l 1155 1156
v 24.451689 -7.9448352 1.6605
v 24.451689 -7.9448352 1.6605
l 1157 1158
v 24.451689 -7.9448352 1.6605
v 24.451689 -7.9448352 1.6605
l 1159 1160
v 24.451689 -7.9448352 1.6605
v 24.902298 -6.3938236 1.6605
l 1161 1162
v 24.902298 -6.3938236 1.6605
v 25.254631 -4.8175783 1.6605
l 1163 1164
v 24.902298 -6.3938236 1.6605
v 24.902298 -6.3938236 1.6605
l 1165 1166
v 24.902298 -6.3938236 1.6605
v 24.902298 -6.3938236 1.6605
l 1167 1168
v 24.902298 -6.3938236 1.6605
v 25.254631 -4.8175783 1.6605
l 1169 1170
v 25.254631 -4.8175783 1.6605
v 25.507296 -3.2223208 1.6605
l 1171 1172
v 25.254631 -4.8175783 1.6605
v 25.254631 -4.8175783 1.6605
l 1173 1174
v 25.254631 -4.8175783 1.6605
v 25.254631 -4.8175783 1.6605
l 1175 1176
v 25.254631 -4.8175783 1.6605
v 25.507296 -3.2223208 1.6605
l 1177 1178
v 25.507296 -3.2223208 1.6605
v 25.659294 -1.6143459 1.6605
l 1179 1180
v 25.507296 -3.2223208 1.6605
v 25.507296 -3.2223208 1.6605
l 1181 1182
v 25.507296 -3.2223208 1.6605
v 25.507296 -3.2223208 1.6605
l 1183 1184
v 25.507296 -3.2223208 1.6605
v 25.659294 -1.6143459 1.6605
l 1185 1186
v 25.659294 -1.6143459 1.6605
v 25.710026 0 1.6605
l 1187 1188
v 25.659294 -1.6143459 1.6605
v 25.659294 -1.6143459 1.6605
l 1189 1190
v 25.659294 -1.6143459 1.6605
v 25.659294 -1.6143459 1.6605
l 1191 1192
v 25.710026 0 1.6605
v 25.710026 0 11.94451
l 1193 1194
v 25.659294 -1.6143459 1.6605
v 25.710026 0 1.6605
l 1195 1196
v 25.710026 0 1.6605
v 25.659294 1.6143459 1.6605
l 1197 1198
v 25.710026 0 1.6605
v 25.710026 0 1.6605
l 1199 1200
v 25.710026 0 1.6605
v 25.710026 0 1.6605
l 1201 1202
v 32.568378 -15.325516 11.94451
v 31.541815 -17.34026 11.94451
l 1203 1204
v 33.466408 -13.250289 11.94451
v 32.568378 -15.325516 11.94451
l 1205 1206
v 32.568378 -15.325516 11.94451
v 32.568378 -15.325516 11.94451
l 1207 1208
v 32.568378 -15.325516 11.94451
v 32.568378 -15.325516 11.94451
l 1209 1210
v 33.466408 -13.250289 11.94451
v 32.568378 -15.325516 11.94451
l 1211 1212
v 34.232365 -11.122769 11.94451
v 33.466408 -13.250289 11.94451
l 1213 1214
v 33.466408 -13.250289 11.94451
v 33.466408 -13.250289 11.94451
l 1215 1216
v 33.466408 -13.250289 11.94451
v 33.466408 -13.250289 11.94451
l 1217 1218
v 34.232365 -11.122769 11.94451
v 33.466408 -13.250289 11.94451
l 1219 1220
v 34.863216 -8.9513531 11.94451
v 34.232365 -11.122769 11.94451
l 1221 1222
v 34.232365 -11.122769 11.94451
v 34.232365 -11.122769 11.94451
l 1223 1224
v 34.232365 -11.122769 11.94451
v 34.232365 -11.122769 11.94451
l 1225 1226
v 34.863216 -8.9513531 11.94451
v 34.232365 -11.122769 11.94451
l 1227 1228
v 35.356483 -6.7446098 11.94451
v 34.863216 -8.9513531 11.94451
l 1229 1230
v 34.863216 -8.9513531 11.94451
v 34.863216 -8.9513531 11.94451
l 1231 1232
v 34.863216 -8.9513531 11.94451
v 34.863216 -8.9513531 11.94451
l 1233 1234
v 35.356483 -6.7446098 11.94451
v 34.863216 -8.9513531 11.94451
l 1235 1236
v 35.710213 -4.5112491 11.94451
v 35.356483 -6.7446098 11.94451
l 1237 1238
v 35.356483 -6.7446098 11.94451
v 35.356483 -6.7446098 11.94451
l 1239 1240
v 35.356483 -6.7446098 11.94451
v 35.356483 -6.7446098 11.94451
l 1241 1242
v 35.710213 -4.5112491 11.94451
v 35.356483 -6.7446098 11.94451
l 1243 1244
v 35.923012 -2.2600842 11.94451
v 35.710213 -4.5112491 11.94451
l 1245 1246
v 35.710213 -4.5112491 11.94451
v 35.710213 -4.5112491 11.94451
l 1247 1248
v 35.710213 -4.5112491 11.94451
v 35.710213 -4.5112491 11.94451
l 1249 1250
v 35.923012 -2.2600842 11.94451
v 35.710213 -4.5112491 11.94451
l 1251 1252
v 35.994038 0 11.94451
v 35.923012 -2.2600842 11.94451
l 1253 1254
v 35.923012 -2.2600842 11.94451
v 35.923012 -2.2600842 11.94451
l 1255 1256
v 35.923012 -2.2600842 11.94451
v 35.923012 -2.2600842 11.94451
l 1257 1258
v 35.994038 0 11.94451
v 35.923012 -2.2600842 11.94451
l 1259 1260
v 35.923012 2.2600842 11.94451
v 35.994038 0 11.94451
l 1261 1262
v 35.994038 0 11.94451
v 35.994038 0 11.94451
l 1263 1264
v 35.994038 0 11.94451
v 35.994038 0 11.94451
l 1265 1266
v 1.6143459 25.659294 1.6605
v 0 25.710026 1.6605
l 1267 1268
v 3.2223208 25.507296 1.6605
v 1.6143459 25.659294 1.6605
l 1269 1270
v 1.6143459 25.659294 1.6605
v 1.6143459 25.659294 1.6605
l 1271 1272
v 1.6143459 25.659294 1.6605
v 1.6143459 25.659294 1.6605
l 1273 1274
v 3.2223208 25.507296 1.6605
v 1.6143459 25.659294 1.6605
l 1275 1276
v 4.8175783 25.254631 1.6605
v 3.2223208 25.507296 1.6605
l 1277 1278
v 3.2223208 25.507296 1.6605
v 3.2223208 25.507296 1.6605
l 1279 1280
v 3.2223208 25.507296 1.6605
v 3.2223208 25.507296 1.6605
l 1281 1282
v 4.8175783 25.254631 1.6605
v 3.2223208 25.507296 1.6605
l 1283 1284
v 6.3938236 24.902298 1.6605
v 4.8175783 25.254631 1.6605
l 1285 1286
v 4.8175783 25.254631 1.6605
v 4.8175783 25.254631 1.6605
l 1287 1288
v 4.8175783 25.254631 1.6605
v 4.8175783 25.254631 1.6605
l 1289 1290
v 6.3938236 24.902298 1.6605
v 4.8175783 25.254631 1.6605
l 1291 1292
v 7.9448352 24.451689 1.6605
v 6.3938236 24.902298 1.6605
l 1293 1294
v 6.3938236 24.902298 1.6605
v 6.3938236 24.902298 1.6605
l 1295 1296
v 6.3938236 24.902298 1.6605
v 6.3938236 24.902298 1.6605
l 1297 1298
v 9.4644918 23.904577 1.6605
v 7.9448352 24.451689 1.6605
l 1299 1300
v 7.9448352 24.451689 1.6605
v 6.3938236 24.902298 1.6605
l 1301 1302
v 7.9448352 24.451689 1.6605
v 7.9448352 24.451689 1.6605
l 1303 1304
v 7.9448352 24.451689 1.6605
v 7.9448352 24.451689 1.6605
l 1305 1306
v 9.4644918 23.904577 1.6605
v 7.9448352 24.451689 1.6605
l 1307 1308
v 10.946796 23.263126 1.6605
v 9.4644918 23.904577 1.6605
l 1309 1310
v 9.4644918 23.904577 1.6605
v 9.4644918 23.904577 1.6605
l 1311 1312
v 9.4644918 23.904577 1.6605
v 9.4644918 23.904577 1.6605
l 1313 1314
v 13.776121 21.707693 1.6605
v 12.3859 22.529867 1.6605
l 1315 1316
v 12.3859 22.529867 1.6605
v 10.946796 23.263126 1.6605
l 1317 1318
v 12.3859 22.529867 1.6605
v 12.3859 22.529867 1.6605
l 1319 1320
v 12.3859 22.529867 1.6605
v 12.3859 22.529867 1.6605
l 1321 1322
v 13.776121 21.707693 1.6605
v 12.3859 22.529867 1.6605
l 1323 1324
v 15.111975 20.799849 1.6605
v 13.776121 21.707693 1.6605
l 1325 1326
v 13.776121 21.707693 1.6605
v 13.776121 21.707693 1.6605
l 1327 1328
v 13.776121 21.707693 1.6605
v 13.776121 21.707693 1.6605
l 1329 1330
v 10.946796 23.263126 1.6605
v 9.4644918 23.904577 1.6605
l 1331 1332
v 12.3859 22.529867 1.6605
v 10.946796 23.263126 1.6605
l 1333 1334
v 10.946796 23.263126 1.6605
v 10.946796 23.263126 1.6605
l 1335 1336
v 10.946796 23.263126 1.6605
v 10.946796 23.263126 1.6605
l 1337 1338
v 15.111975 20.799849 11.94451
v 15.111975 20.799849 1.6605
l 1339 1340
v 15.111975 20.799849 1.6605
v 13.776121 21.707693 1.6605
l 1341 1342
v 16.388187 19.809916 1.6605
v 15.111975 20.799849 1.6605
l 1343 1344
v 15.111975 20.799849 1.6605
v 15.111975 20.799849 1.6605
l 1345 1346
v 15.111975 20.799849 1.6605
v 15.111975 20.799849 1.6605
l 1347 1348
v 16.388187 19.809916 1.6605
v 15.111975 20.799849 1.6605
l 1349 1350
v 16.993956 19.27586 1.6605
v 16.388187 19.809916 1.6605
l 1351 1352
v 16.388187 19.809916 1.6605
v 16.388187 19.809916 11.94451
l 1353 1354
v 16.993956 19.27586 11.94451
v 16.388187 19.809916 1.6605
l 1355 1356
v 16.993956 19.27586 1.6605
v 16.993956 19.27586 11.94451
l 1357 1358
v 16.993956 19.27586 1.6605
v 16.388187 19.809916 1.6605
l 1359 1360
v 17.599724 18.741802 1.6605
v 16.993956 19.27586 1.6605
l 1361 1362
v 17.599724 18.741802 1.6605
v 16.993956 19.27586 1.6605
l 1363 1364
v 18.741802 17.599724 1.6605
v 17.599724 18.741802 1.6605
l 1365 1366
v 17.599724 18.741802 1.6605
v 17.599724 18.741802 1.6605
l 1367 1368
v 17.599724 18.741802 1.6605
v 17.599724 18.741802 1.6605
l 1369 1370
v 16.993956 19.27586 11.94451
v 16.388187 19.809916 11.94451
l 1371 1372
v 16.388187 19.809916 11.94451
v 15.111975 20.799849 11.94451
l 1373 1374
v 16.388187 19.809916 1.6605
v 16.388187 19.809916 11.94451
l 1375 1376
v 16.993956 19.27586 11.94451
v 16.388187 19.809916 11.94451
l 1377 1378
v 16.993956 19.27586 1.6605
v 16.993956 19.27586 11.94451
l 1379 1380
v 16.993956 19.27586 11.94451
v 16.388187 19.809916 1.6605
l 1381 1382
v 0 35.994038 11.94451
v 2.2600842 35.923012 11.94451
l 1383 1384
v 2.2600842 35.923012 11.94451
v 4.5112491 35.710213 11.94451
l 1385 1386
v 2.2600842 35.923012 11.94451
v 2.2600842 35.923012 11.94451
l 1387 1388
v 2.2600842 35.923012 11.94451
v 2.2600842 35.923012 11.94451
l 1389 1390
v 2.2600842 35.923012 11.94451
v 4.5112491 35.710213 11.94451
l 1391 1392
v 4.5112491 35.710213 11.94451
v 6.7446098 35.356483 11.94451
l 1393 1394
v 4.5112491 35.710213 11.94451
v 4.5112491 35.710213 11.94451
l 1395 1396
v 4.5112491 35.710213 11.94451
v 4.5112491 35.710213 11.94451
l 1397 1398
v 4.5112491 35.710213 11.94451
v 6.7446098 35.356483 11.94451
l 1399 1400
v 6.7446098 35.356483 11.94451
v 8.9513531 34.863216 11.94451
l 1401 1402
v 6.7446098 35.356483 11.94451
v 6.7446098 35.356483 11.94451
l 1403 1404
v 6.7446098 35.356483 11.94451
v 6.7446098 35.356483 11.94451
l 1405 1406
v 6.7446098 35.356483 11.94451
v 8.9513531 34.863216 11.94451
l 1407 1408
v 8.9513531 34.863216 11.94451
v 11.122769 34.232365 11.94451
l 1409 1410
v 8.9513531 34.863216 11.94451
v 8.9513531 34.863216 11.94451
l 1411 1412
v 8.9513531 34.863216 11.94451
v 8.9513531 34.863216 11.94451
l 1413 1414
v 8.9513531 34.863216 11.94451
v 11.122769 34.232365 11.94451
l 1415 1416
v 11.122769 34.232365 11.94451
v 13.250289 33.466408 11.94451
l 1417 1418
v 11.122769 34.232365 11.94451
v 11.122769 34.232365 11.94451
l 1419 1420
v 11.122769 34.232365 11.94451
v 11.122769 34.232365 11.94451
l 1421 1422
v 11.122769 34.232365 11.94451
v 13.250289 33.466408 11.94451
l 1423 1424
v 13.250289 33.466408 11.94451
v 15.325516 32.568378 11.94451
l 1425 1426
v 13.250289 33.466408 11.94451
v 13.250289 33.466408 11.94451
l 1427 1428
v 13.250289 33.466408 11.94451
v 13.250289 33.466408 11.94451
l 1429 1430
v 15.325516 32.568378 11.94451
v 17.34026 31.541815 11.94451
l 1431 1432
v 17.34026 31.541815 11.94451
v 19.28657 30.39077 11.94451
l 1433 1434
v 17.34026 31.541815 11.94451
v 17.34026 31.541815 11.94451
l 1435 1436
v 17.34026 31.541815 11.94451
v 17.34026 31.541815 11.94451
l 1437 1438
v 13.250289 33.466408 11.94451
v 15.325516 32.568378 11.94451
l 1439 1440
v 15.325516 32.568378 11.94451
v 17.34026 31.541815 11.94451
l 1441 1442
v 15.325516 32.568378 11.94451
v 15.325516 32.568378 11.94451
l 1443 1444
v 15.325516 32.568378 11.94451
v 15.325516 32.568378 11.94451
l 1445 1446
v 25.507296 3.2223208 1.6605
v 25.659294 1.6143459 1.6605
l 1447 1448
v 25.710026 0 1.6605
v 25.659294 1.6143459 1.6605
l 1449 1450
v 25.659294 1.6143459 1.6605
v 25.557205 2.694329 1.6605
l 1451 1452
v 25.710026 0 11.94451
v 25.659294 1.6143459 1.6605
l 1453 1454
v 25.659294 1.6143459 1.6605
v 25.659294 1.6143459 11.94451
l 1455 1456
v 25.659294 1.6143459 11.94451
v 25.557205 2.694329 1.6605
l 1457 1458
v 25.659294 1.6143459 1.6605
v 25.557205 2.694329 1.6605
l 1459 1460
v 25.557205 2.694329 1.6605
v 25.507296 3.2223208 1.6605
l 1461 1462
v 25.507296 3.2223208 1.6605
v 25.659294 1.6143459 1.6605
l 1463 1464
v 25.254631 4.8175783 1.6605
v 25.507296 3.2223208 1.6605
l 1465 1466
v 25.557205 2.694329 1.6605
v 25.507296 3.2223208 1.6605
l 1467 1468
v 25.507296 3.2223208 1.6605
v 25.386456 3.98527 1.6605
l 1469 1470
v 25.507296 3.2223208 1.6605
v 25.507296 3.2223208 1.6605
l 1471 1472
v 25.507296 3.2223208 1.6605
v 25.507296 3.2223208 1.6605
l 1473 1474
v 25.386456 3.98527 1.6605
v 25.386456 3.98527 11.94451
l 1475 1476
v 25.507296 3.2223208 1.6605
v 25.386456 3.98527 1.6605
l 1477 1478
v 25.254631 4.8175783 1.6605
v 25.386456 3.98527 1.6605
l 1479 1480
v 25.710026 0 1.6605
v 25.710026 0 11.94451
l 1481 1482
v 25.710026 0 11.94451
v 25.659294 1.6143459 11.94451
l 1483 1484
v 25.710026 0 11.94451
v 25.659294 1.6143459 1.6605
l 1485 1486
v 25.659294 1.6143459 11.94451
v 25.557205 2.694329 1.6605
l 1487 1488
v 25.710026 0 11.94451
v 25.659294 1.6143459 11.94451
l 1489 1490
v 25.659294 1.6143459 1.6605
v 25.659294 1.6143459 11.94451
l 1491 1492
v 25.386456 3.98527 1.6605
v 25.386456 3.98527 11.94451
l 1493 1494
v 25.386456 3.98527 11.94451
v 25.254631 4.8175783 11.94451
l 1495 1496
v 25.386456 3.98527 11.94451
v 25.254631 4.8175783 1.6605
l 1497 1498
v 25.254631 4.8175783 1.6605
v 25.507296 3.2223208 1.6605
l 1499 1500
v 25.254631 4.8175783 1.6605
v 25.386456 3.98527 1.6605
l 1501 1502
v 25.386456 3.98527 11.94451
v 25.254631 4.8175783 1.6605
l 1503 1504
v 25.254631 4.8175783 1.6605
v 24.902298 6.3938236 1.6605
l 1505 1506
v 25.254631 4.8175783 1.6605
v 25.254631 4.8175783 11.94451
l 1507 1508
v 24.902298 6.3938236 1.6605
v 24.451689 7.9448352 1.6605
l 1509 1510
v 24.902298 6.3938236 11.94451
v 24.451689 7.9448352 1.6605
l 1511 1512
v 24.451689 7.9448352 1.6605
v 23.904577 9.4644918 1.6605
l 1513 1514
v 24.451689 7.9448352 1.6605
v 24.451689 7.9448352 1.6605
l 1515 1516
v 24.451689 7.9448352 1.6605
v 24.451689 7.9448352 1.6605
l 1517 1518
v 25.254631 4.8175783 1.6605
v 24.902298 6.3938236 1.6605
l 1519 1520
v 24.902298 6.3938236 1.6605
v 24.451689 7.9448352 1.6605
l 1521 1522
v 25.254631 4.8175783 11.94451
v 24.902298 6.3938236 1.6605
l 1523 1524
v 24.902298 6.3938236 1.6605
v 24.902298 6.3938236 11.94451
l 1525 1526
v 25.386456 3.98527 11.94451
v 25.254631 4.8175783 11.94451
l 1527 1528
v 25.254631 4.8175783 11.94451
v 24.902298 6.3938236 11.94451
l 1529 1530
v 25.254631 4.8175783 1.6605
v 25.254631 4.8175783 11.94451
l 1531 1532
v 25.254631 4.8175783 11.94451
v 24.902298 6.3938236 1.6605
l 1533 1534
v 25.254631 4.8175783 11.94451
v 24.902298 6.3938236 11.94451
l 1535 1536
v 24.902298 6.3938236 1.6605
v 24.902298 6.3938236 11.94451
l 1537 1538
v 24.902298 6.3938236 11.94451
v 24.451689 7.9448352 1.6605
l 1539 1540
v 22.529867 12.3859 1.6605
v 21.707693 13.776121 1.6605
l 1541 1542
v 21.707693 13.776121 1.6605
v 20.799849 15.111975 1.6605
l 1543 1544
v 21.707693 13.776121 1.6605
v 21.707693 13.776121 1.6605
l 1545 1546
v 21.707693 13.776121 1.6605
v 21.707693 13.776121 1.6605
l 1547 1548
v 22.529867 12.3859 1.6605
v 21.707693 13.776121 1.6605
l 1549 1550
v 23.263126 10.946796 1.6605
v 22.529867 12.3859 1.6605
l 1551 1552
v 22.529867 12.3859 1.6605
v 22.529867 12.3859 1.6605
l 1553 1554
v 22.529867 12.3859 1.6605
v 22.529867 12.3859 1.6605
l 1555 1556
v 19.27586 16.993956 1.6605
v 18.741802 17.599724 1.6605
l 1557 1558
v 18.741802 17.599724 1.6605
v 17.599724 18.741802 1.6605
l 1559 1560
v 18.741802 17.599724 1.6605
v 18.741802 17.599724 1.6605
l 1561 1562
v 18.741802 17.599724 1.6605
v 18.741802 17.599724 1.6605
l 1563 1564
v 19.809916 16.388187 11.94451
v 19.27586 16.993956 1.6605
l 1565 1566
v 19.27586 16.993956 1.6605
v 18.741802 17.599724 1.6605
l 1567 1568
v 19.809916 16.388187 1.6605
v 19.27586 16.993956 1.6605
l 1569 1570
v 19.809916 16.388187 1.6605
v 19.27586 16.993956 1.6605
l 1571 1572
v 20.799849 15.111975 1.6605
v 19.809916 16.388187 1.6605
l 1573 1574
v 19.809916 16.388187 1.6605
v 19.809916 16.388187 11.94451
l 1575 1576
v 20.799849 15.111975 11.94451
v 19.809916 16.388187 1.6605
l 1577 1578
v 20.799849 15.111975 1.6605
v 20.799849 15.111975 11.94451
l 1579 1580
v 21.707693 13.776121 1.6605
v 20.799849 15.111975 1.6605
l 1581 1582
v 20.799849 15.111975 1.6605
v 19.809916 16.388187 1.6605
l 1583 1584
v 20.799849 15.111975 1.6605
v 20.799849 15.111975 1.6605
l 1585 1586
v 20.799849 15.111975 1.6605
v 20.799849 15.111975 1.6605
l 1587 1588
v 19.809916 16.388187 11.94451
v 19.27586 16.993956 1.6605
l 1589 1590
v 20.799849 15.111975 11.94451
v 19.809916 16.388187 11.94451
l 1591 1592
v 19.809916 16.388187 1.6605
v 19.809916 16.388187 11.94451
l 1593 1594
v 20.799849 15.111975 1.6605
v 20.799849 15.111975 11.94451
l 1595 1596
v 20.799849 15.111975 11.94451
v 19.809916 16.388187 11.94451
l 1597 1598
v 20.799849 15.111975 11.94451
v 19.809916 16.388187 1.6605
l 1599 1600
v 23.904577 9.4644918 1.6605
v 23.904577 9.4644918 11.94451
l 1601 1602
v 23.744215 9.8350677 1.6605
v 23.904577 9.4644918 1.6605
l 1603 1604
v 24.451689 7.9448352 1.6605
v 23.904577 9.4644918 1.6605
l 1605 1606
v 23.904577 9.4644918 1.6605
v 23.263126 10.946796 1.6605
l 1607 1608
v 23.904577 9.4644918 1.6605
v 23.904577 9.4644918 1.6605
l 1609 1610
v 23.904577 9.4644918 1.6605
v 23.904577 9.4644918 1.6605
l 1611 1612
v 23.904577 9.4644918 1.6605
v 23.263126 10.946796 1.6605
l 1613 1614
v 23.263126 10.946796 1.6605
v 22.529867 12.3859 1.6605
l 1615 1616
v 23.263126 10.946796 1.6605
v 23.263126 10.946796 1.6605
l 1617 1618
v 23.263126 10.946796 1.6605
v 23.263126 10.946796 1.6605
l 1619 1620
v 35.923012 2.2600842 11.94451
v 35.994038 0 11.94451
l 1621 1622
v 35.710213 4.5112491 11.94451
v 35.923012 2.2600842 11.94451
l 1623 1624
v 35.923012 2.2600842 11.94451
v 35.923012 2.2600842 11.94451
l 1625 1626
v 35.923012 2.2600842 11.94451
v 35.923012 2.2600842 11.94451
l 1627 1628
v 35.710213 4.5112491 11.94451
v 35.923012 2.2600842 11.94451
l 1629 1630
v 35.356483 6.7446098 11.94451
v 35.710213 4.5112491 11.94451
l 1631 1632
v 35.710213 4.5112491 11.94451
v 35.710213 4.5112491 11.94451
l 1633 1634
v 35.710213 4.5112491 11.94451
v 35.710213 4.5112491 11.94451
l 1635 1636
v 35.356483 6.7446098 11.94451
v 35.710213 4.5112491 11.94451
l 1637 1638
v 34.863216 8.9513531 11.94451
v 35.356483 6.7446098 11.94451
l 1639 1640
v 35.356483 6.7446098 11.94451
v 35.356483 6.7446098 11.94451
l 1641 1642
v 35.356483 6.7446098 11.94451
v 35.356483 6.7446098 11.94451
l 1643 1644
v 34.863216 8.9513531 11.94451
v 35.356483 6.7446098 11.94451
l 1645 1646
v 34.232365 11.122769 11.94451
v 34.863216 8.9513531 11.94451
l 1647 1648
v 34.863216 8.9513531 11.94451
v 34.863216 8.9513531 11.94451
l 1649 1650
v 34.863216 8.9513531 11.94451
v 34.863216 8.9513531 11.94451
l 1651 1652
v 30.39077 19.28657 11.94451
v 31.541815 17.34026 11.94451
l 1653 1654
v 29.119787 21.156763 11.94451
v 30.39077 19.28657 11.94451
l 1655 1656
v 30.39077 19.28657 11.94451
v 30.39077 19.28657 11.94451
l 1657 1658
v 30.39077 19.28657 11.94451
v 30.39077 19.28657 11.94451
l 1659 1660
v 30.39077 19.28657 11.94451
v 31.541815 17.34026 11.94451
l 1661 1662
v 31.541815 17.34026 11.94451
v 32.568378 15.325516 11.94451
l 1663 1664
v 31.541815 17.34026 11.94451
v 31.541815 17.34026 11.94451
l 1665 1666
v 31.541815 17.34026 11.94451
v 31.541815 17.34026 11.94451
l 1667 1668
v 33.466408 13.250289 11.94451
v 34.232365 11.122769 11.94451
l 1669 1670
v 32.568378 15.325516 11.94451
v 33.466408 13.250289 11.94451
l 1671 1672
v 33.466408 13.250289 11.94451
v 33.466408 13.250289 11.94451
l 1673 1674
v 33.466408 13.250289 11.94451
v 33.466408 13.250289 11.94451
l 1675 1676
v 34.232365 11.122769 11.94451
v 34.863216 8.9513531 11.94451
l 1677 1678
v 33.466408 13.250289 11.94451
v 34.232365 11.122769 11.94451
l 1679 1680
v 34.232365 11.122769 11.94451
v 34.232365 11.122769 11.94451
l 1681 1682
v 34.232365 11.122769 11.94451
v 34.232365 11.122769 11.94451
l 1683 1684
v 32.568378 15.325516 11.94451
v 33.466408 13.250289 11.94451
l 1685 1686
v 31.541815 17.34026 11.94451
v 32.568378 15.325516 11.94451
l 1687 1688
v 32.568378 15.325516 11.94451
v 32.568378 15.325516 11.94451
l 1689 1690
v 32.568378 15.325516 11.94451
v 32.568378 15.325516 11.94451
l 1691 1692
v 22.943462 27.733883 11.94451
v 24.639614 26.238523 11.94451
l 1693 1694
v 21.156763 29.119787 11.94451
v 22.943462 27.733883 11.94451
l 1695 1696
v 22.943462 27.733883 11.94451
v 22.943462 27.733883 11.94451
l 1697 1698
v 22.943462 27.733883 11.94451
v 22.943462 27.733883 11.94451
l 1699 1700
v 22.943462 27.733883 11.94451
v 24.639614 26.238523 11.94451
l 1701 1702
v 24.639614 26.238523 11.94451
v 26.238523 24.639614 11.94451
l 1703 1704
v 24.639614 26.238523 11.94451
v 24.639614 26.238523 11.94451
l 1705 1706
v 24.639614 26.238523 11.94451
v 24.639614 26.238523 11.94451
l 1707 1708
v 24.639614 26.238523 11.94451
v 26.238523 24.639614 11.94451
l 1709 1710
v 26.238523 24.639614 11.94451
v 27.733883 22.943462 11.94451
l 1711 1712
v 26.238523 24.639614 11.94451
v 26.238523 24.639614 11.94451
l 1713 1714
v 26.238523 24.639614 11.94451
v 26.238523 24.639614 11.94451
l 1715 1716
v 17.34026 31.541815 11.94451
v 19.28657 30.39077 11.94451
l 1717 1718
v 19.28657 30.39077 11.94451
v 21.156763 29.119787 11.94451
l 1719 1720
v 19.28657 30.39077 11.94451
v 19.28657 30.39077 11.94451
l 1721 1722
v 19.28657 30.39077 11.94451
v 19.28657 30.39077 11.94451
l 1723 1724
v 21.156763 29.119787 11.94451
v 22.943462 27.733883 11.94451
l 1725 1726
v 19.28657 30.39077 11.94451
v 21.156763 29.119787 11.94451
l 1727 1728
v 21.156763 29.119787 11.94451
v 21.156763 29.119787 11.94451
l 1729 1730
v 21.156763 29.119787 11.94451
v 21.156763 29.119787 11.94451
l 1731 1732
v 27.733883 22.943462 11.94451
v 29.119787 21.156763 11.94451
l 1733 1734
v 26.238523 24.639614 11.94451
v 27.733883 22.943462 11.94451
l 1735 1736
v 27.733883 22.943462 11.94451
v 27.733883 22.943462 11.94451
l 1737 1738
v 27.733883 22.943462 11.94451
v 27.733883 22.943462 11.94451
l 1739 1740
v 27.733883 22.943462 11.94451
v 29.119787 21.156763 11.94451
l 1741 1742
v 29.119787 21.156763 11.94451
v 30.39077 19.28657 11.94451
l 1743 1744
v 29.119787 21.156763 11.94451
v 29.119787 21.156763 11.94451
l 1745 1746
v 29.119787 21.156763 11.94451
v 29.119787 21.156763 11.94451
l 1747 1748
