v -18.741802 -17.599724 1.6605
v -17.599724 -18.741802 1.6605
v -26.238523 -24.639614 11.94451
v -27.733883 -22.943462 11.94451
v -29.119787 -21.156763 11.94451
v -30.39077 -19.28657 11.94451
v -22.943462 -27.733883 11.94451
v -19.28657 -30.39077 11.94451
v -21.156763 -29.119787 11.94451
v -17.34026 -31.541815 11.94451
v -24.639614 -26.238523 11.94451
v -22.529867 -12.3859 1.6605
v -23.263126 -10.946796 1.6605
v -23.904577 -9.4644918 1.6605
v -24.451689 -7.9448352 1.6605
v -20.799849 -15.111975 1.6605
v -19.809916 -16.388187 1.6605
v -21.707693 -13.776121 1.6605
v -24.902298 -6.3938236 1.6605
v -25.254631 -4.8175783 1.6605
v -25.507296 -3.2223208 1.6605
v -25.659294 -1.6143459 1.6605
v -25.710026 0 1.6605
v -31.541815 -17.34026 11.94451
v -32.568378 -15.325516 11.94451
v -33.466408 -13.250289 11.94451
v -34.232365 -11.122769 11.94451
v -34.863216 -8.9513531 11.94451
v -35.356483 -6.7446098 11.94451
v -35.710213 -4.5112491 11.94451
v -35.923012 -2.2600842 11.94451
v -35.994038 0 11.94451
v -16.388187 -19.809916 1.6605
v -15.111975 -20.799849 1.6605
v -13.776121 -21.707693 1.6605
v -12.3859 -22.529867 1.6605
v -10.946796 -23.263126 1.6605
v -9.4644918 -23.904577 1.6605
v -7.9448352 -24.451689 1.6605
v -6.3938236 -24.902298 1.6605
v -4.8175783 -25.254631 1.6605
v -3.2223208 -25.507296 1.6605
v -1.6143459 -25.659294 1.6605
v 0 -25.710026 1.6605
v -15.325516 -32.568378 11.94451
v -13.250289 -33.466408 11.94451
v -11.122769 -34.232365 11.94451
v -8.9513531 -34.863216 11.94451
v -6.7446098 -35.356483 11.94451
v -4.5112491 -35.710213 11.94451
v -2.2600842 -35.923012 11.94451
v 0 -35.994038 11.94451
v -25.659294 1.6143459 1.6605
v -25.507296 3.2223208 1.6605
v -25.279083 4.6631989 1.6605
v -25.254631 4.8175783 1.6605
v -25.659294 1.6143459 11.94451
v -25.507296 3.2223208 11.94451
v -25.279083 4.6631989 11.94451
v -25.034424 5.8027315 1.6605
v -24.902298 6.3938236 1.6605
v -24.451689 7.9448352 1.6605
v -23.904577 9.4644918 1.6605
v -24.902298 6.3938236 11.94451
v -24.451689 7.9448352 11.94451
v -23.263126 10.946796 1.6605
v -22.529867 12.3859 1.6605
v -21.707693 13.776121 1.6605
v -20.799849 15.111975 1.6605
v -19.809916 16.388187 1.6605
v -18.741802 17.599724 1.6605
v -35.923012 2.2600842 11.94451
v -35.710213 4.5112491 11.94451
v -35.356483 6.7446098 11.94451
v -34.863216 8.9513531 11.94451
v -34.232365 11.122769 11.94451
v -33.466408 13.250289 11.94451
v -32.568378 15.325516 11.94451
v -31.541815 17.34026 11.94451
v -17.599724 18.741802 1.6605
v -30.39077 19.28657 11.94451
v -29.119787 21.156763 11.94451
v -27.733883 22.943462 11.94451
v -26.238523 24.639614 11.94451
v -24.639614 26.238523 11.94451
v -22.943462 27.733883 11.94451
v -21.156763 29.119787 11.94451
v -19.28657 30.39077 11.94451
v -16.388187 19.809916 1.6605
v -15.111975 20.799849 1.6605
v -13.776121 21.707693 1.6605
v -12.3859 22.529867 1.6605
v -10.946796 23.263126 1.6605
v -9.4644918 23.904577 1.6605
v -7.9448352 24.451689 1.6605
v -6.3938236 24.902298 1.6605
v -4.8175783 25.254631 1.6605
v -3.2223208 25.507296 1.6605
v -1.6143459 25.659294 1.6605
v 0 25.710026 1.6605
v -17.34026 31.541815 11.94451
v -15.325516 32.568378 11.94451
v -13.250289 33.466408 11.94451
v -11.122769 34.232365 11.94451
v -8.9513531 34.863216 11.94451
v -6.7446098 35.356483 11.94451
v -4.5112491 35.710213 11.94451
v -2.2600842 35.923012 11.94451
v 0 35.994038 11.94451
v 1.6143459 -25.659294 1.6605
v 3.2223208 -25.507296 1.6605
v 4.8175783 -25.254631 1.6605
v 6.3938236 -24.902298 1.6605
v 7.9448352 -24.451689 1.6605
v 9.4644918 -23.904577 1.6605
v 10.946796 -23.263126 1.6605
v 12.3859 -22.529867 1.6605
v 13.776121 -21.707693 1.6605
v 15.111975 -20.799849 1.6605
v 16.388187 -19.809916 1.6605
v 17.599724 -18.741802 1.6605
v 2.2600842 -35.923012 11.94451
v 4.5112491 -35.710213 11.94451
v 6.7446098 -35.356483 11.94451
v 8.9513531 -34.863216 11.94451
v 11.122769 -34.232365 11.94451
v 13.250289 -33.466408 11.94451
v 15.325516 -32.568378 11.94451
v 17.34026 -31.541815 11.94451
v 19.28657 -30.39077 11.94451
v 18.741802 -17.599724 1.6605
v 21.156763 -29.119787 11.94451
v 22.943462 -27.733883 11.94451
v 24.639614 -26.238523 11.94451
v 26.238523 -24.639614 11.94451
v 27.733883 -22.943462 11.94451
v 29.119787 -21.156763 11.94451
v 30.39077 -19.28657 11.94451
v 31.541815 -17.34026 11.94451
v 19.809916 -16.388187 1.6605
v 20.799849 -15.111975 1.6605
v 21.707693 -13.776121 1.6605
v 22.529867 -12.3859 1.6605
v 23.263126 -10.946796 1.6605
v 23.904577 -9.4644918 1.6605
v 24.451689 -7.9448352 1.6605
v 24.902298 -6.3938236 1.6605
v 25.254631 -4.8175783 1.6605
v 25.507296 -3.2223208 1.6605
v 25.659294 -1.6143459 1.6605
v 25.710026 0 1.6605
v 32.568378 -15.325516 11.94451
v 33.466408 -13.250289 11.94451
v 34.232365 -11.122769 11.94451
v 34.863216 -8.9513531 11.94451
v 35.356483 -6.7446098 11.94451
v 35.710213 -4.5112491 11.94451
v 35.923012 -2.2600842 11.94451
v 35.994038 0 11.94451
v 1.6143459 25.659294 1.6605
v 3.2223208 25.507296 1.6605
v 4.8175783 25.254631 1.6605
v 6.3938236 24.902298 1.6605
v 7.9448352 24.451689 1.6605
v 9.4644918 23.904577 1.6605
v 12.3859 22.529867 1.6605
v 13.776121 21.707693 1.6605
v 10.946796 23.263126 1.6605
v 15.111975 20.799849 1.6605
v 16.388187 19.809916 1.6605
v 16.993956 19.27586 1.6605
v 17.599724 18.741802 1.6605
v 16.388187 19.809916 11.94451
v 16.993956 19.27586 11.94451
v 2.2600842 35.923012 11.94451
v 4.5112491 35.710213 11.94451
v 6.7446098 35.356483 11.94451
v 8.9513531 34.863216 11.94451
v 11.122769 34.232365 11.94451
v 13.250289 33.466408 11.94451
v 17.34026 31.541815 11.94451
v 15.325516 32.568378 11.94451
v 25.659294 1.6143459 1.6605
v 25.557205 2.694329 1.6605
v 25.507296 3.2223208 1.6605
v 25.386456 3.98527 1.6605
v 25.710026 0 11.94451
v 25.659294 1.6143459 11.94451
v 25.386456 3.98527 11.94451
v 25.254631 4.8175783 1.6605
v 24.451689 7.9448352 1.6605
v 24.902298 6.3938236 1.6605
v 25.254631 4.8175783 11.94451
v 24.902298 6.3938236 11.94451
v 21.707693 13.776121 1.6605
v 22.529867 12.3859 1.6605
v 18.741802 17.599724 1.6605
v 19.27586 16.993956 1.6605
v 19.809916 16.388187 1.6605
v 20.799849 15.111975 1.6605
v 19.809916 16.388187 11.94451
v 20.799849 15.111975 11.94451
v 23.904577 9.4644918 1.6605
v 23.263126 10.946796 1.6605
v 35.923012 2.2600842 11.94451
v 35.710213 4.5112491 11.94451
v 35.356483 6.7446098 11.94451
v 34.863216 8.9513531 11.94451
v 30.39077 19.28657 11.94451
v 31.541815 17.34026 11.94451
v 33.466408 13.250289 11.94451
v 34.232365 11.122769 11.94451
v 32.568378 15.325516 11.94451
v 22.943462 27.733883 11.94451
v 24.639614 26.238523 11.94451
v 26.238523 24.639614 11.94451
v 19.28657 30.39077 11.94451
v 21.156763 29.119787 11.94451
v 27.733883 22.943462 11.94451
v 29.119787 21.156763 11.94451
