v 23.904577 9.4644918 11.94451
v 23.744215 9.8350677 9.3735075
l 1 2
v -25.279083 4.6631989 1.6605
v -25.279083 4.6631989 11.94451
l 3 4
v -24.902298 6.3938236 11.94451
v -25.034424 5.8027315 1.6605
l 5 6
v -24.451689 7.9448352 1.6605
v -24.451689 7.9448352 11.94451
l 7 8
v -25.279083 4.6631989 11.94451
v -25.507296 3.2223208 11.94451
l 9 10
v 15.111975 20.799849 11.94451
v 15.111975 20.799849 1.6605
l 11 12
v 16.993956 19.27586 11.94451
v 16.388187 19.809916 11.94451
l 13 14
v 25.710026 0 1.6605
v 25.710026 0 11.94451
l 15 16
v 25.659294 1.6143459 11.94451
v 25.557205 2.694329 1.6605
l 17 18
v 25.386456 3.98527 1.6605
v 25.386456 3.98527 11.94451
l 19 20
v 25.710026 0 11.94451
v 25.659294 1.6143459 11.94451
l 21 22
v 25.386456 3.98527 11.94451
v 25.254631 4.8175783 11.94451
l 23 24
v 25.254631 4.8175783 11.94451
v 24.902298 6.3938236 11.94451
l 25 26
v 19.809916 16.388187 11.94451
v 19.27586 16.993956 1.6605
l 27 28
v 20.799849 15.111975 1.6605
v 20.799849 15.111975 11.94451
l 29 30
v 23.904577 9.4644918 1.6605
v 23.904577 9.4644918 11.94451
l 31 32
