v -18.741802 -17.599724 1.6605
v -17.599724 -18.741802 1.6605
l 1 2
v -26.238523 -24.639614 11.94451
v -27.733883 -22.943462 11.94451
l 3 4
v -29.119787 -21.156763 11.94451
v -30.39077 -19.28657 11.94451
l 5 6
v -27.733883 -22.943462 11.94451
v -29.119787 -21.156763 11.94451
l 7 8
v -19.28657 -30.39077 11.94451
v -21.156763 -29.119787 11.94451
l 9 10
v -21.156763 -29.119787 11.94451
v -22.943462 -27.733883 11.94451
l 11 12
v -17.34026 -31.541815 11.94451
v -19.28657 -30.39077 11.94451
l 13 14
v -24.639614 -26.238523 11.94451
v -26.238523 -24.639614 11.94451
l 15 16
v -22.943462 -27.733883 11.94451
v -24.639614 -26.238523 11.94451
l 17 18
v -23.263126 -10.946796 1.6605
v -22.529867 -12.3859 1.6605
l 19 20
v -23.904577 -9.4644918 1.6605
v -23.263126 -10.946796 1.6605
l 21 22
v -24.451689 -7.9448352 1.6605
v -23.904577 -9.4644918 1.6605
l 23 24
v -20.799849 -15.111975 1.6605
v -19.809916 -16.388187 1.6605
l 25 26
v -21.707693 -13.776121 1.6605
v -20.799849 -15.111975 1.6605
l 27 28
v -19.809916 -16.388187 1.6605
v -18.741802 -17.599724 1.6605
l 29 30
v -22.529867 -12.3859 1.6605
v -21.707693 -13.776121 1.6605
l 31 32
v -24.902298 -6.3938236 1.6605
v -24.451689 -7.9448352 1.6605
l 33 34
v -25.254631 -4.8175783 1.6605
v -24.902298 -6.3938236 1.6605
l 35 36
v -25.507296 -3.2223208 1.6605
v -25.254631 -4.8175783 1.6605
l 37 38
v -25.659294 -1.6143459 1.6605
v -25.507296 -3.2223208 1.6605
l 39 40
v -25.710026 0 1.6605
v -25.659294 -1.6143459 1.6605
l 41 42
v -31.541815 -17.34026 11.94451
v -32.568378 -15.325516 11.94451
l 43 44
v -32.568378 -15.325516 11.94451
v -33.466408 -13.250289 11.94451
l 45 46
v -33.466408 -13.250289 11.94451
v -34.232365 -11.122769 11.94451
l 47 48
v -34.232365 -11.122769 11.94451
v -34.863216 -8.9513531 11.94451
l 49 50
v -30.39077 -19.28657 11.94451
v -31.541815 -17.34026 11.94451
l 51 52
v -34.863216 -8.9513531 11.94451
v -35.356483 -6.7446098 11.94451
l 53 54
v -35.356483 -6.7446098 11.94451
v -35.710213 -4.5112491 11.94451
l 55 56
v -35.710213 -4.5112491 11.94451
v -35.923012 -2.2600842 11.94451
l 57 58
v -35.923012 -2.2600842 11.94451
v -35.994038 0 11.94451
l 59 60
v -17.599724 -18.741802 1.6605
v -16.388187 -19.809916 1.6605
l 61 62
v -16.388187 -19.809916 1.6605
v -15.111975 -20.799849 1.6605
l 63 64
v -15.111975 -20.799849 1.6605
v -13.776121 -21.707693 1.6605
l 65 66
v -12.3859 -22.529867 1.6605
v -10.946796 -23.263126 1.6605
l 67 68
v -10.946796 -23.263126 1.6605
v -9.4644918 -23.904577 1.6605
l 69 70
v -13.776121 -21.707693 1.6605
v -12.3859 -22.529867 1.6605
l 71 72
v -7.9448352 -24.451689 1.6605
v -6.3938236 -24.902298 1.6605
l 73 74
v -9.4644918 -23.904577 1.6605
v -7.9448352 -24.451689 1.6605
l 75 76
v -6.3938236 -24.902298 1.6605
v -4.8175783 -25.254631 1.6605
l 77 78
v -4.8175783 -25.254631 1.6605
v -3.2223208 -25.507296 1.6605
l 79 80
v -3.2223208 -25.507296 1.6605
v -1.6143459 -25.659294 1.6605
l 81 82
v -1.6143459 -25.659294 1.6605
v 0 -25.710026 1.6605
l 83 84
v -15.325516 -32.568378 11.94451
v -17.34026 -31.541815 11.94451
l 85 86
v -13.250289 -33.466408 11.94451
v -15.325516 -32.568378 11.94451
l 87 88
v -11.122769 -34.232365 11.94451
v -13.250289 -33.466408 11.94451
l 89 90
v -8.9513531 -34.863216 11.94451
v -11.122769 -34.232365 11.94451
l 91 92
v -6.7446098 -35.356483 11.94451
v -8.9513531 -34.863216 11.94451
l 93 94
v -4.5112491 -35.710213 11.94451
v -6.7446098 -35.356483 11.94451
l 95 96
v -2.2600842 -35.923012 11.94451
v -4.5112491 -35.710213 11.94451
l 97 98
v 0 -35.994038 11.94451
v -2.2600842 -35.923012 11.94451
l 99 100
v -25.659294 1.6143459 1.6605
v -25.710026 0 1.6605
l 101 102
v -25.507296 3.2223208 1.6605
v -25.659294 1.6143459 1.6605
l 103 104
v -25.279083 4.6631989 1.6605
v -25.507296 3.2223208 1.6605
l 105 106
v -25.254631 4.8175783 1.6605
v -25.279083 4.6631989 1.6605
l 107 108
v -25.659294 1.6143459 1.6605
v -25.659294 1.6143459 11.94451
l 109 110
v -25.659294 1.6143459 11.94451
v -25.710026 0 1.6605
l 111 112
v -25.507296 3.2223208 11.94451
v -25.659294 1.6143459 1.6605
l 113 114
v -25.507296 3.2223208 1.6605
v -25.507296 3.2223208 11.94451
l 115 116
v -25.279083 4.6631989 11.94451
v -25.507296 3.2223208 1.6605
l 117 118
v -25.034424 5.8027315 1.6605
v -25.254631 4.8175783 1.6605
l 119 120
v -24.902298 6.3938236 1.6605
v -25.034424 5.8027315 1.6605
l 121 122
v -24.451689 7.9448352 1.6605
v -24.902298 6.3938236 1.6605
l 123 124
v -23.904577 9.4644918 1.6605
v -24.451689 7.9448352 1.6605
l 125 126
v -24.902298 6.3938236 1.6605
v -24.902298 6.3938236 11.94451
l 127 128
v -24.451689 7.9448352 11.94451
v -24.902298 6.3938236 1.6605
l 129 130
v -23.263126 10.946796 1.6605
v -23.904577 9.4644918 1.6605
l 131 132
v -22.529867 12.3859 1.6605
v -23.263126 10.946796 1.6605
l 133 134
v -21.707693 13.776121 1.6605
v -22.529867 12.3859 1.6605
l 135 136
v -20.799849 15.111975 1.6605
v -21.707693 13.776121 1.6605
l 137 138
v -19.809916 16.388187 1.6605
v -20.799849 15.111975 1.6605
l 139 140
v -18.741802 17.599724 1.6605
v -19.809916 16.388187 1.6605
l 141 142
v -35.994038 0 11.94451
v -35.923012 2.2600842 11.94451
l 143 144
v -35.923012 2.2600842 11.94451
v -35.710213 4.5112491 11.94451
l 145 146
v -35.710213 4.5112491 11.94451
v -35.356483 6.7446098 11.94451
l 147 148
v -35.356483 6.7446098 11.94451
v -34.863216 8.9513531 11.94451
l 149 150
v -34.863216 8.9513531 11.94451
v -34.232365 11.122769 11.94451
l 151 152
v -34.232365 11.122769 11.94451
v -33.466408 13.250289 11.94451
l 153 154
v -33.466408 13.250289 11.94451
v -32.568378 15.325516 11.94451
l 155 156
v -32.568378 15.325516 11.94451
v -31.541815 17.34026 11.94451
l 157 158
v -17.599724 18.741802 1.6605
v -18.741802 17.599724 1.6605
l 159 160
v -31.541815 17.34026 11.94451
v -30.39077 19.28657 11.94451
l 161 162
v -30.39077 19.28657 11.94451
v -29.119787 21.156763 11.94451
l 163 164
v -29.119787 21.156763 11.94451
v -27.733883 22.943462 11.94451
l 165 166
v -27.733883 22.943462 11.94451
v -26.238523 24.639614 11.94451
l 167 168
v -26.238523 24.639614 11.94451
v -24.639614 26.238523 11.94451
l 169 170
v -24.639614 26.238523 11.94451
v -22.943462 27.733883 11.94451
l 171 172
v -22.943462 27.733883 11.94451
v -21.156763 29.119787 11.94451
l 173 174
v -21.156763 29.119787 11.94451
v -19.28657 30.39077 11.94451
l 175 176
v -16.388187 19.809916 1.6605
v -17.599724 18.741802 1.6605
l 177 178
v -15.111975 20.799849 1.6605
v -16.388187 19.809916 1.6605
l 179 180
v -13.776121 21.707693 1.6605
v -15.111975 20.799849 1.6605
l 181 182
v -12.3859 22.529867 1.6605
v -13.776121 21.707693 1.6605
l 183 184
v -10.946796 23.263126 1.6605
v -12.3859 22.529867 1.6605
l 185 186
v -9.4644918 23.904577 1.6605
v -10.946796 23.263126 1.6605
l 187 188
v -7.9448352 24.451689 1.6605
v -9.4644918 23.904577 1.6605
l 189 190
v -6.3938236 24.902298 1.6605
v -7.9448352 24.451689 1.6605
l 191 192
v -4.8175783 25.254631 1.6605
v -6.3938236 24.902298 1.6605
l 193 194
v -3.2223208 25.507296 1.6605
v -4.8175783 25.254631 1.6605
l 195 196
v -1.6143459 25.659294 1.6605
v -3.2223208 25.507296 1.6605
l 197 198
v 0 25.710026 1.6605
v -1.6143459 25.659294 1.6605
l 199 200
v -19.28657 30.39077 11.94451
v -17.34026 31.541815 11.94451
l 201 202
v -17.34026 31.541815 11.94451
v -15.325516 32.568378 11.94451
l 203 204
v -15.325516 32.568378 11.94451
v -13.250289 33.466408 11.94451
l 205 206
v -13.250289 33.466408 11.94451
v -11.122769 34.232365 11.94451
l 207 208
v -11.122769 34.232365 11.94451
v -8.9513531 34.863216 11.94451
l 209 210
v -8.9513531 34.863216 11.94451
v -6.7446098 35.356483 11.94451
l 211 212
v -6.7446098 35.356483 11.94451
v -4.5112491 35.710213 11.94451
l 213 214
v -4.5112491 35.710213 11.94451
v -2.2600842 35.923012 11.94451
l 215 216
v -2.2600842 35.923012 11.94451
v 0 35.994038 11.94451
l 217 218
v 0 -25.710026 1.6605
v 1.6143459 -25.659294 1.6605
l 219 220
v 1.6143459 -25.659294 1.6605
v 3.2223208 -25.507296 1.6605
l 221 222
v 3.2223208 -25.507296 1.6605
v 4.8175783 -25.254631 1.6605
l 223 224
v 4.8175783 -25.254631 1.6605
v 6.3938236 -24.902298 1.6605
l 225 226
v 6.3938236 -24.902298 1.6605
v 7.9448352 -24.451689 1.6605
l 227 228
v 7.9448352 -24.451689 1.6605
v 9.4644918 -23.904577 1.6605
l 229 230
v 9.4644918 -23.904577 1.6605
v 10.946796 -23.263126 1.6605
l 231 232
v 10.946796 -23.263126 1.6605
v 12.3859 -22.529867 1.6605
l 233 234
v 12.3859 -22.529867 1.6605
v 13.776121 -21.707693 1.6605
l 235 236
v 13.776121 -21.707693 1.6605
v 15.111975 -20.799849 1.6605
l 237 238
v 15.111975 -20.799849 1.6605
v 16.388187 -19.809916 1.6605
l 239 240
v 16.388187 -19.809916 1.6605
v 17.599724 -18.741802 1.6605
l 241 242
v 2.2600842 -35.923012 11.94451
v 0 -35.994038 11.94451
l 243 244
v 4.5112491 -35.710213 11.94451
v 2.2600842 -35.923012 11.94451
l 245 246
v 6.7446098 -35.356483 11.94451
v 4.5112491 -35.710213 11.94451
l 247 248
v 8.9513531 -34.863216 11.94451
v 6.7446098 -35.356483 11.94451
l 249 250
v 11.122769 -34.232365 11.94451
v 8.9513531 -34.863216 11.94451
l 251 252
v 13.250289 -33.466408 11.94451
v 11.122769 -34.232365 11.94451
l 253 254
v 15.325516 -32.568378 11.94451
v 13.250289 -33.466408 11.94451
l 255 256
v 17.34026 -31.541815 11.94451
v 15.325516 -32.568378 11.94451
l 257 258
v 19.28657 -30.39077 11.94451
v 17.34026 -31.541815 11.94451
l 259 260
v 17.599724 -18.741802 1.6605
v 18.741802 -17.599724 1.6605
l 261 262
v 21.156763 -29.119787 11.94451
v 19.28657 -30.39077 11.94451
l 263 264
v 22.943462 -27.733883 11.94451
v 21.156763 -29.119787 11.94451
l 265 266
v 24.639614 -26.238523 11.94451
v 22.943462 -27.733883 11.94451
l 267 268
v 26.238523 -24.639614 11.94451
v 24.639614 -26.238523 11.94451
l 269 270
v 27.733883 -22.943462 11.94451
v 26.238523 -24.639614 11.94451
l 271 272
v 29.119787 -21.156763 11.94451
v 27.733883 -22.943462 11.94451
l 273 274
v 30.39077 -19.28657 11.94451
v 29.119787 -21.156763 11.94451
l 275 276
v 31.541815 -17.34026 11.94451
v 30.39077 -19.28657 11.94451
l 277 278
v 18.741802 -17.599724 1.6605
v 19.809916 -16.388187 1.6605
l 279 280
v 19.809916 -16.388187 1.6605
v 20.799849 -15.111975 1.6605
l 281 282
v 20.799849 -15.111975 1.6605
v 21.707693 -13.776121 1.6605
l 283 284
v 21.707693 -13.776121 1.6605
v 22.529867 -12.3859 1.6605
l 285 286
v 22.529867 -12.3859 1.6605
v 23.263126 -10.946796 1.6605
l 287 288
v 23.263126 -10.946796 1.6605
v 23.904577 -9.4644918 1.6605
l 289 290
v 23.904577 -9.4644918 1.6605
v 24.451689 -7.9448352 1.6605
l 291 292
v 24.451689 -7.9448352 1.6605
v 24.902298 -6.3938236 1.6605
l 293 294
v 24.902298 -6.3938236 1.6605
v 25.254631 -4.8175783 1.6605
l 295 296
v 25.254631 -4.8175783 1.6605
v 25.507296 -3.2223208 1.6605
l 297 298
v 25.507296 -3.2223208 1.6605
v 25.659294 -1.6143459 1.6605
l 299 300
v 25.659294 -1.6143459 1.6605
v 25.710026 0 1.6605
l 301 302
v 32.568378 -15.325516 11.94451
v 31.541815 -17.34026 11.94451
l 303 304
v 33.466408 -13.250289 11.94451
v 32.568378 -15.325516 11.94451
l 305 306
v 34.232365 -11.122769 11.94451
v 33.466408 -13.250289 11.94451
l 307 308
v 34.863216 -8.9513531 11.94451
v 34.232365 -11.122769 11.94451
l 309 310
v 35.356483 -6.7446098 11.94451
v 34.863216 -8.9513531 11.94451
l 311 312
v 35.710213 -4.5112491 11.94451
v 35.356483 -6.7446098 11.94451
l 313 314
v 35.923012 -2.2600842 11.94451
v 35.710213 -4.5112491 11.94451
l 315 316
v 35.994038 0 11.94451
v 35.923012 -2.2600842 11.94451
l 317 318
v 1.6143459 25.659294 1.6605
v 0 25.710026 1.6605
l 319 320
v 3.2223208 25.507296 1.6605
v 1.6143459 25.659294 1.6605
l 321 322
v 4.8175783 25.254631 1.6605
v 3.2223208 25.507296 1.6605
l 323 324
v 6.3938236 24.902298 1.6605
v 4.8175783 25.254631 1.6605
l 325 326
v 9.4644918 23.904577 1.6605
v 7.9448352 24.451689 1.6605
l 327 328
v 7.9448352 24.451689 1.6605
v 6.3938236 24.902298 1.6605
l 329 330
v 13.776121 21.707693 1.6605
v 12.3859 22.529867 1.6605
l 331 332
v 10.946796 23.263126 1.6605
v 9.4644918 23.904577 1.6605
l 333 334
v 12.3859 22.529867 1.6605
v 10.946796 23.263126 1.6605
l 335 336
v 15.111975 20.799849 1.6605
v 13.776121 21.707693 1.6605
l 337 338
v 16.388187 19.809916 1.6605
v 15.111975 20.799849 1.6605
l 339 340
v 16.993956 19.27586 1.6605
v 16.388187 19.809916 1.6605
l 341 342
v 17.599724 18.741802 1.6605
v 16.993956 19.27586 1.6605
l 343 344
v 16.388187 19.809916 1.6605
v 16.388187 19.809916 11.94451
l 345 346
v 16.993956 19.27586 11.94451
v 16.388187 19.809916 1.6605
l 347 348
v 0 35.994038 11.94451
v 2.2600842 35.923012 11.94451
l 349 350
v 2.2600842 35.923012 11.94451
v 4.5112491 35.710213 11.94451
l 351 352
v 4.5112491 35.710213 11.94451
v 6.7446098 35.356483 11.94451
l 353 354
v 6.7446098 35.356483 11.94451
v 8.9513531 34.863216 11.94451
l 355 356
v 8.9513531 34.863216 11.94451
v 11.122769 34.232365 11.94451
l 357 358
v 11.122769 34.232365 11.94451
v 13.250289 33.466408 11.94451
l 359 360
v 13.250289 33.466408 11.94451
v 15.325516 32.568378 11.94451
l 361 362
v 15.325516 32.568378 11.94451
v 17.34026 31.541815 11.94451
l 363 364
v 25.710026 0 1.6605
v 25.659294 1.6143459 1.6605
l 365 366
v 25.659294 1.6143459 1.6605
v 25.557205 2.694329 1.6605
l 367 368
v 25.557205 2.694329 1.6605
v 25.507296 3.2223208 1.6605
l 369 370
v 25.507296 3.2223208 1.6605
v 25.386456 3.98527 1.6605
l 371 372
v 25.710026 0 11.94451
v 25.659294 1.6143459 1.6605
l 373 374
v 25.659294 1.6143459 1.6605
v 25.659294 1.6143459 11.94451
l 375 376
v 25.254631 4.8175783 1.6605
v 25.386456 3.98527 1.6605
l 377 378
v 25.386456 3.98527 11.94451
v 25.254631 4.8175783 1.6605
l 379 380
v 25.254631 4.8175783 1.6605
v 24.902298 6.3938236 1.6605
l 381 382
v 24.902298 6.3938236 1.6605
v 24.451689 7.9448352 1.6605
l 383 384
v 25.254631 4.8175783 1.6605
v 25.254631 4.8175783 11.94451
l 385 386
v 25.254631 4.8175783 11.94451
v 24.902298 6.3938236 1.6605
l 387 388
v 24.902298 6.3938236 1.6605
v 24.902298 6.3938236 11.94451
l 389 390
v 24.902298 6.3938236 11.94451
v 24.451689 7.9448352 1.6605
l 391 392
v 22.529867 12.3859 1.6605
v 21.707693 13.776121 1.6605
l 393 394
v 19.27586 16.993956 1.6605
v 18.741802 17.599724 1.6605
l 395 396
v 19.809916 16.388187 1.6605
v 19.27586 16.993956 1.6605
l 397 398
v 21.707693 13.776121 1.6605
v 20.799849 15.111975 1.6605
l 399 400
v 20.799849 15.111975 1.6605
v 19.809916 16.388187 1.6605
l 401 402
v 19.809916 16.388187 1.6605
v 19.809916 16.388187 11.94451
l 403 404
v 20.799849 15.111975 11.94451
v 19.809916 16.388187 1.6605
l 405 406
v 24.451689 7.9448352 1.6605
v 23.904577 9.4644918 1.6605
l 407 408
v 23.904577 9.4644918 1.6605
v 23.263126 10.946796 1.6605
l 409 410
v 23.263126 10.946796 1.6605
v 22.529867 12.3859 1.6605
l 411 412
v 35.923012 2.2600842 11.94451
v 35.994038 0 11.94451
l 413 414
v 35.710213 4.5112491 11.94451
v 35.923012 2.2600842 11.94451
l 415 416
v 35.356483 6.7446098 11.94451
v 35.710213 4.5112491 11.94451
l 417 418
v 34.863216 8.9513531 11.94451
v 35.356483 6.7446098 11.94451
l 419 420
v 30.39077 19.28657 11.94451
v 31.541815 17.34026 11.94451
l 421 422
v 34.232365 11.122769 11.94451
v 34.863216 8.9513531 11.94451
l 423 424
v 33.466408 13.250289 11.94451
v 34.232365 11.122769 11.94451
l 425 426
v 32.568378 15.325516 11.94451
v 33.466408 13.250289 11.94451
l 427 428
v 31.541815 17.34026 11.94451
v 32.568378 15.325516 11.94451
l 429 430
v 18.741802 17.599724 1.6605
v 17.599724 18.741802 1.6605
l 431 432
v 22.943462 27.733883 11.94451
v 24.639614 26.238523 11.94451
l 433 434
v 24.639614 26.238523 11.94451
v 26.238523 24.639614 11.94451
l 435 436
v 17.34026 31.541815 11.94451
v 19.28657 30.39077 11.94451
l 437 438
v 21.156763 29.119787 11.94451
v 22.943462 27.733883 11.94451
l 439 440
v 19.28657 30.39077 11.94451
v 21.156763 29.119787 11.94451
l 441 442
v 27.733883 22.943462 11.94451
v 29.119787 21.156763 11.94451
l 443 444
v 29.119787 21.156763 11.94451
v 30.39077 19.28657 11.94451
l 445 446
v 26.238523 24.639614 11.94451
v 27.733883 22.943462 11.94451
l 447 448
v -22.529867 -12.3859 1.6605
v -22.529867 -12.3859 1.6605
l 449 450
v -23.263126 -10.946796 1.6605
v -23.263126 -10.946796 1.6605
l 451 452
v -23.904577 -9.4644918 1.6605
v -23.904577 -9.4644918 1.6605
l 453 454
v -21.707693 -13.776121 1.6605
v -21.707693 -13.776121 1.6605
l 455 456
v -20.799849 -15.111975 1.6605
v -20.799849 -15.111975 1.6605
l 457 458
v -19.809916 -16.388187 1.6605
v -19.809916 -16.388187 1.6605
l 459 460
v -18.741802 -17.599724 1.6605
v -18.741802 -17.599724 1.6605
l 461 462
v -24.902298 -6.3938236 1.6605
v -24.902298 -6.3938236 1.6605
l 463 464
v -25.254631 -4.8175783 1.6605
v -25.254631 -4.8175783 1.6605
l 465 466
v -24.451689 -7.9448352 1.6605
v -24.451689 -7.9448352 1.6605
l 467 468
v -25.507296 -3.2223208 1.6605
v -25.507296 -3.2223208 1.6605
l 469 470
v -25.659294 -1.6143459 1.6605
v -25.659294 -1.6143459 1.6605
l 471 472
v -25.710026 0 1.6605
v -25.710026 0 1.6605
l 473 474
v -17.599724 -18.741802 1.6605
v -17.599724 -18.741802 1.6605
l 475 476
v -16.388187 -19.809916 1.6605
v -16.388187 -19.809916 1.6605
l 477 478
v -15.111975 -20.799849 1.6605
v -15.111975 -20.799849 1.6605
l 479 480
v -13.776121 -21.707693 1.6605
v -13.776121 -21.707693 1.6605
l 481 482
v -12.3859 -22.529867 1.6605
v -12.3859 -22.529867 1.6605
l 483 484
v -10.946796 -23.263126 1.6605
v -10.946796 -23.263126 1.6605
l 485 486
v -9.4644918 -23.904577 1.6605
v -9.4644918 -23.904577 1.6605
l 487 488
v -6.3938236 -24.902298 1.6605
v -6.3938236 -24.902298 1.6605
l 489 490
v -7.9448352 -24.451689 1.6605
v -7.9448352 -24.451689 1.6605
l 491 492
v -4.8175783 -25.254631 1.6605
v -4.8175783 -25.254631 1.6605
l 493 494
v -3.2223208 -25.507296 1.6605
v -3.2223208 -25.507296 1.6605
l 495 496
v -1.6143459 -25.659294 1.6605
v -1.6143459 -25.659294 1.6605
l 497 498
v 0 -25.710026 1.6605
v 0 -25.710026 1.6605
l 499 500
v -25.254631 4.8175783 1.6605
v -25.254631 4.8175783 1.6605
l 501 502
v -24.451689 7.9448352 1.6605
v -24.451689 7.9448352 1.6605
l 503 504
v -23.904577 9.4644918 1.6605
v -23.904577 9.4644918 1.6605
l 505 506
v -23.263126 10.946796 1.6605
v -23.263126 10.946796 1.6605
l 507 508
v -22.529867 12.3859 1.6605
v -22.529867 12.3859 1.6605
l 509 510
v -21.707693 13.776121 1.6605
v -21.707693 13.776121 1.6605
l 511 512
v -20.799849 15.111975 1.6605
v -20.799849 15.111975 1.6605
l 513 514
v -19.809916 16.388187 1.6605
v -19.809916 16.388187 1.6605
l 515 516
v -18.741802 17.599724 1.6605
v -18.741802 17.599724 1.6605
l 517 518
v -17.599724 18.741802 1.6605
v -17.599724 18.741802 1.6605
l 519 520
v -16.388187 19.809916 1.6605
v -16.388187 19.809916 1.6605
l 521 522
v -15.111975 20.799849 1.6605
v -15.111975 20.799849 1.6605
l 523 524
v -13.776121 21.707693 1.6605
v -13.776121 21.707693 1.6605
l 525 526
v -12.3859 22.529867 1.6605
v -12.3859 22.529867 1.6605
l 527 528
v -10.946796 23.263126 1.6605
v -10.946796 23.263126 1.6605
l 529 530
v -9.4644918 23.904577 1.6605
v -9.4644918 23.904577 1.6605
l 531 532
v -7.9448352 24.451689 1.6605
v -7.9448352 24.451689 1.6605
l 533 534
v -6.3938236 24.902298 1.6605
v -6.3938236 24.902298 1.6605
l 535 536
v -4.8175783 25.254631 1.6605
v -4.8175783 25.254631 1.6605
l 537 538
v -3.2223208 25.507296 1.6605
v -3.2223208 25.507296 1.6605
l 539 540
v -1.6143459 25.659294 1.6605
v -1.6143459 25.659294 1.6605
l 541 542
v 0 25.710026 1.6605
v 0 25.710026 1.6605
l 543 544
v 1.6143459 -25.659294 1.6605
v 1.6143459 -25.659294 1.6605
l 545 546
v 3.2223208 -25.507296 1.6605
v 3.2223208 -25.507296 1.6605
l 547 548
v 4.8175783 -25.254631 1.6605
v 4.8175783 -25.254631 1.6605
l 549 550
v 6.3938236 -24.902298 1.6605
v 6.3938236 -24.902298 1.6605
l 551 552
v 7.9448352 -24.451689 1.6605
v 7.9448352 -24.451689 1.6605
l 553 554
v 9.4644918 -23.904577 1.6605
v 9.4644918 -23.904577 1.6605
l 555 556
v 10.946796 -23.263126 1.6605
v 10.946796 -23.263126 1.6605
l 557 558
v 12.3859 -22.529867 1.6605
v 12.3859 -22.529867 1.6605
l 559 560
v 13.776121 -21.707693 1.6605
v 13.776121 -21.707693 1.6605
l 561 562
v 15.111975 -20.799849 1.6605
v 15.111975 -20.799849 1.6605
l 563 564
v 16.388187 -19.809916 1.6605
v 16.388187 -19.809916 1.6605
l 565 566
v 17.599724 -18.741802 1.6605
v 17.599724 -18.741802 1.6605
l 567 568
v 18.741802 -17.599724 1.6605
v 18.741802 -17.599724 1.6605
l 569 570
v 19.809916 -16.388187 1.6605
v 19.809916 -16.388187 1.6605
l 571 572
v 20.799849 -15.111975 1.6605
v 20.799849 -15.111975 1.6605
l 573 574
v 21.707693 -13.776121 1.6605
v 21.707693 -13.776121 1.6605
l 575 576
v 22.529867 -12.3859 1.6605
v 22.529867 -12.3859 1.6605
l 577 578
v 23.263126 -10.946796 1.6605
v 23.263126 -10.946796 1.6605
l 579 580
v 23.904577 -9.4644918 1.6605
v 23.904577 -9.4644918 1.6605
l 581 582
v 24.451689 -7.9448352 1.6605
v 24.451689 -7.9448352 1.6605
l 583 584
v 24.902298 -6.3938236 1.6605
v 24.902298 -6.3938236 1.6605
l 585 586
v 25.254631 -4.8175783 1.6605
v 25.254631 -4.8175783 1.6605
l 587 588
v 25.507296 -3.2223208 1.6605
v 25.507296 -3.2223208 1.6605
l 589 590
v 25.659294 -1.6143459 1.6605
v 25.659294 -1.6143459 1.6605
l 591 592
v 25.710026 0 1.6605
v 25.710026 0 1.6605
l 593 594
v 1.6143459 25.659294 1.6605
v 1.6143459 25.659294 1.6605
l 595 596
v 3.2223208 25.507296 1.6605
v 3.2223208 25.507296 1.6605
l 597 598
v 4.8175783 25.254631 1.6605
v 4.8175783 25.254631 1.6605
l 599 600
v 6.3938236 24.902298 1.6605
v 6.3938236 24.902298 1.6605
l 601 602
v 7.9448352 24.451689 1.6605
v 7.9448352 24.451689 1.6605
l 603 604
v 9.4644918 23.904577 1.6605
v 9.4644918 23.904577 1.6605
l 605 606
v 12.3859 22.529867 1.6605
v 12.3859 22.529867 1.6605
l 607 608
v 13.776121 21.707693 1.6605
v 13.776121 21.707693 1.6605
l 609 610
v 10.946796 23.263126 1.6605
v 10.946796 23.263126 1.6605
l 611 612
v 15.111975 20.799849 1.6605
v 15.111975 20.799849 1.6605
l 613 614
v 17.599724 18.741802 1.6605
v 17.599724 18.741802 1.6605
l 615 616
v 25.507296 3.2223208 1.6605
v 25.507296 3.2223208 1.6605
l 617 618
v 23.904577 9.4644918 1.6605
v 23.904577 9.4644918 1.6605
l 619 620
v 24.451689 7.9448352 1.6605
v 24.451689 7.9448352 1.6605
l 621 622
v 22.529867 12.3859 1.6605
v 22.529867 12.3859 1.6605
l 623 624
v 21.707693 13.776121 1.6605
v 21.707693 13.776121 1.6605
l 625 626
v 18.741802 17.599724 1.6605
v 18.741802 17.599724 1.6605
l 627 628
v 20.799849 15.111975 1.6605
v 20.799849 15.111975 1.6605
l 629 630
v 23.263126 10.946796 1.6605
v 23.263126 10.946796 1.6605
l 631 632
v -27.733883 -22.943462 11.94451
v -27.733883 -22.943462 11.94451
l 633 634
v -29.119787 -21.156763 11.94451
v -29.119787 -21.156763 11.94451
l 635 636
v -30.39077 -19.28657 11.94451
v -30.39077 -19.28657 11.94451
l 637 638
v -22.943462 -27.733883 11.94451
v -22.943462 -27.733883 11.94451
l 639 640
v -21.156763 -29.119787 11.94451
v -21.156763 -29.119787 11.94451
l 641 642
v -19.28657 -30.39077 11.94451
v -19.28657 -30.39077 11.94451
l 643 644
v -26.238523 -24.639614 11.94451
v -26.238523 -24.639614 11.94451
l 645 646
v -24.639614 -26.238523 11.94451
v -24.639614 -26.238523 11.94451
l 647 648
v -32.568378 -15.325516 11.94451
v -32.568378 -15.325516 11.94451
l 649 650
v -31.541815 -17.34026 11.94451
v -31.541815 -17.34026 11.94451
l 651 652
v -33.466408 -13.250289 11.94451
v -33.466408 -13.250289 11.94451
l 653 654
v -34.232365 -11.122769 11.94451
v -34.232365 -11.122769 11.94451
l 655 656
v -34.863216 -8.9513531 11.94451
v -34.863216 -8.9513531 11.94451
l 657 658
v -35.356483 -6.7446098 11.94451
v -35.356483 -6.7446098 11.94451
l 659 660
v -35.710213 -4.5112491 11.94451
v -35.710213 -4.5112491 11.94451
l 661 662
v -35.923012 -2.2600842 11.94451
v -35.923012 -2.2600842 11.94451
l 663 664
v -35.994038 0 11.94451
v -35.994038 0 11.94451
l 665 666
v -17.34026 -31.541815 11.94451
v -17.34026 -31.541815 11.94451
l 667 668
v -15.325516 -32.568378 11.94451
v -15.325516 -32.568378 11.94451
l 669 670
v -13.250289 -33.466408 11.94451
v -13.250289 -33.466408 11.94451
l 671 672
v -11.122769 -34.232365 11.94451
v -11.122769 -34.232365 11.94451
l 673 674
v -8.9513531 -34.863216 11.94451
v -8.9513531 -34.863216 11.94451
l 675 676
v -6.7446098 -35.356483 11.94451
v -6.7446098 -35.356483 11.94451
l 677 678
v -4.5112491 -35.710213 11.94451
v -4.5112491 -35.710213 11.94451
l 679 680
v -2.2600842 -35.923012 11.94451
v -2.2600842 -35.923012 11.94451
l 681 682
v 0 -35.994038 11.94451
v 0 -35.994038 11.94451
l 683 684
v -35.923012 2.2600842 11.94451
v -35.923012 2.2600842 11.94451
l 685 686
v -35.710213 4.5112491 11.94451
v -35.710213 4.5112491 11.94451
l 687 688
v -35.356483 6.7446098 11.94451
v -35.356483 6.7446098 11.94451
l 689 690
v -34.863216 8.9513531 11.94451
v -34.863216 8.9513531 11.94451
l 691 692
v -34.232365 11.122769 11.94451
v -34.232365 11.122769 11.94451
l 693 694
v -33.466408 13.250289 11.94451
v -33.466408 13.250289 11.94451
l 695 696
v -32.568378 15.325516 11.94451
v -32.568378 15.325516 11.94451
l 697 698
v -31.541815 17.34026 11.94451
v -31.541815 17.34026 11.94451
l 699 700
v -30.39077 19.28657 11.94451
v -30.39077 19.28657 11.94451
l 701 702
v -29.119787 21.156763 11.94451
v -29.119787 21.156763 11.94451
l 703 704
v -27.733883 22.943462 11.94451
v -27.733883 22.943462 11.94451
l 705 706
v -26.238523 24.639614 11.94451
v -26.238523 24.639614 11.94451
l 707 708
v -24.639614 26.238523 11.94451
v -24.639614 26.238523 11.94451
l 709 710
v -22.943462 27.733883 11.94451
v -22.943462 27.733883 11.94451
l 711 712
v -21.156763 29.119787 11.94451
v -21.156763 29.119787 11.94451
l 713 714
v -19.28657 30.39077 11.94451
v -19.28657 30.39077 11.94451
l 715 716
v -17.34026 31.541815 11.94451
v -17.34026 31.541815 11.94451
l 717 718
v -15.325516 32.568378 11.94451
v -15.325516 32.568378 11.94451
l 719 720
v -13.250289 33.466408 11.94451
v -13.250289 33.466408 11.94451
l 721 722
v -11.122769 34.232365 11.94451
v -11.122769 34.232365 11.94451
l 723 724
v -8.9513531 34.863216 11.94451
v -8.9513531 34.863216 11.94451
l 725 726
v -6.7446098 35.356483 11.94451
v -6.7446098 35.356483 11.94451
l 727 728
v -4.5112491 35.710213 11.94451
v -4.5112491 35.710213 11.94451
l 729 730
v -2.2600842 35.923012 11.94451
v -2.2600842 35.923012 11.94451
l 731 732
v 0 35.994038 11.94451
v 0 35.994038 11.94451
l 733 734
v 2.2600842 -35.923012 11.94451
v 2.2600842 -35.923012 11.94451
l 735 736
v 4.5112491 -35.710213 11.94451
v 4.5112491 -35.710213 11.94451
l 737 738
v 6.7446098 -35.356483 11.94451
v 6.7446098 -35.356483 11.94451
l 739 740
v 8.9513531 -34.863216 11.94451
v 8.9513531 -34.863216 11.94451
l 741 742
v 11.122769 -34.232365 11.94451
v 11.122769 -34.232365 11.94451
l 743 744
v 13.250289 -33.466408 11.94451
v 13.250289 -33.466408 11.94451
l 745 746
v 15.325516 -32.568378 11.94451
v 15.325516 -32.568378 11.94451
l 747 748
v 17.34026 -31.541815 11.94451
v 17.34026 -31.541815 11.94451
l 749 750
v 19.28657 -30.39077 11.94451
v 19.28657 -30.39077 11.94451
l 751 752
v 21.156763 -29.119787 11.94451
v 21.156763 -29.119787 11.94451
l 753 754
v 22.943462 -27.733883 11.94451
v 22.943462 -27.733883 11.94451
l 755 756
v 24.639614 -26.238523 11.94451
v 24.639614 -26.238523 11.94451
l 757 758
v 26.238523 -24.639614 11.94451
v 26.238523 -24.639614 11.94451
l 759 760
v 27.733883 -22.943462 11.94451
v 27.733883 -22.943462 11.94451
l 761 762
v 29.119787 -21.156763 11.94451
v 29.119787 -21.156763 11.94451
l 763 764
v 30.39077 -19.28657 11.94451
v 30.39077 -19.28657 11.94451
l 765 766
v 31.541815 -17.34026 11.94451
v 31.541815 -17.34026 11.94451
l 767 768
v 32.568378 -15.325516 11.94451
v 32.568378 -15.325516 11.94451
l 769 770
v 33.466408 -13.250289 11.94451
v 33.466408 -13.250289 11.94451
l 771 772
v 34.232365 -11.122769 11.94451
v 34.232365 -11.122769 11.94451
l 773 774
v 34.863216 -8.9513531 11.94451
v 34.863216 -8.9513531 11.94451
l 775 776
v 35.356483 -6.7446098 11.94451
v 35.356483 -6.7446098 11.94451
l 777 778
v 35.710213 -4.5112491 11.94451
v 35.710213 -4.5112491 11.94451
l 779 780
v 35.923012 -2.2600842 11.94451
v 35.923012 -2.2600842 11.94451
l 781 782
v 35.994038 0 11.94451
v 35.994038 0 11.94451
l 783 784
v 2.2600842 35.923012 11.94451
v 2.2600842 35.923012 11.94451
l 785 786
v 4.5112491 35.710213 11.94451
v 4.5112491 35.710213 11.94451
l 787 788
v 6.7446098 35.356483 11.94451
v 6.7446098 35.356483 11.94451
l 789 790
v 8.9513531 34.863216 11.94451
v 8.9513531 34.863216 11.94451
l 791 792
v 11.122769 34.232365 11.94451
v 11.122769 34.232365 11.94451
l 793 794
v 13.250289 33.466408 11.94451
v 13.250289 33.466408 11.94451
l 795 796
v 17.34026 31.541815 11.94451
v 17.34026 31.541815 11.94451
l 797 798
v 15.325516 32.568378 11.94451
v 15.325516 32.568378 11.94451
l 799 800
v 35.923012 2.2600842 11.94451
v 35.923012 2.2600842 11.94451
l 801 802
v 35.710213 4.5112491 11.94451
v 35.710213 4.5112491 11.94451
l 803 804
v 35.356483 6.7446098 11.94451
v 35.356483 6.7446098 11.94451
l 805 806
v 34.863216 8.9513531 11.94451
v 34.863216 8.9513531 11.94451
l 807 808
v 31.541815 17.34026 11.94451
v 31.541815 17.34026 11.94451
l 809 810
v 33.466408 13.250289 11.94451
v 33.466408 13.250289 11.94451
l 811 812
v 34.232365 11.122769 11.94451
v 34.232365 11.122769 11.94451
l 813 814
v 32.568378 15.325516 11.94451
v 32.568378 15.325516 11.94451
l 815 816
v 24.639614 26.238523 11.94451
v 24.639614 26.238523 11.94451
l 817 818
v 26.238523 24.639614 11.94451
v 26.238523 24.639614 11.94451
l 819 820
v 19.28657 30.39077 11.94451
v 19.28657 30.39077 11.94451
l 821 822
v 21.156763 29.119787 11.94451
v 21.156763 29.119787 11.94451
l 823 824
v 22.943462 27.733883 11.94451
v 22.943462 27.733883 11.94451
l 825 826
v 29.119787 21.156763 11.94451
v 29.119787 21.156763 11.94451
l 827 828
v 27.733883 22.943462 11.94451
v 27.733883 22.943462 11.94451
l 829 830
v 30.39077 19.28657 11.94451
v 30.39077 19.28657 11.94451
l 831 832
