v -29.013319 -24.001905 11.94451
v -27.448977 -25.776304 11.94451
l 1 2
v -22.132782 -30.46316 11.94451
v -20.17631 -31.792776 11.94451
l 3 4
v -24.001905 -29.013319 11.94451
v -22.132782 -30.46316 11.94451
l 5 6
v -27.448977 -25.776304 11.94451
v -25.776304 -27.448977 11.94451
l 7 8
v -25.776304 -27.448977 11.94451
v -24.001905 -29.013319 11.94451
l 9 10
v -35.010303 -13.86156 11.94451
v -34.070843 -16.032522 11.94451
l 11 12
v -35.811592 -11.635892 11.94451
v -35.010303 -13.86156 11.94451
l 13 14
v -36.987572 -7.0557566 11.94451
v -36.47155 -9.3643026 11.94451
l 15 16
v -37.35762 -4.7193646 11.94451
v -36.987572 -7.0557566 11.94451
l 17 18
v -36.47155 -9.3643026 11.94451
v -35.811592 -11.635892 11.94451
l 19 20
v -37.580235 -2.3643479 11.94451
v -37.35762 -4.7193646 11.94451
l 21 22
v -37.654537 0 11.94451
v -37.580235 -2.3643479 11.94451
l 23 24
v -31.792776 -20.17631 11.94451
v -30.46316 -22.132782 11.94451
l 25 26
v -32.996922 -18.140211 11.94451
v -31.792776 -20.17631 11.94451
l 27 28
v -30.46316 -22.132782 11.94451
v -29.013319 -24.001905 11.94451
l 29 30
v -34.070843 -16.032522 11.94451
v -32.996922 -18.140211 11.94451
l 31 32
v -16.032522 -34.070843 11.94451
v -13.86156 -35.010303 11.94451
l 33 34
v -20.17631 -31.792776 11.94451
v -18.140211 -32.996922 11.94451
l 35 36
v -18.140211 -32.996922 11.94451
v -16.032522 -34.070843 11.94451
l 37 38
v -13.86156 -35.010303 11.94451
v -11.635892 -35.811592 11.94451
l 39 40
v -11.635892 -35.811592 11.94451
v -9.3643026 -36.47155 11.94451
l 41 42
v -9.3643026 -36.47155 11.94451
v -7.0557566 -36.987572 11.94451
l 43 44
v -7.0557566 -36.987572 11.94451
v -4.7193646 -37.35762 11.94451
l 45 46
v -4.7193646 -37.35762 11.94451
v -2.3643479 -37.580235 11.94451
l 47 48
v -2.3643479 -37.580235 11.94451
v 0 -37.654537 11.94451
l 49 50
v -13.004018 -23.654221 35.704319
v -13.159693 -23.569952 35.689354
l 51 52
v -15.759769 -20.989687 37.343983
v -15.780581 -20.938452 37.405811
l 53 54
v -15.863744 -20.675152 37.756039
v -15.890063 -20.552027 37.936993
l 55 56
v -12.0841 -23.989759 35.968906
v -11.993365 -23.702917 36.630608
l 57 58
v -12.430967 -23.88282 35.830242
v -11.776079 -21.420609 41.384708
l 59 60
v -14.667795 -19.764885 40.994095
v -14.804626 -19.729479 40.86948
l 61 62
v -9.6432848 -15.195385 52.052151
v -10.578382 -14.559894 52.052151
l 63 64
v -17.116182 -5.5613847 52.052151
v -17.431608 -4.4756765 52.052151
l 65 66
v -17.431608 -4.4756765 52.052151
v -17.678242 -3.3723049 52.052151
l 67 68
v -17.678242 -3.3723049 52.052151
v -17.855106 -2.2556245 52.052151
l 69 70
v -17.855106 -2.2556245 52.052151
v -17.961506 -1.1300421 52.052151
l 71 72
v -8.6701298 -15.770907 52.052151
v -9.6432848 -15.195385 52.052151
l 73 74
v -7.6627579 -16.284189 52.052151
v -8.6701298 -15.770907 52.052151
l 75 76
v -6.6251445 -16.733204 52.052151
v -7.6627579 -16.284189 52.052151
l 77 78
v -4.4756765 -17.431608 52.052151
v -5.5613847 -17.116182 52.052151
l 79 80
v -5.5613847 -17.116182 52.052151
v -6.6251445 -16.733204 52.052151
l 81 82
v -3.3723049 -17.678242 52.052151
v -4.4756765 -17.431608 52.052151
l 83 84
v -2.2556245 -17.855106 52.052151
v -3.3723049 -17.678242 52.052151
l 85 86
v -1.1300421 -17.961506 52.052151
v -2.2556245 -17.855106 52.052151
l 87 88
v 1.524679e-14 -17.997019 52.052151
v -1.1300421 -17.961506 52.052151
l 89 90
v -37.580235 2.3643479 11.94451
v -37.654537 0 11.94451
l 91 92
v -37.35762 4.7193646 11.94451
v -37.580235 2.3643479 11.94451
l 93 94
v -36.987572 7.0557566 11.94451
v -37.35762 4.7193646 11.94451
l 95 96
v -36.47155 9.3643026 11.94451
v -36.987572 7.0557566 11.94451
l 97 98
v -35.811592 11.635892 11.94451
v -36.47155 9.3643026 11.94451
l 99 100
v -35.010303 13.86156 11.94451
v -35.811592 11.635892 11.94451
l 101 102
v -34.070843 16.032522 11.94451
v -35.010303 13.86156 11.94451
l 103 104
v -32.996922 18.140211 11.94451
v -34.070843 16.032522 11.94451
l 105 106
v -31.792776 20.17631 11.94451
v -32.996922 18.140211 11.94451
l 107 108
v -30.46316 22.132782 11.94451
v -31.792776 20.17631 11.94451
l 109 110
v -29.013319 24.001905 11.94451
v -30.46316 22.132782 11.94451
l 111 112
v -27.448977 25.776304 11.94451
v -29.013319 24.001905 11.94451
l 113 114
v -25.776304 27.448977 11.94451
v -27.448977 25.776304 11.94451
l 115 116
v -24.001905 29.013319 11.94451
v -25.776304 27.448977 11.94451
l 117 118
v -22.132782 30.46316 11.94451
v -24.001905 29.013319 11.94451
l 119 120
v -20.17631 31.792776 11.94451
v -22.132782 30.46316 11.94451
l 121 122
v -18.140211 32.996922 11.94451
v -20.17631 31.792776 11.94451
l 123 124
v -16.032522 34.070843 11.94451
v -18.140211 32.996922 11.94451
l 125 126
v -11.635892 35.811592 11.94451
v -13.86156 35.010303 11.94451
l 127 128
v -13.86156 35.010303 11.94451
v -16.032522 34.070843 11.94451
l 129 130
v -9.3643026 36.47155 11.94451
v -11.635892 35.811592 11.94451
l 131 132
v -7.0557566 36.987572 11.94451
v -9.3643026 36.47155 11.94451
l 133 134
v -4.7193646 37.35762 11.94451
v -7.0557566 36.987572 11.94451
l 135 136
v -2.3643479 37.580235 11.94451
v -4.7193646 37.35762 11.94451
l 137 138
v 0 37.654537 11.94451
v -2.3643479 37.580235 11.94451
l 139 140
v -17.961506 -1.1300421 52.052151
v -17.991804 -0.16591954 52.052151
l 141 142
v -17.997019 -2.09665e-14 52.052151
v -17.961506 1.1300421 52.052151
l 143 144
v -17.961506 1.1300421 52.052151
v -17.855106 2.2556245 52.052151
l 145 146
v -17.855106 2.2556245 52.052151
v -17.678242 3.3723049 52.052151
l 147 148
v -17.678242 3.3723049 52.052151
v -17.442104 4.4287243 52.052151
l 149 150
v -17.442104 4.4287243 52.052151
v -17.431608 4.4756765 52.052151
l 151 152
v -17.431608 4.4756765 52.052151
v -17.116182 5.5613847 52.052151
l 153 154
v -16.733204 6.6251445 52.052151
v -16.284189 7.6627579 52.052151
l 155 156
v -16.284189 7.6627579 52.052151
v -15.770907 8.6701298 52.052151
l 157 158
v -15.770907 8.6701298 52.052151
v -15.195385 9.6432848 52.052151
l 159 160
v -15.195385 9.6432848 52.052151
v -14.559894 10.578382 52.052151
l 161 162
v -10.578382 14.559894 52.052151
v -9.6432848 15.195385 52.052151
l 163 164
v -9.6432848 15.195385 52.052151
v -8.6701298 15.770907 52.052151
l 165 166
v -7.6627579 16.284189 52.052151
v -6.6251445 16.733204 52.052151
l 167 168
v -6.6251445 16.733204 52.052151
v -5.5613847 17.116182 52.052151
l 169 170
v -5.5613847 17.116182 52.052151
v -4.4756765 17.431608 52.052151
l 171 172
v -2.8139648 17.766674 52.052151
v -2.2556245 17.855106 52.052151
l 173 174
v -2.2556245 17.855106 52.052151
v -1.1300421 17.961506 52.052151
l 175 176
v -1.1300421 17.961506 52.052151
v -1.524679e-14 17.997019 52.052151
l 177 178
v -10.345237 23.465178 38.682938
v -10.35393 23.553455 38.494598
l 179 180
v 0 -37.654537 11.94451
v 2.3643479 -37.580235 11.94451
l 181 182
v 2.3643479 -37.580235 11.94451
v 4.7193646 -37.35762 11.94451
l 183 184
v 4.7193646 -37.35762 11.94451
v 7.0557566 -36.987572 11.94451
l 185 186
v 7.0557566 -36.987572 11.94451
v 9.3643026 -36.47155 11.94451
l 187 188
v 9.3643026 -36.47155 11.94451
v 11.635892 -35.811592 11.94451
l 189 190
v 13.86156 -35.010303 11.94451
v 16.032522 -34.070843 11.94451
l 191 192
v 11.635892 -35.811592 11.94451
v 13.86156 -35.010303 11.94451
l 193 194
v 16.032522 -34.070843 11.94451
v 18.140211 -32.996922 11.94451
l 195 196
v 18.140211 -32.996922 11.94451
v 20.17631 -31.792776 11.94451
l 197 198
v 20.17631 -31.792776 11.94451
v 22.132782 -30.46316 11.94451
l 199 200
v 22.132782 -30.46316 11.94451
v 24.001905 -29.013319 11.94451
l 201 202
v 24.001905 -29.013319 11.94451
v 25.776304 -27.448977 11.94451
l 203 204
v 25.776304 -27.448977 11.94451
v 27.448977 -25.776304 11.94451
l 205 206
v 27.448977 -25.776304 11.94451
v 29.013319 -24.001905 11.94451
l 207 208
v 29.013319 -24.001905 11.94451
v 30.46316 -22.132782 11.94451
l 209 210
v 30.46316 -22.132782 11.94451
v 31.792776 -20.17631 11.94451
l 211 212
v 31.792776 -20.17631 11.94451
v 32.996922 -18.140211 11.94451
l 213 214
v 32.996922 -18.140211 11.94451
v 34.070843 -16.032522 11.94451
l 215 216
v 34.070843 -16.032522 11.94451
v 35.010303 -13.86156 11.94451
l 217 218
v 35.010303 -13.86156 11.94451
v 35.811592 -11.635892 11.94451
l 219 220
v 35.811592 -11.635892 11.94451
v 36.47155 -9.3643026 11.94451
l 221 222
v 36.47155 -9.3643026 11.94451
v 36.987572 -7.0557566 11.94451
l 223 224
v 36.987572 -7.0557566 11.94451
v 37.35762 -4.7193646 11.94451
l 225 226
v 37.35762 -4.7193646 11.94451
v 37.580235 -2.3643479 11.94451
l 227 228
v 37.580235 -2.3643479 11.94451
v 37.654537 0 11.94451
l 229 230
v 13.344691 -23.463629 35.683434
v 13.159693 -23.569952 35.689354
l 231 232
v 15.827201 -20.804129 37.578747
v 15.780581 -20.938452 37.405811
l 233 234
v 10.72279 -22.508242 40.290154
v 10.647083 -22.626204 40.132435
l 235 236
v 15.827201 -20.804129 37.578747
v 15.178744 -19.679653 40.446003
l 237 238
v 1.1300421 -17.961506 52.052151
v 1.524679e-14 -17.997019 52.052151
l 239 240
v 2.2556245 -17.855106 52.052151
v 1.1300421 -17.961506 52.052151
l 241 242
v 3.3723049 -17.678242 52.052151
v 2.2556245 -17.855106 52.052151
l 243 244
v 6.6251445 -16.733204 52.052151
v 5.5613847 -17.116182 52.052151
l 245 246
v 7.6627579 -16.284189 52.052151
v 6.6251445 -16.733204 52.052151
l 247 248
v 8.6701298 -15.770907 52.052151
v 7.6627579 -16.284189 52.052151
l 249 250
v 14.804626 -19.729479 40.86948
v 14.935736 -19.703409 40.73624
l 251 252
v 9.6432848 -15.195385 52.052151
v 8.6701298 -15.770907 52.052151
l 253 254
v 10.578382 -14.559894 52.052151
v 9.6432848 -15.195385 52.052151
l 255 256
v 12.319807 -13.119262 52.052151
v 11.471731 -13.866941 52.052151
l 257 258
v 13.866941 -11.471731 52.052151
v 13.119262 -12.319807 52.052151
l 259 260
v 14.559894 -10.578382 52.052151
v 13.866941 -11.471731 52.052151
l 261 262
v 15.770907 -8.6701298 52.052151
v 15.195385 -9.6432848 52.052151
l 263 264
v 16.733204 -6.6251445 52.052151
v 16.284189 -7.6627579 52.052151
l 265 266
v 17.116182 -5.5613847 52.052151
v 16.733204 -6.6251445 52.052151
l 267 268
v 17.431608 -4.4756765 52.052151
v 17.116182 -5.5613847 52.052151
l 269 270
v 17.678242 -3.3723049 52.052151
v 17.431608 -4.4756765 52.052151
l 271 272
v 17.855106 -2.2556245 52.052151
v 17.678242 -3.3723049 52.052151
l 273 274
v 17.961506 -1.1300421 52.052151
v 17.855106 -2.2556245 52.052151
l 275 276
v 17.997019 2.09665e-14 52.052151
v 17.961506 -1.1300421 52.052151
l 277 278
v 17.961506 1.1300421 52.052151
v 17.991804 0.16591954 52.052151
l 279 280
v 2.3643479 37.580235 11.94451
v 0 37.654537 11.94451
l 281 282
v 4.7193646 37.35762 11.94451
v 2.3643479 37.580235 11.94451
l 283 284
v 7.0557566 36.987572 11.94451
v 4.7193646 37.35762 11.94451
l 285 286
v 9.3643026 36.47155 11.94451
v 7.0557566 36.987572 11.94451
l 287 288
v 11.635892 35.811592 11.94451
v 9.3643026 36.47155 11.94451
l 289 290
v 13.86156 35.010303 11.94451
v 11.635892 35.811592 11.94451
l 291 292
v 18.140211 32.996922 11.94451
v 16.032522 34.070843 11.94451
l 293 294
v 20.17631 31.792776 11.94451
v 18.140211 32.996922 11.94451
l 295 296
v 16.032522 34.070843 11.94451
v 13.86156 35.010303 11.94451
l 297 298
v 34.070843 16.032522 11.94451
v 32.996922 18.140211 11.94451
l 299 300
v 30.46316 22.132782 11.94451
v 29.013319 24.001905 11.94451
l 301 302
v 32.996922 18.140211 11.94451
v 31.792776 20.17631 11.94451
l 303 304
v 31.792776 20.17631 11.94451
v 30.46316 22.132782 11.94451
l 305 306
v 37.654537 0 11.94451
v 37.580235 2.3643479 11.94451
l 307 308
v 37.580235 2.3643479 11.94451
v 37.35762 4.7193646 11.94451
l 309 310
v 36.47155 9.3643026 11.94451
v 35.811592 11.635892 11.94451
l 311 312
v 37.35762 4.7193646 11.94451
v 36.987572 7.0557566 11.94451
l 313 314
v 36.987572 7.0557566 11.94451
v 36.47155 9.3643026 11.94451
l 315 316
v 35.811592 11.635892 11.94451
v 35.010303 13.86156 11.94451
l 317 318
v 35.010303 13.86156 11.94451
v 34.070843 16.032522 11.94451
l 319 320
v 25.776304 27.448977 11.94451
v 24.001905 29.013319 11.94451
l 321 322
v 27.448977 25.776304 11.94451
v 25.776304 27.448977 11.94451
l 323 324
v 24.001905 29.013319 11.94451
v 22.132782 30.46316 11.94451
l 325 326
v 22.132782 30.46316 11.94451
v 20.17631 31.792776 11.94451
l 327 328
v 29.013319 24.001905 11.94451
v 27.448977 25.776304 11.94451
l 329 330
v -1.524679e-14 17.997019 52.052151
v 1.1300421 17.961506 52.052151
l 331 332
v 1.1300421 17.961506 52.052151
v 2.2556245 17.855106 52.052151
l 333 334
v 2.2556245 17.855106 52.052151
v 3.0000782 17.737196 52.052151
l 335 336
v 5.5613847 17.116182 52.052151
v 6.6251445 16.733204 52.052151
l 337 338
v 4.4756765 17.431608 52.052151
v 5.5613847 17.116182 52.052151
l 339 340
v 7.6627579 16.284189 52.052151
v 8.6701298 15.770907 52.052151
l 341 342
v 8.6701298 15.770907 52.052151
v 9.6432848 15.195385 52.052151
l 343 344
v 17.855106 2.2556245 52.052151
v 17.961506 1.1300421 52.052151
l 345 346
v 17.678242 3.3723049 52.052151
v 17.855106 2.2556245 52.052151
l 347 348
v 17.116182 5.5613847 52.052151
v 17.431608 4.4756765 52.052151
l 349 350
v 10.578382 14.559894 52.052151
v 11.471731 13.866941 52.052151
l 351 352
v 12.319807 13.119262 52.052151
v 13.119262 12.319807 52.052151
l 353 354
v 11.471731 13.866941 52.052151
v 12.319807 13.119262 52.052151
l 355 356
v 13.119262 12.319807 52.052151
v 13.866941 11.471731 52.052151
l 357 358
v 9.6432848 15.195385 52.052151
v 10.578382 14.559894 52.052151
l 359 360
v 14.559894 10.578382 52.052151
v 15.195385 9.6432848 52.052151
l 361 362
v 15.195385 9.6432848 52.052151
v 15.770907 8.6701298 52.052151
l 363 364
v 15.906057 20.43524 38.120888
v 15.911663 20.325253 38.306999
l 365 366
v 10.72279 22.508242 40.290154
v 10.810472 22.385117 40.446003
l 367 368
v -26.238523 -24.639614 11.94451
v -27.733883 -22.943462 11.94451
l 369 370
v -24.639614 -26.238523 11.94451
v -26.238523 -24.639614 11.94451
l 371 372
v -22.943462 -27.733883 11.94451
v -24.639614 -26.238523 11.94451
l 373 374
v -33.466408 -13.250289 11.94451
v -34.232365 -11.122769 11.94451
l 375 376
v -34.232365 -11.122769 11.94451
v -34.863216 -8.9513531 11.94451
l 377 378
v -34.863216 -8.9513531 11.94451
v -35.356483 -6.7446098 11.94451
l 379 380
v -35.356483 -6.7446098 11.94451
v -35.710213 -4.5112491 11.94451
l 381 382
v -35.710213 -4.5112491 11.94451
v -35.923012 -2.2600842 11.94451
l 383 384
v -35.923012 -2.2600842 11.94451
v -35.994038 0 11.94451
l 385 386
v -30.39077 -19.28657 11.94451
v -31.541815 -17.34026 11.94451
l 387 388
v -27.733883 -22.943462 11.94451
v -29.119787 -21.156763 11.94451
l 389 390
v -29.119787 -21.156763 11.94451
v -30.39077 -19.28657 11.94451
l 391 392
v -31.541815 -17.34026 11.94451
v -32.568378 -15.325516 11.94451
l 393 394
v -32.568378 -15.325516 11.94451
v -33.466408 -13.250289 11.94451
l 395 396
v -17.34026 -31.541815 11.94451
v -19.28657 -30.39077 11.94451
l 397 398
v -21.156763 -29.119787 11.94451
v -22.943462 -27.733883 11.94451
l 399 400
v -19.28657 -30.39077 11.94451
v -21.156763 -29.119787 11.94451
l 401 402
v -13.250289 -33.466408 11.94451
v -15.325516 -32.568378 11.94451
l 403 404
v -15.325516 -32.568378 11.94451
v -17.34026 -31.541815 11.94451
l 405 406
v -11.122769 -34.232365 11.94451
v -13.250289 -33.466408 11.94451
l 407 408
v -8.9513531 -34.863216 11.94451
v -11.122769 -34.232365 11.94451
l 409 410
v -6.7446098 -35.356483 11.94451
v -8.9513531 -34.863216 11.94451
l 411 412
v -4.5112491 -35.710213 11.94451
v -6.7446098 -35.356483 11.94451
l 413 414
v -2.2600842 -35.923012 11.94451
v -4.5112491 -35.710213 11.94451
l 415 416
v 0 -35.994038 11.94451
v -2.2600842 -35.923012 11.94451
l 417 418
v -19.117044 0 49.556095
v -17.961506 -1.1300421 52.052151
l 419 420
v -10.243424 -16.141054 49.556095
v -9.2097063 -16.752394 49.556095
l 421 422
v -5.5613847 -17.116182 52.052151
v -5.7490029 -18.098396 49.832386
l 423 424
v -3.443186 -18.800442 49.556095
v -2.2556245 -17.855106 52.052151
l 425 426
v -10.243424 -16.141054 49.556095
v -9.6432848 -15.195385 52.052151
l 427 428
v -8.6701298 -15.770907 52.052151
v -9.0384731 -16.700567 49.832386
l 429 430
v -9.2097063 -16.752394 49.556095
v -8.6701298 -15.770907 52.052151
l 431 432
v -8.1251907 -17.266909 49.631733
v -7.6627579 -16.284189 52.052151
l 433 434
v -7.6627579 -16.284189 52.052151
v -7.9720011 -17.235144 49.832386
l 435 436
v 1.524679e-14 -17.997019 52.052151
v 0 -19.117044 49.556095
l 437 438
v -35.994038 0 11.94451
v -35.923012 2.2600842 11.94451
l 439 440
v -35.923012 2.2600842 11.94451
v -35.710213 4.5112491 11.94451
l 441 442
v -35.710213 4.5112491 11.94451
v -35.356483 6.7446098 11.94451
l 443 444
v -35.356483 6.7446098 11.94451
v -34.863216 8.9513531 11.94451
l 445 446
v -34.863216 8.9513531 11.94451
v -34.232365 11.122769 11.94451
l 447 448
v -34.232365 11.122769 11.94451
v -33.466408 13.250289 11.94451
l 449 450
v -33.466408 13.250289 11.94451
v -32.568378 15.325516 11.94451
l 451 452
v -32.568378 15.325516 11.94451
v -31.541815 17.34026 11.94451
l 453 454
v -31.541815 17.34026 11.94451
v -30.39077 19.28657 11.94451
l 455 456
v -30.39077 19.28657 11.94451
v -29.119787 21.156763 11.94451
l 457 458
v -29.119787 21.156763 11.94451
v -27.733883 22.943462 11.94451
l 459 460
v -27.733883 22.943462 11.94451
v -26.238523 24.639614 11.94451
l 461 462
v -26.238523 24.639614 11.94451
v -24.639614 26.238523 11.94451
l 463 464
v -24.639614 26.238523 11.94451
v -22.943462 27.733883 11.94451
l 465 466
v -22.943462 27.733883 11.94451
v -21.156763 29.119787 11.94451
l 467 468
v -21.156763 29.119787 11.94451
v -19.28657 30.39077 11.94451
l 469 470
v -19.28657 30.39077 11.94451
v -17.34026 31.541815 11.94451
l 471 472
v -17.34026 31.541815 11.94451
v -15.325516 32.568378 11.94451
l 473 474
v -15.325516 32.568378 11.94451
v -13.250289 33.466408 11.94451
l 475 476
v -13.250289 33.466408 11.94451
v -11.122769 34.232365 11.94451
l 477 478
v -11.122769 34.232365 11.94451
v -8.9513531 34.863216 11.94451
l 479 480
v -8.9513531 34.863216 11.94451
v -6.7446098 35.356483 11.94451
l 481 482
v -6.7446098 35.356483 11.94451
v -4.5112491 35.710213 11.94451
l 483 484
v -4.5112491 35.710213 11.94451
v -2.2600842 35.923012 11.94451
l 485 486
v -2.2600842 35.923012 11.94451
v 0 35.994038 11.94451
l 487 488
v -16.81628 9.084321 49.556095
v -16.284189 7.6627579 52.052151
l 489 490
v -18.676226 3.4353402 49.832386
v -17.855106 2.2556245 52.052151
l 491 492
v -17.678242 3.3723049 52.052151
v -18.676226 3.4353402 49.832386
l 493 494
v -18.778429 3.5821767 49.556095
v -17.678242 3.3723049 52.052151
l 495 496
v -9.6432848 15.195385 52.052151
v -10.243424 16.141054 49.556095
l 497 498
v -9.2097063 16.752394 49.556095
v -9.6432848 15.195385 52.052151
l 499 500
v -10.243424 16.141054 49.556095
v -9.2097063 16.752394 49.556095
l 501 502
v -5.5613847 17.116182 52.052151
v -5.7723556 18.22065 49.556095
l 503 504
v -2.3960009 18.966301 49.556095
v -2.2556245 17.855106 52.052151
l 505 506
v -1.2003691 19.079321 49.556095
v -2.2556245 17.855106 52.052151
l 507 508
v -2.3960009 18.966301 49.556095
v -1.2003691 19.079321 49.556095
l 509 510
v -1.2003691 19.079321 49.556095
v 0 19.117044 49.556095
l 511 512
v -1.2003691 19.079321 49.556095
v -1.1300421 17.961506 52.052151
l 513 514
v 2.2600842 -35.923012 11.94451
v 0 -35.994038 11.94451
l 515 516
v 4.5112491 -35.710213 11.94451
v 2.2600842 -35.923012 11.94451
l 517 518
v 6.7446098 -35.356483 11.94451
v 4.5112491 -35.710213 11.94451
l 519 520
v 8.9513531 -34.863216 11.94451
v 6.7446098 -35.356483 11.94451
l 521 522
v 11.122769 -34.232365 11.94451
v 8.9513531 -34.863216 11.94451
l 523 524
v 13.250289 -33.466408 11.94451
v 11.122769 -34.232365 11.94451
l 525 526
v 15.325516 -32.568378 11.94451
v 13.250289 -33.466408 11.94451
l 527 528
v 17.34026 -31.541815 11.94451
v 15.325516 -32.568378 11.94451
l 529 530
v 19.28657 -30.39077 11.94451
v 17.34026 -31.541815 11.94451
l 531 532
v 21.156763 -29.119787 11.94451
v 19.28657 -30.39077 11.94451
l 533 534
v 22.943462 -27.733883 11.94451
v 21.156763 -29.119787 11.94451
l 535 536
v 24.639614 -26.238523 11.94451
v 22.943462 -27.733883 11.94451
l 537 538
v 26.238523 -24.639614 11.94451
v 24.639614 -26.238523 11.94451
l 539 540
v 27.733883 -22.943462 11.94451
v 26.238523 -24.639614 11.94451
l 541 542
v 29.119787 -21.156763 11.94451
v 27.733883 -22.943462 11.94451
l 543 544
v 30.39077 -19.28657 11.94451
v 29.119787 -21.156763 11.94451
l 545 546
v 31.541815 -17.34026 11.94451
v 30.39077 -19.28657 11.94451
l 547 548
v 32.568378 -15.325516 11.94451
v 31.541815 -17.34026 11.94451
l 549 550
v 33.466408 -13.250289 11.94451
v 32.568378 -15.325516 11.94451
l 551 552
v 34.232365 -11.122769 11.94451
v 33.466408 -13.250289 11.94451
l 553 554
v 34.863216 -8.9513531 11.94451
v 34.232365 -11.122769 11.94451
l 555 556
v 35.356483 -6.7446098 11.94451
v 34.863216 -8.9513531 11.94451
l 557 558
v 35.710213 -4.5112491 11.94451
v 35.356483 -6.7446098 11.94451
l 559 560
v 35.923012 -2.2600842 11.94451
v 35.710213 -4.5112491 11.94451
l 561 562
v 35.994038 0 11.94451
v 35.923012 -2.2600842 11.94451
l 563 564
v 0 -19.117044 49.556095
v 1.1300421 -17.961506 52.052151
l 565 566
v 7.0374532 -17.774578 49.556095
v 8.1396418 -17.297619 49.556095
l 567 568
v 8.1396418 -17.297619 49.556095
v 9.2097063 -16.752394 49.556095
l 569 570
v 9.2097063 -16.752394 49.556095
v 9.6432848 -15.195385 52.052151
l 571 572
v 14.028787 -12.980959 49.556095
v 13.866941 -11.471731 52.052151
l 573 574
v 13.866941 -11.471731 52.052151
v 14.711113 -12.007751 49.832386
l 575 576
v 7.0374532 -17.774578 49.556095
v 7.6627579 -16.284189 52.052151
l 577 578
v 7.6627579 -16.284189 52.052151
v 8.1396418 -17.297619 49.556095
l 579 580
v 8.1396418 -17.297619 49.556095
v 8.6701298 -15.770907 52.052151
l 581 582
v 8.6701298 -15.770907 52.052151
v 9.2097063 -16.752394 49.556095
l 583 584
v 18.181389 -5.9074912 49.556095
v 17.116182 -5.5613847 52.052151
l 585 586
v 18.516447 -4.7542152 49.556095
v 18.181389 -5.9074912 49.556095
l 587 588
v 18.516447 -4.7542152 49.556095
v 17.431608 -4.4756765 52.052151
l 589 590
v 17.431608 -4.4756765 52.052151
v 18.423666 -4.6012511 49.832386
l 591 592
v 18.423666 -4.6012511 49.832386
v 17.678242 -3.3723049 52.052151
l 593 594
v 17.678242 -3.3723049 52.052151
v 18.778429 -3.5821767 49.556095
l 595 596
v 17.678242 -3.3723049 52.052151
v 18.676226 -3.4353402 49.832386
l 597 598
v 18.676226 -3.4353402 49.832386
v 17.855106 -2.2556245 52.052151
l 599 600
v 2.2600842 35.923012 11.94451
v 4.5112491 35.710213 11.94451
l 601 602
v 4.5112491 35.710213 11.94451
v 6.7446098 35.356483 11.94451
l 603 604
v 6.7446098 35.356483 11.94451
v 8.9513531 34.863216 11.94451
l 605 606
v 8.9513531 34.863216 11.94451
v 11.122769 34.232365 11.94451
l 607 608
v 0 35.994038 11.94451
v 2.2600842 35.923012 11.94451
l 609 610
v 11.122769 34.232365 11.94451
v 13.250289 33.466408 11.94451
l 611 612
v 15.325516 32.568378 11.94451
v 17.34026 31.541815 11.94451
l 613 614
v 13.250289 33.466408 11.94451
v 15.325516 32.568378 11.94451
l 615 616
v 19.28657 30.39077 11.94451
v 21.156763 29.119787 11.94451
l 617 618
v 21.156763 29.119787 11.94451
v 22.943462 27.733883 11.94451
l 619 620
v 17.34026 31.541815 11.94451
v 19.28657 30.39077 11.94451
l 621 622
v 26.238523 24.639614 11.94451
v 27.733883 22.943462 11.94451
l 623 624
v 32.568378 15.325516 11.94451
v 33.466408 13.250289 11.94451
l 625 626
v 31.541815 17.34026 11.94451
v 32.568378 15.325516 11.94451
l 627 628
v 30.39077 19.28657 11.94451
v 31.541815 17.34026 11.94451
l 629 630
v 29.119787 21.156763 11.94451
v 30.39077 19.28657 11.94451
l 631 632
v 27.733883 22.943462 11.94451
v 29.119787 21.156763 11.94451
l 633 634
v 35.923012 2.2600842 11.94451
v 35.994038 0 11.94451
l 635 636
v 35.710213 4.5112491 11.94451
v 35.923012 2.2600842 11.94451
l 637 638
v 35.356483 6.7446098 11.94451
v 35.710213 4.5112491 11.94451
l 639 640
v 34.863216 8.9513531 11.94451
v 35.356483 6.7446098 11.94451
l 641 642
v 34.232365 11.122769 11.94451
v 34.863216 8.9513531 11.94451
l 643 644
v 33.466408 13.250289 11.94451
v 34.232365 11.122769 11.94451
l 645 646
v 22.943462 27.733883 11.94451
v 24.639614 26.238523 11.94451
l 647 648
v 24.639614 26.238523 11.94451
v 26.238523 24.639614 11.94451
l 649 650
v 11.471731 13.866941 52.052151
v 12.007751 14.711113 49.832386
l 651 652
v 14.729936 12.185662 49.556095
v 13.119262 12.319807 52.052151
l 653 654
v 2.3941779 18.951868 49.588512
v 2.2556245 17.855106 52.052151
l 655 656
v 5.7490029 18.098396 49.832386
v 5.5613847 17.116182 52.052151
l 657 658
v 9.2097063 16.752394 49.556095
v 8.6701298 15.770907 52.052151
l 659 660
v 17.961506 1.1300421 52.052151
v 19.117044 0 49.556095
l 661 662
v 9.6432848 15.195385 52.052151
v 11.120327 15.545112 49.556095
l 663 664
v 14.729936 12.185662 49.556095
v 13.866941 11.471731 52.052151
l 665 666
v 11.120327 15.545112 49.556095
v 11.236716 15.466013 49.556095
l 667 668
v -30.46316 -22.132782 11.94451
v -30.46316 -22.132782 11.94451
l 669 670
v -31.792776 -20.17631 11.94451
v -31.792776 -20.17631 11.94451
l 671 672
v -29.013319 -24.001905 11.94451
v -29.013319 -24.001905 11.94451
l 673 674
v -29.119787 -21.156763 11.94451
v -29.119787 -21.156763 11.94451
l 675 676
v -22.132782 -30.46316 11.94451
v -22.132782 -30.46316 11.94451
l 677 678
v -20.17631 -31.792776 11.94451
v -20.17631 -31.792776 11.94451
l 679 680
v -25.776304 -27.448977 11.94451
v -25.776304 -27.448977 11.94451
l 681 682
v -27.448977 -25.776304 11.94451
v -27.448977 -25.776304 11.94451
l 683 684
v -24.001905 -29.013319 11.94451
v -24.001905 -29.013319 11.94451
l 685 686
v -24.639614 -26.238523 11.94451
v -24.639614 -26.238523 11.94451
l 687 688
v -27.733883 -22.943462 11.94451
v -27.733883 -22.943462 11.94451
l 689 690
v -26.238523 -24.639614 11.94451
v -26.238523 -24.639614 11.94451
l 691 692
v -22.943462 -27.733883 11.94451
v -22.943462 -27.733883 11.94451
l 693 694
v -21.156763 -29.119787 11.94451
v -21.156763 -29.119787 11.94451
l 695 696
v -19.28657 -30.39077 11.94451
v -19.28657 -30.39077 11.94451
l 697 698
v -34.070843 -16.032522 11.94451
v -34.070843 -16.032522 11.94451
l 699 700
v -32.996922 -18.140211 11.94451
v -32.996922 -18.140211 11.94451
l 701 702
v -35.811592 -11.635892 11.94451
v -35.811592 -11.635892 11.94451
l 703 704
v -36.47155 -9.3643026 11.94451
v -36.47155 -9.3643026 11.94451
l 705 706
v -35.010303 -13.86156 11.94451
v -35.010303 -13.86156 11.94451
l 707 708
v -33.466408 -13.250289 11.94451
v -33.466408 -13.250289 11.94451
l 709 710
v -34.232365 -11.122769 11.94451
v -34.232365 -11.122769 11.94451
l 711 712
v -30.39077 -19.28657 11.94451
v -30.39077 -19.28657 11.94451
l 713 714
v -31.541815 -17.34026 11.94451
v -31.541815 -17.34026 11.94451
l 715 716
v -32.568378 -15.325516 11.94451
v -32.568378 -15.325516 11.94451
l 717 718
v -36.987572 -7.0557566 11.94451
v -36.987572 -7.0557566 11.94451
l 719 720
v -37.35762 -4.7193646 11.94451
v -37.35762 -4.7193646 11.94451
l 721 722
v -35.356483 -6.7446098 11.94451
v -35.356483 -6.7446098 11.94451
l 723 724
v -35.710213 -4.5112491 11.94451
v -35.710213 -4.5112491 11.94451
l 725 726
v -34.863216 -8.9513531 11.94451
v -34.863216 -8.9513531 11.94451
l 727 728
v -37.580235 -2.3643479 11.94451
v -37.580235 -2.3643479 11.94451
l 729 730
v -35.923012 -2.2600842 11.94451
v -35.923012 -2.2600842 11.94451
l 731 732
v -37.654537 0 11.94451
v -37.654537 0 11.94451
l 733 734
v -35.994038 0 11.94451
v -35.994038 0 11.94451
l 735 736
v -20.799849 -15.111975 1.6605
v -19.809916 -16.388187 1.6605
l 737 738
v -19.809916 -16.388187 1.6605
v -20.799849 -15.111975 1.6605
l 739 740
v -19.809916 -16.388187 1.6605
v -19.809916 -16.388187 1.6605
l 741 742
v -20.799849 -15.111975 1.6605
v -20.799849 -15.111975 1.6605
l 743 744
v -19.809916 -16.388187 1.6605
v -18.741802 -17.599724 1.6605
l 745 746
v -18.741802 -17.599724 1.6605
v -19.809916 -16.388187 1.6605
l 747 748
v -18.741802 -17.599724 1.6605
v -18.741802 -17.599724 1.6605
l 749 750
v -21.707693 -13.776121 1.6605
v -21.707693 -13.776121 1.6605
l 751 752
v -20.799849 -15.111975 1.6605
v -21.707693 -13.776121 1.6605
l 753 754
v -21.707693 -13.776121 1.6605
v -20.799849 -15.111975 1.6605
l 755 756
v -22.529867 -12.3859 1.6605
v -21.707693 -13.776121 1.6605
l 757 758
v -21.707693 -13.776121 1.6605
v -22.529867 -12.3859 1.6605
l 759 760
v -22.529867 -12.3859 1.6605
v -22.529867 -12.3859 1.6605
l 761 762
v -22.529867 -12.3859 1.6605
v -23.263126 -10.946796 1.6605
l 763 764
v -23.263126 -10.946796 1.6605
v -22.529867 -12.3859 1.6605
l 765 766
v -23.263126 -10.946796 1.6605
v -23.263126 -10.946796 1.6605
l 767 768
v -23.904577 -9.4644918 1.6605
v -23.263126 -10.946796 1.6605
l 769 770
v -23.263126 -10.946796 1.6605
v -23.904577 -9.4644918 1.6605
l 771 772
v -23.904577 -9.4644918 1.6605
v -23.904577 -9.4644918 1.6605
l 773 774
v -23.904577 -9.4644918 1.6605
v -24.451689 -7.9448352 1.6605
l 775 776
v -24.451689 -7.9448352 1.6605
v -23.904577 -9.4644918 1.6605
l 777 778
v -24.451689 -7.9448352 1.6605
v -24.451689 -7.9448352 1.6605
l 779 780
v -24.902298 -6.3938236 1.6605
v -24.902298 -6.3938236 1.6605
l 781 782
v -24.451689 -7.9448352 1.6605
v -24.902298 -6.3938236 1.6605
l 783 784
v -24.902298 -6.3938236 1.6605
v -24.451689 -7.9448352 1.6605
l 785 786
v -24.902298 -6.3938236 1.6605
v -25.254631 -4.8175783 1.6605
l 787 788
v -25.254631 -4.8175783 1.6605
v -24.902298 -6.3938236 1.6605
l 789 790
v -25.254631 -4.8175783 1.6605
v -25.254631 -4.8175783 1.6605
l 791 792
v -25.254631 -4.8175783 1.6605
v -25.507296 -3.2223208 1.6605
l 793 794
v -25.507296 -3.2223208 1.6605
v -25.254631 -4.8175783 1.6605
l 795 796
v -25.507296 -3.2223208 1.6605
v -25.507296 -3.2223208 1.6605
l 797 798
v -25.507296 -3.2223208 1.6605
v -25.659294 -1.6143459 1.6605
l 799 800
v -25.659294 -1.6143459 1.6605
v -25.507296 -3.2223208 1.6605
l 801 802
v -25.659294 -1.6143459 1.6605
v -25.659294 -1.6143459 1.6605
l 803 804
v -25.659294 -1.6143459 1.6605
v -25.710026 0 1.6605
l 805 806
v -25.710026 0 1.6605
v -25.659294 -1.6143459 1.6605
l 807 808
v -25.710026 0 1.6605
v -25.710026 0 1.6605
l 809 810
v -18.140211 -32.996922 11.94451
v -18.140211 -32.996922 11.94451
l 811 812
v -16.032522 -34.070843 11.94451
v -16.032522 -34.070843 11.94451
l 813 814
v -17.34026 -31.541815 11.94451
v -17.34026 -31.541815 11.94451
l 815 816
v -13.86156 -35.010303 11.94451
v -13.86156 -35.010303 11.94451
l 817 818
v -15.325516 -32.568378 11.94451
v -15.325516 -32.568378 11.94451
l 819 820
v -11.635892 -35.811592 11.94451
v -11.635892 -35.811592 11.94451
l 821 822
v -9.3643026 -36.47155 11.94451
v -9.3643026 -36.47155 11.94451
l 823 824
v -13.250289 -33.466408 11.94451
v -13.250289 -33.466408 11.94451
l 825 826
v -11.122769 -34.232365 11.94451
v -11.122769 -34.232365 11.94451
l 827 828
v -8.9513531 -34.863216 11.94451
v -8.9513531 -34.863216 11.94451
l 829 830
v -15.111975 -20.799849 1.6605
v -15.111975 -20.799849 1.6605
l 831 832
v -16.388187 -19.809916 1.6605
v -15.111975 -20.799849 1.6605
l 833 834
v -15.111975 -20.799849 1.6605
v -16.388187 -19.809916 1.6605
l 835 836
v -15.111975 -20.799849 1.6605
v -13.776121 -21.707693 1.6605
l 837 838
v -13.776121 -21.707693 1.6605
v -15.111975 -20.799849 1.6605
l 839 840
v -13.776121 -21.707693 1.6605
v -13.776121 -21.707693 1.6605
l 841 842
v -12.3859 -22.529867 1.6605
v -12.3859 -22.529867 1.6605
l 843 844
v -12.3859 -22.529867 1.6605
v -10.946796 -23.263126 1.6605
l 845 846
v -10.946796 -23.263126 1.6605
v -12.3859 -22.529867 1.6605
l 847 848
v -13.776121 -21.707693 1.6605
v -12.3859 -22.529867 1.6605
l 849 850
v -12.3859 -22.529867 1.6605
v -13.776121 -21.707693 1.6605
l 851 852
v -10.946796 -23.263126 1.6605
v -10.946796 -23.263126 1.6605
l 853 854
v -9.4644918 -23.904577 1.6605
v -10.946796 -23.263126 1.6605
l 855 856
v -10.946796 -23.263126 1.6605
v -9.4644918 -23.904577 1.6605
l 857 858
v -9.4644918 -23.904577 1.6605
v -9.4644918 -23.904577 1.6605
l 859 860
v -7.0557566 -36.987572 11.94451
v -7.0557566 -36.987572 11.94451
l 861 862
v -6.7446098 -35.356483 11.94451
v -6.7446098 -35.356483 11.94451
l 863 864
v -4.7193646 -37.35762 11.94451
v -4.7193646 -37.35762 11.94451
l 865 866
v -4.5112491 -35.710213 11.94451
v -4.5112491 -35.710213 11.94451
l 867 868
v -2.3643479 -37.580235 11.94451
v -2.3643479 -37.580235 11.94451
l 869 870
v -2.2600842 -35.923012 11.94451
v -2.2600842 -35.923012 11.94451
l 871 872
v 0 -37.654537 11.94451
v 0 -37.654537 11.94451
l 873 874
v 0 -35.994038 11.94451
v 0 -35.994038 11.94451
l 875 876
v -9.4644918 -23.904577 1.6605
v -7.9448352 -24.451689 1.6605
l 877 878
v -7.9448352 -24.451689 1.6605
v -9.4644918 -23.904577 1.6605
l 879 880
v -7.9448352 -24.451689 1.6605
v -7.9448352 -24.451689 1.6605
l 881 882
v -7.9448352 -24.451689 1.6605
v -6.3938236 -24.902298 1.6605
l 883 884
v -6.3938236 -24.902298 1.6605
v -7.9448352 -24.451689 1.6605
l 885 886
v -6.3938236 -24.902298 1.6605
v -6.3938236 -24.902298 1.6605
l 887 888
v -6.3938236 -24.902298 1.6605
v -4.8175783 -25.254631 1.6605
l 889 890
v -4.8175783 -25.254631 1.6605
v -6.3938236 -24.902298 1.6605
l 891 892
v -4.8175783 -25.254631 1.6605
v -4.8175783 -25.254631 1.6605
l 893 894
v -4.8175783 -25.254631 1.6605
v -3.2223208 -25.507296 1.6605
l 895 896
v -3.2223208 -25.507296 1.6605
v -4.8175783 -25.254631 1.6605
l 897 898
v -3.2223208 -25.507296 1.6605
v -3.2223208 -25.507296 1.6605
l 899 900
v -3.2223208 -25.507296 1.6605
v -1.6143459 -25.659294 1.6605
l 901 902
v -1.6143459 -25.659294 1.6605
v -3.2223208 -25.507296 1.6605
l 903 904
v -1.6143459 -25.659294 1.6605
v -1.6143459 -25.659294 1.6605
l 905 906
v -1.6143459 -25.659294 1.6605
v 0 -25.710026 1.6605
l 907 908
v 0 -25.710026 1.6605
v -1.6143459 -25.659294 1.6605
l 909 910
v 0 -25.710026 1.6605
v 0 -25.710026 1.6605
l 911 912
v -18.741802 -17.599724 1.6605
v -17.599724 -18.741802 1.6605
l 913 914
v -17.599724 -18.741802 1.6605
v -18.741802 -17.599724 1.6605
l 915 916
v -17.599724 -18.741802 1.6605
v -17.599724 -18.741802 1.6605
l 917 918
v -16.388187 -19.809916 1.6605
v -17.599724 -18.741802 1.6605
l 919 920
v -17.599724 -18.741802 1.6605
v -16.388187 -19.809916 1.6605
l 921 922
v -16.388187 -19.809916 1.6605
v -16.388187 -19.809916 1.6605
l 923 924
v -37.580235 2.3643479 11.94451
v -37.580235 2.3643479 11.94451
l 925 926
v -35.923012 2.2600842 11.94451
v -35.923012 2.2600842 11.94451
l 927 928
v -37.35762 4.7193646 11.94451
v -37.35762 4.7193646 11.94451
l 929 930
v -35.710213 4.5112491 11.94451
v -35.710213 4.5112491 11.94451
l 931 932
v -36.987572 7.0557566 11.94451
v -36.987572 7.0557566 11.94451
l 933 934
v -35.356483 6.7446098 11.94451
v -35.356483 6.7446098 11.94451
l 935 936
v -36.47155 9.3643026 11.94451
v -36.47155 9.3643026 11.94451
l 937 938
v -34.863216 8.9513531 11.94451
v -34.863216 8.9513531 11.94451
l 939 940
v -35.811592 11.635892 11.94451
v -35.811592 11.635892 11.94451
l 941 942
v -34.232365 11.122769 11.94451
v -34.232365 11.122769 11.94451
l 943 944
v -33.466408 13.250289 11.94451
v -33.466408 13.250289 11.94451
l 945 946
v -35.010303 13.86156 11.94451
v -35.010303 13.86156 11.94451
l 947 948
v -34.070843 16.032522 11.94451
v -34.070843 16.032522 11.94451
l 949 950
v -32.996922 18.140211 11.94451
v -32.996922 18.140211 11.94451
l 951 952
v -32.568378 15.325516 11.94451
v -32.568378 15.325516 11.94451
l 953 954
v -31.541815 17.34026 11.94451
v -31.541815 17.34026 11.94451
l 955 956
v -31.792776 20.17631 11.94451
v -31.792776 20.17631 11.94451
l 957 958
v -30.39077 19.28657 11.94451
v -30.39077 19.28657 11.94451
l 959 960
v -25.659294 1.6143459 -3.4971812e-09
v -25.710026 0 1.6605
l 961 962
v -25.659294 1.6143459 1.6605
v -25.710026 0 1.6605
l 963 964
v -25.507296 3.2223208 1.6605
v -25.659294 1.6143459 1.6605
l 965 966
v -25.279083 4.6631989 1.6605
v -25.507296 3.2223208 1.6605
l 967 968
v -25.279083 4.6631989 1.6605
v -25.254631 4.8175783 1.6605
l 969 970
v -25.254631 4.8175783 1.6605
v -25.254631 4.8175783 1.6605
l 971 972
v -24.902298 6.3938236 1.6605
v -25.034424 5.8027315 1.7763568e-15
l 973 974
v -24.902298 6.3938236 1.6605
v -25.034424 5.8027315 1.6605
l 975 976
v -24.451689 7.9448352 1.6605
v -24.902298 6.3938236 1.6605
l 977 978
v -25.254631 4.8175783 1.6605
v -25.034424 5.8027315 1.6605
l 979 980
v -25.034424 5.8027315 1.6605
v -25.254631 4.8175783 1.6605
l 981 982
v -24.451689 7.9448352 1.6605
v -24.451689 7.9448352 1.6605
l 983 984
v -24.451689 7.9448352 1.6605
v -23.904577 9.4644918 1.6605
l 985 986
v -23.904577 9.4644918 1.6605
v -24.451689 7.9448352 1.6605
l 987 988
v -23.904577 9.4644918 1.6605
v -23.904577 9.4644918 1.6605
l 989 990
v -23.904577 9.4644918 1.6605
v -23.263126 10.946796 1.6605
l 991 992
v -23.263126 10.946796 1.6605
v -23.904577 9.4644918 1.6605
l 993 994
v -23.263126 10.946796 1.6605
v -23.263126 10.946796 1.6605
l 995 996
v -23.263126 10.946796 1.6605
v -22.529867 12.3859 1.6605
l 997 998
v -22.529867 12.3859 1.6605
v -23.263126 10.946796 1.6605
l 999 1000
v -22.529867 12.3859 1.6605
v -22.529867 12.3859 1.6605
l 1001 1002
v -22.529867 12.3859 1.6605
v -21.707693 13.776121 1.6605
l 1003 1004
v -21.707693 13.776121 1.6605
v -22.529867 12.3859 1.6605
l 1005 1006
v -21.707693 13.776121 1.6605
v -21.707693 13.776121 1.6605
l 1007 1008
v -21.707693 13.776121 1.6605
v -20.799849 15.111975 1.6605
l 1009 1010
v -20.799849 15.111975 1.6605
v -21.707693 13.776121 1.6605
l 1011 1012
v -20.799849 15.111975 1.6605
v -20.799849 15.111975 1.6605
l 1013 1014
v -20.799849 15.111975 1.6605
v -19.809916 16.388187 1.6605
l 1015 1016
v -19.809916 16.388187 1.6605
v -20.799849 15.111975 1.6605
l 1017 1018
v -19.809916 16.388187 1.6605
v -19.809916 16.388187 1.6605
l 1019 1020
v -19.809916 16.388187 1.6605
v -18.741802 17.599724 1.6605
l 1021 1022
v -18.741802 17.599724 1.6605
v -19.809916 16.388187 1.6605
l 1023 1024
v -18.741802 17.599724 1.6605
v -18.741802 17.599724 1.6605
l 1025 1026
v -30.46316 22.132782 11.94451
v -30.46316 22.132782 11.94451
l 1027 1028
v -29.119787 21.156763 11.94451
v -29.119787 21.156763 11.94451
l 1029 1030
v -29.013319 24.001905 11.94451
v -29.013319 24.001905 11.94451
l 1031 1032
v -27.733883 22.943462 11.94451
v -27.733883 22.943462 11.94451
l 1033 1034
v -27.448977 25.776304 11.94451
v -27.448977 25.776304 11.94451
l 1035 1036
v -26.238523 24.639614 11.94451
v -26.238523 24.639614 11.94451
l 1037 1038
v -25.776304 27.448977 11.94451
v -25.776304 27.448977 11.94451
l 1039 1040
v -24.639614 26.238523 11.94451
v -24.639614 26.238523 11.94451
l 1041 1042
v -24.001905 29.013319 11.94451
v -24.001905 29.013319 11.94451
l 1043 1044
v -22.943462 27.733883 11.94451
v -22.943462 27.733883 11.94451
l 1045 1046
v -22.132782 30.46316 11.94451
v -22.132782 30.46316 11.94451
l 1047 1048
v -21.156763 29.119787 11.94451
v -21.156763 29.119787 11.94451
l 1049 1050
v -19.28657 30.39077 11.94451
v -19.28657 30.39077 11.94451
l 1051 1052
v -20.17631 31.792776 11.94451
v -20.17631 31.792776 11.94451
l 1053 1054
v -18.741802 17.599724 1.6605
v -17.599724 18.741802 1.6605
l 1055 1056
v -17.599724 18.741802 1.6605
v -18.741802 17.599724 1.6605
l 1057 1058
v -17.599724 18.741802 1.6605
v -17.599724 18.741802 1.6605
l 1059 1060
v -17.599724 18.741802 1.6605
v -16.388187 19.809916 1.6605
l 1061 1062
v -16.388187 19.809916 1.6605
v -17.599724 18.741802 1.6605
l 1063 1064
v -16.388187 19.809916 1.6605
v -16.388187 19.809916 1.6605
l 1065 1066
v -16.388187 19.809916 1.6605
v -15.111975 20.799849 1.6605
l 1067 1068
v -15.111975 20.799849 1.6605
v -16.388187 19.809916 1.6605
l 1069 1070
v -15.111975 20.799849 1.6605
v -15.111975 20.799849 1.6605
l 1071 1072
v -15.111975 20.799849 1.6605
v -13.776121 21.707693 1.6605
l 1073 1074
v -13.776121 21.707693 1.6605
v -15.111975 20.799849 1.6605
l 1075 1076
v -13.776121 21.707693 1.6605
v -13.776121 21.707693 1.6605
l 1077 1078
v -13.776121 21.707693 1.6605
v -12.3859 22.529867 1.6605
l 1079 1080
v -12.3859 22.529867 1.6605
v -13.776121 21.707693 1.6605
l 1081 1082
v -12.3859 22.529867 1.6605
v -12.3859 22.529867 1.6605
l 1083 1084
v -12.3859 22.529867 1.6605
v -10.946796 23.263126 1.6605
l 1085 1086
v -10.946796 23.263126 1.6605
v -12.3859 22.529867 1.6605
l 1087 1088
v -10.946796 23.263126 1.6605
v -10.946796 23.263126 1.6605
l 1089 1090
v -10.946796 23.263126 1.6605
v -9.4644918 23.904577 1.6605
l 1091 1092
v -9.4644918 23.904577 1.6605
v -10.946796 23.263126 1.6605
l 1093 1094
v -9.4644918 23.904577 1.6605
v -9.4644918 23.904577 1.6605
l 1095 1096
v -17.34026 31.541815 11.94451
v -17.34026 31.541815 11.94451
l 1097 1098
v -18.140211 32.996922 11.94451
v -18.140211 32.996922 11.94451
l 1099 1100
v -16.032522 34.070843 11.94451
v -16.032522 34.070843 11.94451
l 1101 1102
v -15.325516 32.568378 11.94451
v -15.325516 32.568378 11.94451
l 1103 1104
v -13.86156 35.010303 11.94451
v -13.86156 35.010303 11.94451
l 1105 1106
v -13.250289 33.466408 11.94451
v -13.250289 33.466408 11.94451
l 1107 1108
v -11.122769 34.232365 11.94451
v -11.122769 34.232365 11.94451
l 1109 1110
v -8.9513531 34.863216 11.94451
v -8.9513531 34.863216 11.94451
l 1111 1112
v -11.635892 35.811592 11.94451
v -11.635892 35.811592 11.94451
l 1113 1114
v -9.3643026 36.47155 11.94451
v -9.3643026 36.47155 11.94451
l 1115 1116
v -9.4644918 23.904577 1.6605
v -7.9448352 24.451689 1.6605
l 1117 1118
v -7.9448352 24.451689 1.6605
v -9.4644918 23.904577 1.6605
l 1119 1120
v -7.9448352 24.451689 1.6605
v -7.9448352 24.451689 1.6605
l 1121 1122
v -7.9448352 24.451689 1.6605
v -6.3938236 24.902298 1.6605
l 1123 1124
v -6.3938236 24.902298 1.6605
v -7.9448352 24.451689 1.6605
l 1125 1126
v -6.3938236 24.902298 1.6605
v -6.3938236 24.902298 1.6605
l 1127 1128
v -6.3938236 24.902298 1.6605
v -4.8175783 25.254631 1.6605
l 1129 1130
v -4.8175783 25.254631 1.6605
v -6.3938236 24.902298 1.6605
l 1131 1132
v -4.8175783 25.254631 1.6605
v -4.8175783 25.254631 1.6605
l 1133 1134
v -4.8175783 25.254631 1.6605
v -3.2223208 25.507296 1.6605
l 1135 1136
v -3.2223208 25.507296 1.6605
v -4.8175783 25.254631 1.6605
l 1137 1138
v -3.2223208 25.507296 1.6605
v -3.2223208 25.507296 1.6605
l 1139 1140
v -3.2223208 25.507296 1.6605
v -1.6143459 25.659294 1.6605
l 1141 1142
v -1.6143459 25.659294 1.6605
v -3.2223208 25.507296 1.6605
l 1143 1144
v -1.6143459 25.659294 1.6605
v -1.6143459 25.659294 1.6605
l 1145 1146
v -1.6143459 25.659294 1.6605
v 0 25.710026 1.6605
l 1147 1148
v 0 25.710026 1.6605
v -1.6143459 25.659294 1.6605
l 1149 1150
v 0 25.710026 1.6605
v 0 25.710026 1.6605
l 1151 1152
v -6.7446098 35.356483 11.94451
v -6.7446098 35.356483 11.94451
l 1153 1154
v -7.0557566 36.987572 11.94451
v -7.0557566 36.987572 11.94451
l 1155 1156
v -4.5112491 35.710213 11.94451
v -4.5112491 35.710213 11.94451
l 1157 1158
v -4.7193646 37.35762 11.94451
v -4.7193646 37.35762 11.94451
l 1159 1160
v -2.2600842 35.923012 11.94451
v -2.2600842 35.923012 11.94451
l 1161 1162
v -2.3643479 37.580235 11.94451
v -2.3643479 37.580235 11.94451
l 1163 1164
v 0 35.994038 11.94451
v 0 35.994038 11.94451
l 1165 1166
v 0 37.654537 11.94451
v 0 37.654537 11.94451
l 1167 1168
v 2.3643479 -37.580235 11.94451
v 2.3643479 -37.580235 11.94451
l 1169 1170
v 2.2600842 -35.923012 11.94451
v 2.2600842 -35.923012 11.94451
l 1171 1172
v 4.7193646 -37.35762 11.94451
v 4.7193646 -37.35762 11.94451
l 1173 1174
v 4.5112491 -35.710213 11.94451
v 4.5112491 -35.710213 11.94451
l 1175 1176
v 7.0557566 -36.987572 11.94451
v 7.0557566 -36.987572 11.94451
l 1177 1178
v 6.7446098 -35.356483 11.94451
v 6.7446098 -35.356483 11.94451
l 1179 1180
v 9.3643026 -36.47155 11.94451
v 9.3643026 -36.47155 11.94451
l 1181 1182
v 8.9513531 -34.863216 11.94451
v 8.9513531 -34.863216 11.94451
l 1183 1184
v 0 -25.710026 1.6605
v 1.6143459 -25.659294 1.6605
l 1185 1186
v 1.6143459 -25.659294 1.6605
v 0 -25.710026 1.6605
l 1187 1188
v 1.6143459 -25.659294 1.6605
v 1.6143459 -25.659294 1.6605
l 1189 1190
v 1.6143459 -25.659294 1.6605
v 3.2223208 -25.507296 1.6605
l 1191 1192
v 3.2223208 -25.507296 1.6605
v 1.6143459 -25.659294 1.6605
l 1193 1194
v 3.2223208 -25.507296 1.6605
v 3.2223208 -25.507296 1.6605
l 1195 1196
v 3.2223208 -25.507296 1.6605
v 4.8175783 -25.254631 1.6605
l 1197 1198
v 4.8175783 -25.254631 1.6605
v 3.2223208 -25.507296 1.6605
l 1199 1200
v 4.8175783 -25.254631 1.6605
v 4.8175783 -25.254631 1.6605
l 1201 1202
v 4.8175783 -25.254631 1.6605
v 6.3938236 -24.902298 1.6605
l 1203 1204
v 6.3938236 -24.902298 1.6605
v 4.8175783 -25.254631 1.6605
l 1205 1206
v 6.3938236 -24.902298 1.6605
v 6.3938236 -24.902298 1.6605
l 1207 1208
v 6.3938236 -24.902298 1.6605
v 7.9448352 -24.451689 1.6605
l 1209 1210
v 7.9448352 -24.451689 1.6605
v 6.3938236 -24.902298 1.6605
l 1211 1212
v 7.9448352 -24.451689 1.6605
v 7.9448352 -24.451689 1.6605
l 1213 1214
v 7.9448352 -24.451689 1.6605
v 9.4644918 -23.904577 1.6605
l 1215 1216
v 9.4644918 -23.904577 1.6605
v 7.9448352 -24.451689 1.6605
l 1217 1218
v 9.4644918 -23.904577 1.6605
v 9.4644918 -23.904577 1.6605
l 1219 1220
v 11.635892 -35.811592 11.94451
v 11.635892 -35.811592 11.94451
l 1221 1222
v 11.122769 -34.232365 11.94451
v 11.122769 -34.232365 11.94451
l 1223 1224
v 13.250289 -33.466408 11.94451
v 13.250289 -33.466408 11.94451
l 1225 1226
v 13.86156 -35.010303 11.94451
v 13.86156 -35.010303 11.94451
l 1227 1228
v 15.325516 -32.568378 11.94451
v 15.325516 -32.568378 11.94451
l 1229 1230
v 16.032522 -34.070843 11.94451
v 16.032522 -34.070843 11.94451
l 1231 1232
v 18.140211 -32.996922 11.94451
v 18.140211 -32.996922 11.94451
l 1233 1234
v 17.34026 -31.541815 11.94451
v 17.34026 -31.541815 11.94451
l 1235 1236
v 19.28657 -30.39077 11.94451
v 19.28657 -30.39077 11.94451
l 1237 1238
v 9.4644918 -23.904577 1.6605
v 10.946796 -23.263126 1.6605
l 1239 1240
v 10.946796 -23.263126 1.6605
v 9.4644918 -23.904577 1.6605
l 1241 1242
v 10.946796 -23.263126 1.6605
v 10.946796 -23.263126 1.6605
l 1243 1244
v 10.946796 -23.263126 1.6605
v 12.3859 -22.529867 1.6605
l 1245 1246
v 12.3859 -22.529867 1.6605
v 10.946796 -23.263126 1.6605
l 1247 1248
v 12.3859 -22.529867 1.6605
v 12.3859 -22.529867 1.6605
l 1249 1250
v 12.3859 -22.529867 1.6605
v 13.776121 -21.707693 1.6605
l 1251 1252
v 13.776121 -21.707693 1.6605
v 12.3859 -22.529867 1.6605
l 1253 1254
v 13.776121 -21.707693 1.6605
v 13.776121 -21.707693 1.6605
l 1255 1256
v 13.776121 -21.707693 1.6605
v 15.111975 -20.799849 1.6605
l 1257 1258
v 15.111975 -20.799849 1.6605
v 13.776121 -21.707693 1.6605
l 1259 1260
v 15.111975 -20.799849 1.6605
v 15.111975 -20.799849 1.6605
l 1261 1262
v 15.111975 -20.799849 1.6605
v 16.388187 -19.809916 1.6605
l 1263 1264
v 16.388187 -19.809916 1.6605
v 15.111975 -20.799849 1.6605
l 1265 1266
v 16.388187 -19.809916 1.6605
v 16.388187 -19.809916 1.6605
l 1267 1268
v 16.388187 -19.809916 1.6605
v 17.599724 -18.741802 1.6605
l 1269 1270
v 17.599724 -18.741802 1.6605
v 16.388187 -19.809916 1.6605
l 1271 1272
v 17.599724 -18.741802 1.6605
v 17.599724 -18.741802 1.6605
l 1273 1274
v 17.599724 -18.741802 1.6605
v 18.741802 -17.599724 1.6605
l 1275 1276
v 18.741802 -17.599724 1.6605
v 17.599724 -18.741802 1.6605
l 1277 1278
v 18.741802 -17.599724 1.6605
v 18.741802 -17.599724 1.6605
l 1279 1280
v 20.17631 -31.792776 11.94451
v 20.17631 -31.792776 11.94451
l 1281 1282
v 22.132782 -30.46316 11.94451
v 22.132782 -30.46316 11.94451
l 1283 1284
v 21.156763 -29.119787 11.94451
v 21.156763 -29.119787 11.94451
l 1285 1286
v 22.943462 -27.733883 11.94451
v 22.943462 -27.733883 11.94451
l 1287 1288
v 24.001905 -29.013319 11.94451
v 24.001905 -29.013319 11.94451
l 1289 1290
v 25.776304 -27.448977 11.94451
v 25.776304 -27.448977 11.94451
l 1291 1292
v 24.639614 -26.238523 11.94451
v 24.639614 -26.238523 11.94451
l 1293 1294
v 27.448977 -25.776304 11.94451
v 27.448977 -25.776304 11.94451
l 1295 1296
v 26.238523 -24.639614 11.94451
v 26.238523 -24.639614 11.94451
l 1297 1298
v 27.733883 -22.943462 11.94451
v 27.733883 -22.943462 11.94451
l 1299 1300
v 29.013319 -24.001905 11.94451
v 29.013319 -24.001905 11.94451
l 1301 1302
v 30.46316 -22.132782 11.94451
v 30.46316 -22.132782 11.94451
l 1303 1304
v 29.119787 -21.156763 11.94451
v 29.119787 -21.156763 11.94451
l 1305 1306
v 31.792776 -20.17631 11.94451
v 31.792776 -20.17631 11.94451
l 1307 1308
v 18.741802 -17.599724 1.6605
v 19.809916 -16.388187 1.6605
l 1309 1310
v 19.809916 -16.388187 1.6605
v 18.741802 -17.599724 1.6605
l 1311 1312
v 19.809916 -16.388187 1.6605
v 19.809916 -16.388187 1.6605
l 1313 1314
v 19.809916 -16.388187 1.6605
v 20.799849 -15.111975 1.6605
l 1315 1316
v 20.799849 -15.111975 1.6605
v 19.809916 -16.388187 1.6605
l 1317 1318
v 20.799849 -15.111975 1.6605
v 20.799849 -15.111975 1.6605
l 1319 1320
v 20.799849 -15.111975 1.6605
v 21.707693 -13.776121 1.6605
l 1321 1322
v 21.707693 -13.776121 1.6605
v 20.799849 -15.111975 1.6605
l 1323 1324
v 21.707693 -13.776121 1.6605
v 21.707693 -13.776121 1.6605
l 1325 1326
v 21.707693 -13.776121 1.6605
v 22.529867 -12.3859 1.6605
l 1327 1328
v 22.529867 -12.3859 1.6605
v 21.707693 -13.776121 1.6605
l 1329 1330
v 22.529867 -12.3859 1.6605
v 22.529867 -12.3859 1.6605
l 1331 1332
v 22.529867 -12.3859 1.6605
v 23.263126 -10.946796 1.6605
l 1333 1334
v 23.263126 -10.946796 1.6605
v 22.529867 -12.3859 1.6605
l 1335 1336
v 23.263126 -10.946796 1.6605
v 23.263126 -10.946796 1.6605
l 1337 1338
v 23.263126 -10.946796 1.6605
v 23.904577 -9.4644918 1.6605
l 1339 1340
v 23.904577 -9.4644918 1.6605
v 23.263126 -10.946796 1.6605
l 1341 1342
v 23.904577 -9.4644918 1.6605
v 23.904577 -9.4644918 1.6605
l 1343 1344
v 23.904577 -9.4644918 1.6605
v 24.451689 -7.9448352 1.6605
l 1345 1346
v 24.451689 -7.9448352 1.6605
v 23.904577 -9.4644918 1.6605
l 1347 1348
v 24.451689 -7.9448352 1.6605
v 24.451689 -7.9448352 1.6605
l 1349 1350
v 24.451689 -7.9448352 1.6605
v 24.902298 -6.3938236 1.6605
l 1351 1352
v 24.902298 -6.3938236 1.6605
v 24.451689 -7.9448352 1.6605
l 1353 1354
v 24.902298 -6.3938236 1.6605
v 24.902298 -6.3938236 1.6605
l 1355 1356
v 24.902298 -6.3938236 1.6605
v 25.254631 -4.8175783 1.6605
l 1357 1358
v 25.254631 -4.8175783 1.6605
v 24.902298 -6.3938236 1.6605
l 1359 1360
v 25.254631 -4.8175783 1.6605
v 25.254631 -4.8175783 1.6605
l 1361 1362
v 25.254631 -4.8175783 1.6605
v 25.507296 -3.2223208 1.6605
l 1363 1364
v 25.507296 -3.2223208 1.6605
v 25.254631 -4.8175783 1.6605
l 1365 1366
v 25.507296 -3.2223208 1.6605
v 25.507296 -3.2223208 1.6605
l 1367 1368
v 25.507296 -3.2223208 1.6605
v 25.659294 -1.6143459 1.6605
l 1369 1370
v 25.659294 -1.6143459 1.6605
v 25.507296 -3.2223208 1.6605
l 1371 1372
v 25.659294 -1.6143459 1.6605
v 25.659294 -1.6143459 1.6605
l 1373 1374
v 25.659294 -1.6143459 1.6605
v 25.710026 0 1.6605
l 1375 1376
v 25.710026 0 1.6605
v 25.659294 -1.6143459 1.6605
l 1377 1378
v 25.710026 0 1.6605
v 25.710026 0 1.6605
l 1379 1380
v 30.39077 -19.28657 11.94451
v 30.39077 -19.28657 11.94451
l 1381 1382
v 31.541815 -17.34026 11.94451
v 31.541815 -17.34026 11.94451
l 1383 1384
v 32.996922 -18.140211 11.94451
v 32.996922 -18.140211 11.94451
l 1385 1386
v 32.568378 -15.325516 11.94451
v 32.568378 -15.325516 11.94451
l 1387 1388
v 34.070843 -16.032522 11.94451
v 34.070843 -16.032522 11.94451
l 1389 1390
v 33.466408 -13.250289 11.94451
v 33.466408 -13.250289 11.94451
l 1391 1392
v 35.010303 -13.86156 11.94451
v 35.010303 -13.86156 11.94451
l 1393 1394
v 34.232365 -11.122769 11.94451
v 34.232365 -11.122769 11.94451
l 1395 1396
v 35.811592 -11.635892 11.94451
v 35.811592 -11.635892 11.94451
l 1397 1398
v 36.47155 -9.3643026 11.94451
v 36.47155 -9.3643026 11.94451
l 1399 1400
v 34.863216 -8.9513531 11.94451
v 34.863216 -8.9513531 11.94451
l 1401 1402
v 35.356483 -6.7446098 11.94451
v 35.356483 -6.7446098 11.94451
l 1403 1404
v 36.987572 -7.0557566 11.94451
v 36.987572 -7.0557566 11.94451
l 1405 1406
v 35.710213 -4.5112491 11.94451
v 35.710213 -4.5112491 11.94451
l 1407 1408
v 37.35762 -4.7193646 11.94451
v 37.35762 -4.7193646 11.94451
l 1409 1410
v 35.923012 -2.2600842 11.94451
v 35.923012 -2.2600842 11.94451
l 1411 1412
v 37.580235 -2.3643479 11.94451
v 37.580235 -2.3643479 11.94451
l 1413 1414
v 35.994038 0 11.94451
v 35.994038 0 11.94451
l 1415 1416
v 37.654537 0 11.94451
v 37.654537 0 11.94451
l 1417 1418
v 15.111975 20.799849 1.6605
v 16.388187 19.809916 -3.4971812e-09
l 1419 1420
v 16.388187 19.809916 1.6605
v 15.111975 20.799849 1.6605
l 1421 1422
v 16.993956 19.27586 1.6605
v 16.388187 19.809916 1.6605
l 1423 1424
v 16.993956 19.27586 1.6605
v 17.599724 18.741802 1.6605
l 1425 1426
v 17.599724 18.741802 1.6605
v 17.599724 18.741802 1.6605
l 1427 1428
v 17.599724 18.741802 1.6605
v 18.741802 17.599724 1.6605
l 1429 1430
v 18.741802 17.599724 1.6605
v 17.599724 18.741802 1.6605
l 1431 1432
v 18.741802 17.599724 1.6605
v 18.741802 17.599724 1.6605
l 1433 1434
v 0 25.710026 1.6605
v 1.6143459 25.659294 1.6605
l 1435 1436
v 1.6143459 25.659294 1.6605
v 0 25.710026 1.6605
l 1437 1438
v 1.6143459 25.659294 1.6605
v 1.6143459 25.659294 1.6605
l 1439 1440
v 1.6143459 25.659294 1.6605
v 3.2223208 25.507296 1.6605
l 1441 1442
v 3.2223208 25.507296 1.6605
v 1.6143459 25.659294 1.6605
l 1443 1444
v 3.2223208 25.507296 1.6605
v 3.2223208 25.507296 1.6605
l 1445 1446
v 3.2223208 25.507296 1.6605
v 4.8175783 25.254631 1.6605
l 1447 1448
v 4.8175783 25.254631 1.6605
v 3.2223208 25.507296 1.6605
l 1449 1450
v 4.8175783 25.254631 1.6605
v 4.8175783 25.254631 1.6605
l 1451 1452
v 4.8175783 25.254631 1.6605
v 6.3938236 24.902298 1.6605
l 1453 1454
v 6.3938236 24.902298 1.6605
v 4.8175783 25.254631 1.6605
l 1455 1456
v 6.3938236 24.902298 1.6605
v 6.3938236 24.902298 1.6605
l 1457 1458
v 6.3938236 24.902298 1.6605
v 7.9448352 24.451689 1.6605
l 1459 1460
v 7.9448352 24.451689 1.6605
v 6.3938236 24.902298 1.6605
l 1461 1462
v 7.9448352 24.451689 1.6605
v 7.9448352 24.451689 1.6605
l 1463 1464
v 7.9448352 24.451689 1.6605
v 9.4644918 23.904577 1.6605
l 1465 1466
v 9.4644918 23.904577 1.6605
v 7.9448352 24.451689 1.6605
l 1467 1468
v 9.4644918 23.904577 1.6605
v 9.4644918 23.904577 1.6605
l 1469 1470
v 2.2600842 35.923012 11.94451
v 2.2600842 35.923012 11.94451
l 1471 1472
v 2.3643479 37.580235 11.94451
v 2.3643479 37.580235 11.94451
l 1473 1474
v 4.5112491 35.710213 11.94451
v 4.5112491 35.710213 11.94451
l 1475 1476
v 4.7193646 37.35762 11.94451
v 4.7193646 37.35762 11.94451
l 1477 1478
v 6.7446098 35.356483 11.94451
v 6.7446098 35.356483 11.94451
l 1479 1480
v 8.9513531 34.863216 11.94451
v 8.9513531 34.863216 11.94451
l 1481 1482
v 7.0557566 36.987572 11.94451
v 7.0557566 36.987572 11.94451
l 1483 1484
v 9.3643026 36.47155 11.94451
v 9.3643026 36.47155 11.94451
l 1485 1486
v 10.946796 23.263126 1.6605
v 9.4644918 23.904577 1.6605
l 1487 1488
v 9.4644918 23.904577 1.6605
v 10.946796 23.263126 1.6605
l 1489 1490
v 10.946796 23.263126 1.6605
v 10.946796 23.263126 1.6605
l 1491 1492
v 10.946796 23.263126 1.6605
v 12.3859 22.529867 1.6605
l 1493 1494
v 12.3859 22.529867 1.6605
v 10.946796 23.263126 1.6605
l 1495 1496
v 12.3859 22.529867 1.6605
v 13.776121 21.707693 1.6605
l 1497 1498
v 13.776121 21.707693 1.6605
v 12.3859 22.529867 1.6605
l 1499 1500
v 12.3859 22.529867 1.6605
v 12.3859 22.529867 1.6605
l 1501 1502
v 13.776121 21.707693 1.6605
v 13.776121 21.707693 1.6605
l 1503 1504
v 15.111975 20.799849 1.6605
v 15.111975 20.799849 1.6605
l 1505 1506
v 13.776121 21.707693 1.6605
v 15.111975 20.799849 1.6605
l 1507 1508
v 15.111975 20.799849 1.6605
v 13.776121 21.707693 1.6605
l 1509 1510
v 11.122769 34.232365 11.94451
v 11.122769 34.232365 11.94451
l 1511 1512
v 13.250289 33.466408 11.94451
v 13.250289 33.466408 11.94451
l 1513 1514
v 13.86156 35.010303 11.94451
v 13.86156 35.010303 11.94451
l 1515 1516
v 11.635892 35.811592 11.94451
v 11.635892 35.811592 11.94451
l 1517 1518
v 15.325516 32.568378 11.94451
v 15.325516 32.568378 11.94451
l 1519 1520
v 16.032522 34.070843 11.94451
v 16.032522 34.070843 11.94451
l 1521 1522
v 17.34026 31.541815 11.94451
v 17.34026 31.541815 11.94451
l 1523 1524
v 19.28657 30.39077 11.94451
v 19.28657 30.39077 11.94451
l 1525 1526
v 18.140211 32.996922 11.94451
v 18.140211 32.996922 11.94451
l 1527 1528
v 25.710026 0 1.6605
v 25.659294 1.6143459 1.6605
l 1529 1530
v 25.659294 1.6143459 1.6605
v 25.557205 2.694329 1.7763568e-15
l 1531 1532
v 25.659294 1.6143459 1.6605
v 25.557205 2.694329 1.6605
l 1533 1534
v 25.507296 3.2223208 1.6605
v 25.557205 2.694329 1.6605
l 1535 1536
v 25.386456 3.98527 1.6605
v 25.254631 4.8175783 1.6605
l 1537 1538
v 25.507296 3.2223208 1.6605
v 25.507296 3.2223208 1.6605
l 1539 1540
v 25.507296 3.2223208 1.6605
v 25.386456 3.98527 1.6605
l 1541 1542
v 25.386456 3.98527 1.6605
v 25.507296 3.2223208 1.6605
l 1543 1544
v 24.902298 6.3938236 -3.4971812e-09
v 24.451689 7.9448352 1.6605
l 1545 1546
v 24.451689 7.9448352 1.6605
v 24.451689 7.9448352 1.6605
l 1547 1548
v 25.254631 4.8175783 1.6605
v 24.902298 6.3938236 1.6605
l 1549 1550
v 24.902298 6.3938236 1.6605
v 24.451689 7.9448352 1.6605
l 1551 1552
v 23.744215 9.8350677 1.7763568e-15
v 23.904577 9.4644918 1.6605
l 1553 1554
v 23.904577 9.4644918 1.6605
v 23.744215 9.8350677 1.6605
l 1555 1556
v 23.904577 9.4644918 1.6605
v 23.904577 9.4644918 1.6605
l 1557 1558
v 24.451689 7.9448352 1.6605
v 23.904577 9.4644918 1.6605
l 1559 1560
v 23.904577 9.4644918 1.6605
v 24.451689 7.9448352 1.6605
l 1561 1562
v 23.263126 10.946796 1.6605
v 23.744215 9.8350677 1.6605
l 1563 1564
v 21.707693 13.776121 1.6605
v 20.799849 15.111975 1.6605
l 1565 1566
v 20.799849 15.111975 1.6605
v 21.707693 13.776121 1.6605
l 1567 1568
v 20.799849 15.111975 1.6605
v 20.799849 15.111975 1.6605
l 1569 1570
v 23.263126 10.946796 1.6605
v 23.263126 10.946796 1.6605
l 1571 1572
v 23.263126 10.946796 1.6605
v 22.529867 12.3859 1.6605
l 1573 1574
v 22.529867 12.3859 1.6605
v 23.263126 10.946796 1.6605
l 1575 1576
v 22.529867 12.3859 1.6605
v 22.529867 12.3859 1.6605
l 1577 1578
v 21.707693 13.776121 1.6605
v 22.529867 12.3859 1.6605
l 1579 1580
v 22.529867 12.3859 1.6605
v 21.707693 13.776121 1.6605
l 1581 1582
v 21.707693 13.776121 1.6605
v 21.707693 13.776121 1.6605
l 1583 1584
v 19.809916 16.388187 1.6605
v 19.27586 16.993956 1.7763568e-15
l 1585 1586
v 19.809916 16.388187 1.6605
v 19.27586 16.993956 1.6605
l 1587 1588
v 20.799849 15.111975 1.6605
v 19.809916 16.388187 1.6605
l 1589 1590
v 18.741802 17.599724 1.6605
v 19.27586 16.993956 1.6605
l 1591 1592
v 35.923012 2.2600842 11.94451
v 35.923012 2.2600842 11.94451
l 1593 1594
v 37.580235 2.3643479 11.94451
v 37.580235 2.3643479 11.94451
l 1595 1596
v 35.710213 4.5112491 11.94451
v 35.710213 4.5112491 11.94451
l 1597 1598
v 37.35762 4.7193646 11.94451
v 37.35762 4.7193646 11.94451
l 1599 1600
v 35.356483 6.7446098 11.94451
v 35.356483 6.7446098 11.94451
l 1601 1602
v 34.863216 8.9513531 11.94451
v 34.863216 8.9513531 11.94451
l 1603 1604
v 36.987572 7.0557566 11.94451
v 36.987572 7.0557566 11.94451
l 1605 1606
v 36.47155 9.3643026 11.94451
v 36.47155 9.3643026 11.94451
l 1607 1608
v 32.568378 15.325516 11.94451
v 32.568378 15.325516 11.94451
l 1609 1610
v 30.39077 19.28657 11.94451
v 30.39077 19.28657 11.94451
l 1611 1612
v 31.541815 17.34026 11.94451
v 31.541815 17.34026 11.94451
l 1613 1614
v 32.996922 18.140211 11.94451
v 32.996922 18.140211 11.94451
l 1615 1616
v 31.792776 20.17631 11.94451
v 31.792776 20.17631 11.94451
l 1617 1618
v 34.232365 11.122769 11.94451
v 34.232365 11.122769 11.94451
l 1619 1620
v 33.466408 13.250289 11.94451
v 33.466408 13.250289 11.94451
l 1621 1622
v 35.010303 13.86156 11.94451
v 35.010303 13.86156 11.94451
l 1623 1624
v 35.811592 11.635892 11.94451
v 35.811592 11.635892 11.94451
l 1625 1626
v 34.070843 16.032522 11.94451
v 34.070843 16.032522 11.94451
l 1627 1628
v 21.156763 29.119787 11.94451
v 21.156763 29.119787 11.94451
l 1629 1630
v 22.943462 27.733883 11.94451
v 22.943462 27.733883 11.94451
l 1631 1632
v 22.132782 30.46316 11.94451
v 22.132782 30.46316 11.94451
l 1633 1634
v 24.001905 29.013319 11.94451
v 24.001905 29.013319 11.94451
l 1635 1636
v 26.238523 24.639614 11.94451
v 26.238523 24.639614 11.94451
l 1637 1638
v 27.733883 22.943462 11.94451
v 27.733883 22.943462 11.94451
l 1639 1640
v 27.448977 25.776304 11.94451
v 27.448977 25.776304 11.94451
l 1641 1642
v 24.639614 26.238523 11.94451
v 24.639614 26.238523 11.94451
l 1643 1644
v 25.776304 27.448977 11.94451
v 25.776304 27.448977 11.94451
l 1645 1646
v 20.17631 31.792776 11.94451
v 20.17631 31.792776 11.94451
l 1647 1648
v 29.119787 21.156763 11.94451
v 29.119787 21.156763 11.94451
l 1649 1650
v 29.013319 24.001905 11.94451
v 29.013319 24.001905 11.94451
l 1651 1652
v 30.46316 22.132782 11.94451
v 30.46316 22.132782 11.94451
l 1653 1654
