v -25.507296 3.2223208 11.94451
v -25.659294 1.6143459 11.94451
l 1 2
v -24.451689 7.9448352 11.94451
v -24.902298 6.3938236 11.94451
l 3 4
v 16.993956 19.27586 1.6605
v 16.993956 19.27586 11.94451
l 5 6
v 20.799849 15.111975 11.94451
v 19.809916 16.388187 11.94451
l 7 8
v 23.744215 9.8350677 9.3735075
v 23.744215 9.8350677 1.6605
l 9 10
v 16.388187 19.809916 11.94451
v 15.111975 20.799849 11.94451
l 11 12
v 23.744215 9.8350677 1.6605
v 23.904577 9.4644918 1.6605
l 13 14
v 25.507296 3.2223208 1.6605
v 25.659294 1.6143459 1.6605
l 15 16
v 25.254631 4.8175783 1.6605
v 25.507296 3.2223208 1.6605
l 17 18
