# Wavefront OBJ file written 2026-04-22T19:46:54
o erlenmeyerPotContent_edgeMesh

# points : 224
# lines  : 441

# <points count="224">
v -18.741802 -17.599724 1.6605
v -17.599724 -18.741802 1.6605
v -26.238523 -24.639614 11.94451
v -27.733883 -22.943462 11.94451
v -29.119787 -21.156763 11.94451
v -30.39077 -19.28657 11.94451
v -22.943462 -27.733883 11.94451
v -19.28657 -30.39077 11.94451
v -21.156763 -29.119787 11.94451
v -17.34026 -31.541815 11.94451
v -24.639614 -26.238523 11.94451
v -22.529867 -12.3859 1.6605
v -23.263126 -10.946796 1.6605
v -23.904577 -9.4644918 1.6605
v -24.451689 -7.9448352 1.6605
v -20.799849 -15.111975 1.6605
v -19.809916 -16.388187 1.6605
v -21.707693 -13.776121 1.6605
v -24.902298 -6.3938236 1.6605
v -25.254631 -4.8175783 1.6605
v -25.507296 -3.2223208 1.6605
v -25.659294 -1.6143459 1.6605
v -25.710026 0 1.6605
v -31.541815 -17.34026 11.94451
v -32.568378 -15.325516 11.94451
v -33.466408 -13.250289 11.94451
v -34.232365 -11.122769 11.94451
v -34.863216 -8.9513531 11.94451
v -35.356483 -6.7446098 11.94451
v -35.710213 -4.5112491 11.94451
v -35.923012 -2.2600842 11.94451
v -35.994038 0 11.94451
v -16.388187 -19.809916 1.6605
v -15.111975 -20.799849 1.6605
v -13.776121 -21.707693 1.6605
v -12.3859 -22.529867 1.6605
v -10.946796 -23.263126 1.6605
v -9.4644918 -23.904577 1.6605
v -7.9448352 -24.451689 1.6605
v -6.3938236 -24.902298 1.6605
v -4.8175783 -25.254631 1.6605
v -3.2223208 -25.507296 1.6605
v -1.6143459 -25.659294 1.6605
v 0 -25.710026 1.6605
v -15.325516 -32.568378 11.94451
v -13.250289 -33.466408 11.94451
v -11.122769 -34.232365 11.94451
v -8.9513531 -34.863216 11.94451
v -6.7446098 -35.356483 11.94451
v -4.5112491 -35.710213 11.94451
v -2.2600842 -35.923012 11.94451
v 0 -35.994038 11.94451
v -25.659294 1.6143459 1.6605
v -25.507296 3.2223208 1.6605
v -25.279083 4.6631989 1.6605
v -25.254631 4.8175783 1.6605
v -25.659294 1.6143459 11.94451
v -25.507296 3.2223208 11.94451
v -25.279083 4.6631989 11.94451
v -25.034424 5.8027315 1.6605
v -24.902298 6.3938236 1.6605
v -24.451689 7.9448352 1.6605
v -23.904577 9.4644918 1.6605
v -24.902298 6.3938236 11.94451
v -24.451689 7.9448352 11.94451
v -23.263126 10.946796 1.6605
v -22.529867 12.3859 1.6605
v -21.707693 13.776121 1.6605
v -20.799849 15.111975 1.6605
v -19.809916 16.388187 1.6605
v -18.741802 17.599724 1.6605
v -35.923012 2.2600842 11.94451
v -35.710213 4.5112491 11.94451
v -35.356483 6.7446098 11.94451
v -34.863216 8.9513531 11.94451
v -34.232365 11.122769 11.94451
v -33.466408 13.250289 11.94451
v -32.568378 15.325516 11.94451
v -31.541815 17.34026 11.94451
v -17.599724 18.741802 1.6605
v -30.39077 19.28657 11.94451
v -29.119787 21.156763 11.94451
v -27.733883 22.943462 11.94451
v -26.238523 24.639614 11.94451
v -24.639614 26.238523 11.94451
v -22.943462 27.733883 11.94451
v -21.156763 29.119787 11.94451
v -19.28657 30.39077 11.94451
v -16.388187 19.809916 1.6605
v -15.111975 20.799849 1.6605
v -13.776121 21.707693 1.6605
v -12.3859 22.529867 1.6605
v -10.946796 23.263126 1.6605
v -9.4644918 23.904577 1.6605
v -7.9448352 24.451689 1.6605
v -6.3938236 24.902298 1.6605
v -4.8175783 25.254631 1.6605
v -3.2223208 25.507296 1.6605
v -1.6143459 25.659294 1.6605
v 0 25.710026 1.6605
v -17.34026 31.541815 11.94451
v -15.325516 32.568378 11.94451
v -13.250289 33.466408 11.94451
v -11.122769 34.232365 11.94451
v -8.9513531 34.863216 11.94451
v -6.7446098 35.356483 11.94451
v -4.5112491 35.710213 11.94451
v -2.2600842 35.923012 11.94451
v 0 35.994038 11.94451
v 1.6143459 -25.659294 1.6605
v 3.2223208 -25.507296 1.6605
v 4.8175783 -25.254631 1.6605
v 6.3938236 -24.902298 1.6605
v 7.9448352 -24.451689 1.6605
v 9.4644918 -23.904577 1.6605
v 10.946796 -23.263126 1.6605
v 12.3859 -22.529867 1.6605
v 13.776121 -21.707693 1.6605
v 15.111975 -20.799849 1.6605
v 16.388187 -19.809916 1.6605
v 17.599724 -18.741802 1.6605
v 2.2600842 -35.923012 11.94451
v 4.5112491 -35.710213 11.94451
v 6.7446098 -35.356483 11.94451
v 8.9513531 -34.863216 11.94451
v 11.122769 -34.232365 11.94451
v 13.250289 -33.466408 11.94451
v 15.325516 -32.568378 11.94451
v 17.34026 -31.541815 11.94451
v 19.28657 -30.39077 11.94451
v 18.741802 -17.599724 1.6605
v 21.156763 -29.119787 11.94451
v 22.943462 -27.733883 11.94451
v 24.639614 -26.238523 11.94451
v 26.238523 -24.639614 11.94451
v 27.733883 -22.943462 11.94451
v 29.119787 -21.156763 11.94451
v 30.39077 -19.28657 11.94451
v 31.541815 -17.34026 11.94451
v 19.809916 -16.388187 1.6605
v 20.799849 -15.111975 1.6605
v 21.707693 -13.776121 1.6605
v 22.529867 -12.3859 1.6605
v 23.263126 -10.946796 1.6605
v 23.904577 -9.4644918 1.6605
v 24.451689 -7.9448352 1.6605
v 24.902298 -6.3938236 1.6605
v 25.254631 -4.8175783 1.6605
v 25.507296 -3.2223208 1.6605
v 25.659294 -1.6143459 1.6605
v 25.710026 0 1.6605
v 32.568378 -15.325516 11.94451
v 33.466408 -13.250289 11.94451
v 34.232365 -11.122769 11.94451
v 34.863216 -8.9513531 11.94451
v 35.356483 -6.7446098 11.94451
v 35.710213 -4.5112491 11.94451
v 35.923012 -2.2600842 11.94451
v 35.994038 0 11.94451
v 1.6143459 25.659294 1.6605
v 3.2223208 25.507296 1.6605
v 4.8175783 25.254631 1.6605
v 6.3938236 24.902298 1.6605
v 7.9448352 24.451689 1.6605
v 9.4644918 23.904577 1.6605
v 12.3859 22.529867 1.6605
v 13.776121 21.707693 1.6605
v 10.946796 23.263126 1.6605
v 15.111975 20.799849 1.6605
v 16.388187 19.809916 1.6605
v 16.993956 19.27586 1.6605
v 17.599724 18.741802 1.6605
v 16.388187 19.809916 11.94451
v 16.993956 19.27586 11.94451
v 2.2600842 35.923012 11.94451
v 4.5112491 35.710213 11.94451
v 6.7446098 35.356483 11.94451
v 8.9513531 34.863216 11.94451
v 11.122769 34.232365 11.94451
v 13.250289 33.466408 11.94451
v 17.34026 31.541815 11.94451
v 15.325516 32.568378 11.94451
v 25.659294 1.6143459 1.6605
v 25.557205 2.694329 1.6605
v 25.507296 3.2223208 1.6605
v 25.386456 3.98527 1.6605
v 25.710026 0 11.94451
v 25.659294 1.6143459 11.94451
v 25.386456 3.98527 11.94451
v 25.254631 4.8175783 1.6605
v 24.451689 7.9448352 1.6605
v 24.902298 6.3938236 1.6605
v 25.254631 4.8175783 11.94451
v 24.902298 6.3938236 11.94451
v 21.707693 13.776121 1.6605
v 22.529867 12.3859 1.6605
v 18.741802 17.599724 1.6605
v 19.27586 16.993956 1.6605
v 19.809916 16.388187 1.6605
v 20.799849 15.111975 1.6605
v 19.809916 16.388187 11.94451
v 20.799849 15.111975 11.94451
v 23.904577 9.4644918 1.6605
v 23.263126 10.946796 1.6605
v 35.923012 2.2600842 11.94451
v 35.710213 4.5112491 11.94451
v 35.356483 6.7446098 11.94451
v 34.863216 8.9513531 11.94451
v 30.39077 19.28657 11.94451
v 31.541815 17.34026 11.94451
v 33.466408 13.250289 11.94451
v 34.232365 11.122769 11.94451
v 32.568378 15.325516 11.94451
v 22.943462 27.733883 11.94451
v 24.639614 26.238523 11.94451
v 26.238523 24.639614 11.94451
v 19.28657 30.39077 11.94451
v 21.156763 29.119787 11.94451
v 27.733883 22.943462 11.94451
v 29.119787 21.156763 11.94451
v 23.744215 9.8350677 9.3735075
v 23.744215 9.8350677 1.6605
v 23.904577 9.4644918 11.94451
v 15.111975 20.799849 11.94451
# </points>

# <edges count="441">
l 223 221
l 55 59
l 64 60
l 62 65
l 59 58
l 224 169
l 174 173
l 151 187
l 188 184
l 186 189
l 187 188
l 189 193
l 193 194
l 201 198
l 200 202
l 203 223
l 58 57
l 65 64
l 171 174
l 202 201
l 221 222
l 173 224
l 222 203
l 185 183
l 190 185
l 1 2
l 3 4
l 5 6
l 4 5
l 8 9
l 9 7
l 10 8
l 11 3
l 7 11
l 13 12
l 14 13
l 15 14
l 16 17
l 18 16
l 17 1
l 12 18
l 19 15
l 20 19
l 21 20
l 22 21
l 23 22
l 24 25
l 25 26
l 26 27
l 27 28
l 6 24
l 28 29
l 29 30
l 30 31
l 31 32
l 2 33
l 33 34
l 34 35
l 36 37
l 37 38
l 35 36
l 39 40
l 38 39
l 40 41
l 41 42
l 42 43
l 43 44
l 45 10
l 46 45
l 47 46
l 48 47
l 49 48
l 50 49
l 51 50
l 52 51
l 53 23
l 54 53
l 55 54
l 56 55
l 53 57
l 57 23
l 58 53
l 54 58
l 59 54
l 60 56
l 61 60
l 62 61
l 63 62
l 61 64
l 65 61
l 66 63
l 67 66
l 68 67
l 69 68
l 70 69
l 71 70
l 32 72
l 72 73
l 73 74
l 74 75
l 75 76
l 76 77
l 77 78
l 78 79
l 80 71
l 79 81
l 81 82
l 82 83
l 83 84
l 84 85
l 85 86
l 86 87
l 87 88
l 89 80
l 90 89
l 91 90
l 92 91
l 93 92
l 94 93
l 95 94
l 96 95
l 97 96
l 98 97
l 99 98
l 100 99
l 88 101
l 101 102
l 102 103
l 103 104
l 104 105
l 105 106
l 106 107
l 107 108
l 108 109
l 44 110
l 110 111
l 111 112
l 112 113
l 113 114
l 114 115
l 115 116
l 116 117
l 117 118
l 118 119
l 119 120
l 120 121
l 122 52
l 123 122
l 124 123
l 125 124
l 126 125
l 127 126
l 128 127
l 129 128
l 130 129
l 121 131
l 132 130
l 133 132
l 134 133
l 135 134
l 136 135
l 137 136
l 138 137
l 139 138
l 131 140
l 140 141
l 141 142
l 142 143
l 143 144
l 144 145
l 145 146
l 146 147
l 147 148
l 148 149
l 149 150
l 150 151
l 152 139
l 153 152
l 154 153
l 155 154
l 156 155
l 157 156
l 158 157
l 159 158
l 160 100
l 161 160
l 162 161
l 163 162
l 165 164
l 164 163
l 167 166
l 168 165
l 166 168
l 169 167
l 170 169
l 171 170
l 172 171
l 170 173
l 174 170
l 109 175
l 175 176
l 176 177
l 177 178
l 178 179
l 179 180
l 180 182
l 182 181
l 151 183
l 183 184
l 184 185
l 185 186
l 187 183
l 183 188
l 190 186
l 189 190
l 190 192
l 192 191
l 190 193
l 193 192
l 192 194
l 194 191
l 196 195
l 198 197
l 199 198
l 195 200
l 200 199
l 199 201
l 202 199
l 191 203
l 203 204
l 204 196
l 205 159
l 206 205
l 207 206
l 208 207
l 209 210
l 212 208
l 211 212
l 213 211
l 210 213
l 197 172
l 214 215
l 215 216
l 181 217
l 218 214
l 217 218
l 219 220
l 220 209
l 216 219
l 12 12
l 13 13
l 14 14
l 18 18
l 16 16
l 17 17
l 1 1
l 19 19
l 20 20
l 15 15
l 21 21
l 22 22
l 23 23
l 2 2
l 33 33
l 34 34
l 35 35
l 36 36
l 37 37
l 38 38
l 40 40
l 39 39
l 41 41
l 42 42
l 43 43
l 44 44
l 56 56
l 62 62
l 63 63
l 66 66
l 67 67
l 68 68
l 69 69
l 70 70
l 71 71
l 80 80
l 89 89
l 90 90
l 91 91
l 92 92
l 93 93
l 94 94
l 95 95
l 96 96
l 97 97
l 98 98
l 99 99
l 100 100
l 110 110
l 111 111
l 112 112
l 113 113
l 114 114
l 115 115
l 116 116
l 117 117
l 118 118
l 119 119
l 120 120
l 121 121
l 131 131
l 140 140
l 141 141
l 142 142
l 143 143
l 144 144
l 145 145
l 146 146
l 147 147
l 148 148
l 149 149
l 150 150
l 151 151
l 160 160
l 161 161
l 162 162
l 163 163
l 164 164
l 165 165
l 166 166
l 167 167
l 168 168
l 169 169
l 172 172
l 185 185
l 203 203
l 191 191
l 196 196
l 195 195
l 197 197
l 200 200
l 204 204
l 4 4
l 5 5
l 6 6
l 7 7
l 9 9
l 8 8
l 3 3
l 11 11
l 25 25
l 24 24
l 26 26
l 27 27
l 28 28
l 29 29
l 30 30
l 31 31
l 32 32
l 10 10
l 45 45
l 46 46
l 47 47
l 48 48
l 49 49
l 50 50
l 51 51
l 52 52
l 72 72
l 73 73
l 74 74
l 75 75
l 76 76
l 77 77
l 78 78
l 79 79
l 81 81
l 82 82
l 83 83
l 84 84
l 85 85
l 86 86
l 87 87
l 88 88
l 101 101
l 102 102
l 103 103
l 104 104
l 105 105
l 106 106
l 107 107
l 108 108
l 109 109
l 122 122
l 123 123
l 124 124
l 125 125
l 126 126
l 127 127
l 128 128
l 129 129
l 130 130
l 132 132
l 133 133
l 134 134
l 135 135
l 136 136
l 137 137
l 138 138
l 139 139
l 152 152
l 153 153
l 154 154
l 155 155
l 156 156
l 157 157
l 158 158
l 159 159
l 175 175
l 176 176
l 177 177
l 178 178
l 179 179
l 180 180
l 181 181
l 182 182
l 205 205
l 206 206
l 207 207
l 208 208
l 210 210
l 211 211
l 212 212
l 213 213
l 215 215
l 216 216
l 217 217
l 218 218
l 214 214
l 220 220
l 219 219
l 209 209
# </edges>
